<svg xmlns="http://www.w3.org/2000/svg" viewBox="0 0 1920 1080"><defs><style>.cls-1,.cls-26,.cls-27,.cls-28,.cls-29,.cls-30,.cls-31,.cls-32,.cls-33,.cls-34,.cls-35,.cls-36,.cls-37,.cls-38,.cls-39{fill:#f36;}.cls-103,.cls-104,.cls-105,.cls-106,.cls-107,.cls-108,.cls-109,.cls-110,.cls-111,.cls-112,.cls-113,.cls-114,.cls-2,.cls-40,.cls-41,.cls-42,.cls-43,.cls-44,.cls-45,.cls-46,.cls-47,.cls-48,.cls-49,.cls-50,.cls-51,.cls-52,.cls-53,.cls-58,.cls-59,.cls-60,.cls-61,.cls-62,.cls-63,.cls-64,.cls-65,.cls-66,.cls-67{fill:#f66;}.cls-100,.cls-101,.cls-115,.cls-116,.cls-117,.cls-118,.cls-119,.cls-120,.cls-121,.cls-122,.cls-123,.cls-124,.cls-125,.cls-126,.cls-127,.cls-128,.cls-129,.cls-130,.cls-131,.cls-132,.cls-133,.cls-134,.cls-135,.cls-136,.cls-137,.cls-138,.cls-139,.cls-140,.cls-141,.cls-142,.cls-143,.cls-144,.cls-3,.cls-68,.cls-69,.cls-70,.cls-71,.cls-72,.cls-73,.cls-74,.cls-75,.cls-76,.cls-77,.cls-78,.cls-79,.cls-80,.cls-84,.cls-85,.cls-86,.cls-87,.cls-88,.cls-89,.cls-90,.cls-91,.cls-92,.cls-93,.cls-94,.cls-95,.cls-96,.cls-97,.cls-98,.cls-99{fill:#69f;}.cls-4{fill:#3f9;}.cls-5,.cls-6{fill:none;stroke-miterlimit:10;}.cls-5{stroke:#f38;stroke-width:5px;}.cls-6{stroke:#69f;stroke-width:3px;}.cls-7,.cls-8{fill:#fff;}.cls-8{font-size:32px;font-family:FiraCode-Bold, Fira Code;font-weight:700;}.cls-10,.cls-11,.cls-12,.cls-13,.cls-14,.cls-15,.cls-16,.cls-17,.cls-18,.cls-19,.cls-20,.cls-21,.cls-22,.cls-23,.cls-24,.cls-25,.cls-9{fill:#fc0;}.cls-26,.cls-40,.cls-9{letter-spacing:-0.08em;}.cls-10{letter-spacing:-0.02em;}.cls-11{letter-spacing:-0.01em;}.cls-12{letter-spacing:-0.01em;}.cls-13{letter-spacing:-0.03em;}.cls-14{letter-spacing:0.01em;}.cls-15{letter-spacing:-0.01em;}.cls-16{letter-spacing:-0.04em;}.cls-17{letter-spacing:-0.04em;}.cls-18{letter-spacing:-0.01em;}.cls-19,.cls-34{letter-spacing:-0.06em;}.cls-20,.cls-39,.cls-53,.cls-80{letter-spacing:-0.16em;}.cls-22{letter-spacing:-0.03em;}.cls-23{letter-spacing:-0.02em;}.cls-24{letter-spacing:-0.01em;}.cls-25{letter-spacing:-0.11em;}.cls-27,.cls-97{letter-spacing:-0.03em;}.cls-28{letter-spacing:-0.02em;}.cls-29,.cls-45{letter-spacing:-0.02em;}.cls-30{letter-spacing:-0.06em;}.cls-129,.cls-31{letter-spacing:-0.04em;}.cls-32{letter-spacing:-0.06em;}.cls-33,.cls-43{letter-spacing:-0.03em;}.cls-122,.cls-35{letter-spacing:-0.05em;}.cls-36,.cls-89{letter-spacing:-0.05em;}.cls-37{letter-spacing:-0.06em;}.cls-38{letter-spacing:-0.1em;}.cls-41{letter-spacing:-0.04em;}.cls-42,.cls-69{letter-spacing:-0.04em;}.cls-44{letter-spacing:-0.02em;}.cls-46{letter-spacing:-0.06em;}.cls-47{letter-spacing:-0.05em;}.cls-48{letter-spacing:-0.02em;}.cls-49{letter-spacing:-0.04em;}.cls-50{letter-spacing:-0.03em;}.cls-51{letter-spacing:-0.05em;}.cls-52{letter-spacing:-0.12em;}.cls-54{letter-spacing:-0.01em;}.cls-55{letter-spacing:-0.08em;}.cls-56{letter-spacing:-0.11em;}.cls-57{letter-spacing:-0.12em;}.cls-58{letter-spacing:-0.1em;}.cls-59{letter-spacing:-0.05em;}.cls-139,.cls-60{letter-spacing:-0.06em;}.cls-61{letter-spacing:-0.05em;}.cls-144,.cls-62{letter-spacing:-0.05em;}.cls-63,.cls-74{letter-spacing:-0.03em;}.cls-142,.cls-64{letter-spacing:-0.05em;}.cls-65{letter-spacing:-0.06em;}.cls-66{letter-spacing:-0.04em;}.cls-135,.cls-67{letter-spacing:-0.05em;}.cls-68{letter-spacing:-0.12em;}.cls-70{letter-spacing:-0.06em;}.cls-71{letter-spacing:-0.02em;}.cls-111,.cls-72{letter-spacing:-0.03em;}.cls-73{letter-spacing:-0.03em;}.cls-75{letter-spacing:-0.06em;}.cls-76{letter-spacing:-0.06em;}.cls-77{letter-spacing:-0.02em;}.cls-78{letter-spacing:-0.01em;}.cls-79{letter-spacing:-0.08em;}.cls-81{letter-spacing:-0.01em;}.cls-82{letter-spacing:-0.11em;}.cls-83{letter-spacing:-0.11em;}.cls-84{letter-spacing:-0.08em;}.cls-85{letter-spacing:-0.02em;}.cls-86{letter-spacing:-0.03em;}.cls-87{letter-spacing:-0.05em;}.cls-88{letter-spacing:-0.07em;}.cls-90{letter-spacing:-0.02em;}.cls-91{letter-spacing:-0.08em;}.cls-103,.cls-92{letter-spacing:-0.06em;}.cls-93{letter-spacing:-0.07em;}.cls-94{letter-spacing:-0.04em;}.cls-95{letter-spacing:-0.02em;}.cls-96{letter-spacing:-0.08em;}.cls-98{letter-spacing:-0.03em;}.cls-99{letter-spacing:-0.05em;}.cls-100{letter-spacing:-0.04em;}.cls-101{letter-spacing:-0.11em;}.cls-102{letter-spacing:-0.2em;}.cls-104{letter-spacing:-0.02em;}.cls-105{letter-spacing:-0.03em;}.cls-106{letter-spacing:-0.01em;}.cls-107{letter-spacing:-0.03em;}.cls-108{letter-spacing:-0.06em;}.cls-109{letter-spacing:-0.04em;}.cls-110,.cls-116{letter-spacing:-0.04em;}.cls-112,.cls-117{letter-spacing:-0.02em;}.cls-113{letter-spacing:-0.02em;}.cls-114{letter-spacing:-0.05em;}.cls-115{letter-spacing:-0.06em;}.cls-118{letter-spacing:-0.06em;}.cls-119{letter-spacing:-0.06em;}.cls-120{letter-spacing:-0.09em;}.cls-121{letter-spacing:-0.05em;}.cls-123{letter-spacing:-0.11em;}.cls-124{letter-spacing:-0.07em;}.cls-125{letter-spacing:-0.07em;}.cls-126{letter-spacing:-0.08em;}.cls-127{letter-spacing:-0.05em;}.cls-128{letter-spacing:-0.07em;}.cls-130{letter-spacing:-0.04em;}.cls-131{letter-spacing:-0.05em;}.cls-132{letter-spacing:-0.07em;}.cls-133{letter-spacing:-0.07em;}.cls-134{letter-spacing:-0.05em;}.cls-136{letter-spacing:-0.09em;}.cls-137{letter-spacing:-0.04em;}.cls-138{letter-spacing:-0.04em;}.cls-140{letter-spacing:-0.05em;}.cls-141{letter-spacing:-0.06em;}.cls-143{letter-spacing:-0.06em;}</style></defs><g id="Layer_2" data-name="Layer 2"><circle class="cls-1" cx="455" cy="540" r="40"/><path class="cls-1" d="M455,495a45,45,0,1,1-45,45,45.05,45.05,0,0,1,45-45m0-5a50,50,0,1,0,50,50,50.06,50.06,0,0,0-50-50Z"/><circle class="cls-2" cx="585" cy="350" r="40"/><path class="cls-2" d="M585,305a45,45,0,1,1-45,45,45.05,45.05,0,0,1,45-45m0-5a50,50,0,1,0,50,50,50.06,50.06,0,0,0-50-50Z"/><circle class="cls-3" cx="783" cy="863" r="40"/><path class="cls-3" d="M783,818a45,45,0,1,1-45,45,45.05,45.05,0,0,1,45-45m0-5a50,50,0,1,0,50,50,50.06,50.06,0,0,0-50-50Z"/><circle class="cls-3" cx="928" cy="460" r="40"/><path class="cls-3" d="M928,415a45,45,0,1,1-45,45,45.05,45.05,0,0,1,45-45m0-5a50,50,0,1,0,50,50,50.06,50.06,0,0,0-50-50Z"/><circle class="cls-2" cx="344" cy="420" r="40"/><path class="cls-2" d="M344,375a45,45,0,1,1-45,45,45.05,45.05,0,0,1,45-45m0-5a50,50,0,1,0,50,50,50.06,50.06,0,0,0-50-50Z"/><circle class="cls-2" cx="384" cy="656" r="40"/><path class="cls-2" d="M384,611a45,45,0,1,1-45,45,45.05,45.05,0,0,1,45-45m0-5a50,50,0,1,0,50,50,50.06,50.06,0,0,0-50-50Z"/><circle class="cls-3" cx="196" cy="823" r="40"/><path class="cls-3" d="M196,778a45,45,0,1,1-45,45,45.05,45.05,0,0,1,45-45m0-5a50,50,0,1,0,50,50,50.06,50.06,0,0,0-50-50Z"/><circle class="cls-3" cx="131" cy="199" r="40"/><path class="cls-3" d="M131,154a45,45,0,1,1-45,45,45.05,45.05,0,0,1,45-45m0-5a50,50,0,1,0,50,50,50.06,50.06,0,0,0-50-50Z"/><circle class="cls-4" cx="1222" cy="983" r="40"/><path class="cls-4" d="M1222,938a45,45,0,1,1-45,45,45.05,45.05,0,0,1,45-45m0-5a50,50,0,1,0,50,50,50.06,50.06,0,0,0-50-50Z"/><circle class="cls-4" cx="1800" cy="389" r="40"/><path class="cls-4" d="M1800,344a45,45,0,1,1-45,45,45.05,45.05,0,0,1,45-45m0-5a50,50,0,1,0,50,50,50.06,50.06,0,0,0-50-50Z"/><circle class="cls-3" cx="863" cy="132" r="40"/><path class="cls-3" d="M863,87a45,45,0,1,1-45,45,45.05,45.05,0,0,1,45-45m0-5a50,50,0,1,0,50,50,50.06,50.06,0,0,0-50-50Z"/><circle class="cls-3" cx="545" cy="964" r="40"/><path class="cls-3" d="M545,919a45,45,0,1,1-45,45,45.05,45.05,0,0,1,45-45m0-5a50,50,0,1,0,50,50,50.06,50.06,0,0,0-50-50Z"/></g><g id="Layer_1" data-name="Layer 1"><line class="cls-5" x1="479.88" y1="487.02" x2="496.16" y2="498"/><line class="cls-5" x1="485.28" y1="479.08" x2="501.56" y2="490.06"/><line class="cls-5" x1="490.67" y1="471.13" x2="506.95" y2="482.11"/><line class="cls-5" x1="496.07" y1="463.19" x2="512.35" y2="474.17"/><line class="cls-5" x1="501.46" y1="455.24" x2="517.74" y2="466.22"/><line class="cls-5" x1="506.86" y1="447.29" x2="523.14" y2="458.28"/><line class="cls-5" x1="512.26" y1="439.35" x2="528.54" y2="450.33"/><line class="cls-5" x1="517.65" y1="431.4" x2="533.93" y2="442.39"/><line class="cls-5" x1="523.05" y1="423.46" x2="539.33" y2="434.44"/><line class="cls-5" x1="528.44" y1="415.51" x2="544.72" y2="426.5"/><line class="cls-5" x1="533.84" y1="407.57" x2="550.12" y2="418.55"/><line class="cls-5" x1="539.23" y1="399.62" x2="555.51" y2="410.6"/><line class="cls-5" x1="544.63" y1="391.68" x2="560.91" y2="402.66"/><line class="cls-5" x1="389.12" y1="453.06" x2="374.99" y2="466.7"/><line class="cls-5" x1="396.34" y1="460.64" x2="382.21" y2="474.28"/><line class="cls-5" x1="403.56" y1="468.22" x2="389.43" y2="481.86"/><line class="cls-5" x1="410.78" y1="475.8" x2="396.65" y2="489.44"/><line class="cls-5" x1="418" y1="483.38" x2="403.87" y2="497.02"/><line class="cls-5" x1="425.22" y1="490.96" x2="411.09" y2="504.6"/><line class="cls-5" x1="435.22" y1="591.88" x2="418.39" y2="581.77"/><line class="cls-5" x1="430.4" y1="599.68" x2="413.57" y2="589.56"/><line class="cls-5" x1="425.58" y1="607.47" x2="408.74" y2="597.35"/><line class="cls-5" x1="420.75" y1="615.26" x2="403.92" y2="605.15"/><line class="cls-6" x1="630.49" y1="307.34" x2="639.61" y2="318.78"/><line class="cls-6" x1="638.17" y1="301.23" x2="647.29" y2="312.66"/><line class="cls-6" x1="645.85" y1="295.11" x2="654.98" y2="306.54"/><line class="cls-6" x1="653.54" y1="288.99" x2="662.66" y2="300.43"/><line class="cls-6" x1="661.22" y1="282.88" x2="670.34" y2="294.31"/><line class="cls-6" x1="668.9" y1="276.76" x2="678.03" y2="288.19"/><line class="cls-6" x1="676.59" y1="270.64" x2="685.71" y2="282.08"/><line class="cls-6" x1="684.27" y1="264.53" x2="693.4" y2="275.96"/><line class="cls-6" x1="691.96" y1="258.41" x2="701.08" y2="269.85"/><line class="cls-6" x1="699.64" y1="252.29" x2="708.76" y2="263.73"/><line class="cls-6" x1="707.32" y1="246.18" x2="716.45" y2="257.61"/><line class="cls-6" x1="715.01" y1="240.06" x2="724.13" y2="251.5"/><line class="cls-6" x1="722.69" y1="233.95" x2="731.81" y2="245.38"/><line class="cls-6" x1="730.37" y1="227.83" x2="739.5" y2="239.26"/><line class="cls-6" x1="738.06" y1="221.71" x2="747.18" y2="233.15"/><line class="cls-6" x1="745.74" y1="215.6" x2="754.86" y2="227.03"/><line class="cls-6" x1="753.42" y1="209.48" x2="762.55" y2="220.91"/><line class="cls-6" x1="761.11" y1="203.36" x2="770.23" y2="214.8"/><line class="cls-6" x1="768.79" y1="197.25" x2="777.92" y2="208.68"/><line class="cls-6" x1="776.48" y1="191.13" x2="785.6" y2="202.56"/><line class="cls-6" x1="784.16" y1="185.01" x2="793.28" y2="196.45"/><line class="cls-6" x1="791.84" y1="178.9" x2="800.97" y2="190.33"/><line class="cls-6" x1="799.53" y1="172.78" x2="808.65" y2="184.21"/><line class="cls-6" x1="807.21" y1="166.66" x2="816.33" y2="178.1"/><line class="cls-6" x1="814.89" y1="160.55" x2="824.02" y2="171.98"/><line class="cls-6" x1="647.66" y1="362.09" x2="642.97" y2="375.95"/><line class="cls-6" x1="657.19" y1="365.33" x2="652.5" y2="379.19"/><line class="cls-6" x1="666.72" y1="368.57" x2="662.03" y2="382.42"/><line class="cls-6" x1="676.26" y1="371.81" x2="671.56" y2="385.66"/><line class="cls-6" x1="685.79" y1="375.05" x2="681.1" y2="388.9"/><line class="cls-6" x1="695.32" y1="378.29" x2="690.63" y2="392.14"/><line class="cls-6" x1="704.85" y1="381.53" x2="700.16" y2="395.38"/><line class="cls-6" x1="714.38" y1="384.76" x2="709.69" y2="398.62"/><line class="cls-6" x1="723.91" y1="388" x2="719.22" y2="401.86"/><line class="cls-6" x1="733.44" y1="391.24" x2="728.75" y2="405.1"/><line class="cls-6" x1="742.97" y1="394.48" x2="738.28" y2="408.34"/><line class="cls-6" x1="752.51" y1="397.72" x2="747.81" y2="411.58"/><line class="cls-6" x1="762.04" y1="400.96" x2="757.35" y2="414.82"/><line class="cls-6" x1="771.57" y1="404.2" x2="766.88" y2="418.05"/><line class="cls-6" x1="781.1" y1="407.44" x2="776.41" y2="421.29"/><line class="cls-6" x1="790.63" y1="410.68" x2="785.94" y2="424.53"/><line class="cls-6" x1="800.16" y1="413.92" x2="795.47" y2="427.77"/><line class="cls-6" x1="809.69" y1="417.16" x2="805" y2="431.01"/><line class="cls-6" x1="819.22" y1="420.39" x2="814.53" y2="434.25"/><line class="cls-6" x1="828.76" y1="423.63" x2="824.06" y2="437.49"/><line class="cls-6" x1="838.29" y1="426.87" x2="833.6" y2="440.73"/><line class="cls-6" x1="847.82" y1="430.11" x2="843.13" y2="443.97"/><line class="cls-6" x1="857.35" y1="433.35" x2="852.66" y2="447.21"/><line class="cls-6" x1="866.88" y1="436.59" x2="862.19" y2="450.45"/><line class="cls-6" x1="876.41" y1="439.83" x2="871.72" y2="453.69"/><line class="cls-6" x1="415.28" y1="702.29" x2="402.36" y2="709.17"/><line class="cls-6" x1="419.91" y1="711.01" x2="406.99" y2="717.89"/><line class="cls-6" x1="424.53" y1="719.73" x2="411.62" y2="726.61"/><line class="cls-6" x1="429.16" y1="728.45" x2="416.25" y2="735.32"/><line class="cls-6" x1="433.79" y1="737.17" x2="420.88" y2="744.04"/><line class="cls-6" x1="438.42" y1="745.89" x2="425.51" y2="752.76"/><line class="cls-6" x1="443.05" y1="754.61" x2="430.14" y2="761.48"/><line class="cls-6" x1="447.68" y1="763.33" x2="434.76" y2="770.2"/><line class="cls-6" x1="452.31" y1="772.05" x2="439.39" y2="778.92"/><line class="cls-6" x1="456.93" y1="780.76" x2="444.02" y2="787.64"/><line class="cls-6" x1="461.56" y1="789.48" x2="448.65" y2="796.36"/><line class="cls-6" x1="466.19" y1="798.2" x2="453.28" y2="805.08"/><line class="cls-6" x1="470.82" y1="806.92" x2="457.91" y2="813.79"/><line class="cls-6" x1="475.45" y1="815.64" x2="462.54" y2="822.51"/><line class="cls-6" x1="480.08" y1="824.36" x2="467.17" y2="831.23"/><line class="cls-6" x1="484.71" y1="833.08" x2="471.79" y2="839.95"/><line class="cls-6" x1="489.34" y1="841.8" x2="476.42" y2="848.67"/><line class="cls-6" x1="493.96" y1="850.52" x2="481.05" y2="857.39"/><line class="cls-6" x1="498.59" y1="859.23" x2="485.68" y2="866.11"/><line class="cls-6" x1="503.22" y1="867.95" x2="490.31" y2="874.83"/><line class="cls-6" x1="507.85" y1="876.67" x2="494.94" y2="883.55"/><line class="cls-6" x1="512.48" y1="885.39" x2="499.57" y2="892.26"/><line class="cls-6" x1="517.11" y1="894.11" x2="504.19" y2="900.98"/><line class="cls-6" x1="521.74" y1="902.83" x2="508.82" y2="909.7"/><line class="cls-6" x1="526.36" y1="911.55" x2="513.45" y2="918.42"/><line class="cls-6" x1="593.55" y1="934.16" x2="599.31" y2="947.6"/><line class="cls-6" x1="602.61" y1="930.29" x2="608.37" y2="943.74"/><line class="cls-6" x1="611.68" y1="926.43" x2="617.44" y2="939.88"/><line class="cls-6" x1="620.74" y1="922.57" x2="626.5" y2="936.01"/><line class="cls-6" x1="629.8" y1="918.7" x2="635.57" y2="932.15"/><line class="cls-6" x1="638.87" y1="914.84" x2="644.63" y2="928.29"/><line class="cls-6" x1="647.93" y1="910.98" x2="653.69" y2="924.42"/><line class="cls-6" x1="657" y1="907.11" x2="662.76" y2="920.56"/><line class="cls-6" x1="666.06" y1="903.25" x2="671.82" y2="916.69"/><line class="cls-6" x1="675.13" y1="899.38" x2="680.89" y2="912.83"/><line class="cls-6" x1="684.19" y1="895.52" x2="689.95" y2="908.97"/><line class="cls-6" x1="693.26" y1="891.66" x2="699.02" y2="905.1"/><line class="cls-6" x1="702.32" y1="887.79" x2="708.08" y2="901.24"/><line class="cls-6" x1="711.39" y1="883.93" x2="717.15" y2="897.38"/><line class="cls-6" x1="720.45" y1="880.07" x2="726.21" y2="893.51"/><line class="cls-6" x1="729.51" y1="876.2" x2="735.28" y2="889.65"/><line class="cls-6" x1="232.13" y1="778.01" x2="241.54" y2="789.21"/><line class="cls-6" x1="239.77" y1="771.62" x2="249.17" y2="782.83"/><line class="cls-6" x1="247.4" y1="765.24" x2="256.81" y2="776.45"/><line class="cls-6" x1="255.04" y1="758.86" x2="264.44" y2="770.06"/><line class="cls-6" x1="262.67" y1="752.47" x2="272.08" y2="763.68"/><line class="cls-6" x1="270.31" y1="746.09" x2="279.71" y2="757.3"/><line class="cls-6" x1="277.94" y1="739.71" x2="287.35" y2="750.91"/><line class="cls-6" x1="285.58" y1="733.33" x2="294.98" y2="744.53"/><line class="cls-6" x1="293.21" y1="726.94" x2="302.62" y2="738.15"/><line class="cls-6" x1="300.85" y1="720.56" x2="310.25" y2="731.76"/><line class="cls-6" x1="308.48" y1="714.18" x2="317.89" y2="725.38"/><line class="cls-6" x1="316.12" y1="707.79" x2="325.52" y2="719"/><line class="cls-6" x1="323.75" y1="701.41" x2="333.16" y2="712.61"/><line class="cls-6" x1="331.39" y1="695.03" x2="340.79" y2="706.23"/><line class="cls-6" x1="339.02" y1="688.64" x2="348.43" y2="699.85"/><line class="cls-6" x1="193.45" y1="209.32" x2="188.68" y2="223.15"/><line class="cls-6" x1="202.77" y1="212.55" x2="198" y2="226.38"/><line class="cls-6" x1="212.1" y1="215.78" x2="207.32" y2="229.6"/><line class="cls-6" x1="221.42" y1="219" x2="216.65" y2="232.83"/><line class="cls-6" x1="230.75" y1="222.23" x2="225.97" y2="236.06"/><line class="cls-6" x1="240.07" y1="225.46" x2="235.3" y2="239.29"/><line class="cls-6" x1="249.4" y1="228.69" x2="244.62" y2="242.51"/><line class="cls-6" x1="258.72" y1="231.91" x2="253.95" y2="245.74"/><line class="cls-6" x1="268.05" y1="235.14" x2="263.27" y2="248.97"/><line class="cls-6" x1="277.37" y1="238.37" x2="272.6" y2="252.2"/><line class="cls-6" x1="286.69" y1="241.6" x2="281.92" y2="255.42"/><line class="cls-6" x1="296.02" y1="244.83" x2="291.24" y2="258.65"/><line class="cls-6" x1="305.34" y1="248.05" x2="300.57" y2="261.88"/><line class="cls-6" x1="314.67" y1="251.28" x2="309.89" y2="265.11"/><line class="cls-6" x1="323.99" y1="254.51" x2="319.22" y2="268.34"/><line class="cls-6" x1="333.32" y1="257.74" x2="328.54" y2="271.56"/><line class="cls-6" x1="342.64" y1="260.96" x2="337.87" y2="274.79"/><line class="cls-6" x1="351.97" y1="264.19" x2="347.19" y2="278.02"/><line class="cls-6" x1="361.29" y1="267.42" x2="356.52" y2="281.25"/><line class="cls-6" x1="370.62" y1="270.65" x2="365.84" y2="284.47"/><line class="cls-6" x1="379.94" y1="273.87" x2="375.17" y2="287.7"/><line class="cls-6" x1="389.26" y1="277.1" x2="384.49" y2="290.93"/><line class="cls-6" x1="398.59" y1="280.33" x2="393.81" y2="294.16"/><line class="cls-6" x1="407.91" y1="283.56" x2="403.14" y2="297.38"/><line class="cls-6" x1="417.24" y1="286.79" x2="412.46" y2="300.61"/><line class="cls-6" x1="426.56" y1="290.01" x2="421.79" y2="303.84"/><line class="cls-6" x1="435.89" y1="293.24" x2="431.11" y2="307.07"/><line class="cls-6" x1="445.21" y1="296.47" x2="440.44" y2="310.3"/><line class="cls-6" x1="454.54" y1="299.7" x2="449.76" y2="313.52"/><line class="cls-6" x1="463.86" y1="302.92" x2="459.09" y2="316.75"/><line class="cls-6" x1="473.19" y1="306.15" x2="468.41" y2="319.98"/><line class="cls-6" x1="482.51" y1="309.38" x2="477.74" y2="323.21"/><line class="cls-6" x1="491.83" y1="312.61" x2="487.06" y2="326.43"/><line class="cls-6" x1="501.16" y1="315.83" x2="496.38" y2="329.66"/><line class="cls-6" x1="510.48" y1="319.06" x2="505.71" y2="332.89"/><line class="cls-6" x1="519.81" y1="322.29" x2="515.03" y2="336.12"/><line class="cls-6" x1="529.13" y1="325.52" x2="524.36" y2="339.34"/><rect class="cls-1" x="516.42" y="528.58" width="146.8" height="14.95"/><path class="cls-7" d="M525.91,540.57l-.54,1.71a2.47,2.47,0,0,1-2.13-1.15,3.74,3.74,0,0,1-2.88,1.18,2.69,2.69,0,0,1-2.94-2.74c0-1.89,1.55-3,4.24-3h1.17v-.33c0-.91-.59-1.34-1.72-1.34a8.67,8.67,0,0,0-2.39.46l-.6-1.72a10.23,10.23,0,0,1,3.4-.65c2.6,0,3.81,1.08,3.81,3.08v3.41C525.33,540.18,525.49,540.42,525.91,540.57Zm-3.08-1.07v-1.41h-.64c-1.44,0-2.1.45-2.1,1.3a1,1,0,0,0,1.17,1.07A1.87,1.87,0,0,0,522.83,539.5Z"/><path class="cls-7" d="M535.39,538.18a3.93,3.93,0,0,1-4,4.13c-3,0-4.23-2.48-4.23-5.42,0-3.84,1.86-6.52,4.93-6.52a4.3,4.3,0,0,1,2.47.73l-1,1.58a2.48,2.48,0,0,0-1.44-.46c-1.24,0-2.16,1.14-2.28,3.22a3.36,3.36,0,0,1,2.39-1C534,534.41,535.39,535.76,535.39,538.18Zm-2.59.14c0-1.55-.47-2.12-1.27-2.12a2.31,2.31,0,0,0-1.71.87c0,2.27.41,3.39,1.57,3.39C532.36,540.46,532.8,539.51,532.8,538.32Z"/><path class="cls-7" d="M539.24,533.18a1.72,1.72,0,1,1-1.73,1.73A1.73,1.73,0,0,1,539.24,533.18Zm0,5.7a1.72,1.72,0,1,1,0,3.43,1.72,1.72,0,1,1,0-3.43Z"/><path class="cls-7" d="M551.34,529.85V542H549l-.13-1a2.86,2.86,0,0,1-2.41,1.24c-2.17,0-3.2-1.85-3.2-4.66s1.32-4.62,3.47-4.62a2.75,2.75,0,0,1,2,.8v-4.25ZM546,537.67c0,2.15.56,2.74,1.35,2.74a1.75,1.75,0,0,0,1.43-1v-3.76a1.6,1.6,0,0,0-1.28-.72C546.56,534.92,546,535.71,546,537.67Z"/><path class="cls-7" d="M560.61,533.28a2.78,2.78,0,0,1-2.32,2.73c1.57.21,2.68,1,2.68,2.82s-1.66,3.48-4.4,3.48a5.12,5.12,0,0,1-4-1.7l1.46-1.37a3,3,0,0,0,2.37,1.09c1.12,0,1.91-.59,1.91-1.68s-.7-1.7-1.93-1.7h-1l.29-1.79h.74c1,0,1.72-.49,1.72-1.48s-.68-1.38-1.65-1.38a3.26,3.26,0,0,0-2.28,1l-1.32-1.38a5.37,5.37,0,0,1,3.89-1.53C559.19,530.37,560.61,531.69,560.61,533.28Z"/><path class="cls-7" d="M565.19,531.87a1.72,1.72,0,1,1-1.73,1.72A1.73,1.73,0,0,1,565.19,531.87Zm0,5.7a1.71,1.71,0,0,1,1.72,1.7,1.73,1.73,0,1,1-1.72-1.7Z"/><path class="cls-7" d="M577.37,540.07v2H570v-2h2.75v-6.86l-2.34,1.46-1.1-1.78,3.66-2.23h2.3v9.41Z"/><path class="cls-7" d="M586.13,533.63c0,1.84-1.14,3.33-4.6,6.43h4.86l-.28,2h-7.56V540.2c3.74-3.62,4.93-5,4.93-6.34a1.39,1.39,0,0,0-1.52-1.5,2.36,2.36,0,0,0-2.05,1.15l-1.59-1.2a4.47,4.47,0,0,1,3.88-1.94C584.8,530.37,586.13,531.89,586.13,533.63Z"/><path class="cls-7" d="M590.59,533.18a1.72,1.72,0,1,1-1.73,1.73A1.73,1.73,0,0,1,590.59,533.18Zm0,5.7a1.72,1.72,0,1,1,0,3.43,1.72,1.72,0,1,1,0-3.43Z"/><path class="cls-7" d="M603.45,530.13l-.72,1.69a5.31,5.31,0,0,0-1.87-.33c-1,0-1.44.35-1.44,1.21v1.17h2.84l-.28,1.79h-2.56V542h-2.58v-6.37H595v-1.79h1.83V532.6c0-1.71,1.25-3,3.62-3A7.45,7.45,0,0,1,603.45,530.13Z"/><path class="cls-7" d="M611.32,532.51h-4.16V535a4,4,0,0,1,1.68-.37c1.76,0,3.2,1.4,3.2,3.7s-1.8,4-4.47,4a4.69,4.69,0,0,1-3.77-1.7l1.49-1.36a2.59,2.59,0,0,0,2.08,1.08,1.88,1.88,0,0,0,2-2c0-1.4-.61-2-1.53-2a2.84,2.84,0,0,0-1.4.38h-1.75v-6.11h6.93Z"/><path class="cls-7" d="M616.16,531.87a1.72,1.72,0,1,1-1.74,1.72A1.75,1.75,0,0,1,616.16,531.87Zm0,5.7a1.7,1.7,0,0,1,1.71,1.7,1.72,1.72,0,0,1-1.71,1.73,1.75,1.75,0,0,1-1.74-1.73A1.73,1.73,0,0,1,616.16,537.57Z"/><path class="cls-7" d="M621,541.53l4.25-8.92h-5v-2h7.63v1.75l-4.41,9.89Z"/><path class="cls-7" d="M630.1,541.53l4.24-8.92h-5v-2H637v1.75l-4.41,9.89Z"/><path class="cls-7" d="M641.05,531.87a1.72,1.72,0,1,1-1.73,1.72A1.73,1.73,0,0,1,641.05,531.87Zm0,5.7a1.71,1.71,0,0,1,1.72,1.7,1.73,1.73,0,1,1-1.72-1.7Z"/><path class="cls-7" d="M653.37,534.91c0,4.37-2.16,6.62-6.94,7.62l-.53-1.83c2.68-.68,4.17-1.74,4.68-3.53a3.28,3.28,0,0,1-5.55-2.71,4,4,0,0,1,4.15-4.09C652,530.37,653.37,532.22,653.37,534.91Zm-4.31,1.38a2.39,2.39,0,0,0,1.63-.67c0-2.3-.22-3.4-1.53-3.4-.93,0-1.51.68-1.51,2.16S648.28,536.29,649.06,536.29Z"/><path class="cls-7" d="M661.51,532.51h-4.17V535a4,4,0,0,1,1.69-.37c1.75,0,3.19,1.4,3.19,3.7s-1.8,4-4.47,4a4.69,4.69,0,0,1-3.77-1.7l1.49-1.36a2.59,2.59,0,0,0,2.08,1.08,1.88,1.88,0,0,0,2-2c0-1.4-.61-2-1.53-2a2.84,2.84,0,0,0-1.4.38h-1.75v-6.11h6.93Z"/><rect class="cls-2" x="269.42" y="348.58" width="147.73" height="14.95"/><path class="cls-7" d="M278.91,360.57l-.54,1.71a2.47,2.47,0,0,1-2.13-1.15,3.74,3.74,0,0,1-2.88,1.18,2.69,2.69,0,0,1-2.94-2.74c0-1.89,1.55-3,4.24-3h1.17v-.33c0-.91-.59-1.34-1.72-1.34a8.67,8.67,0,0,0-2.39.46l-.6-1.72a10.23,10.23,0,0,1,3.4-.65c2.6,0,3.81,1.08,3.81,3.08v3.41C278.33,360.18,278.49,360.42,278.91,360.57Zm-3.08-1.07v-1.41h-.64c-1.44,0-2.1.45-2.1,1.3a1,1,0,0,0,1.17,1.07A1.87,1.87,0,0,0,275.83,359.5Z"/><path class="cls-7" d="M288.15,354.91c0,4.37-2.16,6.62-6.94,7.62l-.53-1.83c2.69-.68,4.17-1.74,4.68-3.53a3.27,3.27,0,0,1-5.54-2.71,4,4,0,0,1,4.14-4.09C286.75,350.37,288.15,352.22,288.15,354.91Zm-4.31,1.38a2.35,2.35,0,0,0,1.63-.67c0-2.3-.22-3.4-1.52-3.4-.94,0-1.52.68-1.52,2.16S283.06,356.29,283.84,356.29Z"/><path class="cls-7" d="M292.2,353.18a1.72,1.72,0,1,1-1.73,1.73A1.73,1.73,0,0,1,292.2,353.18Zm0,5.7a1.72,1.72,0,1,1,0,3.43,1.72,1.72,0,1,1,0-3.43Z"/><path class="cls-7" d="M305.05,350.13l-.71,1.69a5.31,5.31,0,0,0-1.87-.33c-1,0-1.44.35-1.44,1.21v1.17h2.84l-.29,1.79H301V362h-2.58v-6.37h-1.83v-1.79h1.83V352.6c0-1.71,1.25-3,3.62-3A7.37,7.37,0,0,1,305.05,350.13Z"/><path class="cls-7" d="M312.93,352.51h-4.16V355a4,4,0,0,1,1.68-.37c1.76,0,3.2,1.4,3.2,3.7s-1.8,4-4.47,4a4.73,4.73,0,0,1-3.78-1.7l1.5-1.36a2.59,2.59,0,0,0,2.08,1.08,1.88,1.88,0,0,0,2-2c0-1.4-.62-1.95-1.53-1.95a2.84,2.84,0,0,0-1.4.38h-1.75v-6.11h6.93Z"/><path class="cls-7" d="M317.6,353.18a1.72,1.72,0,1,1-1.73,1.73A1.73,1.73,0,0,1,317.6,353.18Zm0,5.7a1.72,1.72,0,1,1,0,3.43,1.72,1.72,0,1,1,0-3.43Z"/><path class="cls-7" d="M329.7,349.85V362h-2.29l-.14-1a2.86,2.86,0,0,1-2.41,1.24c-2.17,0-3.2-1.85-3.2-4.66S323,353,325.13,353a2.75,2.75,0,0,1,2,.8v-4.25Zm-5.37,7.82c0,2.15.56,2.74,1.35,2.74a1.75,1.75,0,0,0,1.43-1v-3.76a1.6,1.6,0,0,0-1.28-.72C324.93,354.92,324.33,355.71,324.33,357.67Z"/><path class="cls-7" d="M339,353.28a2.78,2.78,0,0,1-2.32,2.73c1.57.21,2.68,1,2.68,2.82s-1.66,3.48-4.39,3.48a5.14,5.14,0,0,1-4-1.7l1.46-1.37a3,3,0,0,0,2.37,1.09c1.13,0,1.92-.59,1.92-1.68s-.71-1.7-1.93-1.7h-1l.3-1.79h.74c1,0,1.71-.49,1.71-1.48s-.68-1.38-1.65-1.38a3.24,3.24,0,0,0-2.27,1l-1.33-1.38a5.37,5.37,0,0,1,3.89-1.53C337.55,350.37,339,351.69,339,353.28Z"/><path class="cls-7" d="M343.45,353.18a1.72,1.72,0,1,1-1.73,1.73A1.73,1.73,0,0,1,343.45,353.18Zm0,5.7a1.72,1.72,0,0,1,0,3.43,1.72,1.72,0,1,1,0-3.43Z"/><path class="cls-7" d="M356.3,350.13l-.71,1.69a5.31,5.31,0,0,0-1.87-.33c-1,0-1.44.35-1.44,1.21v1.17h2.84l-.29,1.79h-2.55V362H349.7v-6.37h-1.83v-1.79h1.83V352.6c0-1.71,1.25-3,3.61-3A7.38,7.38,0,0,1,356.3,350.13Z"/><path class="cls-7" d="M361.29,360.42a4,4,0,0,0,2.23-.72l1,1.42a5.26,5.26,0,0,1-3.48,1.19c-3,0-4.53-1.92-4.53-4.63s1.51-4.65,4.26-4.65c2.48,0,4.08,1.67,4.08,4.47a6.87,6.87,0,0,1-.05.93H359.2A2,2,0,0,0,361.29,360.42Zm-2.13-3.55h3.2c0-1.26-.45-2.1-1.55-2.1C359.88,354.77,359.28,355.41,359.16,356.87Z"/><path class="cls-7" d="M369,353.18a1.72,1.72,0,1,1-1.73,1.73A1.73,1.73,0,0,1,369,353.18Zm0,5.7a1.72,1.72,0,0,1,0,3.43,1.72,1.72,0,1,1,0-3.43Z"/><path class="cls-7" d="M379.12,355.84a3.42,3.42,0,0,1,2.21,3.11c0,1.75-1.44,3.36-4.28,3.36s-4.18-1.54-4.18-3.3a3.11,3.11,0,0,1,2.1-2.84,2.8,2.8,0,0,1-1.65-2.66c0-1.93,1.63-3.14,3.8-3.14s3.77,1.16,3.77,3C380.89,354.45,380.34,355.16,379.12,355.84Zm-2.56,1a2.27,2.27,0,0,0-1.09,2,1.49,1.49,0,0,0,1.65,1.6,1.46,1.46,0,0,0,1.62-1.53C378.74,357.81,378.1,357.41,376.56,356.87Zm.89-1.66a1.94,1.94,0,0,0,1-1.68,1.25,1.25,0,0,0-1.3-1.4,1.22,1.22,0,0,0-1.33,1.38C375.79,354.32,376.31,354.79,377.45,355.21Z"/><path class="cls-7" d="M390.57,356.32c0,3.76-1.39,6-4.11,6s-4.11-2.23-4.11-6,1.38-5.95,4.11-5.95S390.57,352.58,390.57,356.32Zm-5.78,0a22.68,22.68,0,0,0,.09,2.28l2.78-5.8a1.24,1.24,0,0,0-1.2-.55C385.3,352.25,384.79,353.37,384.79,356.32Zm3.33,0c0-.61,0-1.14,0-1.59l-2.62,5.41a1.38,1.38,0,0,0,1,.3C387.62,360.44,388.12,359.37,388.12,356.32Z"/><path class="cls-7" d="M394.63,351.87a1.72,1.72,0,1,1-1.73,1.72A1.73,1.73,0,0,1,394.63,351.87Zm0,5.7a1.71,1.71,0,0,1,1.72,1.7,1.73,1.73,0,1,1-1.72-1.7Z"/><path class="cls-7" d="M407,354.91c0,4.37-2.16,6.62-6.94,7.62l-.53-1.83c2.68-.68,4.17-1.74,4.68-3.53a3.32,3.32,0,0,1-2.33.93c-1.79,0-3.21-1.43-3.21-3.64a4,4,0,0,1,4.14-4.09C405.54,350.37,407,352.22,407,354.91Zm-4.31,1.38a2.39,2.39,0,0,0,1.63-.67c0-2.3-.22-3.4-1.53-3.4-.93,0-1.51.68-1.51,2.16S401.86,356.29,402.64,356.29Z"/><path class="cls-7" d="M416.14,360.07v2h-7.39v-2h2.74v-6.86l-2.34,1.46-1.1-1.78,3.67-2.23H414v9.41Z"/><rect class="cls-2" x="179.97" y="640.58" width="147.08" height="14.95"/><path class="cls-7" d="M187.56,651.52l1.16,1.64a5,5,0,0,1-3.25,1.15,4.24,4.24,0,0,1-4.5-4.58,4.39,4.39,0,0,1,4.55-4.7,4.76,4.76,0,0,1,3.2,1.09l-1.13,1.56a3.42,3.42,0,0,0-2-.66c-1.17,0-1.95.75-1.95,2.71s.82,2.54,1.93,2.54A3.34,3.34,0,0,0,187.56,651.52Z"/><path class="cls-7" d="M198,652.07v2h-7.4v-2h2.74v-6.86L191,646.67l-1.1-1.78,3.66-2.23h2.3v9.41Z"/><path class="cls-7" d="M202,643.87a1.72,1.72,0,1,1-1.73,1.72A1.73,1.73,0,0,1,202,643.87Zm0,5.7a1.71,1.71,0,0,1,1.72,1.7,1.73,1.73,0,1,1-1.72-1.7Z"/><path class="cls-7" d="M214.31,646.91c0,4.37-2.16,6.62-6.94,7.62l-.53-1.83c2.68-.68,4.17-1.74,4.68-3.53a3.32,3.32,0,0,1-2.33.93c-1.79,0-3.21-1.43-3.21-3.64a4,4,0,0,1,4.14-4.09C212.9,642.37,214.31,644.22,214.31,646.91ZM210,648.29a2.39,2.39,0,0,0,1.63-.67c0-2.3-.22-3.4-1.53-3.4-.93,0-1.51.68-1.51,2.16S209.22,648.29,210,648.29Z"/><path class="cls-7" d="M224.26,642.13l-.71,1.69a5.31,5.31,0,0,0-1.87-.33c-1,0-1.44.35-1.44,1.21v1.17h2.84l-.29,1.79h-2.55V654h-2.58v-6.37h-1.83v-1.79h1.83V644.6c0-1.71,1.25-3,3.62-3A7.37,7.37,0,0,1,224.26,642.13Z"/><path class="cls-7" d="M227.52,645.18a1.72,1.72,0,1,1-1.74,1.73A1.75,1.75,0,0,1,227.52,645.18Zm0,5.7a1.72,1.72,0,0,1,0,3.43,1.72,1.72,0,1,1,0-3.43Z"/><path class="cls-7" d="M240.37,642.13l-.72,1.69a5.23,5.23,0,0,0-1.87-.33c-1,0-1.43.35-1.43,1.21v1.17h2.84l-.29,1.79h-2.55V654h-2.58v-6.37h-1.83v-1.79h1.83V644.6c0-1.71,1.25-3,3.61-3A7.42,7.42,0,0,1,240.37,642.13Z"/><path class="cls-7" d="M249.58,642.13l-.72,1.69a5.31,5.31,0,0,0-1.87-.33c-1,0-1.44.35-1.44,1.21v1.17h2.84l-.28,1.79h-2.56V654H243v-6.37h-1.83v-1.79H243V644.6c0-1.71,1.24-3,3.61-3A7.45,7.45,0,0,1,249.58,642.13Z"/><path class="cls-7" d="M252.83,645.18a1.72,1.72,0,1,1-1.74,1.73A1.75,1.75,0,0,1,252.83,645.18Zm0,5.7a1.72,1.72,0,0,1,0,3.43,1.72,1.72,0,1,1,0-3.43Z"/><path class="cls-7" d="M265.09,648.32c0,3.76-1.39,6-4.11,6s-4.11-2.23-4.11-6,1.38-6,4.11-6S265.09,644.58,265.09,648.32Zm-5.78,0a19.65,19.65,0,0,0,.1,2.28l2.77-5.8a1.24,1.24,0,0,0-1.2-.55C259.82,644.25,259.31,645.37,259.31,648.32Zm3.33,0c0-.61,0-1.14,0-1.59L260,652.14a1.38,1.38,0,0,0,1,.3C262.14,652.44,262.64,651.37,262.64,648.32Z"/><path class="cls-7" d="M274.54,648.32c0,3.76-1.39,6-4.11,6s-4.11-2.23-4.11-6,1.38-6,4.11-6S274.54,644.58,274.54,648.32Zm-5.78,0a22.68,22.68,0,0,0,.09,2.28l2.78-5.8a1.24,1.24,0,0,0-1.2-.55C269.27,644.25,268.76,645.37,268.76,648.32Zm3.33,0c0-.61,0-1.14,0-1.59l-2.62,5.41a1.36,1.36,0,0,0,1,.3C271.59,652.44,272.09,651.37,272.09,648.32Z"/><path class="cls-7" d="M278.6,643.87a1.72,1.72,0,1,1-1.73,1.72A1.73,1.73,0,0,1,278.6,643.87Zm0,5.7a1.71,1.71,0,0,1,1.72,1.7,1.73,1.73,0,1,1-1.72-1.7Z"/><path class="cls-7" d="M290.87,648.32c0,3.76-1.4,6-4.12,6s-4.11-2.23-4.11-6,1.38-6,4.11-6S290.87,644.58,290.87,648.32Zm-5.79,0a19.65,19.65,0,0,0,.1,2.28l2.77-5.8a1.24,1.24,0,0,0-1.2-.55C285.6,644.25,285.08,645.37,285.08,648.32Zm3.33,0c0-.61,0-1.14,0-1.59l-2.62,5.41a1.39,1.39,0,0,0,1,.3C287.91,652.44,288.41,651.37,288.41,648.32Z"/><path class="cls-7" d="M299.4,645.63c0,1.84-1.14,3.33-4.6,6.43h4.86l-.28,2h-7.56V652.2c3.75-3.62,4.94-5,4.94-6.34a1.39,1.39,0,0,0-1.53-1.5,2.35,2.35,0,0,0-2,1.15l-1.6-1.2a4.5,4.5,0,0,1,3.89-1.94C298.07,642.37,299.4,643.89,299.4,645.63Z"/><path class="cls-7" d="M303.82,643.87a1.72,1.72,0,1,1-1.73,1.72A1.73,1.73,0,0,1,303.82,643.87Zm0,5.7a1.71,1.71,0,0,1,1.72,1.7,1.73,1.73,0,1,1-1.72-1.7Z"/><path class="cls-7" d="M316.09,648.32c0,3.76-1.39,6-4.11,6s-4.11-2.23-4.11-6,1.38-6,4.11-6S316.09,644.58,316.09,648.32Zm-5.79,0a22.19,22.19,0,0,0,.1,2.28l2.78-5.8a1.25,1.25,0,0,0-1.2-.55C310.82,644.25,310.3,645.37,310.3,648.32Zm3.34,0c0-.61,0-1.14,0-1.59L311,652.14a1.36,1.36,0,0,0,1,.3C313.14,652.44,313.64,651.37,313.64,648.32Z"/><path class="cls-7" d="M326.05,642.13l-.72,1.69a5.23,5.23,0,0,0-1.87-.33c-1,0-1.43.35-1.43,1.21v1.17h2.84l-.29,1.79H322V654h-2.58v-6.37h-1.83v-1.79h1.83V644.6c0-1.71,1.25-3,3.61-3A7.42,7.42,0,0,1,326.05,642.13Z"/><rect class="cls-3" x="121.25" y="878.89" width="150.75" height="16.11"/><path class="cls-7" d="M131.34,890.19H130.2v2.39h-2.49v-2.39H123v-1.73l3.16-7.55,2.21.82-2.69,6.51h2l.31-2.74h2.19v2.74h1.14Z"/><path class="cls-7" d="M139.9,883.83a2.77,2.77,0,0,1-2.32,2.72c1.57.22,2.68,1,2.68,2.83s-1.66,3.48-4.4,3.48a5.13,5.13,0,0,1-4-1.71l1.46-1.36a3,3,0,0,0,2.37,1.08c1.12,0,1.91-.59,1.91-1.67s-.7-1.7-1.93-1.7h-1l.3-1.79h.73c1,0,1.72-.5,1.72-1.49s-.68-1.38-1.65-1.38a3.19,3.19,0,0,0-2.27,1l-1.33-1.38a5.38,5.38,0,0,1,3.89-1.54C138.48,880.91,139.9,882.23,139.9,883.83Z"/><path class="cls-7" d="M144.48,882.42a1.72,1.72,0,1,1-1.73,1.72A1.73,1.73,0,0,1,144.48,882.42Zm0,5.69a1.72,1.72,0,1,1,0,3.43,1.72,1.72,0,1,1,0-3.43Z"/><path class="cls-7" d="M156.66,890.62v2h-7.4v-2H152v-6.87l-2.34,1.46-1.1-1.78,3.67-2.23h2.29v9.42Z"/><path class="cls-7" d="M166.34,891.12l-.53,1.7a2.43,2.43,0,0,1-2.14-1.15,3.72,3.72,0,0,1-2.87,1.19,2.7,2.7,0,0,1-3-2.74c0-1.89,1.55-3,4.25-3h1.17v-.33c0-.91-.6-1.33-1.72-1.33a8.31,8.31,0,0,0-2.39.46l-.6-1.73a10.18,10.18,0,0,1,3.4-.65c2.59,0,3.81,1.09,3.81,3.08v3.42C165.77,890.72,165.93,891,166.34,891.12ZM163.27,890v-1.41h-.64c-1.44,0-2.1.45-2.1,1.3a1,1,0,0,0,1.16,1.07A1.86,1.86,0,0,0,163.27,890Z"/><path class="cls-7" d="M170.54,883.73a1.72,1.72,0,1,1-1.73,1.72A1.72,1.72,0,0,1,170.54,883.73Zm0,5.7a1.7,1.7,0,0,1,1.72,1.69,1.73,1.73,0,1,1-1.72-1.69Z"/><path class="cls-7" d="M182.81,886.86c0,3.76-1.39,6-4.11,6s-4.11-2.24-4.11-6,1.38-6,4.11-6S182.81,883.12,182.81,886.86Zm-5.79,0a22.41,22.41,0,0,0,.1,2.29l2.78-5.81a1.25,1.25,0,0,0-1.2-.55C177.54,882.79,177,883.92,177,886.86Zm3.34,0c0-.61,0-1.14,0-1.59l-2.62,5.41a1.37,1.37,0,0,0,1,.31C179.86,891,180.36,889.91,180.36,886.86Z"/><path class="cls-7" d="M192.36,891.12l-.53,1.7a2.44,2.44,0,0,1-2.14-1.15,3.72,3.72,0,0,1-2.87,1.19,2.7,2.7,0,0,1-2.95-2.74c0-1.89,1.56-3,4.25-3h1.17v-.33c0-.91-.6-1.33-1.72-1.33a8.31,8.31,0,0,0-2.39.46l-.6-1.73a10.18,10.18,0,0,1,3.4-.65c2.59,0,3.81,1.09,3.81,3.08v3.42C191.79,890.72,192,891,192.36,891.12ZM189.29,890v-1.41h-.64c-1.44,0-2.1.45-2.1,1.3a1,1,0,0,0,1.17,1.07A1.86,1.86,0,0,0,189.29,890Z"/><path class="cls-7" d="M196.57,883.73a1.72,1.72,0,0,1,0,3.44,1.72,1.72,0,1,1,0-3.44Zm0,5.7a1.7,1.7,0,0,1,1.71,1.69,1.72,1.72,0,0,1-1.71,1.74,1.75,1.75,0,0,1-1.74-1.74A1.72,1.72,0,0,1,196.57,889.43Z"/><path class="cls-7" d="M208.83,886.86c0,3.76-1.39,6-4.11,6s-4.11-2.24-4.11-6,1.38-6,4.11-6S208.83,883.12,208.83,886.86Zm-5.78,0a22.9,22.9,0,0,0,.09,2.29l2.78-5.81a1.24,1.24,0,0,0-1.2-.55C203.56,882.79,203.05,883.92,203.05,886.86Zm3.33,0c0-.61,0-1.14,0-1.59l-2.62,5.41a1.38,1.38,0,0,0,1,.31C205.88,891,206.38,889.91,206.38,886.86Z"/><path class="cls-7" d="M218.28,886.86c0,3.76-1.39,6-4.11,6s-4.11-2.24-4.11-6,1.38-6,4.11-6S218.28,883.12,218.28,886.86Zm-5.78,0a22.9,22.9,0,0,0,.09,2.29l2.78-5.81a1.24,1.24,0,0,0-1.2-.55C213,882.79,212.5,883.92,212.5,886.86Zm3.33,0c0-.61,0-1.14,0-1.59l-2.62,5.41a1.37,1.37,0,0,0,1,.31C215.33,891,215.83,889.91,215.83,886.86Z"/><path class="cls-7" d="M222.34,882.42a1.72,1.72,0,1,1-1.73,1.72A1.73,1.73,0,0,1,222.34,882.42Zm0,5.69a1.72,1.72,0,1,1,0,3.43,1.72,1.72,0,1,1,0-3.43Z"/><path class="cls-7" d="M227.21,892.08l4.24-8.93h-5V881.2h7.63V883l-4.41,9.88Z"/><path class="cls-7" d="M241.29,886.39a3.4,3.4,0,0,1,2.21,3.1c0,1.76-1.45,3.37-4.28,3.37s-4.18-1.55-4.18-3.3a3.1,3.1,0,0,1,2.1-2.84,2.81,2.81,0,0,1-1.65-2.66c0-1.94,1.63-3.15,3.8-3.15s3.77,1.16,3.77,3C243.06,885,242.51,885.7,241.29,886.39Zm-2.56,1a2.26,2.26,0,0,0-1.09,2,1.49,1.49,0,0,0,1.65,1.6,1.46,1.46,0,0,0,1.62-1.53C240.91,888.35,240.27,888,238.73,887.41Zm.89-1.65a1.94,1.94,0,0,0,1-1.69,1.24,1.24,0,0,0-1.29-1.39,1.22,1.22,0,0,0-1.33,1.38C238,884.86,238.48,885.33,239.62,885.76Z"/><path class="cls-7" d="M247.4,883.73a1.72,1.72,0,1,1-1.73,1.72A1.73,1.73,0,0,1,247.4,883.73Zm0,5.7a1.71,1.71,0,0,1,1.72,1.69,1.73,1.73,0,1,1-1.72-1.69Z"/><path class="cls-7" d="M256.17,891a4.16,4.16,0,0,0,2.23-.72l1,1.41a5.26,5.26,0,0,1-3.48,1.2c-3,0-4.53-1.92-4.53-4.63s1.51-4.66,4.25-4.66c2.49,0,4.09,1.67,4.09,4.48a9,9,0,0,1,0,.92h-5.65A2,2,0,0,0,256.17,891ZM254,887.41h3.2c0-1.26-.45-2.1-1.56-2.1C254.75,885.31,254.15,886,254,887.41Z"/><path class="cls-7" d="M266.42,883.57c2.24,0,3.22,1.79,3.22,4.62s-1.23,4.67-3.49,4.67a2.62,2.62,0,0,1-2.16-1.07l-.1.79h-2.3V880.4l2.6-.28v4.63A2.8,2.8,0,0,1,266.42,883.57Zm.54,4.66c0-2.17-.54-2.74-1.36-2.74a1.68,1.68,0,0,0-1.41,1v3.67a1.43,1.43,0,0,0,1.28.8C266.39,891,267,890.19,267,888.23Z"/><rect class="cls-3" x="472" y="1022" width="150" height="13.97"/><path class="cls-7" d="M481.7,1022.39v12.19h-2.3l-.13-1a2.83,2.83,0,0,1-2.41,1.24c-2.17,0-3.2-1.85-3.2-4.66s1.32-4.62,3.47-4.62a2.75,2.75,0,0,1,2,.8v-4.25Zm-5.37,7.82c0,2.15.56,2.74,1.35,2.74a1.75,1.75,0,0,0,1.43-1v-3.76a1.59,1.59,0,0,0-1.28-.71C476.92,1027.47,476.33,1028.25,476.33,1030.21Z"/><path class="cls-7" d="M491.73,1030.72a3.92,3.92,0,0,1-4,4.13c-3,0-4.24-2.48-4.24-5.42,0-3.84,1.86-6.52,4.93-6.52a4.28,4.28,0,0,1,2.47.73l-1,1.58a2.46,2.46,0,0,0-1.44-.46c-1.24,0-2.16,1.14-2.28,3.22a3.38,3.38,0,0,1,2.39-1C490.32,1027,491.73,1028.3,491.73,1030.72Zm-2.59.14c0-1.55-.47-2.12-1.26-2.12a2.33,2.33,0,0,0-1.72.87c0,2.27.41,3.39,1.57,3.39C488.71,1033,489.14,1032.05,489.14,1030.86Z"/><path class="cls-7" d="M495.74,1024.41a1.72,1.72,0,1,1-1.74,1.73A1.75,1.75,0,0,1,495.74,1024.41Zm0,5.7a1.7,1.7,0,0,1,1.71,1.7,1.72,1.72,0,0,1-1.71,1.73,1.75,1.75,0,0,1-1.74-1.73A1.73,1.73,0,0,1,495.74,1030.11Z"/><path class="cls-7" d="M507.4,1025.82a2.78,2.78,0,0,1-2.32,2.73c1.57.21,2.68,1,2.68,2.82s-1.66,3.48-4.4,3.48a5.12,5.12,0,0,1-4-1.7l1.46-1.37a3,3,0,0,0,2.37,1.09c1.13,0,1.91-.59,1.91-1.68s-.7-1.7-1.93-1.7h-1l.3-1.79h.73c1,0,1.72-.49,1.72-1.48s-.68-1.38-1.65-1.38a3.24,3.24,0,0,0-2.27,1l-1.33-1.37a5.34,5.34,0,0,1,3.89-1.54C506,1022.91,507.4,1024.23,507.4,1025.82Z"/><path class="cls-7" d="M516.58,1026.17c0,1.85-1.14,3.33-4.6,6.43h4.86l-.27,2H509v-1.84c3.75-3.62,4.94-5,4.94-6.34a1.39,1.39,0,0,0-1.53-1.5,2.35,2.35,0,0,0-2,1.15l-1.6-1.19a4.48,4.48,0,0,1,3.89-1.95C515.25,1022.91,516.58,1024.43,516.58,1026.17Z"/><path class="cls-7" d="M521,1024.41a1.72,1.72,0,1,1-1.74,1.73A1.75,1.75,0,0,1,521,1024.41Zm0,5.7a1.7,1.7,0,0,1,1.71,1.7,1.72,1.72,0,0,1-1.71,1.73,1.75,1.75,0,0,1-1.74-1.73A1.73,1.73,0,0,1,521,1030.11Z"/><path class="cls-7" d="M525.88,1034.07l4.24-8.92h-5v-2h7.63V1025l-4.41,9.89Z"/><path class="cls-7" d="M542.15,1032.61v2h-7.4v-2h2.74v-6.86l-2.34,1.46-1.1-1.78,3.67-2.23H540v9.41Z"/><path class="cls-7" d="M546.2,1025.73a1.72,1.72,0,0,1,0,3.44,1.72,1.72,0,1,1,0-3.44Zm0,5.69a1.72,1.72,0,0,1,0,3.43,1.72,1.72,0,1,1,0-3.43Z"/><path class="cls-7" d="M558.76,1033.11l-.54,1.71a2.47,2.47,0,0,1-2.13-1.15,3.72,3.72,0,0,1-2.87,1.18,2.7,2.7,0,0,1-3-2.74c0-1.89,1.55-3,4.24-3h1.18v-.33c0-.91-.6-1.34-1.73-1.34a8.67,8.67,0,0,0-2.39.46l-.59-1.72a10.13,10.13,0,0,1,3.39-.65c2.6,0,3.81,1.08,3.81,3.08v3.41C558.18,1032.72,558.35,1033,558.76,1033.11Zm-3.07-1.07v-1.41h-.64c-1.45,0-2.1.45-2.1,1.3a1,1,0,0,0,1.16,1.07A1.88,1.88,0,0,0,555.69,1032Z"/><path class="cls-7" d="M568.23,1028.86c0,3.76-1.4,6-4.12,6s-4.11-2.23-4.11-6,1.38-5.95,4.11-5.95S568.23,1025.12,568.23,1028.86Zm-5.79,0a19.65,19.65,0,0,0,.1,2.28l2.77-5.8a1.24,1.24,0,0,0-1.2-.55C563,1024.79,562.44,1025.91,562.44,1028.86Zm3.33,0c0-.61,0-1.14,0-1.59l-2.62,5.41a1.39,1.39,0,0,0,1,.3C565.27,1033,565.77,1031.91,565.77,1028.86Z"/><path class="cls-7" d="M572.28,1024.41a1.72,1.72,0,1,1-1.73,1.73A1.73,1.73,0,0,1,572.28,1024.41Zm0,5.7a1.71,1.71,0,0,1,1.72,1.7,1.73,1.73,0,1,1-1.72-1.7Z"/><path class="cls-7" d="M584.55,1028.86c0,3.76-1.4,6-4.11,6s-4.12-2.23-4.12-6,1.38-5.95,4.12-5.95S584.55,1025.12,584.55,1028.86Zm-5.79,0a22.19,22.19,0,0,0,.1,2.28l2.78-5.8a1.25,1.25,0,0,0-1.2-.55C579.28,1024.79,578.76,1025.91,578.76,1028.86Zm3.34,0c0-.61,0-1.14-.05-1.59l-2.61,5.41a1.36,1.36,0,0,0,1,.3C581.59,1033,582.1,1031.91,582.1,1028.86Z"/><path class="cls-7" d="M594,1028.86c0,3.76-1.4,6-4.11,6s-4.12-2.23-4.12-6,1.38-5.95,4.12-5.95S594,1025.12,594,1028.86Zm-5.79,0a19.65,19.65,0,0,0,.1,2.28l2.77-5.8a1.23,1.23,0,0,0-1.19-.55C588.73,1024.79,588.21,1025.91,588.21,1028.86Zm3.33,0c0-.61,0-1.14,0-1.59l-2.62,5.41a1.41,1.41,0,0,0,1,.3C591,1033,591.54,1031.91,591.54,1028.86Z"/><path class="cls-7" d="M598.06,1024.41a1.72,1.72,0,1,1-1.74,1.73A1.75,1.75,0,0,1,598.06,1024.41Zm0,5.7a1.7,1.7,0,0,1,1.71,1.7,1.72,1.72,0,0,1-1.71,1.73,1.75,1.75,0,0,1-1.74-1.73A1.73,1.73,0,0,1,598.06,1030.11Z"/><path class="cls-7" d="M610.32,1028.86c0,3.76-1.39,6-4.11,6s-4.11-2.23-4.11-6,1.38-5.95,4.11-5.95S610.32,1025.12,610.32,1028.86Zm-5.78,0a19.65,19.65,0,0,0,.1,2.28l2.77-5.8a1.24,1.24,0,0,0-1.2-.55C605.05,1024.79,604.54,1025.91,604.54,1028.86Zm3.33,0c0-.61,0-1.14,0-1.59l-2.62,5.41a1.38,1.38,0,0,0,1,.3C607.37,1033,607.87,1031.91,607.87,1028.86Z"/><path class="cls-7" d="M619.77,1028.86c0,3.76-1.39,6-4.11,6s-4.11-2.23-4.11-6,1.38-5.95,4.11-5.95S619.77,1025.12,619.77,1028.86Zm-5.78,0a22.68,22.68,0,0,0,.09,2.28l2.78-5.8a1.24,1.24,0,0,0-1.2-.55C614.5,1024.79,614,1025.91,614,1028.86Zm3.33,0c0-.61,0-1.14,0-1.59l-2.62,5.41a1.36,1.36,0,0,0,1,.3C616.82,1033,617.32,1031.91,617.32,1028.86Z"/><rect class="cls-3" x="707.44" y="785" width="148.56" height="14.84"/><path class="cls-7" d="M714.41,789.45c2.25,0,3.22,1.79,3.22,4.62s-1.22,4.66-3.49,4.66a2.64,2.64,0,0,1-2.16-1.07l-.09.79h-2.3V786.27l2.59-.27v4.63A2.82,2.82,0,0,1,714.41,789.45Zm.55,4.65c0-2.17-.55-2.74-1.37-2.74a1.7,1.7,0,0,0-1.41,1v3.68a1.46,1.46,0,0,0,1.28.79C714.38,796.84,715,796.06,715,794.1Z"/><path class="cls-7" d="M727.19,796.06h-1.14v2.39h-2.49l0-2.39h-4.71v-1.72l3.16-7.55,2.21.81-2.69,6.52h2l.31-2.74h2.19v2.74h1.14Z"/><path class="cls-7" d="M731.22,788.29a1.72,1.72,0,1,1-1.73,1.72A1.73,1.73,0,0,1,731.22,788.29Zm0,5.7a1.71,1.71,0,0,1,1.72,1.69,1.73,1.73,0,1,1-1.72-1.69Z"/><path class="cls-7" d="M743.54,791.33c0,4.36-2.16,6.62-6.94,7.61l-.53-1.82c2.68-.68,4.17-1.74,4.68-3.53a3.36,3.36,0,0,1-2.32.93c-1.79,0-3.22-1.44-3.22-3.65a4,4,0,0,1,4.14-4.08C742.14,786.79,743.54,788.63,743.54,791.33Zm-4.31,1.38a2.42,2.42,0,0,0,1.63-.67c0-2.3-.22-3.41-1.52-3.41-.94,0-1.52.68-1.52,2.17S738.45,792.71,739.23,792.71Z"/><path class="cls-7" d="M753.5,786.55l-.72,1.69a5.23,5.23,0,0,0-1.87-.33c-1,0-1.44.34-1.44,1.21v1.16h2.84l-.28,1.8h-2.56v6.37H746.9v-6.37h-1.83v-1.8h1.83V789c0-1.72,1.24-3,3.61-3A7.42,7.42,0,0,1,753.5,786.55Z"/><path class="cls-7" d="M756.75,789.6a1.72,1.72,0,1,1-1.73,1.73A1.73,1.73,0,0,1,756.75,789.6Zm0,5.7a1.7,1.7,0,0,1,1.71,1.7,1.72,1.72,0,1,1-1.71-1.7Z"/><path class="cls-7" d="M761.25,798l4.24-8.92h-5v-2h7.63v1.76l-4.41,9.88Z"/><path class="cls-7" d="M776.76,786.27v12.18h-2.29l-.14-1a2.86,2.86,0,0,1-2.41,1.24c-2.17,0-3.2-1.85-3.2-4.66s1.32-4.62,3.47-4.62a2.71,2.71,0,0,1,2,.8V786Zm-5.36,7.81c0,2.15.55,2.75,1.34,2.75a1.75,1.75,0,0,0,1.43-1v-3.76a1.57,1.57,0,0,0-1.28-.72C772,791.34,771.4,792.12,771.4,794.08Z"/><path class="cls-7" d="M781.35,789.6a1.72,1.72,0,1,1-1.73,1.73A1.73,1.73,0,0,1,781.35,789.6Zm0,5.7a1.71,1.71,0,0,1,1.72,1.7,1.73,1.73,0,1,1-1.72-1.7Z"/><path class="cls-7" d="M793,790c0,1.85-1.14,3.34-4.6,6.43h4.86l-.28,2h-7.56v-1.84c3.74-3.62,4.93-5,4.93-6.34a1.39,1.39,0,0,0-1.52-1.49,2.37,2.37,0,0,0-2.05,1.15l-1.59-1.2a4.47,4.47,0,0,1,3.88-1.94C791.68,786.79,793,788.3,793,790Z"/><path class="cls-7" d="M802.35,789.7a2.79,2.79,0,0,1-2.32,2.73c1.57.21,2.68,1,2.68,2.82s-1.66,3.48-4.4,3.48a5.1,5.1,0,0,1-4-1.71l1.46-1.36a3,3,0,0,0,2.37,1.08c1.13,0,1.91-.59,1.91-1.67s-.7-1.7-1.93-1.7h-1l.3-1.79h.73c1,0,1.72-.49,1.72-1.49s-.68-1.38-1.65-1.38a3.21,3.21,0,0,0-2.27,1l-1.33-1.38a5.37,5.37,0,0,1,3.89-1.53C800.93,786.79,802.35,788.11,802.35,789.7Z"/><path class="cls-7" d="M806.93,788.29A1.72,1.72,0,1,1,805.2,790,1.73,1.73,0,0,1,806.93,788.29Zm0,5.7a1.71,1.71,0,0,1,1.72,1.69,1.73,1.73,0,1,1-1.72-1.69Z"/><path class="cls-7" d="M818.53,790c0,1.85-1.14,3.34-4.6,6.43h4.86l-.28,2H811v-1.84c3.74-3.62,4.94-5,4.94-6.34a1.39,1.39,0,0,0-1.53-1.49,2.38,2.38,0,0,0-2.05,1.15l-1.59-1.2a4.48,4.48,0,0,1,3.88-1.94C817.2,786.79,818.53,788.3,818.53,790Z"/><path class="cls-7" d="M827.87,789.7a2.79,2.79,0,0,1-2.32,2.73c1.57.21,2.68,1,2.68,2.82s-1.66,3.48-4.4,3.48a5.11,5.11,0,0,1-4-1.71l1.46-1.36a3,3,0,0,0,2.37,1.08c1.13,0,1.92-.59,1.92-1.67s-.71-1.7-1.93-1.7h-1l.3-1.79h.74c1,0,1.71-.49,1.71-1.49s-.68-1.38-1.65-1.38a3.21,3.21,0,0,0-2.27,1l-1.33-1.38a5.37,5.37,0,0,1,3.89-1.53C826.45,786.79,827.87,788.11,827.87,789.7Z"/><path class="cls-7" d="M832.45,788.29a1.72,1.72,0,1,1-1.73,1.72A1.73,1.73,0,0,1,832.45,788.29Zm0,5.7a1.71,1.71,0,0,1,1.72,1.69,1.73,1.73,0,1,1-1.72-1.69Z"/><path class="cls-7" d="M843.77,788.93h-4.16v2.45a4.11,4.11,0,0,1,1.68-.36c1.76,0,3.19,1.4,3.19,3.7s-1.79,4-4.46,4a4.73,4.73,0,0,1-3.78-1.7l1.5-1.36a2.61,2.61,0,0,0,2.07,1.07,1.88,1.88,0,0,0,2-2c0-1.41-.62-2-1.54-2a2.81,2.81,0,0,0-1.39.38h-1.75v-6.12h6.93Z"/><path class="cls-7" d="M854,794.59a3.94,3.94,0,0,1-4,4.14c-3,0-4.23-2.49-4.23-5.43,0-3.83,1.86-6.51,4.93-6.51a4.23,4.23,0,0,1,2.47.73l-1,1.57a2.56,2.56,0,0,0-1.44-.46c-1.24,0-2.16,1.14-2.28,3.23a3.33,3.33,0,0,1,2.39-1C852.56,790.83,854,792.18,854,794.59Zm-2.59.15c0-1.55-.47-2.13-1.27-2.13a2.35,2.35,0,0,0-1.71.87c0,2.28.41,3.4,1.57,3.4C850.94,796.88,851.38,795.92,851.38,794.74Z"/><rect class="cls-3" x="852.44" y="379" width="146.56" height="15"/><path class="cls-7" d="M855.31,392l4.24-8.92h-5v-2h7.63v1.76l-4.41,9.88Z"/><path class="cls-7" d="M871.21,384c0,1.85-1.14,3.34-4.6,6.43h4.86l-.28,2h-7.56v-1.84c3.74-3.62,4.93-5,4.93-6.34a1.38,1.38,0,0,0-1.52-1.49,2.37,2.37,0,0,0-2,1.15l-1.59-1.2a4.48,4.48,0,0,1,3.88-1.94C869.88,380.79,871.21,382.3,871.21,384Z"/><path class="cls-7" d="M875.63,382.29A1.72,1.72,0,1,1,873.9,384,1.73,1.73,0,0,1,875.63,382.29Zm0,5.69a1.72,1.72,0,1,1,0,3.44,1.72,1.72,0,1,1,0-3.44Z"/><path class="cls-7" d="M887,382.93h-4.16v2.45a4.11,4.11,0,0,1,1.68-.36c1.76,0,3.19,1.4,3.19,3.7s-1.79,4-4.46,4a4.73,4.73,0,0,1-3.78-1.7l1.5-1.36a2.61,2.61,0,0,0,2.07,1.07,1.88,1.88,0,0,0,2-2c0-1.41-.62-1.95-1.54-1.95a2.81,2.81,0,0,0-1.39.38h-1.75v-6.12h6.93Z"/><path class="cls-7" d="M896.82,385.32c0,4.37-2.16,6.63-6.94,7.62l-.53-1.82c2.69-.68,4.17-1.74,4.68-3.53a3.34,3.34,0,0,1-2.32.93c-1.79,0-3.22-1.44-3.22-3.65a4,4,0,0,1,4.14-4.08C895.42,380.79,896.82,382.63,896.82,385.32Zm-4.31,1.38a2.43,2.43,0,0,0,1.64-.66c0-2.3-.23-3.41-1.53-3.41-.94,0-1.52.68-1.52,2.17S891.73,386.7,892.51,386.7Z"/><path class="cls-7" d="M900.85,382.29a1.72,1.72,0,0,1,0,3.44,1.72,1.72,0,1,1,0-3.44Zm0,5.69a1.72,1.72,0,0,1,0,3.44,1.72,1.72,0,1,1,0-3.44Z"/><path class="cls-7" d="M912.51,383.7a2.79,2.79,0,0,1-2.32,2.73c1.57.21,2.68,1,2.68,2.82s-1.66,3.48-4.4,3.48a5.1,5.1,0,0,1-4-1.71l1.46-1.36a3.05,3.05,0,0,0,2.37,1.08c1.13,0,1.91-.59,1.91-1.67s-.7-1.7-1.93-1.7h-1l.3-1.79h.73c1,0,1.72-.49,1.72-1.49,0-.85-.68-1.38-1.65-1.38a3.21,3.21,0,0,0-2.27,1l-1.33-1.38a5.37,5.37,0,0,1,3.89-1.53C911.09,380.79,912.51,382.11,912.51,383.7Z"/><path class="cls-7" d="M922.16,390.49v2h-7.39v-2h2.74v-6.86l-2.34,1.46-1.1-1.78,3.67-2.24H920v9.42Z"/><path class="cls-7" d="M926.16,382.29a1.72,1.72,0,1,1-1.73,1.72A1.73,1.73,0,0,1,926.16,382.29Zm0,5.69a1.72,1.72,0,1,1,0,3.44,1.72,1.72,0,1,1,0-3.44Z"/><path class="cls-7" d="M938.34,390.49v2H931v-2h2.74v-6.86l-2.34,1.46-1.1-1.78,3.67-2.24h2.3v9.42Z"/><path class="cls-7" d="M947.5,388.59a3.93,3.93,0,0,1-4,4.14c-3,0-4.24-2.49-4.24-5.43,0-3.83,1.86-6.51,4.93-6.51a4.21,4.21,0,0,1,2.47.73l-1,1.57a2.53,2.53,0,0,0-1.44-.46c-1.24,0-2.16,1.14-2.28,3.23a3.35,3.35,0,0,1,2.39-1C946.09,384.82,947.5,386.18,947.5,388.59Zm-2.59.15c0-1.55-.47-2.13-1.26-2.13a2.37,2.37,0,0,0-1.72.87c0,2.28.41,3.39,1.57,3.39C944.48,390.87,944.91,389.92,944.91,388.74Z"/><path class="cls-7" d="M951.35,383.6a1.72,1.72,0,1,1-1.73,1.72A1.73,1.73,0,0,1,951.35,383.6Zm0,5.7a1.71,1.71,0,0,1,1.72,1.7,1.73,1.73,0,1,1-1.72-1.7Z"/><path class="cls-7" d="M964.21,380.55l-.72,1.69a5.27,5.27,0,0,0-1.87-.33c-1,0-1.44.34-1.44,1.21v1.16H963l-.28,1.8h-2.56v6.37h-2.57v-6.37h-1.83v-1.8h1.83V383c0-1.72,1.24-3,3.61-3A7.45,7.45,0,0,1,964.21,380.55Z"/><path class="cls-7" d="M973.41,380.55l-.71,1.69a5.31,5.31,0,0,0-1.87-.33c-1,0-1.44.34-1.44,1.21v1.16h2.84l-.29,1.8h-2.55v6.37h-2.58v-6.37H965v-1.8h1.83V383c0-1.72,1.25-3,3.62-3A7.37,7.37,0,0,1,973.41,380.55Z"/><path class="cls-7" d="M976.67,383.6a1.72,1.72,0,1,1-1.74,1.72A1.74,1.74,0,0,1,976.67,383.6Zm0,5.7a1.7,1.7,0,0,1,1.71,1.7,1.72,1.72,0,0,1-1.71,1.73,1.74,1.74,0,0,1-1.74-1.73A1.72,1.72,0,0,1,976.67,389.3Z"/><path class="cls-7" d="M988.93,386.74c0,3.76-1.39,6-4.11,6s-4.11-2.23-4.11-6,1.38-5.95,4.11-5.95S988.93,383,988.93,386.74Zm-5.79,0a22.33,22.33,0,0,0,.1,2.28l2.78-5.8a1.25,1.25,0,0,0-1.2-.55C983.66,382.67,983.14,383.79,983.14,386.74Zm3.34,0c0-.62,0-1.14,0-1.6l-2.62,5.41a1.37,1.37,0,0,0,1,.31C986,390.86,986.48,389.78,986.48,386.74Z"/><path class="cls-7" d="M998.38,386.74c0,3.76-1.39,6-4.11,6s-4.11-2.23-4.11-6,1.37-5.95,4.11-5.95S998.38,383,998.38,386.74Zm-5.79,0a22.33,22.33,0,0,0,.1,2.28l2.78-5.8a1.25,1.25,0,0,0-1.2-.55C993.11,382.67,992.59,383.79,992.59,386.74Zm3.34,0c0-.62,0-1.14,0-1.6l-2.62,5.41a1.37,1.37,0,0,0,1,.31C995.43,390.86,995.93,389.78,995.93,386.74Z"/><rect class="cls-3" x="787.92" y="55" width="147.08" height="15"/><path class="cls-7" d="M797.09,58.74h-4.17v2.45a4.15,4.15,0,0,1,1.69-.36c1.75,0,3.19,1.4,3.19,3.7s-1.8,4-4.47,4a4.71,4.71,0,0,1-3.77-1.7l1.49-1.36a2.58,2.58,0,0,0,2.08,1.07,1.87,1.87,0,0,0,2-2c0-1.41-.61-1.95-1.53-1.95a2.84,2.84,0,0,0-1.4.38h-1.75V56.88h6.93Z"/><path class="cls-7" d="M806.21,58.74H802v2.45a4.15,4.15,0,0,1,1.69-.36c1.75,0,3.19,1.4,3.19,3.7s-1.8,4-4.46,4a4.73,4.73,0,0,1-3.78-1.7l1.49-1.36a2.6,2.6,0,0,0,2.08,1.07,1.88,1.88,0,0,0,2-2c0-1.41-.62-1.95-1.54-1.95a2.87,2.87,0,0,0-1.4.38h-1.74V56.88h6.92Z"/><path class="cls-7" d="M811,58.1a1.72,1.72,0,1,1-1.73,1.72A1.74,1.74,0,0,1,811,58.1Zm0,5.7a1.7,1.7,0,0,1,1.71,1.7A1.72,1.72,0,1,1,811,63.8Z"/><path class="cls-7" d="M822.36,58.74h-4.17v2.45a4.15,4.15,0,0,1,1.69-.36c1.75,0,3.19,1.4,3.19,3.7s-1.8,4-4.47,4a4.71,4.71,0,0,1-3.77-1.7l1.49-1.36a2.58,2.58,0,0,0,2.08,1.07,1.87,1.87,0,0,0,2-2c0-1.41-.61-1.95-1.53-1.95a2.84,2.84,0,0,0-1.4.38h-1.75V56.88h6.93Z"/><path class="cls-7" d="M832,66.3v2h-7.4v-2h2.75V59.44L825,60.9l-1.1-1.78,3.66-2.24h2.3V66.3Z"/><path class="cls-7" d="M836,58.1a1.72,1.72,0,1,1-1.73,1.72A1.73,1.73,0,0,1,836,58.1Zm0,5.7a1.71,1.71,0,0,1,1.72,1.7A1.73,1.73,0,1,1,836,63.8Z"/><path class="cls-7" d="M847.61,59.86c0,1.84-1.14,3.33-4.6,6.42h4.86l-.28,2H840V66.42c3.74-3.62,4.93-5,4.93-6.33a1.39,1.39,0,0,0-1.52-1.5,2.37,2.37,0,0,0-2.05,1.15l-1.59-1.2a4.47,4.47,0,0,1,3.88-1.94C846.28,56.6,847.61,58.12,847.61,59.86Z"/><path class="cls-7" d="M857,59.51a2.78,2.78,0,0,1-2.32,2.73c1.57.21,2.68,1,2.68,2.82s-1.66,3.48-4.4,3.48a5.1,5.1,0,0,1-4-1.71l1.46-1.36a3,3,0,0,0,2.37,1.08c1.13,0,1.91-.59,1.91-1.67s-.7-1.7-1.92-1.7h-1l.3-1.79h.74c1,0,1.71-.49,1.71-1.49s-.68-1.37-1.65-1.37a3.2,3.2,0,0,0-2.27,1l-1.33-1.38a5.37,5.37,0,0,1,3.89-1.53C855.53,56.6,857,57.92,857,59.51Z"/><path class="cls-7" d="M861.53,58.1a1.72,1.72,0,1,1-1.73,1.72A1.73,1.73,0,0,1,861.53,58.1Zm0,5.7a1.71,1.71,0,0,1,1.72,1.7,1.73,1.73,0,1,1-1.72-1.7Z"/><path class="cls-7" d="M873.89,65.87h-1.14v2.39h-2.49V65.87h-4.72V64.15l3.16-7.55,2.21.81-2.69,6.52h2l.31-2.74h2.19v2.74h1.14Z"/><path class="cls-7" d="M882.1,58.74h-4.16v2.45a4.11,4.11,0,0,1,1.68-.36c1.76,0,3.2,1.4,3.2,3.7s-1.8,4-4.47,4a4.73,4.73,0,0,1-3.78-1.7l1.5-1.36a2.58,2.58,0,0,0,2.08,1.07,1.88,1.88,0,0,0,2-2c0-1.41-.62-1.95-1.54-1.95a2.84,2.84,0,0,0-1.39.38h-1.75V56.88h6.93Z"/><path class="cls-7" d="M886.93,58.1a1.72,1.72,0,1,1-1.73,1.72A1.73,1.73,0,0,1,886.93,58.1Zm0,5.7a1.71,1.71,0,0,1,1.72,1.7,1.73,1.73,0,1,1-1.72-1.7Z"/><path class="cls-7" d="M899.22,64.4a3.94,3.94,0,0,1-4,4.14c-3,0-4.24-2.49-4.24-5.43,0-3.83,1.87-6.51,4.94-6.51a4.23,4.23,0,0,1,2.47.73l-1,1.57a2.53,2.53,0,0,0-1.43-.46c-1.24,0-2.16,1.15-2.28,3.23a3.31,3.31,0,0,1,2.38-1C897.81,60.64,899.22,62,899.22,64.4Zm-2.59.15c0-1.55-.47-2.12-1.27-2.12a2.3,2.3,0,0,0-1.71.87c0,2.27.41,3.39,1.56,3.39C896.19,66.69,896.63,65.73,896.63,64.55Z"/><path class="cls-7" d="M900.8,67.76l4.25-8.92h-5v-2h7.62v1.76l-4.4,9.88Z"/><path class="cls-7" d="M911.46,59.41a1.72,1.72,0,1,1-1.74,1.73A1.75,1.75,0,0,1,911.46,59.41Zm0,5.7a1.7,1.7,0,0,1,1.71,1.7,1.72,1.72,0,0,1-1.71,1.73,1.75,1.75,0,0,1-1.74-1.73A1.73,1.73,0,0,1,911.46,65.11Z"/><path class="cls-7" d="M924.31,56.36l-.71,1.69a5.32,5.32,0,0,0-1.88-.33c-1,0-1.43.35-1.43,1.21v1.16h2.84l-.29,1.8h-2.55v6.37h-2.58V61.89h-1.83v-1.8h1.83V58.83c0-1.72,1.25-3,3.61-3A7.42,7.42,0,0,1,924.31,56.36Z"/><path class="cls-7" d="M933.52,56.36l-.72,1.69a5.23,5.23,0,0,0-1.87-.33c-1,0-1.44.35-1.44,1.21v1.16h2.84l-.28,1.8h-2.56v6.37h-2.57V61.89h-1.83v-1.8h1.83V58.83c0-1.72,1.24-3,3.61-3A7.42,7.42,0,0,1,933.52,56.36Z"/><rect class="cls-3" x="83.16" y="122" width="146.84" height="17"/><path class="cls-7" d="M93.21,128.74c0,4.37-2.16,6.62-6.94,7.62l-.53-1.83c2.68-.68,4.17-1.74,4.68-3.53a3.27,3.27,0,0,1-5.54-2.71A4,4,0,0,1,89,124.2C91.81,124.2,93.21,126.05,93.21,128.74Zm-4.31,1.38a2.39,2.39,0,0,0,1.63-.67c0-2.3-.22-3.4-1.52-3.4-.94,0-1.52.68-1.52,2.16S88.12,130.12,88.9,130.12Z"/><path class="cls-7" d="M102.52,134.4l-.53,1.71A2.49,2.49,0,0,1,99.85,135,3.72,3.72,0,0,1,97,136.14a2.7,2.7,0,0,1-3-2.74c0-1.89,1.55-3,4.25-3h1.17v-.33c0-.91-.6-1.34-1.72-1.34a8.67,8.67,0,0,0-2.39.46l-.6-1.72a10.18,10.18,0,0,1,3.4-.65c2.59,0,3.81,1.08,3.81,3.08v3.41C102,134,102.11,134.25,102.52,134.4Zm-3.07-1.07v-1.41h-.64c-1.44,0-2.1.45-2.1,1.3a1,1,0,0,0,1.17,1.07A1.88,1.88,0,0,0,99.45,133.33Z"/><path class="cls-7" d="M106.73,127a1.72,1.72,0,1,1-1.74,1.73A1.75,1.75,0,0,1,106.73,127Zm0,5.7a1.72,1.72,0,0,1,0,3.43,1.72,1.72,0,1,1,0-3.43Z"/><path class="cls-7" d="M119,130.15c0,3.76-1.39,6-4.11,6s-4.11-2.23-4.11-6,1.38-6,4.11-6S119,126.41,119,130.15Zm-5.78,0a22.68,22.68,0,0,0,.09,2.28l2.78-5.8a1.24,1.24,0,0,0-1.2-.55C113.72,126.08,113.21,127.2,113.21,130.15Zm3.33,0c0-.61,0-1.14,0-1.59L113.88,134a1.38,1.38,0,0,0,1,.3C116,134.27,116.54,133.2,116.54,130.15Z"/><path class="cls-7" d="M125,134.25a4,4,0,0,0,2.23-.72l1,1.42a5.31,5.31,0,0,1-3.49,1.19c-3,0-4.53-1.92-4.53-4.63s1.51-4.65,4.26-4.65c2.48,0,4.08,1.67,4.08,4.47a6.87,6.87,0,0,1,0,.93H123A2,2,0,0,0,125,134.25Zm-2.13-3.55h3.21c0-1.26-.46-2.1-1.56-2.1C123.63,128.6,123,129.24,122.91,130.7Z"/><path class="cls-7" d="M132.72,127a1.72,1.72,0,1,1-1.73,1.73A1.73,1.73,0,0,1,132.72,127Zm0,5.7a1.72,1.72,0,0,1,0,3.43,1.72,1.72,0,1,1,0-3.43Z"/><path class="cls-7" d="M144.57,133.9v2h-7.4v-2h2.74V127l-2.34,1.46-1.1-1.78,3.67-2.23h2.3v9.41Z"/><path class="cls-7" d="M153.52,133.9v2h-7.39v-2h2.74V127l-2.34,1.46-1.1-1.78,3.67-2.23h2.3v9.41Z"/><path class="cls-7" d="M157.57,127a1.72,1.72,0,1,1-1.73,1.73A1.73,1.73,0,0,1,157.57,127Zm0,5.7a1.72,1.72,0,1,1,0,3.43,1.72,1.72,0,1,1,0-3.43Z"/><path class="cls-7" d="M170.43,124l-.72,1.69a5.31,5.31,0,0,0-1.87-.33c-1,0-1.44.35-1.44,1.21v1.17h2.84l-.28,1.79H166.4v6.37h-2.58v-6.37H162V127.7h1.83v-1.27c0-1.71,1.25-3,3.62-3A7.45,7.45,0,0,1,170.43,124Z"/><path class="cls-7" d="M179,130.15c0,3.76-1.4,6-4.12,6s-4.11-2.23-4.11-6,1.38-6,4.11-6S179,126.41,179,130.15Zm-5.79,0a19.65,19.65,0,0,0,.1,2.28l2.77-5.8a1.24,1.24,0,0,0-1.2-.55C173.69,126.08,173.17,127.2,173.17,130.15Zm3.33,0c0-.61,0-1.14,0-1.59L173.84,134a1.39,1.39,0,0,0,1,.3C176,134.27,176.5,133.2,176.5,130.15Z"/><path class="cls-7" d="M183,125.7a1.72,1.72,0,1,1-1.73,1.72A1.73,1.73,0,0,1,183,125.7Zm0,5.7a1.7,1.7,0,0,1,1.72,1.7,1.73,1.73,0,1,1-1.72-1.7Z"/><path class="cls-7" d="M187.88,135.36l4.25-8.92h-5v-2h7.62v1.75l-4.4,9.89Z"/><path class="cls-7" d="M197,135.36l4.24-8.92h-5v-2h7.63v1.75l-4.41,9.89Z"/><path class="cls-7" d="M207.91,125.7a1.72,1.72,0,1,1-1.73,1.72A1.74,1.74,0,0,1,207.91,125.7Zm0,5.7a1.7,1.7,0,0,1,1.71,1.7,1.72,1.72,0,1,1-1.71-1.7Z"/><path class="cls-7" d="M220.27,133.48h-1.14v2.38h-2.49l0-2.38h-4.71v-1.73l3.16-7.55,2.21.81-2.69,6.52h2l.3-2.74h2.2v2.74h1.14Z"/><path class="cls-7" d="M229.1,128.74c0,4.37-2.16,6.62-6.94,7.62l-.53-1.83c2.68-.68,4.17-1.74,4.68-3.53a3.32,3.32,0,0,1-2.33.93c-1.79,0-3.21-1.43-3.21-3.64a4,4,0,0,1,4.14-4.09C227.69,124.2,229.1,126.05,229.1,128.74Zm-4.31,1.38a2.39,2.39,0,0,0,1.63-.67c0-2.3-.22-3.4-1.52-3.4-.94,0-1.52.68-1.52,2.16S224,130.12,224.79,130.12Z"/><rect class="cls-2" x="510.71" y="279.62" width="147.91" height="14.95"/><path class="cls-7" d="M516.53,284.07c2.25,0,3.22,1.79,3.22,4.62s-1.22,4.66-3.49,4.66a2.64,2.64,0,0,1-2.16-1.07l-.09.79h-2.3V280.89l2.59-.27v4.63A2.82,2.82,0,0,1,516.53,284.07Zm.55,4.65c0-2.17-.55-2.74-1.37-2.74a1.72,1.72,0,0,0-1.41,1v3.68a1.46,1.46,0,0,0,1.28.79C516.5,291.46,517.08,290.68,517.08,288.72Z"/><path class="cls-7" d="M528.53,284.32a2.78,2.78,0,0,1-2.32,2.73c1.57.21,2.68,1,2.68,2.82s-1.66,3.48-4.4,3.48a5.1,5.1,0,0,1-4-1.71l1.46-1.36a3,3,0,0,0,2.37,1.08c1.12,0,1.91-.59,1.91-1.67s-.7-1.7-1.93-1.7h-1l.29-1.79h.74c1,0,1.72-.49,1.72-1.49,0-.85-.68-1.37-1.65-1.37a3.18,3.18,0,0,0-2.27,1l-1.33-1.38a5.37,5.37,0,0,1,3.89-1.53C527.11,281.41,528.53,282.73,528.53,284.32Z"/><path class="cls-7" d="M533,284.22a1.72,1.72,0,1,1-1.74,1.73A1.75,1.75,0,0,1,533,284.22Zm0,5.7a1.7,1.7,0,0,1,1.71,1.7,1.72,1.72,0,0,1-1.71,1.73,1.75,1.75,0,0,1-1.74-1.73A1.73,1.73,0,0,1,533,289.92Z"/><path class="cls-7" d="M542.41,284.07c2.25,0,3.22,1.79,3.22,4.62s-1.22,4.66-3.49,4.66a2.64,2.64,0,0,1-2.16-1.07l-.09.79h-2.3V280.89l2.59-.27v4.63A2.82,2.82,0,0,1,542.41,284.07Zm.55,4.65c0-2.17-.55-2.74-1.37-2.74a1.72,1.72,0,0,0-1.41,1v3.68a1.46,1.46,0,0,0,1.28.79C542.38,291.46,543,290.68,543,288.72Z"/><path class="cls-7" d="M555.24,289.21a3.94,3.94,0,0,1-4,4.14c-3,0-4.23-2.49-4.23-5.43,0-3.83,1.86-6.51,4.93-6.51a4.23,4.23,0,0,1,2.47.73l-1,1.57a2.56,2.56,0,0,0-1.44-.46c-1.24,0-2.16,1.15-2.28,3.23a3.32,3.32,0,0,1,2.39-1C553.83,285.45,555.24,286.8,555.24,289.21Zm-2.59.15c0-1.55-.47-2.12-1.27-2.12a2.31,2.31,0,0,0-1.71.87c0,2.27.41,3.39,1.57,3.39C552.21,291.5,552.65,290.54,552.65,289.36Z"/><path class="cls-7" d="M559.24,282.91a1.72,1.72,0,1,1-1.73,1.72A1.73,1.73,0,0,1,559.24,282.91Zm0,5.7a1.7,1.7,0,0,1,1.72,1.7,1.73,1.73,0,1,1-1.72-1.7Z"/><path class="cls-7" d="M571.53,289.21a3.94,3.94,0,0,1-4,4.14c-3,0-4.23-2.49-4.23-5.43,0-3.83,1.86-6.51,4.93-6.51a4.23,4.23,0,0,1,2.47.73l-1,1.57a2.56,2.56,0,0,0-1.44-.46c-1.24,0-2.16,1.15-2.28,3.23a3.32,3.32,0,0,1,2.39-1C570.12,285.45,571.53,286.8,571.53,289.21Zm-2.59.15c0-1.55-.47-2.12-1.27-2.12a2.3,2.3,0,0,0-1.71.87c0,2.27.41,3.39,1.56,3.39C568.5,291.5,568.94,290.54,568.94,289.36Z"/><path class="cls-7" d="M581.17,281.17l-.71,1.69a5.31,5.31,0,0,0-1.87-.33c-1,0-1.44.35-1.44,1.21v1.16H580l-.29,1.8h-2.55v6.37h-2.58V286.7h-1.83v-1.8h1.83v-1.26c0-1.72,1.25-3,3.62-3A7.37,7.37,0,0,1,581.17,281.17Z"/><path class="cls-7" d="M584.42,284.22a1.72,1.72,0,1,1-1.73,1.73A1.73,1.73,0,0,1,584.42,284.22Zm0,5.7a1.7,1.7,0,0,1,1.72,1.7,1.73,1.73,0,1,1-1.72-1.7Z"/><path class="cls-7" d="M596.75,286c0,4.36-2.16,6.62-6.94,7.61l-.53-1.82c2.68-.68,4.17-1.74,4.68-3.53a3.27,3.27,0,0,1-5.54-2.71,4,4,0,0,1,4.14-4.09C595.35,281.41,596.75,283.25,596.75,286Zm-4.31,1.38a2.39,2.39,0,0,0,1.63-.67c0-2.3-.22-3.41-1.52-3.41-.94,0-1.52.69-1.52,2.17S591.66,287.33,592.44,287.33Z"/><path class="cls-7" d="M606.06,291.61l-.53,1.71a2.49,2.49,0,0,1-2.14-1.15,3.75,3.75,0,0,1-2.87,1.18,2.7,2.7,0,0,1-2.95-2.74c0-1.89,1.55-3,4.25-3H603v-.33c0-.91-.6-1.34-1.72-1.34a8.31,8.31,0,0,0-2.39.46l-.6-1.73a10.41,10.41,0,0,1,3.4-.64c2.59,0,3.81,1.08,3.81,3.08v3.41C605.49,291.22,605.65,291.46,606.06,291.61ZM603,290.54v-1.42h-.64c-1.44,0-2.1.46-2.1,1.31a1,1,0,0,0,1.17,1.07A1.88,1.88,0,0,0,603,290.54Z"/><path class="cls-7" d="M610.27,284.22a1.72,1.72,0,1,1-1.74,1.73A1.75,1.75,0,0,1,610.27,284.22Zm0,5.7a1.7,1.7,0,0,1,1.71,1.7,1.72,1.72,0,0,1-1.71,1.73,1.75,1.75,0,0,1-1.74-1.73A1.73,1.73,0,0,1,610.27,289.92Z"/><path class="cls-7" d="M622.53,287.36c0,3.76-1.39,6-4.11,6s-4.11-2.23-4.11-6,1.38-5.95,4.11-5.95S622.53,283.62,622.53,287.36Zm-5.78,0a22.68,22.68,0,0,0,.09,2.28l2.78-5.8a1.24,1.24,0,0,0-1.2-.55C617.26,283.29,616.75,284.41,616.75,287.36Zm3.33,0c0-.62,0-1.14,0-1.59l-2.62,5.41a1.38,1.38,0,0,0,1,.3C619.58,291.48,620.08,290.4,620.08,287.36Z"/><path class="cls-7" d="M628.58,291.46a4.13,4.13,0,0,0,2.23-.72l1,1.41a5.21,5.21,0,0,1-3.48,1.2c-3,0-4.53-1.92-4.53-4.63s1.51-4.65,4.26-4.65c2.48,0,4.08,1.66,4.08,4.47a6.87,6.87,0,0,1,0,.93h-5.64A2,2,0,0,0,628.58,291.46Zm-2.13-3.55h3.2c0-1.27-.45-2.1-1.55-2.1C627.17,285.81,626.57,286.45,626.45,287.91Z"/><path class="cls-7" d="M636.26,284.22a1.72,1.72,0,1,1-1.73,1.73A1.73,1.73,0,0,1,636.26,284.22Zm0,5.7a1.7,1.7,0,0,1,1.71,1.7,1.72,1.72,0,1,1-1.71-1.7Z"/><path class="cls-7" d="M648.53,287.36c0,3.76-1.4,6-4.12,6s-4.11-2.23-4.11-6,1.38-5.95,4.11-5.95S648.53,283.62,648.53,287.36Zm-5.79,0a19.65,19.65,0,0,0,.1,2.28l2.77-5.8a1.24,1.24,0,0,0-1.2-.55C643.26,283.29,642.74,284.41,642.74,287.36Zm3.33,0c0-.62,0-1.14,0-1.59l-2.62,5.41a1.39,1.39,0,0,0,1,.3C645.57,291.48,646.07,290.4,646.07,287.36Z"/><path class="cls-7" d="M657.62,291.11v2h-7.4v-2H653v-6.86l-2.34,1.46-1.1-1.78,3.67-2.24h2.3v9.42Z"/></g><g id="Layer_3" data-name="Layer 3"><text class="cls-8" transform="translate(1102 268.86)">{<tspan x="0" y="38.4" xml:space="preserve">  </tspan><tspan class="cls-9" x="39.38" y="38.4">&quot;</tspan><tspan class="cls-10" x="56.4" y="38.4">a</tspan><tspan class="cls-11" x="75.58" y="38.4">n</tspan><tspan class="cls-12" x="94.97" y="38.4">o</tspan><tspan class="cls-13" x="114.41" y="38.4">n</tspan><tspan class="cls-14" x="133.19" y="38.4">y</tspan><tspan class="cls-15" x="153.19" y="38.4">m</tspan><tspan class="cls-16" x="172.41" y="38.4">i</tspan><tspan class="cls-17" x="190.91" y="38.4">z</tspan><tspan class="cls-18" x="209.37" y="38.4">e</tspan><tspan class="cls-19" x="228.89" y="38.4">d</tspan><tspan class="cls-20" x="246.58" y="38.4">&quot;</tspan><tspan class="cls-21" x="261.1" y="38.4">: </tspan><tspan class="cls-22" x="300.48" y="38.4">t</tspan><tspan class="cls-23" x="319.25" y="38.4">r</tspan><tspan class="cls-24" x="338.36" y="38.4">u</tspan><tspan class="cls-25" x="357.68" y="38.4">e</tspan><tspan class="cls-21" x="373.96" y="38.4">,</tspan><tspan x="0" y="76.8" xml:space="preserve">  </tspan><tspan class="cls-26" x="39.38" y="76.8">&quot;</tspan><tspan class="cls-27" x="56.4" y="76.8">a</tspan><tspan class="cls-28" x="75.14" y="76.8">6</tspan><tspan class="cls-29" x="94.28" y="76.8">d</tspan><tspan class="cls-30" x="113.39" y="76.8">3</tspan><tspan class="cls-31" x="131.11" y="76.8">1</tspan><tspan class="cls-32" x="149.65" y="76.8">2</tspan><tspan class="cls-33" x="167.5" y="76.8">f</tspan><tspan class="cls-34" x="186.13" y="76.8">5</tspan><tspan class="cls-35" x="203.82" y="76.8">7</tspan><tspan class="cls-36" x="221.8" y="76.8">7</tspan><tspan class="cls-37" x="239.83" y="76.8">9</tspan><tspan class="cls-38" x="257.7" y="76.8">5</tspan><tspan class="cls-39" x="274.28" y="76.8">&quot;</tspan><tspan x="288.8" y="76.8">: {</tspan><tspan x="0" y="115.2" xml:space="preserve">    </tspan><tspan class="cls-40" x="78.77" y="115.2">&quot;</tspan><tspan class="cls-41" x="95.78" y="115.2">a</tspan><tspan class="cls-42" x="114.13" y="115.2">9</tspan><tspan class="cls-43" x="132.59" y="115.2">f</tspan><tspan class="cls-44" x="151.22" y="115.2">5</tspan><tspan class="cls-45" x="170.15" y="115.2">d</tspan><tspan class="cls-46" x="189.25" y="115.2">3</tspan><tspan class="cls-47" x="206.96" y="115.2">f</tspan><tspan class="cls-48" x="225.13" y="115.2">e</tspan><tspan class="cls-49" x="244.15" y="115.2">8</tspan><tspan class="cls-50" x="262.72" y="115.2">0</tspan><tspan class="cls-51" x="281.36" y="115.2">9</tspan><tspan class="cls-52" x="299.59" y="115.2">1</tspan><tspan class="cls-53" x="315.33" y="115.2">&quot;</tspan><tspan x="329.85" y="115.2">: </tspan><tspan class="cls-54" x="369.23" y="115.2">n</tspan><tspan class="cls-55" x="388.51" y="115.2">u</tspan><tspan class="cls-56" x="405.7" y="115.2">l</tspan><tspan class="cls-57" x="421.75" y="115.2">l</tspan><tspan x="437.77" y="115.2">,</tspan><tspan x="0" y="153.6" xml:space="preserve">    </tspan><tspan class="cls-58" x="78.77" y="153.6">&quot;</tspan><tspan class="cls-59" x="95.2" y="153.6">c</tspan><tspan class="cls-60" x="113.22" y="153.6">1</tspan><tspan class="cls-42" x="131.03" y="153.6">9</tspan><tspan class="cls-61" x="149.5" y="153.6">ff</tspan><tspan class="cls-62" x="185.94" y="153.6">f</tspan><tspan class="cls-63" x="204.12" y="153.6">00</tspan><tspan class="cls-64" x="241.63" y="153.6">0</tspan><tspan class="cls-65" x="259.69" y="153.6">2</tspan><tspan class="cls-66" x="277.62" y="153.6">0</tspan><tspan class="cls-67" x="296.07" y="153.6">f</tspan><tspan class="cls-53" x="314.3" y="153.6">&quot;</tspan><tspan x="328.82" y="153.6">: {</tspan><tspan x="0" y="192" xml:space="preserve">      </tspan><tspan class="cls-68" x="118.15" y="192">&quot;</tspan><tspan class="cls-69" x="134.08" y="192">4</tspan><tspan class="cls-70" x="152.54" y="192">3</tspan><tspan class="cls-71" x="170.26" y="192">1</tspan><tspan class="cls-72" x="189.43" y="192">a</tspan><tspan class="cls-73" x="208.25" y="192">0</tspan><tspan class="cls-72" x="227.15" y="192">a</tspan><tspan class="cls-74" x="245.97" y="192">0</tspan><tspan class="cls-75" x="264.72" y="192">0</tspan><tspan class="cls-76" x="282.42" y="192">7</tspan><tspan class="cls-77" x="300.27" y="192">8</tspan><tspan class="cls-78" x="319.33" y="192">e</tspan><tspan class="cls-79" x="338.71" y="192">b</tspan><tspan class="cls-80" x="355.95" y="192">&quot;</tspan><tspan x="370.47" y="192">: </tspan><tspan class="cls-81" x="409.85" y="192">n</tspan><tspan class="cls-55" x="429.12" y="192">u</tspan><tspan class="cls-82" x="446.32" y="192">l</tspan><tspan class="cls-83" x="462.37" y="192">l</tspan><tspan x="478.38" y="192">,</tspan><tspan x="0" y="230.4" xml:space="preserve">      </tspan><tspan class="cls-84" x="118.15" y="230.4">&quot;</tspan><tspan class="cls-85" x="135.18" y="230.4">d</tspan><tspan class="cls-86" x="154.3" y="230.4">6</tspan><tspan class="cls-87" x="172.98" y="230.4">3</tspan><tspan class="cls-88" x="190.94" y="230.4">2</tspan><tspan class="cls-89" x="208.52" y="230.4">7</tspan><tspan class="cls-90" x="226.55" y="230.4">1</tspan><tspan class="cls-72" x="245.73" y="230.4">a</tspan><tspan class="cls-74" x="264.55" y="230.4">0000</tspan><tspan class="cls-91" x="339.57" y="230.4">0</tspan><tspan class="cls-80" x="356.82" y="230.4">&quot;</tspan><tspan x="371.34" y="230.4">: {</tspan><tspan x="0" y="268.8" xml:space="preserve">        </tspan><tspan class="cls-92" x="157.53" y="268.8">&quot;</tspan><tspan class="cls-90" x="175.26" y="268.8">b</tspan><tspan class="cls-93" x="194.43" y="268.8">4</tspan><tspan class="cls-94" x="212" y="268.8">9</tspan><tspan class="cls-95" x="230.46" y="268.8">f</tspan><tspan class="cls-96" x="249.53" y="268.8">7</tspan><tspan class="cls-97" x="266.7" y="268.8">d</tspan><tspan class="cls-98" x="285.44" y="268.8">2</tspan><tspan class="cls-87" x="304.22" y="268.8">3</tspan><tspan class="cls-98" x="322.18" y="268.8">2</tspan><tspan class="cls-99" x="340.96" y="268.8">3</tspan><tspan class="cls-100" x="359.02" y="268.8">5</tspan><tspan class="cls-101" x="377.42" y="268.8">6</tspan><tspan class="cls-80" x="393.74" y="268.8">&quot;</tspan><tspan x="408.27" y="268.8">: </tspan><tspan class="cls-81" x="447.65" y="268.8">n</tspan><tspan class="cls-55" x="466.92" y="268.8">u</tspan><tspan class="cls-82" x="484.12" y="268.8">l</tspan><tspan x="500.17" y="268.8">l</tspan><tspan x="0" y="307.2" xml:space="preserve">      </tspan><tspan class="cls-102" x="118.15" y="307.2">}</tspan><tspan x="131.57" y="307.2">,</tspan><tspan x="0" y="345.6" xml:space="preserve">    </tspan><tspan class="cls-103" x="78.77" y="345.6">&quot;</tspan><tspan class="cls-104" x="96.5" y="345.6">b</tspan><tspan class="cls-105" x="115.61" y="345.6">3</tspan><tspan class="cls-106" x="134.18" y="345.6">b</tspan><tspan class="cls-107" x="153.45" y="345.6">6</tspan><tspan class="cls-108" x="172.08" y="345.6">6</tspan><tspan class="cls-109" x="189.99" y="345.6">f</tspan><tspan class="cls-110" x="208.46" y="345.6">9</tspan><tspan class="cls-111" x="226.88" y="345.6">a</tspan><tspan class="cls-112" x="245.7" y="345.6">0</tspan><tspan class="cls-113" x="264.73" y="345.6">e</tspan><tspan class="cls-114" x="283.81" y="345.6">0</tspan><tspan class="cls-52" x="301.81" y="345.6">1</tspan><tspan class="cls-53" x="317.55" y="345.6">&quot;</tspan><tspan x="332.07" y="345.6">: {</tspan><tspan x="0" y="384" xml:space="preserve">      </tspan><tspan class="cls-115" x="118.15" y="384">&quot;</tspan><tspan class="cls-116" x="135.76" y="384">9</tspan><tspan class="cls-72" x="154.18" y="384">a</tspan><tspan class="cls-117" x="173.01" y="384">0</tspan><tspan class="cls-118" x="192.04" y="384">e</tspan><tspan class="cls-119" x="209.8" y="384">1</tspan><tspan class="cls-120" x="227.54" y="384">1</tspan><tspan class="cls-121" x="244.32" y="384">f</tspan><tspan class="cls-75" x="262.5" y="384">0</tspan><tspan class="cls-122" x="280.2" y="384">7</tspan><tspan class="cls-123" x="298.19" y="384">7</tspan><tspan class="cls-124" x="314.38" y="384">4</tspan><tspan class="cls-125" x="331.95" y="384">9</tspan><tspan class="cls-80" x="349.41" y="384">&quot;</tspan><tspan x="363.94" y="384">: </tspan><tspan class="cls-81" x="403.32" y="384">n</tspan><tspan class="cls-55" x="422.59" y="384">u</tspan><tspan class="cls-56" x="439.79" y="384">l</tspan><tspan class="cls-57" x="455.84" y="384">l</tspan><tspan x="471.85" y="384">,</tspan><tspan x="0" y="422.4" xml:space="preserve">      </tspan><tspan class="cls-126" x="118.15" y="422.4">&quot;</tspan><tspan class="cls-127" x="135.33" y="422.4">55</tspan><tspan class="cls-128" x="171.49" y="422.4">5</tspan><tspan class="cls-129" x="188.86" y="422.4">1</tspan><tspan class="cls-98" x="207.41" y="422.4">2</tspan><tspan class="cls-130" x="226.18" y="422.4">3</tspan><tspan class="cls-131" x="244.51" y="422.4">4</tspan><tspan class="cls-100" x="262.61" y="422.4">5</tspan><tspan class="cls-132" x="281" y="422.4">6</tspan><tspan class="cls-133" x="298.44" y="422.4">7</tspan><tspan class="cls-134" x="316.01" y="422.4">f</tspan><tspan class="cls-135" x="334.23" y="422.4">f</tspan><tspan class="cls-80" x="352.46" y="422.4">&quot;</tspan><tspan x="366.98" y="422.4">: </tspan><tspan class="cls-81" x="406.37" y="422.4">n</tspan><tspan class="cls-55" x="425.64" y="422.4">u</tspan><tspan class="cls-82" x="442.83" y="422.4">l</tspan><tspan class="cls-83" x="458.89" y="422.4">l</tspan><tspan x="474.9" y="422.4">,</tspan><tspan x="0" y="460.8" xml:space="preserve">      </tspan><tspan class="cls-136" x="118.15" y="460.8">&quot;</tspan><tspan class="cls-137" x="135.02" y="460.8">7</tspan><tspan class="cls-138" x="153.5" y="460.8">2</tspan><tspan class="cls-139" x="171.92" y="460.8">5</tspan><tspan class="cls-140" x="189.73" y="460.8">9</tspan><tspan class="cls-70" x="207.94" y="460.8">3</tspan><tspan class="cls-141" x="225.66" y="460.8">1</tspan><tspan class="cls-142" x="243.39" y="460.8">1</tspan><tspan class="cls-143" x="261.46" y="460.8">6</tspan><tspan class="cls-134" x="279.38" y="460.8">f</tspan><tspan class="cls-144" x="297.6" y="460.8">f</tspan><tspan class="cls-74" x="315.78" y="460.8">0</tspan><tspan class="cls-91" x="334.54" y="460.8">0</tspan><tspan class="cls-80" x="351.79" y="460.8">&quot;</tspan><tspan x="366.31" y="460.8">: </tspan><tspan class="cls-81" x="405.7" y="460.8">n</tspan><tspan class="cls-55" x="424.97" y="460.8">u</tspan><tspan class="cls-82" x="442.16" y="460.8">l</tspan><tspan class="cls-83" x="458.22" y="460.8">l</tspan><tspan x="474.23" y="460.8">,</tspan><tspan x="0" y="499.2" xml:space="preserve">    }</tspan><tspan x="0" y="537.6" xml:space="preserve">  </tspan><tspan class="cls-102" x="39.38" y="537.6">}</tspan><tspan x="52.81" y="537.6">,</tspan><tspan x="0" y="576" xml:space="preserve">  ...</tspan><tspan x="0" y="614.4">}</tspan></text></g></svg>