<svg id="annotations" xmlns="http://www.w3.org/2000/svg" xmlns:xlink="http://www.w3.org/1999/xlink" viewBox="0 0 930 664"><defs><style>.cls-1,.cls-3,.cls-4{fill:none;}.cls-2{clip-path:url(#clip-path);}.cls-3,.cls-4,.cls-5,.cls-6,.cls-7{stroke:#fe0;}.cls-3{stroke-linecap:square;}.cls-3,.cls-4,.cls-5,.cls-7{stroke-miterlimit:10;}.cls-3,.cls-4{stroke-width:0.4px;}.cls-5{stroke-width:4px;}.cls-5,.cls-6,.cls-7{fill:url(#Yellow_Diagonal_Line_2);}.cls-6{stroke-linecap:round;stroke-linejoin:round;}.cls-6,.cls-7{stroke-width:0.3px;}</style><clipPath id="clip-path"><rect id="SVGID" class="cls-1" width="20" height="20"/></clipPath><pattern id="Yellow_Diagonal_Line_2" data-name="Yellow Diagonal Line 2" width="20" height="20" patternUnits="userSpaceOnUse" viewBox="0 0 20 20"><rect class="cls-1" width="20" height="20"/><g id="pattern_2" data-name="pattern 2"><g class="cls-2"><line class="cls-3" y1="20" x2="20"/><line class="cls-3" y1="18" x2="20" y2="-2"/><line class="cls-3" y1="16" x2="20" y2="-4"/><line class="cls-3" y1="14" x2="20" y2="-6"/><line class="cls-3" y1="12" x2="20" y2="-8"/><line class="cls-3" y1="10" x2="20" y2="-10"/><line class="cls-3" y1="8" x2="20" y2="-12"/><line class="cls-3" y1="6" x2="20" y2="-14"/><line class="cls-3" y1="4" x2="20" y2="-16"/><path class="cls-4" d="M20-17"/><path class="cls-4" d="M0,3"/><line class="cls-3" y1="2" x2="20" y2="-18"/><line class="cls-3" x2="20" y2="-20"/><line class="cls-3" y1="22" x2="20" y2="2"/><line class="cls-3" y1="24" x2="20" y2="4"/><line class="cls-3" y1="26" x2="20" y2="6"/><line class="cls-3" y1="28" x2="20" y2="8"/><line class="cls-3" y1="30" x2="20" y2="10"/><line class="cls-3" y1="32" x2="20" y2="12"/><line class="cls-3" y1="34" x2="20" y2="14"/><line class="cls-3" y1="36" x2="20" y2="16"/><line class="cls-3" y1="38" x2="20" y2="18"/><line class="cls-3" y1="40" x2="20" y2="20"/></g></g></pattern></defs><title>Artboard 1</title><g id="w3"><line class="cls-5" x1="644" y1="317" x2="667" y2="289"/><polygon class="cls-6" points="527.65 214.77 506.34 225.28 513.95 243.44 535.07 235 527.65 214.77"/><path class="cls-7" d="M642,312l-23,1c-2-18,15-43,40-49l4,23Z"/><line class="cls-5" x1="502.26" y1="223.49" x2="531.07" y2="209.53"/></g></svg>