<svg id="annotations" xmlns="http://www.w3.org/2000/svg" xmlns:xlink="http://www.w3.org/1999/xlink" viewBox="0 0 930 664"><defs><style>.cls-1,.cls-3,.cls-4{fill:none;}.cls-2{clip-path:url(#clip-path);}.cls-3,.cls-4,.cls-5,.cls-6,.cls-7{stroke:#fe0;}.cls-3{stroke-linecap:square;}.cls-3,.cls-4,.cls-5,.cls-6{stroke-miterlimit:10;}.cls-3,.cls-4{stroke-width:0.4px;}.cls-5{stroke-width:4px;}.cls-5,.cls-6,.cls-7{fill:url(#Yellow_Diagonal_Line_2);}.cls-6,.cls-7{stroke-width:0.3px;}.cls-7{stroke-linecap:round;stroke-linejoin:round;}</style><clipPath id="clip-path"><rect id="SVGID" class="cls-1" width="20" height="20"/></clipPath><pattern id="Yellow_Diagonal_Line_2" data-name="Yellow Diagonal Line 2" width="20" height="20" patternUnits="userSpaceOnUse" viewBox="0 0 20 20"><rect class="cls-1" width="20" height="20"/><g id="pattern_2" data-name="pattern 2"><g class="cls-2"><line class="cls-3" y1="20" x2="20"/><line class="cls-3" y1="18" x2="20" y2="-2"/><line class="cls-3" y1="16" x2="20" y2="-4"/><line class="cls-3" y1="14" x2="20" y2="-6"/><line class="cls-3" y1="12" x2="20" y2="-8"/><line class="cls-3" y1="10" x2="20" y2="-10"/><line class="cls-3" y1="8" x2="20" y2="-12"/><line class="cls-3" y1="6" x2="20" y2="-14"/><line class="cls-3" y1="4" x2="20" y2="-16"/><path class="cls-4" d="M20-17"/><path class="cls-4" d="M0,3"/><line class="cls-3" y1="2" x2="20" y2="-18"/><line class="cls-3" x2="20" y2="-20"/><line class="cls-3" y1="22" x2="20" y2="2"/><line class="cls-3" y1="24" x2="20" y2="4"/><line class="cls-3" y1="26" x2="20" y2="6"/><line class="cls-3" y1="28" x2="20" y2="8"/><line class="cls-3" y1="30" x2="20" y2="10"/><line class="cls-3" y1="32" x2="20" y2="12"/><line class="cls-3" y1="34" x2="20" y2="14"/><line class="cls-3" y1="36" x2="20" y2="16"/><line class="cls-3" y1="38" x2="20" y2="18"/><line class="cls-3" y1="40" x2="20" y2="20"/></g></g></pattern></defs><title>w4</title><g id="w4"><line class="cls-5" x1="644" y1="317" x2="667" y2="289"/><path class="cls-6" d="M642,312l-23,1c-2-18,15-43,40-49l4,23Z"/><path class="cls-6" d="M764,505l19-2c6,7,2,19-5,24l-17-11Z"/><line class="cls-5" x1="622.26" y1="551.49" x2="651" y2="542"/><line class="cls-5" x1="781" y1="391" x2="786" y2="377"/><line class="cls-5" x1="619.26" y1="542.49" x2="648" y2="533"/><line class="cls-5" x1="734.26" y1="512.49" x2="763" y2="503"/><line class="cls-5" x1="738.26" y1="434.49" x2="732" y2="416"/><polygon class="cls-7" points="648.2 529.69 617.82 539.73 611.54 520.74 641.93 510.7 648.2 529.69"/><polygon class="cls-7" points="758.22 519.68 730 529 726.71 519.02 754.93 509.7 758.22 519.68"/><polygon class="cls-7" points="782.3 374.04 776.68 389.76 751.38 380.72 757 365 782.3 374.04"/><polygon class="cls-7" points="659.2 563.69 613.26 578.87 606.99 559.88 652.93 544.7 659.2 563.69"/><path class="cls-6" d="M735.83,441.14l-9.46,17c-23.62-1.81-36.37-31.15-17.6-50.52l18.35,7.3Z"/></g></svg>