<?xml version="1.0" encoding="UTF-8" standalone="no" ?>
<!DOCTYPE sesx>
<sesx version="1.9">

  <session appBuild="13.0.3.60" appVersion="13.0" audioChannelType="stereo" bitDepth="16" duration="12765242" sampleRate="48000">
    <tracks>
      <audioTrack automationLaneOpenState="false" id="10001" index="1" select="false" visible="true">
        <trackParameters trackHeight="30" trackHue="211" trackMinimized="false">
          <name>subway</name>
        </trackParameters>
        <trackAudioParameters audioChannelType="stereo" automationMode="1" monitoring="false" recordArmed="false" solo="false" soloSafe="false">
          <trackOutput outputID="10000" type="trackID"/>
          <trackInput inputID="1"/>
          <component componentGuid="6c848d82-ee9b-4cec-b549-1e9298a6ebfc" componentID="Audition.Fader" id="trackFader" name="volume" powered="true">
            <parameter index="0" name="volume" parameterValue="1"/>
            <parameter index="1" name="static gain" parameterValue="1"/>
          </component>
          <component componentGuid="6b50baf8-6189-4bc2-98ca-900f9c3f3ecd" componentID="Audition.Mute" id="trackMute" name="Mute" powered="true">
            <parameter index="0" parameterValue="0"/>
            <parameter index="1" name="mute" parameterValue="0"/>
          </component>
          <component componentGuid="2dfd728c-89e2-452f-9202-ab6ec53f508a" componentID="Audition.StereoPanner" id="trackPan" name="StereoPanner" powered="true">
            <parameter index="0" name="Pan" parameterValue="0"/>
          </component>
          <component componentGuid="5cab1873-aff1-478f-a0df-3db9b7e94854" componentID="Audition.EQ" id="trackEQ" name="EQ" powered="false">
            <parameter index="0" name="Low Shelf Frequency" parameterValue="0.000834028352983295917510986328125"/>
            <parameter index="1" name="Low Shelf Gain" parameterValue="0.5"/>
            <parameter index="2" name="High Shelf Frequency" parameterValue="0.74979150295257568359375"/>
            <parameter index="3" name="High Shelf Gain" parameterValue="0.5"/>
            <parameter index="4" name="EQ Band 1 Center Frequency" parameterValue="0.00125104258768260478973388671875"/>
            <parameter index="5" name="EQ Band 1 Q" parameterValue="0.000199989997781813144683837890625"/>
            <parameter index="6" name="EQ Band 1 Gain" parameterValue="0.5"/>
            <parameter index="7" name="EQ Band 1 Enable" parameterValue="1"/>
            <parameter index="8" name="EQ Band 2 Center Frequency" parameterValue="0.0075062550604343414306640625"/>
            <parameter index="9" name="EQ Band 2 Q" parameterValue="0.000199989997781813144683837890625"/>
            <parameter index="10" name="EQ Band 2 Gain" parameterValue="0.5"/>
            <parameter index="11" name="EQ Band 2 Enable" parameterValue="1"/>
            <parameter index="12" name="EQ Band 3 Center Frequency" parameterValue="0.0325271077454090118408203125"/>
            <parameter index="13" name="EQ Band 3 Q" parameterValue="0.000199989997781813144683837890625"/>
            <parameter index="14" name="EQ Band 3 Gain" parameterValue="0.5"/>
            <parameter index="15" name="EQ Band 3 Enable" parameterValue="1"/>
            <parameter index="16" name="EQ Band 4 Center Frequency" parameterValue="0.13261051476001739501953125"/>
            <parameter index="17" name="EQ Band 4 Q" parameterValue="0.000199989997781813144683837890625"/>
            <parameter index="18" name="EQ Band 4 Gain" parameterValue="0.5"/>
            <parameter index="19" name="EQ Band 4 Enable" parameterValue="1"/>
            <parameter index="20" name="EQ Band 5 Center Frequency" parameterValue="0.532944142818450927734375"/>
            <parameter index="21" name="EQ Band 5 Q" parameterValue="0.000199989997781813144683837890625"/>
            <parameter index="22" name="EQ Band 5 Gain" parameterValue="0.5"/>
            <parameter index="23" name="EQ Band 5 Enable" parameterValue="1"/>
            <parameter index="24" name="Master Gain" parameterValue="0.666666686534881591796875"/>
            <parameter index="25" name="ConstantQ" parameterValue="1"/>
            <parameter index="26" name="Low Shelf Filter Order" parameterValue="0"/>
            <parameter index="27" name="High Shelf Filter Order" parameterValue="0"/>
            <parameter index="28" name="Ultra-Quiet Mode" parameterValue="0"/>
            <parameter index="29" name="Low Shelf Enable" parameterValue="1"/>
            <parameter index="30" name="High Shelf Enable" parameterValue="1"/>
            <parameter index="31" name="Original Sample Rate" parameterValue="0.25"/>
            <parameter index="32" name="EQ Band 1 Bandwidth" parameterValue="0.002499990165233612060546875"/>
            <parameter index="33" name="EQ Band 2 Bandwidth" parameterValue="0.0099999904632568359375"/>
            <parameter index="34" name="EQ Band 3 Bandwidth" parameterValue="0.0399999916553497314453125"/>
            <parameter index="35" name="EQ Band 4 Bandwidth" parameterValue="0.15999998152256011962890625"/>
            <parameter index="36" name="EQ Band 5 Bandwidth" parameterValue="0.63999998569488525390625"/>
            <parameter index="37" name="High-Pass Filter Enable" parameterValue="0"/>
            <parameter index="38" name="High-Pass Cutoff Frequency" parameterValue="0"/>
            <parameter index="39" name="High-Pass Slope" parameterValue="0.4000000059604644775390625"/>
            <parameter index="40" name="Low-Pass Filter Enable" parameterValue="0"/>
            <parameter index="41" name="Low-Pass Cutoff Frequency" parameterValue="0.833194315433502197265625"/>
            <parameter index="42" name="Low-Pass Slope" parameterValue="0.4000000059604644775390625"/>
            <parameter index="43" name="Bypass" parameterValue="0"/>
            <parameter index="44" name="LowGraphRange" parameterValue="1"/>
          </component>
        </trackAudioParameters>
        <editParameter parameterIndex="0" slotIndex="4294967280"/>
        <audioClip clipAutoCrossfade="true" crossFadeHeadClipID="-1" crossFadeTailClipID="-1" endPoint="528000" fileID="0" hue="-1" id="0" lockedInTime="false" looped="false" name="Subway: L Train between Morgan Av and Jefferson St" offline="false" select="false" sourceInPoint="5333031" sourceOutPoint="5861031" startPoint="0" zOrder="0">
          <component componentGuid="29dbec36-30af-4f5e-991e-25b55c740297" componentID="Audition.Fader" id="clipGain" name="volume" powered="true">
            <parameter index="0" name="volume" parameterValue="3.23873615264892578125"/>
            <parameter index="1" name="static gain" parameterValue="1"/>
          </component>
          <component componentGuid="59ed72a3-5939-4746-9707-e91f6342b512" componentID="Audition.Mute" id="clipMute" name="Mute" powered="true">
            <parameter index="0" parameterValue="0"/>
            <parameter index="1" name="mute" parameterValue="0"/>
          </component>
          <component componentGuid="e421a0fa-8c0a-4f57-9b40-f490207df8d0" componentID="Audition.StereoPanner" id="clipPan" name="StereoPanner" powered="true">
            <parameter index="0" name="Pan" parameterValue="100">
              <parameterKeyframes enableSplines="false" readOnly="false">
                <parameterKeyframe sampleOffset="5333287" select="false" type="linear" value="1"/>
                <parameterKeyframe sampleOffset="5859101" select="true" type="linear" value="0"/>
              </parameterKeyframes>
            </parameter>
          </component>
          <fadeIn crossFadeLinkType="linkedAsymmetric" endPoint="78072" shape="19" startPoint="0" type="log"/>
          <fadeOut crossFadeLinkType="linkedAsymmetric" endPoint="528000" shape="13" startPoint="489714" type="log"/>
          <editParameter parameterIndex="0" slotIndex="4294967280"/>
          <editParameter parameterIndex="0" slotIndex="4294967281"/>
          <channelMap>
            <channel index="0" sourceIndex="0"/>
            <channel index="1" sourceIndex="1"/>
          </channelMap>
        </audioClip>
        <audioClip clipAutoCrossfade="true" crossFadeHeadClipID="-1" crossFadeTailClipID="-1" endPoint="1152000" fileID="10" hue="-1" id="1" lockedInTime="false" looped="true" name="Newtown Creek: ExxonMobil sewage outfall near Meeker Ave" offline="false" select="false" sourceInPoint="190402" sourceOutPoint="670402" startPoint="672000" zOrder="1">
          <effectsRack preFader="true">
            <component componentGuid="e5a206f1-568b-43d4-8e8b-5082a76aac6f" componentID="Audition.ComponentGroup" id="rackMix" powered="true">
              <parameter index="0" parameterValue="0"/>
              <parameter index="1" parameterValue="0"/>
            </component>
            <component componentGuid="5a756b77-845f-44ba-9a67-a468f0b1aa9d" id="rackInput" powered="true">
              <parameter index="0" parameterValue="1"/>
              <parameter index="1" parameterValue="0"/>
            </component>
            <component componentGuid="8deb802d-d548-4725-98e8-be15de9b9ba9" id="rackOutput" powered="true">
              <parameter index="0" parameterValue="1"/>
              <parameter index="1" parameterValue="0"/>
            </component>
            <slot powered="true" slotIndex="0">
              <component componentGuid="6471bfe0-6c7a-429e-8501-665330a11752" componentID="8edcd326-33de-4a4d-985b-f1bf48ed1427" name="Parametric Equalizer" presetName="(Custom)">
                <busConfig><![CDATA[{"in":[{"layout":[100,101],"name":"","type":0}],"out":[{"layout":[100,101],"name":"","type":0}]}]]></busConfig>
                <channelMap direction="input">
                  <channel index="0" sourceIndex="0"/>
                  <channel index="1" sourceIndex="1"/>
                </channelMap>
                <channelMap direction="output">
                  <channel index="0" sourceIndex="0"/>
                  <channel index="1" sourceIndex="1"/>
                </channelMap>
                <parameter index="0" name="Low Shelf Frequency" parameterValue="0.01096434891223907470703125"/>
                <parameter index="1" name="Low Shelf Gain" parameterValue="0.30526316165924072265625"/>
                <parameter index="2" name="High Shelf Frequency" parameterValue="0.6590182781219482421875"/>
                <parameter index="3" name="High Shelf Gain" parameterValue="0.310526311397552490234375"/>
                <parameter index="4" name="EQ Band 1 Center Frequency" parameterValue="0.00125104002654552459716796875"/>
                <parameter index="5" name="EQ Band 1 Q" parameterValue="0.000199989997781813144683837890625"/>
                <parameter index="6" name="EQ Band 1 Gain" parameterValue="0.5"/>
                <parameter index="7" name="EQ Band 1 Enable" parameterValue="0"/>
                <parameter index="8" name="EQ Band 2 Center Frequency" parameterValue="0.0075062601827085018157958984375"/>
                <parameter index="9" name="EQ Band 2 Q" parameterValue="0.000199989997781813144683837890625"/>
                <parameter index="10" name="EQ Band 2 Gain" parameterValue="0.5"/>
                <parameter index="11" name="EQ Band 2 Enable" parameterValue="0"/>
                <parameter index="12" name="EQ Band 3 Center Frequency" parameterValue="0.0203359127044677734375"/>
                <parameter index="13" name="EQ Band 3 Q" parameterValue="0.00014998999540694057941436767578125"/>
                <parameter index="14" name="EQ Band 3 Gain" parameterValue="0.5"/>
                <parameter index="15" name="EQ Band 3 Enable" parameterValue="1"/>
                <parameter index="16" name="EQ Band 4 Center Frequency" parameterValue="0.13269354403018951416015625"/>
                <parameter index="17" name="EQ Band 4 Q" parameterValue="0.000199989997781813144683837890625"/>
                <parameter index="18" name="EQ Band 4 Gain" parameterValue="0.4684210717678070068359375"/>
                <parameter index="19" name="EQ Band 4 Enable" parameterValue="1"/>
                <parameter index="20" name="EQ Band 5 Center Frequency" parameterValue="0.550053060054779052734375"/>
                <parameter index="21" name="EQ Band 5 Q" parameterValue="0.000199989997781813144683837890625"/>
                <parameter index="22" name="EQ Band 5 Gain" parameterValue="0.4736842215061187744140625"/>
                <parameter index="23" name="EQ Band 5 Enable" parameterValue="1"/>
                <parameter index="24" name="Master Gain" parameterValue="0.66666698455810546875"/>
                <parameter index="25" name="ConstantQ" parameterValue="1"/>
                <parameter index="26" name="Low Shelf Filter Order" parameterValue="0"/>
                <parameter index="27" name="High Shelf Filter Order" parameterValue="0"/>
                <parameter index="28" name="Ultra-Quiet Mode" parameterValue="1"/>
                <parameter index="29" name="Low Shelf Enable" parameterValue="1"/>
                <parameter index="30" name="High Shelf Enable" parameterValue="0"/>
                <parameter index="31" name="Original Sample Rate" parameterValue="0.25"/>
                <parameter index="32" name="EQ Band 1 Bandwidth" parameterValue="0.00249998713843524456024169921875"/>
                <parameter index="33" name="EQ Band 2 Bandwidth" parameterValue="0.00999999605119228363037109375"/>
                <parameter index="34" name="EQ Band 3 Bandwidth" parameterValue="0.0338436700403690338134765625"/>
                <parameter index="35" name="EQ Band 4 Bandwidth" parameterValue="0.16009955108165740966796875"/>
                <parameter index="36" name="EQ Band 5 Bandwidth" parameterValue="0.6605136394500732421875"/>
                <parameter index="37" name="High-Pass Filter Enable" parameterValue="1"/>
                <parameter index="38" name="High-Pass Cutoff Frequency" parameterValue="0.008139776997268199920654296875"/>
                <parameter index="39" name="High-Pass Slope" parameterValue="0.60000002384185791015625"/>
                <parameter index="40" name="Low-Pass Filter Enable" parameterValue="0"/>
                <parameter index="41" name="Low-Pass Cutoff Frequency" parameterValue="0.568538725376129150390625"/>
                <parameter index="42" name="Low-Pass Slope" parameterValue="0.800000011920928955078125"/>
                <parameter index="43" name="Bypass" parameterValue="0"/>
                <parameter index="44" name="LowGraphRange" parameterValue="0"/>
              </component>
            </slot>
          </effectsRack>
          <component componentGuid="f835413b-d4d1-4dde-a99c-770ae3ca1255" componentID="Audition.Fader" id="clipGain" name="volume" powered="true">
            <parameter index="0" name="volume" parameterValue="1"/>
            <parameter index="1" name="static gain" parameterValue="1"/>
          </component>
          <component componentGuid="ce4a280a-be4c-4afc-8daa-09a0c051429b" componentID="Audition.Mute" id="clipMute" name="Mute" powered="true">
            <parameter index="0" parameterValue="0"/>
            <parameter index="1" name="mute" parameterValue="0"/>
          </component>
          <component componentGuid="b6755192-da72-4eb9-913b-85017382e523" componentID="Audition.StereoPanner" id="clipPan" name="StereoPanner" powered="true">
            <parameter index="0" name="Pan" parameterValue="0"/>
          </component>
          <fadeIn crossFadeLinkType="linkedAsymmetric" endPoint="26482" shape="33" startPoint="0" type="log"/>
          <fadeOut crossFadeLinkType="linkedAsymmetric" endPoint="480000" shape="17" startPoint="435709" type="log"/>
          <editParameter parameterIndex="0" slotIndex="4294967281"/>
          <editParameter parameterIndex="0" slotIndex="4294967280"/>
          <channelMap>
            <channel index="0" sourceIndex="0"/>
            <channel index="1" sourceIndex="1"/>
          </channelMap>
        </audioClip>
      </audioTrack>
      <audioTrack automationLaneOpenState="false" id="10006" index="2" select="false" visible="true">
        <trackParameters trackHeight="30" trackHue="230.400000000000005684341886080801486968994140625" trackMinimized="false">
          <name>persistent</name>
        </trackParameters>
        <trackAudioParameters audioChannelType="stereo" automationMode="1" monitoring="false" recordArmed="false" solo="false" soloSafe="false">
          <trackOutput outputID="10000" type="trackID"/>
          <trackInput inputID="1"/>
          <component componentGuid="ed398664-6318-44cc-99c9-8be0fd4bfc11" componentID="Audition.Fader" id="trackFader" name="volume" powered="true">
            <parameter index="0" name="volume" parameterValue="1"/>
            <parameter index="1" name="static gain" parameterValue="1"/>
          </component>
          <component componentGuid="5d20526d-1977-4c15-b537-ec208fc86111" componentID="Audition.Mute" id="trackMute" name="Mute" powered="true">
            <parameter index="0" parameterValue="0"/>
            <parameter index="1" name="mute" parameterValue="0"/>
          </component>
          <component componentGuid="153bc876-0dc3-4031-a7c7-cc4fce9773a8" componentID="Audition.StereoPanner" id="trackPan" name="StereoPanner" powered="true">
            <parameter index="0" name="Pan" parameterValue="0"/>
          </component>
          <component componentGuid="317be58c-c3f0-4aaf-9d0a-42a1c5c0cbde" componentID="Audition.EQ" id="trackEQ" name="EQ" powered="false">
            <parameter index="0" name="Low Shelf Frequency" parameterValue="0.000834028352983295917510986328125"/>
            <parameter index="1" name="Low Shelf Gain" parameterValue="0.5"/>
            <parameter index="2" name="High Shelf Frequency" parameterValue="0.74979150295257568359375"/>
            <parameter index="3" name="High Shelf Gain" parameterValue="0.5"/>
            <parameter index="4" name="EQ Band 1 Center Frequency" parameterValue="0.00125104258768260478973388671875"/>
            <parameter index="5" name="EQ Band 1 Q" parameterValue="0.000199989997781813144683837890625"/>
            <parameter index="6" name="EQ Band 1 Gain" parameterValue="0.5"/>
            <parameter index="7" name="EQ Band 1 Enable" parameterValue="1"/>
            <parameter index="8" name="EQ Band 2 Center Frequency" parameterValue="0.0075062550604343414306640625"/>
            <parameter index="9" name="EQ Band 2 Q" parameterValue="0.000199989997781813144683837890625"/>
            <parameter index="10" name="EQ Band 2 Gain" parameterValue="0.5"/>
            <parameter index="11" name="EQ Band 2 Enable" parameterValue="1"/>
            <parameter index="12" name="EQ Band 3 Center Frequency" parameterValue="0.0325271077454090118408203125"/>
            <parameter index="13" name="EQ Band 3 Q" parameterValue="0.000199989997781813144683837890625"/>
            <parameter index="14" name="EQ Band 3 Gain" parameterValue="0.5"/>
            <parameter index="15" name="EQ Band 3 Enable" parameterValue="1"/>
            <parameter index="16" name="EQ Band 4 Center Frequency" parameterValue="0.13261051476001739501953125"/>
            <parameter index="17" name="EQ Band 4 Q" parameterValue="0.000199989997781813144683837890625"/>
            <parameter index="18" name="EQ Band 4 Gain" parameterValue="0.5"/>
            <parameter index="19" name="EQ Band 4 Enable" parameterValue="1"/>
            <parameter index="20" name="EQ Band 5 Center Frequency" parameterValue="0.532944142818450927734375"/>
            <parameter index="21" name="EQ Band 5 Q" parameterValue="0.000199989997781813144683837890625"/>
            <parameter index="22" name="EQ Band 5 Gain" parameterValue="0.5"/>
            <parameter index="23" name="EQ Band 5 Enable" parameterValue="1"/>
            <parameter index="24" name="Master Gain" parameterValue="0.666666686534881591796875"/>
            <parameter index="25" name="ConstantQ" parameterValue="1"/>
            <parameter index="26" name="Low Shelf Filter Order" parameterValue="0"/>
            <parameter index="27" name="High Shelf Filter Order" parameterValue="0"/>
            <parameter index="28" name="Ultra-Quiet Mode" parameterValue="0"/>
            <parameter index="29" name="Low Shelf Enable" parameterValue="1"/>
            <parameter index="30" name="High Shelf Enable" parameterValue="1"/>
            <parameter index="31" name="Original Sample Rate" parameterValue="0.25"/>
            <parameter index="32" name="EQ Band 1 Bandwidth" parameterValue="0.002499990165233612060546875"/>
            <parameter index="33" name="EQ Band 2 Bandwidth" parameterValue="0.0099999904632568359375"/>
            <parameter index="34" name="EQ Band 3 Bandwidth" parameterValue="0.0399999916553497314453125"/>
            <parameter index="35" name="EQ Band 4 Bandwidth" parameterValue="0.15999998152256011962890625"/>
            <parameter index="36" name="EQ Band 5 Bandwidth" parameterValue="0.63999998569488525390625"/>
            <parameter index="37" name="High-Pass Filter Enable" parameterValue="0"/>
            <parameter index="38" name="High-Pass Cutoff Frequency" parameterValue="0"/>
            <parameter index="39" name="High-Pass Slope" parameterValue="0.4000000059604644775390625"/>
            <parameter index="40" name="Low-Pass Filter Enable" parameterValue="0"/>
            <parameter index="41" name="Low-Pass Cutoff Frequency" parameterValue="0.833194315433502197265625"/>
            <parameter index="42" name="Low-Pass Slope" parameterValue="0.4000000059604644775390625"/>
            <parameter index="43" name="Bypass" parameterValue="0"/>
            <parameter index="44" name="LowGraphRange" parameterValue="1"/>
          </component>
        </trackAudioParameters>
        <effectsRack preFader="true">
          <component componentGuid="9f66d5a0-2938-423a-8317-3a5c1d868552" componentID="Audition.ComponentGroup" id="rackMix" powered="true">
            <parameter index="0" parameterValue="0"/>
            <parameter index="1" parameterValue="0"/>
          </component>
          <component componentGuid="9ac73a94-c167-43cb-8c09-bd5ad8cbeeb1" id="rackInput" powered="true">
            <parameter index="0" parameterValue="1"/>
            <parameter index="1" parameterValue="0"/>
          </component>
          <component componentGuid="12bceb92-5db1-405b-ab99-8414c5ac2866" id="rackOutput" powered="true">
            <parameter index="0" parameterValue="1"/>
            <parameter index="1" parameterValue="0"/>
          </component>
          <slot powered="true" slotIndex="0">
            <component componentGuid="5c59fa28-5454-4e37-b92d-57823e47ca70" componentID="f14fee7d-fe5f-4202-b790-f53209e56411" editorHeight="283" editorLeft="496" editorTop="299" editorWidth="448" name="Amplify" presetName="+6dB Boost">
              <busConfig><![CDATA[{"in":[{"layout":[100,101],"name":"","type":0}],"out":[{"layout":[100,101],"name":"","type":0}]}]]></busConfig>
              <channelMap direction="input">
                <channel index="0" sourceIndex="0"/>
                <channel index="1" sourceIndex="1"/>
              </channelMap>
              <channelMap direction="output">
                <channel index="0" sourceIndex="0"/>
                <channel index="1" sourceIndex="1"/>
              </channelMap>
              <parameter index="0" name="Channel Count" parameterValue="0.0625"/>
              <parameter index="1" name="Link Sliders" parameterValue="1"/>
              <parameter index="2" name="Left" parameterValue="0.729166686534881591796875"/>
              <parameter index="3" name="Right" parameterValue="0.729166686534881591796875"/>
              <parameter index="4" name="" parameterValue="0.666666686534881591796875"/>
              <parameter index="5" name="" parameterValue="0.666666686534881591796875"/>
              <parameter index="6" name="" parameterValue="0.666666686534881591796875"/>
              <parameter index="7" name="" parameterValue="0.666666686534881591796875"/>
              <parameter index="8" name="" parameterValue="0.666666686534881591796875"/>
              <parameter index="9" name="" parameterValue="0.666666686534881591796875"/>
              <parameter index="10" name="" parameterValue="0.666666686534881591796875"/>
              <parameter index="11" name="" parameterValue="0.666666686534881591796875"/>
              <parameter index="12" name="" parameterValue="0.666666686534881591796875"/>
              <parameter index="13" name="" parameterValue="0.666666686534881591796875"/>
              <parameter index="14" name="" parameterValue="0.666666686534881591796875"/>
              <parameter index="15" name="" parameterValue="0.666666686534881591796875"/>
              <parameter index="16" name="" parameterValue="0.666666686534881591796875"/>
              <parameter index="17" name="" parameterValue="0.666666686534881591796875"/>
              <parameter index="18" name="" parameterValue="0.666666686534881591796875"/>
              <parameter index="19" name="" parameterValue="0.666666686534881591796875"/>
              <parameter index="20" name="" parameterValue="0.666666686534881591796875"/>
              <parameter index="21" name="" parameterValue="0.666666686534881591796875"/>
              <parameter index="22" name="" parameterValue="0.666666686534881591796875"/>
              <parameter index="23" name="" parameterValue="0.666666686534881591796875"/>
              <parameter index="24" name="" parameterValue="0.666666686534881591796875"/>
              <parameter index="25" name="" parameterValue="0.666666686534881591796875"/>
              <parameter index="26" name="" parameterValue="0.666666686534881591796875"/>
              <parameter index="27" name="" parameterValue="0.666666686534881591796875"/>
              <parameter index="28" name="" parameterValue="0.666666686534881591796875"/>
              <parameter index="29" name="" parameterValue="0.666666686534881591796875"/>
              <parameter index="30" name="" parameterValue="0.666666686534881591796875"/>
              <parameter index="31" name="" parameterValue="0.666666686534881591796875"/>
              <parameter index="32" name="" parameterValue="0.666666686534881591796875"/>
              <parameter index="33" name="" parameterValue="0.666666686534881591796875"/>
              <parameter index="34" name="Link Keyframes" parameterValue="1"/>
            </component>
          </slot>
        </effectsRack>
        <editParameter parameterIndex="0" slotIndex="4294967280"/>
        <audioClip clipAutoCrossfade="true" crossFadeHeadClipID="-1" crossFadeTailClipID="-1" endPoint="7776000" fileID="1" hue="-1" id="0" lockedInTime="false" looped="true" name="street-ambience-quiet" offline="false" select="false" sourceInPoint="0" sourceOutPoint="7776000" startPoint="0" zOrder="26">
          <component componentGuid="2c69b1b2-907d-4e0d-9ac6-04a95e070f07" componentID="Audition.Fader" id="clipGain" name="volume" powered="true">
            <parameter index="0" name="volume" parameterValue="1"/>
            <parameter index="1" name="static gain" parameterValue="1"/>
          </component>
          <component componentGuid="5a5ed670-f9be-4a8f-9e49-057637f11d45" componentID="Audition.Mute" id="clipMute" name="Mute" powered="true">
            <parameter index="0" parameterValue="0"/>
            <parameter index="1" name="mute" parameterValue="0"/>
          </component>
          <component componentGuid="8042c0b3-12d8-47c9-bbc5-e04469b293cf" componentID="Audition.StereoPanner" id="clipPan" name="StereoPanner" powered="true">
            <parameter index="0" name="Pan" parameterValue="0"/>
          </component>
          <fadeIn crossFadeLinkType="linkedAsymmetric" endPoint="0" shape="0" startPoint="0" type="cosine"/>
          <fadeOut crossFadeLinkType="linkedAsymmetric" endPoint="7776000" shape="24" startPoint="7128530" type="log"/>
          <editParameter parameterIndex="0" slotIndex="4294967280"/>
          <editParameter parameterIndex="0" slotIndex="4294967281"/>
          <channelMap>
            <channel index="0" sourceIndex="0"/>
            <channel index="1" sourceIndex="1"/>
          </channelMap>
        </audioClip>
        <audioClip clipAutoCrossfade="true" crossFadeHeadClipID="-1" crossFadeTailClipID="2" endPoint="10929086" fileID="10" hue="-1" id="1" lockedInTime="false" looped="true" name="Newtown Creek: ExxonMobil sewage outfall near Meeker Ave" offline="false" select="false" sourceInPoint="190402" sourceOutPoint="3247488" startPoint="7872000" zOrder="1">
          <effectsRack preFader="true">
            <component componentGuid="9f58dd6f-30cd-4c9e-bb08-d27880390e89" componentID="Audition.ComponentGroup" id="rackMix" powered="true">
              <parameter index="0" parameterValue="0"/>
              <parameter index="1" parameterValue="0"/>
            </component>
            <component componentGuid="c34a5c47-94a4-4868-9fd8-35b643096b1f" id="rackInput" powered="true">
              <parameter index="0" parameterValue="1"/>
              <parameter index="1" parameterValue="0"/>
            </component>
            <component componentGuid="5a9856b9-a96e-4bd7-b1a4-7d1eb760e1e0" id="rackOutput" powered="true">
              <parameter index="0" parameterValue="1"/>
              <parameter index="1" parameterValue="0"/>
            </component>
            <slot powered="true" slotIndex="0">
              <component componentGuid="243e4923-f145-450f-bedc-e99009b13d4a" componentID="8edcd326-33de-4a4d-985b-f1bf48ed1427" editorHeight="542" editorLeft="346" editorTop="169" editorWidth="746" name="Parametric Equalizer" presetName="(Custom)">
                <busConfig><![CDATA[{"in":[{"layout":[100,101],"name":"","type":0}],"out":[{"layout":[100,101],"name":"","type":0}]}]]></busConfig>
                <channelMap direction="input">
                  <channel index="0" sourceIndex="0"/>
                  <channel index="1" sourceIndex="1"/>
                </channelMap>
                <channelMap direction="output">
                  <channel index="0" sourceIndex="0"/>
                  <channel index="1" sourceIndex="1"/>
                </channelMap>
                <parameter index="0" name="Low Shelf Frequency" parameterValue="0.01096434891223907470703125"/>
                <parameter index="1" name="Low Shelf Gain" parameterValue="0.30526316165924072265625"/>
                <parameter index="2" name="High Shelf Frequency" parameterValue="0.6590182781219482421875"/>
                <parameter index="3" name="High Shelf Gain" parameterValue="0.310526311397552490234375"/>
                <parameter index="4" name="EQ Band 1 Center Frequency" parameterValue="0.00125104002654552459716796875"/>
                <parameter index="5" name="EQ Band 1 Q" parameterValue="0.000199989997781813144683837890625"/>
                <parameter index="6" name="EQ Band 1 Gain" parameterValue="0.5"/>
                <parameter index="7" name="EQ Band 1 Enable" parameterValue="0"/>
                <parameter index="8" name="EQ Band 2 Center Frequency" parameterValue="0.0075062601827085018157958984375"/>
                <parameter index="9" name="EQ Band 2 Q" parameterValue="0.000199989997781813144683837890625"/>
                <parameter index="10" name="EQ Band 2 Gain" parameterValue="0.5"/>
                <parameter index="11" name="EQ Band 2 Enable" parameterValue="0"/>
                <parameter index="12" name="EQ Band 3 Center Frequency" parameterValue="0.0203359127044677734375"/>
                <parameter index="13" name="EQ Band 3 Q" parameterValue="0.00014998999540694057941436767578125"/>
                <parameter index="14" name="EQ Band 3 Gain" parameterValue="0.5"/>
                <parameter index="15" name="EQ Band 3 Enable" parameterValue="1"/>
                <parameter index="16" name="EQ Band 4 Center Frequency" parameterValue="0.13269354403018951416015625"/>
                <parameter index="17" name="EQ Band 4 Q" parameterValue="0.000199989997781813144683837890625"/>
                <parameter index="18" name="EQ Band 4 Gain" parameterValue="0.4684210717678070068359375"/>
                <parameter index="19" name="EQ Band 4 Enable" parameterValue="1"/>
                <parameter index="20" name="EQ Band 5 Center Frequency" parameterValue="0.550053060054779052734375"/>
                <parameter index="21" name="EQ Band 5 Q" parameterValue="0.000199989997781813144683837890625"/>
                <parameter index="22" name="EQ Band 5 Gain" parameterValue="0.4736842215061187744140625"/>
                <parameter index="23" name="EQ Band 5 Enable" parameterValue="1"/>
                <parameter index="24" name="Master Gain" parameterValue="0.66666698455810546875"/>
                <parameter index="25" name="ConstantQ" parameterValue="1"/>
                <parameter index="26" name="Low Shelf Filter Order" parameterValue="0"/>
                <parameter index="27" name="High Shelf Filter Order" parameterValue="0"/>
                <parameter index="28" name="Ultra-Quiet Mode" parameterValue="1"/>
                <parameter index="29" name="Low Shelf Enable" parameterValue="1"/>
                <parameter index="30" name="High Shelf Enable" parameterValue="0"/>
                <parameter index="31" name="Original Sample Rate" parameterValue="0.25"/>
                <parameter index="32" name="EQ Band 1 Bandwidth" parameterValue="0.00263276020996272563934326171875"/>
                <parameter index="33" name="EQ Band 2 Bandwidth" parameterValue="0.010796637274324893951416015625"/>
                <parameter index="34" name="EQ Band 3 Bandwidth" parameterValue="0.0338436700403690338134765625"/>
                <parameter index="35" name="EQ Band 4 Bandwidth" parameterValue="0.174182355403900146484375"/>
                <parameter index="36" name="EQ Band 5 Bandwidth" parameterValue="0.6605136394500732421875"/>
                <parameter index="37" name="High-Pass Filter Enable" parameterValue="1"/>
                <parameter index="38" name="High-Pass Cutoff Frequency" parameterValue="0.008139776997268199920654296875"/>
                <parameter index="39" name="High-Pass Slope" parameterValue="0.60000002384185791015625"/>
                <parameter index="40" name="Low-Pass Filter Enable" parameterValue="0"/>
                <parameter index="41" name="Low-Pass Cutoff Frequency" parameterValue="0.568538725376129150390625"/>
                <parameter index="42" name="Low-Pass Slope" parameterValue="0.800000011920928955078125"/>
                <parameter index="43" name="Bypass" parameterValue="0"/>
                <parameter index="44" name="LowGraphRange" parameterValue="0"/>
              </component>
            </slot>
          </effectsRack>
          <component componentGuid="764b9199-c0ee-489a-aa9d-a2f625980a22" componentID="Audition.Fader" id="clipGain" name="volume" powered="true">
            <parameter index="0" name="volume" parameterValue="1">
              <parameterKeyframes enableSplines="false" readOnly="false">
                <parameterKeyframe sampleOffset="331400" select="false" type="linear" value="0.64999997615814208984375"/>
                <parameterKeyframe sampleOffset="462738" select="false" type="linear" value="0.24884767830371856689453125"/>
                <parameterKeyframe sampleOffset="1773116" select="false" type="linear" value="0.2562729418277740478515625"/>
                <parameterKeyframe sampleOffset="1774316" select="false" type="linear" value="0.64999997615814208984375"/>
                <parameterKeyframe sampleOffset="2012963" select="false" type="linear" value="0.64999997615814208984375"/>
                <parameterKeyframe sampleOffset="2016520" select="false" type="linear" value="0.303033053874969482421875"/>
              </parameterKeyframes>
            </parameter>
            <parameter index="1" name="static gain" parameterValue="1"/>
          </component>
          <component componentGuid="2c4867ba-5171-40a0-837b-82f45341e567" componentID="Audition.Mute" id="clipMute" name="Mute" powered="true">
            <parameter index="0" parameterValue="0"/>
            <parameter index="1" name="mute" parameterValue="0"/>
          </component>
          <component componentGuid="3dcca65f-c545-436c-abeb-4d799de0837f" componentID="Audition.StereoPanner" id="clipPan" name="StereoPanner" powered="true">
            <parameter index="0" name="Pan" parameterValue="0"/>
          </component>
          <fadeIn crossFadeLinkType="linkedAsymmetric" endPoint="26482" shape="33" startPoint="0" type="log"/>
          <fadeOut crossFadeLinkType="linkedAsymmetric" endPoint="3057086" shape="19" startPoint="2926116" type="log"/>
          <editParameter parameterIndex="0" slotIndex="4294967281"/>
          <editParameter parameterIndex="0" slotIndex="4294967280"/>
          <channelMap>
            <channel index="0" sourceIndex="0"/>
            <channel index="1" sourceIndex="1"/>
          </channelMap>
        </audioClip>
        <audioClip clipAutoCrossfade="true" crossFadeHeadClipID="1" crossFadeTailClipID="-1" endPoint="11376000" fileID="10" hue="-1" id="2" lockedInTime="false" looped="true" name="200302_0226" offline="false" select="false" sourceInPoint="190402" sourceOutPoint="768286" startPoint="10798116" zOrder="2">
          <effectsRack preFader="true">
            <component componentGuid="568ad86d-5b6b-486e-a456-577561447ed6" componentID="Audition.ComponentGroup" id="rackMix" powered="true">
              <parameter index="0" parameterValue="0"/>
              <parameter index="1" parameterValue="0"/>
            </component>
            <component componentGuid="3576f7c0-eaaa-4b7b-92b9-a7ffcc9c2903" id="rackInput" powered="true">
              <parameter index="0" parameterValue="1"/>
              <parameter index="1" parameterValue="0"/>
            </component>
            <component componentGuid="2626ca13-4892-4f34-a36e-8bd7f980952c" id="rackOutput" powered="true">
              <parameter index="0" parameterValue="1"/>
              <parameter index="1" parameterValue="0"/>
            </component>
            <slot powered="true" slotIndex="0">
              <component componentGuid="384ca417-526c-45f1-8862-5efc908aa0fe" componentID="8edcd326-33de-4a4d-985b-f1bf48ed1427" name="Parametric Equalizer" presetName="(Custom)">
                <busConfig><![CDATA[{"in":[{"layout":[100,101],"name":"","type":0}],"out":[{"layout":[100,101],"name":"","type":0}]}]]></busConfig>
                <channelMap direction="input">
                  <channel index="0" sourceIndex="0"/>
                  <channel index="1" sourceIndex="1"/>
                </channelMap>
                <channelMap direction="output">
                  <channel index="0" sourceIndex="0"/>
                  <channel index="1" sourceIndex="1"/>
                </channelMap>
                <parameter index="0" name="Low Shelf Frequency" parameterValue="0.01096434891223907470703125"/>
                <parameter index="1" name="Low Shelf Gain" parameterValue="0.30526316165924072265625"/>
                <parameter index="2" name="High Shelf Frequency" parameterValue="0.6590182781219482421875"/>
                <parameter index="3" name="High Shelf Gain" parameterValue="0.310526311397552490234375"/>
                <parameter index="4" name="EQ Band 1 Center Frequency" parameterValue="0.00125104002654552459716796875"/>
                <parameter index="5" name="EQ Band 1 Q" parameterValue="0.000199989997781813144683837890625"/>
                <parameter index="6" name="EQ Band 1 Gain" parameterValue="0.5"/>
                <parameter index="7" name="EQ Band 1 Enable" parameterValue="0"/>
                <parameter index="8" name="EQ Band 2 Center Frequency" parameterValue="0.0075062601827085018157958984375"/>
                <parameter index="9" name="EQ Band 2 Q" parameterValue="0.000199989997781813144683837890625"/>
                <parameter index="10" name="EQ Band 2 Gain" parameterValue="0.5"/>
                <parameter index="11" name="EQ Band 2 Enable" parameterValue="0"/>
                <parameter index="12" name="EQ Band 3 Center Frequency" parameterValue="0.0203359127044677734375"/>
                <parameter index="13" name="EQ Band 3 Q" parameterValue="0.00014998999540694057941436767578125"/>
                <parameter index="14" name="EQ Band 3 Gain" parameterValue="0.5"/>
                <parameter index="15" name="EQ Band 3 Enable" parameterValue="1"/>
                <parameter index="16" name="EQ Band 4 Center Frequency" parameterValue="0.13269354403018951416015625"/>
                <parameter index="17" name="EQ Band 4 Q" parameterValue="0.000199989997781813144683837890625"/>
                <parameter index="18" name="EQ Band 4 Gain" parameterValue="0.4684210717678070068359375"/>
                <parameter index="19" name="EQ Band 4 Enable" parameterValue="1"/>
                <parameter index="20" name="EQ Band 5 Center Frequency" parameterValue="0.550053060054779052734375"/>
                <parameter index="21" name="EQ Band 5 Q" parameterValue="0.000199989997781813144683837890625"/>
                <parameter index="22" name="EQ Band 5 Gain" parameterValue="0.4736842215061187744140625"/>
                <parameter index="23" name="EQ Band 5 Enable" parameterValue="1"/>
                <parameter index="24" name="Master Gain" parameterValue="0.66666698455810546875"/>
                <parameter index="25" name="ConstantQ" parameterValue="1"/>
                <parameter index="26" name="Low Shelf Filter Order" parameterValue="0"/>
                <parameter index="27" name="High Shelf Filter Order" parameterValue="0"/>
                <parameter index="28" name="Ultra-Quiet Mode" parameterValue="1"/>
                <parameter index="29" name="Low Shelf Enable" parameterValue="1"/>
                <parameter index="30" name="High Shelf Enable" parameterValue="0"/>
                <parameter index="31" name="Original Sample Rate" parameterValue="0.25"/>
                <parameter index="32" name="EQ Band 1 Bandwidth" parameterValue="0.00249998713843524456024169921875"/>
                <parameter index="33" name="EQ Band 2 Bandwidth" parameterValue="0.00999999605119228363037109375"/>
                <parameter index="34" name="EQ Band 3 Bandwidth" parameterValue="0.0338436700403690338134765625"/>
                <parameter index="35" name="EQ Band 4 Bandwidth" parameterValue="0.16009955108165740966796875"/>
                <parameter index="36" name="EQ Band 5 Bandwidth" parameterValue="0.6605136394500732421875"/>
                <parameter index="37" name="High-Pass Filter Enable" parameterValue="1"/>
                <parameter index="38" name="High-Pass Cutoff Frequency" parameterValue="0.008139776997268199920654296875"/>
                <parameter index="39" name="High-Pass Slope" parameterValue="0.60000002384185791015625"/>
                <parameter index="40" name="Low-Pass Filter Enable" parameterValue="0"/>
                <parameter index="41" name="Low-Pass Cutoff Frequency" parameterValue="0.568538725376129150390625"/>
                <parameter index="42" name="Low-Pass Slope" parameterValue="0.800000011920928955078125"/>
                <parameter index="43" name="Bypass" parameterValue="0"/>
                <parameter index="44" name="LowGraphRange" parameterValue="0"/>
              </component>
            </slot>
          </effectsRack>
          <component componentGuid="796b443f-6363-459d-ad99-8aeecf8805c6" componentID="Audition.Fader" id="clipGain" name="volume" powered="true">
            <parameter index="0" name="volume" parameterValue="1"/>
            <parameter index="1" name="static gain" parameterValue="1"/>
          </component>
          <component componentGuid="7e0e4339-6d43-40a3-be0d-701e64e51a98" componentID="Audition.Mute" id="clipMute" name="Mute" powered="true">
            <parameter index="0" parameterValue="0"/>
            <parameter index="1" name="mute" parameterValue="0"/>
          </component>
          <component componentGuid="3f3a5076-5d4d-4dd6-9ed1-13edaf318f7f" componentID="Audition.StereoPanner" id="clipPan" name="StereoPanner" powered="true">
            <parameter index="0" name="Pan" parameterValue="0"/>
          </component>
          <fadeIn crossFadeLinkType="linkedAsymmetric" endPoint="130970" shape="18" startPoint="0" type="log"/>
          <fadeOut crossFadeLinkType="linkedAsymmetric" endPoint="577884" shape="9" startPoint="501813" type="log"/>
          <editParameter parameterIndex="0" slotIndex="4294967281"/>
          <editParameter parameterIndex="0" slotIndex="4294967280"/>
          <channelMap>
            <channel index="0" sourceIndex="0"/>
            <channel index="1" sourceIndex="1"/>
          </channelMap>
        </audioClip>
      </audioTrack>
      <audioTrack automationLaneOpenState="false" id="10002" index="3" select="false" visible="true">
        <trackParameters trackHeight="30" trackHue="326" trackMinimized="false">
          <name>birds</name>
        </trackParameters>
        <trackAudioParameters audioChannelType="stereo" automationMode="1" monitoring="false" recordArmed="false" solo="false" soloSafe="false">
          <trackOutput outputID="10000" type="trackID"/>
          <trackInput inputID="1"/>
          <component componentGuid="5b7b8c86-d2ae-4545-8eb2-4a71bbaf0c8a" componentID="Audition.Fader" id="trackFader" name="volume" powered="true">
            <parameter index="0" name="volume" parameterValue="3.01995182037353515625"/>
            <parameter index="1" name="static gain" parameterValue="1"/>
          </component>
          <component componentGuid="8edd233c-3f39-4684-95db-9b0a29404491" componentID="Audition.Mute" id="trackMute" name="Mute" powered="true">
            <parameter index="0" parameterValue="0"/>
            <parameter index="1" name="mute" parameterValue="0"/>
          </component>
          <component componentGuid="68d65e2f-f38c-4fe7-945a-e6ebbe40be71" componentID="Audition.StereoPanner" id="trackPan" name="StereoPanner" powered="true">
            <parameter index="0" name="Pan" parameterValue="0"/>
          </component>
          <component componentGuid="e554e5c2-083f-49bf-9517-208f96eb5809" componentID="Audition.EQ" id="trackEQ" name="EQ" powered="false">
            <parameter index="0" name="Low Shelf Frequency" parameterValue="0.000834028352983295917510986328125"/>
            <parameter index="1" name="Low Shelf Gain" parameterValue="0.5"/>
            <parameter index="2" name="High Shelf Frequency" parameterValue="0.74979150295257568359375"/>
            <parameter index="3" name="High Shelf Gain" parameterValue="0.5"/>
            <parameter index="4" name="EQ Band 1 Center Frequency" parameterValue="0.00125104258768260478973388671875"/>
            <parameter index="5" name="EQ Band 1 Q" parameterValue="0.000199989997781813144683837890625"/>
            <parameter index="6" name="EQ Band 1 Gain" parameterValue="0.5"/>
            <parameter index="7" name="EQ Band 1 Enable" parameterValue="1"/>
            <parameter index="8" name="EQ Band 2 Center Frequency" parameterValue="0.0075062550604343414306640625"/>
            <parameter index="9" name="EQ Band 2 Q" parameterValue="0.000199989997781813144683837890625"/>
            <parameter index="10" name="EQ Band 2 Gain" parameterValue="0.5"/>
            <parameter index="11" name="EQ Band 2 Enable" parameterValue="1"/>
            <parameter index="12" name="EQ Band 3 Center Frequency" parameterValue="0.0325271077454090118408203125"/>
            <parameter index="13" name="EQ Band 3 Q" parameterValue="0.000199989997781813144683837890625"/>
            <parameter index="14" name="EQ Band 3 Gain" parameterValue="0.5"/>
            <parameter index="15" name="EQ Band 3 Enable" parameterValue="1"/>
            <parameter index="16" name="EQ Band 4 Center Frequency" parameterValue="0.13261051476001739501953125"/>
            <parameter index="17" name="EQ Band 4 Q" parameterValue="0.000199989997781813144683837890625"/>
            <parameter index="18" name="EQ Band 4 Gain" parameterValue="0.5"/>
            <parameter index="19" name="EQ Band 4 Enable" parameterValue="1"/>
            <parameter index="20" name="EQ Band 5 Center Frequency" parameterValue="0.532944142818450927734375"/>
            <parameter index="21" name="EQ Band 5 Q" parameterValue="0.000199989997781813144683837890625"/>
            <parameter index="22" name="EQ Band 5 Gain" parameterValue="0.5"/>
            <parameter index="23" name="EQ Band 5 Enable" parameterValue="1"/>
            <parameter index="24" name="Master Gain" parameterValue="0.666666686534881591796875"/>
            <parameter index="25" name="ConstantQ" parameterValue="1"/>
            <parameter index="26" name="Low Shelf Filter Order" parameterValue="0"/>
            <parameter index="27" name="High Shelf Filter Order" parameterValue="0"/>
            <parameter index="28" name="Ultra-Quiet Mode" parameterValue="0"/>
            <parameter index="29" name="Low Shelf Enable" parameterValue="1"/>
            <parameter index="30" name="High Shelf Enable" parameterValue="1"/>
            <parameter index="31" name="Original Sample Rate" parameterValue="0.25"/>
            <parameter index="32" name="EQ Band 1 Bandwidth" parameterValue="0.002499990165233612060546875"/>
            <parameter index="33" name="EQ Band 2 Bandwidth" parameterValue="0.0099999904632568359375"/>
            <parameter index="34" name="EQ Band 3 Bandwidth" parameterValue="0.0399999916553497314453125"/>
            <parameter index="35" name="EQ Band 4 Bandwidth" parameterValue="0.15999998152256011962890625"/>
            <parameter index="36" name="EQ Band 5 Bandwidth" parameterValue="0.63999998569488525390625"/>
            <parameter index="37" name="High-Pass Filter Enable" parameterValue="0"/>
            <parameter index="38" name="High-Pass Cutoff Frequency" parameterValue="0"/>
            <parameter index="39" name="High-Pass Slope" parameterValue="0.4000000059604644775390625"/>
            <parameter index="40" name="Low-Pass Filter Enable" parameterValue="0"/>
            <parameter index="41" name="Low-Pass Cutoff Frequency" parameterValue="0.833194315433502197265625"/>
            <parameter index="42" name="Low-Pass Slope" parameterValue="0.4000000059604644775390625"/>
            <parameter index="43" name="Bypass" parameterValue="0"/>
            <parameter index="44" name="LowGraphRange" parameterValue="1"/>
          </component>
        </trackAudioParameters>
        <effectsRack preFader="true">
          <component componentGuid="0ece43d9-1f20-4768-bf88-e06d51483467" componentID="Audition.ComponentGroup" id="rackMix" powered="true">
            <parameter index="0" parameterValue="0"/>
            <parameter index="1" parameterValue="0"/>
          </component>
          <component componentGuid="80139c61-97f5-4cba-868d-7a6afbbe1d71" id="rackInput" powered="true">
            <parameter index="0" parameterValue="1"/>
            <parameter index="1" parameterValue="0"/>
          </component>
          <component componentGuid="7102a7cc-f2ba-4c47-ad12-0bdfeec91b8d" id="rackOutput" powered="true">
            <parameter index="0" parameterValue="1"/>
            <parameter index="1" parameterValue="0"/>
          </component>
          <slot powered="true" slotIndex="0">
            <component componentGuid="6d72ee5b-5a90-4119-9624-44a005764592" componentID="f83ad984-04c6-4474-b8c0-e31d98875cfe" name="Adaptive Noise Reduction" presetName="(Custom)">
              <busConfig><![CDATA[{"in":[{"layout":[100,101],"name":"","type":0}],"out":[{"layout":[100,101],"name":"","type":0}]}]]></busConfig>
              <channelMap direction="input">
                <channel index="0" sourceIndex="0"/>
                <channel index="1" sourceIndex="1"/>
              </channelMap>
              <channelMap direction="output">
                <channel index="0" sourceIndex="0"/>
                <channel index="1" sourceIndex="1"/>
              </channelMap>
              <parameter index="0" name="Reduce Noise By" parameterValue="0.1411277353763580322265625"/>
              <parameter index="1" name="Noisiness" parameterValue="0.589572489261627197265625"/>
              <parameter index="2" name="Fine Tune Noise Floor" parameterValue="0.7772171497344970703125"/>
              <parameter index="3" name="Signal Threshold" parameterValue="0.50202548503875732421875"/>
              <parameter index="4" name="Spectral Decay Rate" parameterValue="0"/>
              <parameter index="5" name="Broadband Preservation" parameterValue="0.370081007480621337890625"/>
              <parameter index="6" name="FFT Size" parameterValue="0.0078125"/>
              <parameter index="7" name="High Quality Mode (slower)" parameterValue="1"/>
              <parameter index="8" name="Is Processing" parameterValue="0"/>
            </component>
          </slot>
          <slot powered="true" slotIndex="1">
            <component componentGuid="be989340-2c01-4b44-b9cb-081e23aee035" componentID="8edcd326-33de-4a4d-985b-f1bf48ed1427" name="Parametric Equalizer" presetName="(Custom)">
              <busConfig><![CDATA[{"in":[{"layout":[100,101],"name":"","type":0}],"out":[{"layout":[100,101],"name":"","type":0}]}]]></busConfig>
              <channelMap direction="input">
                <channel index="0" sourceIndex="0"/>
                <channel index="1" sourceIndex="1"/>
              </channelMap>
              <channelMap direction="output">
                <channel index="0" sourceIndex="0"/>
                <channel index="1" sourceIndex="1"/>
              </channelMap>
              <parameter index="0" name="Low Shelf Frequency" parameterValue="0.0037501840852200984954833984375"/>
              <parameter index="1" name="Low Shelf Gain" parameterValue="0.21052630245685577392578125"/>
              <parameter index="2" name="High Shelf Frequency" parameterValue="0.3978315293788909912109375"/>
              <parameter index="3" name="High Shelf Gain" parameterValue="0.3157894611358642578125"/>
              <parameter index="4" name="EQ Band 1 Center Frequency" parameterValue="0.01392506062984466552734375"/>
              <parameter index="5" name="EQ Band 1 Q" parameterValue="9.99900003080256283283233642578125e-05"/>
              <parameter index="6" name="EQ Band 1 Gain" parameterValue="0.17894737422466278076171875"/>
              <parameter index="7" name="EQ Band 1 Enable" parameterValue="1"/>
              <parameter index="8" name="EQ Band 2 Center Frequency" parameterValue="0.03270854055881500244140625"/>
              <parameter index="9" name="EQ Band 2 Q" parameterValue="0.0004999900120310485363006591796875"/>
              <parameter index="10" name="EQ Band 2 Gain" parameterValue="0.16315789520740509033203125"/>
              <parameter index="11" name="EQ Band 2 Enable" parameterValue="1"/>
              <parameter index="12" name="EQ Band 3 Center Frequency" parameterValue="0.077317453920841217041015625"/>
              <parameter index="13" name="EQ Band 3 Q" parameterValue="0.000199989997781813144683837890625"/>
              <parameter index="14" name="EQ Band 3 Gain" parameterValue="0.789473712444305419921875"/>
              <parameter index="15" name="EQ Band 3 Enable" parameterValue="1"/>
              <parameter index="16" name="EQ Band 4 Center Frequency" parameterValue="0.16196788847446441650390625"/>
              <parameter index="17" name="EQ Band 4 Q" parameterValue="0.000199989997781813144683837890625"/>
              <parameter index="18" name="EQ Band 4 Gain" parameterValue="0.64736843109130859375"/>
              <parameter index="19" name="EQ Band 4 Enable" parameterValue="1"/>
              <parameter index="20" name="EQ Band 5 Center Frequency" parameterValue="0.423413217067718505859375"/>
              <parameter index="21" name="EQ Band 5 Q" parameterValue="0.000199989997781813144683837890625"/>
              <parameter index="22" name="EQ Band 5 Gain" parameterValue="0.515789449214935302734375"/>
              <parameter index="23" name="EQ Band 5 Enable" parameterValue="1"/>
              <parameter index="24" name="Master Gain" parameterValue="0.661057412624359130859375"/>
              <parameter index="25" name="ConstantQ" parameterValue="1"/>
              <parameter index="26" name="Low Shelf Filter Order" parameterValue="0"/>
              <parameter index="27" name="High Shelf Filter Order" parameterValue="0"/>
              <parameter index="28" name="Ultra-Quiet Mode" parameterValue="1"/>
              <parameter index="29" name="Low Shelf Enable" parameterValue="1"/>
              <parameter index="30" name="High Shelf Enable" parameterValue="1"/>
              <parameter index="31" name="Original Sample Rate" parameterValue="0.25"/>
              <parameter index="32" name="EQ Band 1 Bandwidth" parameterValue="0.035392284393310546875"/>
              <parameter index="33" name="EQ Band 2 Bandwidth" parameterValue="0.01608700491487979888916015625"/>
              <parameter index="34" name="EQ Band 3 Bandwidth" parameterValue="0.09370361268520355224609375"/>
              <parameter index="35" name="EQ Band 4 Bandwidth" parameterValue="0.195199489593505859375"/>
              <parameter index="36" name="EQ Band 5 Bandwidth" parameterValue="0.5086724758148193359375"/>
              <parameter index="37" name="High-Pass Filter Enable" parameterValue="0"/>
              <parameter index="38" name="High-Pass Cutoff Frequency" parameterValue="0.0008340280619449913501739501953125"/>
              <parameter index="39" name="High-Pass Slope" parameterValue="0.4000000059604644775390625"/>
              <parameter index="40" name="Low-Pass Filter Enable" parameterValue="0"/>
              <parameter index="41" name="Low-Pass Cutoff Frequency" parameterValue="0.74979197978973388671875"/>
              <parameter index="42" name="Low-Pass Slope" parameterValue="0.4000000059604644775390625"/>
              <parameter index="43" name="Bypass" parameterValue="0"/>
              <parameter index="44" name="LowGraphRange" parameterValue="0"/>
            </component>
          </slot>
          <slot powered="true" slotIndex="2">
            <component componentGuid="b628f724-de68-4d3e-9130-80666daaf2b0" componentID="f14fee7d-fe5f-4202-b790-f53209e56411" name="Amplify" presetName="(Custom)">
              <busConfig><![CDATA[{"in":[{"layout":[100,101],"name":"","type":0}],"out":[{"layout":[100,101],"name":"","type":0}]}]]></busConfig>
              <channelMap direction="input">
                <channel index="0" sourceIndex="0"/>
                <channel index="1" sourceIndex="1"/>
              </channelMap>
              <channelMap direction="output">
                <channel index="0" sourceIndex="0"/>
                <channel index="1" sourceIndex="1"/>
              </channelMap>
              <parameter index="0" name="Channel Count" parameterValue="0.0625"/>
              <parameter index="1" name="Link Sliders" parameterValue="1"/>
              <parameter index="2" name="Left" parameterValue="0.72970640659332275390625"/>
              <parameter index="3" name="Right" parameterValue="0.72970640659332275390625"/>
              <parameter index="4" name="" parameterValue="0.666666686534881591796875"/>
              <parameter index="5" name="" parameterValue="0.666666686534881591796875"/>
              <parameter index="6" name="" parameterValue="0.666666686534881591796875"/>
              <parameter index="7" name="" parameterValue="0.666666686534881591796875"/>
              <parameter index="8" name="" parameterValue="0.666666686534881591796875"/>
              <parameter index="9" name="" parameterValue="0.666666686534881591796875"/>
              <parameter index="10" name="" parameterValue="0.666666686534881591796875"/>
              <parameter index="11" name="" parameterValue="0.666666686534881591796875"/>
              <parameter index="12" name="" parameterValue="0.666666686534881591796875"/>
              <parameter index="13" name="" parameterValue="0.666666686534881591796875"/>
              <parameter index="14" name="" parameterValue="0.666666686534881591796875"/>
              <parameter index="15" name="" parameterValue="0.666666686534881591796875"/>
              <parameter index="16" name="" parameterValue="0.666666686534881591796875"/>
              <parameter index="17" name="" parameterValue="0.666666686534881591796875"/>
              <parameter index="18" name="" parameterValue="0.666666686534881591796875"/>
              <parameter index="19" name="" parameterValue="0.666666686534881591796875"/>
              <parameter index="20" name="" parameterValue="0.666666686534881591796875"/>
              <parameter index="21" name="" parameterValue="0.666666686534881591796875"/>
              <parameter index="22" name="" parameterValue="0.666666686534881591796875"/>
              <parameter index="23" name="" parameterValue="0.666666686534881591796875"/>
              <parameter index="24" name="" parameterValue="0.666666686534881591796875"/>
              <parameter index="25" name="" parameterValue="0.666666686534881591796875"/>
              <parameter index="26" name="" parameterValue="0.666666686534881591796875"/>
              <parameter index="27" name="" parameterValue="0.666666686534881591796875"/>
              <parameter index="28" name="" parameterValue="0.666666686534881591796875"/>
              <parameter index="29" name="" parameterValue="0.666666686534881591796875"/>
              <parameter index="30" name="" parameterValue="0.666666686534881591796875"/>
              <parameter index="31" name="" parameterValue="0.666666686534881591796875"/>
              <parameter index="32" name="" parameterValue="0.666666686534881591796875"/>
              <parameter index="33" name="" parameterValue="0.666666686534881591796875"/>
              <parameter index="34" name="Link Keyframes" parameterValue="1"/>
            </component>
          </slot>
        </effectsRack>
        <editParameter parameterIndex="0" slotIndex="4294967280"/>
        <audioClip clipAutoCrossfade="true" crossFadeHeadClipID="-1" crossFadeTailClipID="-1" endPoint="4030249" fileID="7" hue="-1" id="0" lockedInTime="false" looped="false" name="Bird chirps: Waterfront near Meeker Ave" offline="false" select="false" sourceInPoint="232287" sourceOutPoint="710536" startPoint="3552000" zOrder="0">
          <component componentGuid="d9a763b0-869a-446a-9a67-544087296161" componentID="Audition.Fader" id="clipGain" name="volume" powered="true">
            <parameter index="0" name="volume" parameterValue="1"/>
            <parameter index="1" name="static gain" parameterValue="1"/>
          </component>
          <component componentGuid="b5c3d8ce-a7ff-4b2e-93a5-1c768013d58d" componentID="Audition.Mute" id="clipMute" name="Mute" powered="true">
            <parameter index="0" parameterValue="0"/>
            <parameter index="1" name="mute" parameterValue="0"/>
          </component>
          <component componentGuid="ef3f4e3b-751d-499f-bc76-358132943236" componentID="Audition.StereoPanner" id="clipPan" name="StereoPanner" powered="true">
            <parameter index="0" name="Pan" parameterValue="0"/>
          </component>
          <fadeIn crossFadeLinkType="linkedAsymmetric" endPoint="23315" shape="19" startPoint="0" type="log"/>
          <fadeOut crossFadeLinkType="linkedAsymmetric" endPoint="478249" shape="19" startPoint="425125" type="log"/>
          <editParameter parameterIndex="0" slotIndex="4294967280"/>
          <editParameter parameterIndex="0" slotIndex="4294967281"/>
          <channelMap>
            <channel index="0" sourceIndex="0"/>
            <channel index="1" sourceIndex="1"/>
          </channelMap>
        </audioClip>
        <audioClip clipAutoCrossfade="true" crossFadeHeadClipID="-1" crossFadeTailClipID="-1" endPoint="4940114" fileID="7" hue="-1" id="1" lockedInTime="false" looped="false" name="Bird chirps: Waterfront near Meeker Ave" offline="false" select="false" sourceInPoint="2919618" sourceOutPoint="3510644" startPoint="4349088" zOrder="1">
          <component componentGuid="25fdb137-88e6-468d-8403-d46787ef57ed" componentID="Audition.Fader" id="clipGain" name="volume" powered="true">
            <parameter index="0" name="volume" parameterValue="1"/>
            <parameter index="1" name="static gain" parameterValue="1"/>
          </component>
          <component componentGuid="3a3d121c-27dc-43d5-b04c-7701ac484cf5" componentID="Audition.Mute" id="clipMute" name="Mute" powered="true">
            <parameter index="0" parameterValue="0"/>
            <parameter index="1" name="mute" parameterValue="0"/>
          </component>
          <component componentGuid="bf12813b-3f7a-43cd-8d74-704c0b3e45e9" componentID="Audition.StereoPanner" id="clipPan" name="StereoPanner" powered="true">
            <parameter index="0" name="Pan" parameterValue="0"/>
          </component>
          <fadeIn crossFadeLinkType="linkedAsymmetric" endPoint="81457" shape="19" startPoint="0" type="log"/>
          <fadeOut crossFadeLinkType="linkedAsymmetric" endPoint="591026" shape="19" startPoint="523736" type="log"/>
          <editParameter parameterIndex="0" slotIndex="4294967280"/>
          <editParameter parameterIndex="0" slotIndex="4294967281"/>
          <channelMap>
            <channel index="0" sourceIndex="0"/>
            <channel index="1" sourceIndex="1"/>
          </channelMap>
        </audioClip>
        <audioClip clipAutoCrossfade="true" crossFadeHeadClipID="-1" crossFadeTailClipID="-1" endPoint="9216000" fileID="7" hue="-1" id="2" lockedInTime="false" looped="false" name="Bird chirps: Waterfront near Meeker Ave" offline="false" select="false" sourceInPoint="792723" sourceOutPoint="1032723" startPoint="8976000" zOrder="2">
          <component componentGuid="57f37e9e-4d4b-428e-bebc-641b9406bb0f" componentID="Audition.Fader" id="clipGain" name="volume" powered="true">
            <parameter index="0" name="volume" parameterValue="1"/>
            <parameter index="1" name="static gain" parameterValue="1"/>
          </component>
          <component componentGuid="ae7d4552-a0e1-4a01-b7a7-4ccc83de9946" componentID="Audition.Mute" id="clipMute" name="Mute" powered="true">
            <parameter index="0" parameterValue="0"/>
            <parameter index="1" name="mute" parameterValue="0"/>
          </component>
          <component componentGuid="ad893854-c9fd-406b-afa2-cb5771d47c7c" componentID="Audition.StereoPanner" id="clipPan" name="StereoPanner" powered="true">
            <parameter index="0" name="Pan" parameterValue="0"/>
          </component>
          <fadeIn crossFadeLinkType="linkedAsymmetric" endPoint="0" shape="19" startPoint="0" type="log"/>
          <fadeOut crossFadeLinkType="linkedAsymmetric" endPoint="240000" shape="19" startPoint="240000" type="log"/>
          <editParameter parameterIndex="0" slotIndex="4294967280"/>
          <editParameter parameterIndex="0" slotIndex="4294967281"/>
          <channelMap>
            <channel index="0" sourceIndex="0"/>
            <channel index="1" sourceIndex="1"/>
          </channelMap>
        </audioClip>
      </audioTrack>
      <audioTrack automationLaneOpenState="false" id="10005" index="4" select="false" visible="true">
        <trackParameters trackHeight="30" trackHue="326" trackMinimized="false">
          <name>birds L60</name>
        </trackParameters>
        <trackAudioParameters audioChannelType="stereo" automationMode="1" monitoring="false" recordArmed="false" solo="false" soloSafe="false">
          <trackOutput outputID="10000" type="trackID"/>
          <trackInput inputID="1"/>
          <component componentGuid="8f02f3fd-2335-40e9-9f81-e7f6fc70b218" componentID="Audition.Fader" id="trackFader" name="volume" powered="true">
            <parameter index="0" name="volume" parameterValue="3.01995182037353515625"/>
            <parameter index="1" name="static gain" parameterValue="1"/>
          </component>
          <component componentGuid="b1d3be03-61f1-4e0e-9127-ffa5bba12721" componentID="Audition.Mute" id="trackMute" name="Mute" powered="true">
            <parameter index="0" parameterValue="0"/>
            <parameter index="1" name="mute" parameterValue="0"/>
          </component>
          <component componentGuid="37c63866-e268-449b-8fa4-03d6eae0a4f6" componentID="Audition.StereoPanner" id="trackPan" name="StereoPanner" powered="true">
            <parameter index="0" name="Pan" parameterValue="-60.000003814697265625"/>
          </component>
          <component componentGuid="a06279da-0cdf-4908-993d-9fb9a398b154" componentID="Audition.EQ" id="trackEQ" name="EQ" powered="false">
            <parameter index="0" name="Low Shelf Frequency" parameterValue="0.000834028352983295917510986328125"/>
            <parameter index="1" name="Low Shelf Gain" parameterValue="0.5"/>
            <parameter index="2" name="High Shelf Frequency" parameterValue="0.74979150295257568359375"/>
            <parameter index="3" name="High Shelf Gain" parameterValue="0.5"/>
            <parameter index="4" name="EQ Band 1 Center Frequency" parameterValue="0.00125104258768260478973388671875"/>
            <parameter index="5" name="EQ Band 1 Q" parameterValue="0.000199989997781813144683837890625"/>
            <parameter index="6" name="EQ Band 1 Gain" parameterValue="0.5"/>
            <parameter index="7" name="EQ Band 1 Enable" parameterValue="1"/>
            <parameter index="8" name="EQ Band 2 Center Frequency" parameterValue="0.0075062550604343414306640625"/>
            <parameter index="9" name="EQ Band 2 Q" parameterValue="0.000199989997781813144683837890625"/>
            <parameter index="10" name="EQ Band 2 Gain" parameterValue="0.5"/>
            <parameter index="11" name="EQ Band 2 Enable" parameterValue="1"/>
            <parameter index="12" name="EQ Band 3 Center Frequency" parameterValue="0.0325271077454090118408203125"/>
            <parameter index="13" name="EQ Band 3 Q" parameterValue="0.000199989997781813144683837890625"/>
            <parameter index="14" name="EQ Band 3 Gain" parameterValue="0.5"/>
            <parameter index="15" name="EQ Band 3 Enable" parameterValue="1"/>
            <parameter index="16" name="EQ Band 4 Center Frequency" parameterValue="0.13261051476001739501953125"/>
            <parameter index="17" name="EQ Band 4 Q" parameterValue="0.000199989997781813144683837890625"/>
            <parameter index="18" name="EQ Band 4 Gain" parameterValue="0.5"/>
            <parameter index="19" name="EQ Band 4 Enable" parameterValue="1"/>
            <parameter index="20" name="EQ Band 5 Center Frequency" parameterValue="0.532944142818450927734375"/>
            <parameter index="21" name="EQ Band 5 Q" parameterValue="0.000199989997781813144683837890625"/>
            <parameter index="22" name="EQ Band 5 Gain" parameterValue="0.5"/>
            <parameter index="23" name="EQ Band 5 Enable" parameterValue="1"/>
            <parameter index="24" name="Master Gain" parameterValue="0.666666686534881591796875"/>
            <parameter index="25" name="ConstantQ" parameterValue="1"/>
            <parameter index="26" name="Low Shelf Filter Order" parameterValue="0"/>
            <parameter index="27" name="High Shelf Filter Order" parameterValue="0"/>
            <parameter index="28" name="Ultra-Quiet Mode" parameterValue="0"/>
            <parameter index="29" name="Low Shelf Enable" parameterValue="1"/>
            <parameter index="30" name="High Shelf Enable" parameterValue="1"/>
            <parameter index="31" name="Original Sample Rate" parameterValue="0.25"/>
            <parameter index="32" name="EQ Band 1 Bandwidth" parameterValue="0.002499990165233612060546875"/>
            <parameter index="33" name="EQ Band 2 Bandwidth" parameterValue="0.0099999904632568359375"/>
            <parameter index="34" name="EQ Band 3 Bandwidth" parameterValue="0.0399999916553497314453125"/>
            <parameter index="35" name="EQ Band 4 Bandwidth" parameterValue="0.15999998152256011962890625"/>
            <parameter index="36" name="EQ Band 5 Bandwidth" parameterValue="0.63999998569488525390625"/>
            <parameter index="37" name="High-Pass Filter Enable" parameterValue="0"/>
            <parameter index="38" name="High-Pass Cutoff Frequency" parameterValue="0"/>
            <parameter index="39" name="High-Pass Slope" parameterValue="0.4000000059604644775390625"/>
            <parameter index="40" name="Low-Pass Filter Enable" parameterValue="0"/>
            <parameter index="41" name="Low-Pass Cutoff Frequency" parameterValue="0.833194315433502197265625"/>
            <parameter index="42" name="Low-Pass Slope" parameterValue="0.4000000059604644775390625"/>
            <parameter index="43" name="Bypass" parameterValue="0"/>
            <parameter index="44" name="LowGraphRange" parameterValue="1"/>
          </component>
        </trackAudioParameters>
        <effectsRack preFader="true">
          <component componentGuid="56e06a8a-3391-4fa4-8467-ac54d870b557" componentID="Audition.ComponentGroup" id="rackMix" powered="true">
            <parameter index="0" parameterValue="0"/>
            <parameter index="1" parameterValue="0"/>
          </component>
          <component componentGuid="3b68eeb3-b18f-469b-85f1-9ab1b4c1ebe8" id="rackInput" powered="true">
            <parameter index="0" parameterValue="1"/>
            <parameter index="1" parameterValue="0"/>
          </component>
          <component componentGuid="5353247e-2559-4dc0-b0f8-43d73af89aa3" id="rackOutput" powered="true">
            <parameter index="0" parameterValue="1"/>
            <parameter index="1" parameterValue="0"/>
          </component>
          <slot powered="true" slotIndex="0">
            <component componentGuid="4c826bfe-5087-42e8-8ec7-e10c600ed545" componentID="f83ad984-04c6-4474-b8c0-e31d98875cfe" name="Adaptive Noise Reduction" presetName="(Custom)">
              <busConfig><![CDATA[{"in":[{"layout":[100,101],"name":"","type":0}],"out":[{"layout":[100,101],"name":"","type":0}]}]]></busConfig>
              <channelMap direction="input">
                <channel index="0" sourceIndex="0"/>
                <channel index="1" sourceIndex="1"/>
              </channelMap>
              <channelMap direction="output">
                <channel index="0" sourceIndex="0"/>
                <channel index="1" sourceIndex="1"/>
              </channelMap>
              <parameter index="0" name="Reduce Noise By" parameterValue="0.1411277353763580322265625"/>
              <parameter index="1" name="Noisiness" parameterValue="0.589572489261627197265625"/>
              <parameter index="2" name="Fine Tune Noise Floor" parameterValue="0.7772171497344970703125"/>
              <parameter index="3" name="Signal Threshold" parameterValue="0.50202548503875732421875"/>
              <parameter index="4" name="Spectral Decay Rate" parameterValue="0"/>
              <parameter index="5" name="Broadband Preservation" parameterValue="0.370081007480621337890625"/>
              <parameter index="6" name="FFT Size" parameterValue="0.0078125"/>
              <parameter index="7" name="High Quality Mode (slower)" parameterValue="1"/>
              <parameter index="8" name="Is Processing" parameterValue="0"/>
            </component>
          </slot>
          <slot powered="true" slotIndex="1">
            <component componentGuid="efe4e378-5e52-45b2-bb64-131f809d37c5" componentID="8edcd326-33de-4a4d-985b-f1bf48ed1427" name="Parametric Equalizer" presetName="(Custom)">
              <busConfig><![CDATA[{"in":[{"layout":[100,101],"name":"","type":0}],"out":[{"layout":[100,101],"name":"","type":0}]}]]></busConfig>
              <channelMap direction="input">
                <channel index="0" sourceIndex="0"/>
                <channel index="1" sourceIndex="1"/>
              </channelMap>
              <channelMap direction="output">
                <channel index="0" sourceIndex="0"/>
                <channel index="1" sourceIndex="1"/>
              </channelMap>
              <parameter index="0" name="Low Shelf Frequency" parameterValue="0.0037501840852200984954833984375"/>
              <parameter index="1" name="Low Shelf Gain" parameterValue="0.21052630245685577392578125"/>
              <parameter index="2" name="High Shelf Frequency" parameterValue="0.3978315293788909912109375"/>
              <parameter index="3" name="High Shelf Gain" parameterValue="0.3157894611358642578125"/>
              <parameter index="4" name="EQ Band 1 Center Frequency" parameterValue="0.01392506062984466552734375"/>
              <parameter index="5" name="EQ Band 1 Q" parameterValue="9.99900003080256283283233642578125e-05"/>
              <parameter index="6" name="EQ Band 1 Gain" parameterValue="0.17894737422466278076171875"/>
              <parameter index="7" name="EQ Band 1 Enable" parameterValue="1"/>
              <parameter index="8" name="EQ Band 2 Center Frequency" parameterValue="0.03270854055881500244140625"/>
              <parameter index="9" name="EQ Band 2 Q" parameterValue="0.0004999900120310485363006591796875"/>
              <parameter index="10" name="EQ Band 2 Gain" parameterValue="0.16315789520740509033203125"/>
              <parameter index="11" name="EQ Band 2 Enable" parameterValue="1"/>
              <parameter index="12" name="EQ Band 3 Center Frequency" parameterValue="0.077317453920841217041015625"/>
              <parameter index="13" name="EQ Band 3 Q" parameterValue="0.000199989997781813144683837890625"/>
              <parameter index="14" name="EQ Band 3 Gain" parameterValue="0.789473712444305419921875"/>
              <parameter index="15" name="EQ Band 3 Enable" parameterValue="1"/>
              <parameter index="16" name="EQ Band 4 Center Frequency" parameterValue="0.16196788847446441650390625"/>
              <parameter index="17" name="EQ Band 4 Q" parameterValue="0.000199989997781813144683837890625"/>
              <parameter index="18" name="EQ Band 4 Gain" parameterValue="0.64736843109130859375"/>
              <parameter index="19" name="EQ Band 4 Enable" parameterValue="1"/>
              <parameter index="20" name="EQ Band 5 Center Frequency" parameterValue="0.423413217067718505859375"/>
              <parameter index="21" name="EQ Band 5 Q" parameterValue="0.000199989997781813144683837890625"/>
              <parameter index="22" name="EQ Band 5 Gain" parameterValue="0.515789449214935302734375"/>
              <parameter index="23" name="EQ Band 5 Enable" parameterValue="1"/>
              <parameter index="24" name="Master Gain" parameterValue="0.661057412624359130859375"/>
              <parameter index="25" name="ConstantQ" parameterValue="1"/>
              <parameter index="26" name="Low Shelf Filter Order" parameterValue="0"/>
              <parameter index="27" name="High Shelf Filter Order" parameterValue="0"/>
              <parameter index="28" name="Ultra-Quiet Mode" parameterValue="1"/>
              <parameter index="29" name="Low Shelf Enable" parameterValue="1"/>
              <parameter index="30" name="High Shelf Enable" parameterValue="1"/>
              <parameter index="31" name="Original Sample Rate" parameterValue="0.25"/>
              <parameter index="32" name="EQ Band 1 Bandwidth" parameterValue="0.035392284393310546875"/>
              <parameter index="33" name="EQ Band 2 Bandwidth" parameterValue="0.01608700491487979888916015625"/>
              <parameter index="34" name="EQ Band 3 Bandwidth" parameterValue="0.09370361268520355224609375"/>
              <parameter index="35" name="EQ Band 4 Bandwidth" parameterValue="0.195199489593505859375"/>
              <parameter index="36" name="EQ Band 5 Bandwidth" parameterValue="0.5086724758148193359375"/>
              <parameter index="37" name="High-Pass Filter Enable" parameterValue="0"/>
              <parameter index="38" name="High-Pass Cutoff Frequency" parameterValue="0.0008340280619449913501739501953125"/>
              <parameter index="39" name="High-Pass Slope" parameterValue="0.4000000059604644775390625"/>
              <parameter index="40" name="Low-Pass Filter Enable" parameterValue="0"/>
              <parameter index="41" name="Low-Pass Cutoff Frequency" parameterValue="0.74979197978973388671875"/>
              <parameter index="42" name="Low-Pass Slope" parameterValue="0.4000000059604644775390625"/>
              <parameter index="43" name="Bypass" parameterValue="0"/>
              <parameter index="44" name="LowGraphRange" parameterValue="0"/>
            </component>
          </slot>
          <slot powered="true" slotIndex="2">
            <component componentGuid="a39ab59d-0d11-43f3-91d9-760e134af724" componentID="f14fee7d-fe5f-4202-b790-f53209e56411" name="Amplify" presetName="(Custom)">
              <busConfig><![CDATA[{"in":[{"layout":[100,101],"name":"","type":0}],"out":[{"layout":[100,101],"name":"","type":0}]}]]></busConfig>
              <channelMap direction="input">
                <channel index="0" sourceIndex="0"/>
                <channel index="1" sourceIndex="1"/>
              </channelMap>
              <channelMap direction="output">
                <channel index="0" sourceIndex="0"/>
                <channel index="1" sourceIndex="1"/>
              </channelMap>
              <parameter index="0" name="Channel Count" parameterValue="0.0625"/>
              <parameter index="1" name="Link Sliders" parameterValue="1"/>
              <parameter index="2" name="Left" parameterValue="0.72970640659332275390625"/>
              <parameter index="3" name="Right" parameterValue="0.72970640659332275390625"/>
              <parameter index="4" name="" parameterValue="0.666666686534881591796875"/>
              <parameter index="5" name="" parameterValue="0.666666686534881591796875"/>
              <parameter index="6" name="" parameterValue="0.666666686534881591796875"/>
              <parameter index="7" name="" parameterValue="0.666666686534881591796875"/>
              <parameter index="8" name="" parameterValue="0.666666686534881591796875"/>
              <parameter index="9" name="" parameterValue="0.666666686534881591796875"/>
              <parameter index="10" name="" parameterValue="0.666666686534881591796875"/>
              <parameter index="11" name="" parameterValue="0.666666686534881591796875"/>
              <parameter index="12" name="" parameterValue="0.666666686534881591796875"/>
              <parameter index="13" name="" parameterValue="0.666666686534881591796875"/>
              <parameter index="14" name="" parameterValue="0.666666686534881591796875"/>
              <parameter index="15" name="" parameterValue="0.666666686534881591796875"/>
              <parameter index="16" name="" parameterValue="0.666666686534881591796875"/>
              <parameter index="17" name="" parameterValue="0.666666686534881591796875"/>
              <parameter index="18" name="" parameterValue="0.666666686534881591796875"/>
              <parameter index="19" name="" parameterValue="0.666666686534881591796875"/>
              <parameter index="20" name="" parameterValue="0.666666686534881591796875"/>
              <parameter index="21" name="" parameterValue="0.666666686534881591796875"/>
              <parameter index="22" name="" parameterValue="0.666666686534881591796875"/>
              <parameter index="23" name="" parameterValue="0.666666686534881591796875"/>
              <parameter index="24" name="" parameterValue="0.666666686534881591796875"/>
              <parameter index="25" name="" parameterValue="0.666666686534881591796875"/>
              <parameter index="26" name="" parameterValue="0.666666686534881591796875"/>
              <parameter index="27" name="" parameterValue="0.666666686534881591796875"/>
              <parameter index="28" name="" parameterValue="0.666666686534881591796875"/>
              <parameter index="29" name="" parameterValue="0.666666686534881591796875"/>
              <parameter index="30" name="" parameterValue="0.666666686534881591796875"/>
              <parameter index="31" name="" parameterValue="0.666666686534881591796875"/>
              <parameter index="32" name="" parameterValue="0.666666686534881591796875"/>
              <parameter index="33" name="" parameterValue="0.666666686534881591796875"/>
              <parameter index="34" name="Link Keyframes" parameterValue="1"/>
            </component>
          </slot>
        </effectsRack>
        <editParameter parameterIndex="0" slotIndex="4294967280"/>
        <audioClip clipAutoCrossfade="true" crossFadeHeadClipID="-1" crossFadeTailClipID="-1" endPoint="4219463" fileID="7" hue="-1" id="0" lockedInTime="false" looped="false" name="Bird chirps: Waterfront near Meeker Ave" offline="false" select="false" sourceInPoint="232287" sourceOutPoint="710536" startPoint="3741214" zOrder="0">
          <component componentGuid="960d62a5-fe50-4364-9904-30536ad0a57d" componentID="Audition.Fader" id="clipGain" name="volume" powered="true">
            <parameter index="0" name="volume" parameterValue="1"/>
            <parameter index="1" name="static gain" parameterValue="1"/>
          </component>
          <component componentGuid="739784d3-39b8-4c57-b918-4cc3a491c06a" componentID="Audition.Mute" id="clipMute" name="Mute" powered="true">
            <parameter index="0" parameterValue="0"/>
            <parameter index="1" name="mute" parameterValue="0"/>
          </component>
          <component componentGuid="faf96dd8-ee10-4a4e-a0c7-3498cda7e1b8" componentID="Audition.StereoPanner" id="clipPan" name="StereoPanner" powered="true">
            <parameter index="0" name="Pan" parameterValue="0"/>
          </component>
          <fadeIn crossFadeLinkType="linkedAsymmetric" endPoint="23315" shape="19" startPoint="0" type="log"/>
          <fadeOut crossFadeLinkType="linkedAsymmetric" endPoint="478249" shape="19" startPoint="418042" type="log"/>
          <editParameter parameterIndex="0" slotIndex="4294967280"/>
          <editParameter parameterIndex="0" slotIndex="4294967281"/>
          <channelMap>
            <channel index="0" sourceIndex="0"/>
            <channel index="1" sourceIndex="1"/>
          </channelMap>
        </audioClip>
        <audioClip clipAutoCrossfade="true" crossFadeHeadClipID="-1" crossFadeTailClipID="-1" endPoint="5708870" fileID="8" hue="-1" id="1" lockedInTime="false" looped="false" name="Bird chirps: Vanderwoort Ave &amp; Beadel St" offline="false" select="false" sourceInPoint="2941861" sourceOutPoint="3389131" startPoint="5261600" zOrder="1">
          <component componentGuid="0c94e1ad-1703-4768-92a8-fc674378fc15" componentID="Audition.Fader" id="clipGain" name="volume" powered="true">
            <parameter index="0" name="volume" parameterValue="1"/>
            <parameter index="1" name="static gain" parameterValue="1"/>
          </component>
          <component componentGuid="20b2ca74-f4a0-4e2b-a1da-5eef07b89357" componentID="Audition.Mute" id="clipMute" name="Mute" powered="true">
            <parameter index="0" parameterValue="0"/>
            <parameter index="1" name="mute" parameterValue="0"/>
          </component>
          <component componentGuid="fc253f6d-0904-415a-a74c-9f936e5ae80a" componentID="Audition.StereoPanner" id="clipPan" name="StereoPanner" powered="true">
            <parameter index="0" name="Pan" parameterValue="0"/>
          </component>
          <fadeIn crossFadeLinkType="linkedAsymmetric" endPoint="56339" shape="19" startPoint="0" type="log"/>
          <fadeOut crossFadeLinkType="linkedAsymmetric" endPoint="447270" shape="19" startPoint="401009" type="log"/>
          <editParameter parameterIndex="0" slotIndex="4294967280"/>
          <editParameter parameterIndex="0" slotIndex="4294967281"/>
          <channelMap>
            <channel index="0" sourceIndex="0"/>
            <channel index="1" sourceIndex="1"/>
          </channelMap>
        </audioClip>
        <audioClip clipAutoCrossfade="true" crossFadeHeadClipID="-1" crossFadeTailClipID="-1" endPoint="8736000" fileID="7" hue="-1" id="2" lockedInTime="false" looped="false" name="Bird chirps: Waterfront near Meeker Ave" offline="false" select="false" sourceInPoint="240976" sourceOutPoint="480976" startPoint="8496000" zOrder="2">
          <component componentGuid="be5bd54e-e9f1-4e68-b3d3-2e6ec882f215" componentID="Audition.Fader" id="clipGain" name="volume" powered="true">
            <parameter index="0" name="volume" parameterValue="1"/>
            <parameter index="1" name="static gain" parameterValue="1"/>
          </component>
          <component componentGuid="06323d97-0f56-4dc3-b801-d61b4700a470" componentID="Audition.Mute" id="clipMute" name="Mute" powered="true">
            <parameter index="0" parameterValue="0"/>
            <parameter index="1" name="mute" parameterValue="0"/>
          </component>
          <component componentGuid="440d7d15-27c9-470b-959f-30921a2683a9" componentID="Audition.StereoPanner" id="clipPan" name="StereoPanner" powered="true">
            <parameter index="0" name="Pan" parameterValue="0"/>
          </component>
          <fadeIn crossFadeLinkType="linkedAsymmetric" endPoint="0" shape="19" startPoint="0" type="log"/>
          <fadeOut crossFadeLinkType="linkedAsymmetric" endPoint="240000" shape="24" startPoint="240000" type="log"/>
          <editParameter parameterIndex="0" slotIndex="4294967280"/>
          <editParameter parameterIndex="0" slotIndex="4294967281"/>
          <channelMap>
            <channel index="0" sourceIndex="0"/>
            <channel index="1" sourceIndex="1"/>
          </channelMap>
        </audioClip>
        <audioClip clipAutoCrossfade="true" crossFadeHeadClipID="-1" crossFadeTailClipID="-1" endPoint="10218614" fileID="7" hue="-1" id="3" lockedInTime="false" looped="false" name="Bird chirps: Waterfront near Meeker Ave" offline="false" select="false" sourceInPoint="232287" sourceOutPoint="710536" startPoint="9740365" zOrder="3">
          <component componentGuid="e6ac4db1-41bf-44fd-903c-192510e4db05" componentID="Audition.Fader" id="clipGain" name="volume" powered="true">
            <parameter index="0" name="volume" parameterValue="1"/>
            <parameter index="1" name="static gain" parameterValue="1"/>
          </component>
          <component componentGuid="0ac4339f-7d77-4bcc-bf42-f2d7bfb01150" componentID="Audition.Mute" id="clipMute" name="Mute" powered="true">
            <parameter index="0" parameterValue="0"/>
            <parameter index="1" name="mute" parameterValue="0"/>
          </component>
          <component componentGuid="64ba80fc-6a88-485d-81ea-77d9b7c76a19" componentID="Audition.StereoPanner" id="clipPan" name="StereoPanner" powered="true">
            <parameter index="0" name="Pan" parameterValue="0"/>
          </component>
          <fadeIn crossFadeLinkType="linkedAsymmetric" endPoint="23315" shape="19" startPoint="0" type="log"/>
          <fadeOut crossFadeLinkType="linkedAsymmetric" endPoint="478249" shape="19" startPoint="478249" type="log"/>
          <editParameter parameterIndex="0" slotIndex="4294967280"/>
          <editParameter parameterIndex="0" slotIndex="4294967281"/>
          <channelMap>
            <channel index="0" sourceIndex="0"/>
            <channel index="1" sourceIndex="1"/>
          </channelMap>
        </audioClip>
      </audioTrack>
      <audioTrack automationLaneOpenState="false" id="10015" index="5" select="false" visible="true">
        <trackParameters trackHeight="30" trackHue="326" trackMinimized="false">
          <name>birds L100</name>
        </trackParameters>
        <trackAudioParameters audioChannelType="stereo" automationMode="1" monitoring="false" recordArmed="false" solo="false" soloSafe="false">
          <trackOutput outputID="10000" type="trackID"/>
          <trackInput inputID="1"/>
          <component componentGuid="4d80a2f3-0eab-4c1b-8a7c-82fef1881cd1" componentID="Audition.Fader" id="trackFader" name="volume" powered="true">
            <parameter index="0" name="volume" parameterValue="3.01995182037353515625"/>
            <parameter index="1" name="static gain" parameterValue="1"/>
          </component>
          <component componentGuid="3403c643-834b-472e-9ae7-bad1c3e0882b" componentID="Audition.Mute" id="trackMute" name="Mute" powered="true">
            <parameter index="0" parameterValue="0"/>
            <parameter index="1" name="mute" parameterValue="0"/>
          </component>
          <component componentGuid="ca824b09-405a-43a0-ad0e-49054933b61d" componentID="Audition.StereoPanner" id="trackPan" name="StereoPanner" powered="true">
            <parameter index="0" name="Pan" parameterValue="-100"/>
          </component>
          <component componentGuid="ec0e1c51-ad78-46f6-b71d-4b93e4e29783" componentID="Audition.EQ" id="trackEQ" name="EQ" powered="false">
            <parameter index="0" name="Low Shelf Frequency" parameterValue="0.000834028352983295917510986328125"/>
            <parameter index="1" name="Low Shelf Gain" parameterValue="0.5"/>
            <parameter index="2" name="High Shelf Frequency" parameterValue="0.74979150295257568359375"/>
            <parameter index="3" name="High Shelf Gain" parameterValue="0.5"/>
            <parameter index="4" name="EQ Band 1 Center Frequency" parameterValue="0.00125104258768260478973388671875"/>
            <parameter index="5" name="EQ Band 1 Q" parameterValue="0.000199989997781813144683837890625"/>
            <parameter index="6" name="EQ Band 1 Gain" parameterValue="0.5"/>
            <parameter index="7" name="EQ Band 1 Enable" parameterValue="1"/>
            <parameter index="8" name="EQ Band 2 Center Frequency" parameterValue="0.0075062550604343414306640625"/>
            <parameter index="9" name="EQ Band 2 Q" parameterValue="0.000199989997781813144683837890625"/>
            <parameter index="10" name="EQ Band 2 Gain" parameterValue="0.5"/>
            <parameter index="11" name="EQ Band 2 Enable" parameterValue="1"/>
            <parameter index="12" name="EQ Band 3 Center Frequency" parameterValue="0.0325271077454090118408203125"/>
            <parameter index="13" name="EQ Band 3 Q" parameterValue="0.000199989997781813144683837890625"/>
            <parameter index="14" name="EQ Band 3 Gain" parameterValue="0.5"/>
            <parameter index="15" name="EQ Band 3 Enable" parameterValue="1"/>
            <parameter index="16" name="EQ Band 4 Center Frequency" parameterValue="0.13261051476001739501953125"/>
            <parameter index="17" name="EQ Band 4 Q" parameterValue="0.000199989997781813144683837890625"/>
            <parameter index="18" name="EQ Band 4 Gain" parameterValue="0.5"/>
            <parameter index="19" name="EQ Band 4 Enable" parameterValue="1"/>
            <parameter index="20" name="EQ Band 5 Center Frequency" parameterValue="0.532944142818450927734375"/>
            <parameter index="21" name="EQ Band 5 Q" parameterValue="0.000199989997781813144683837890625"/>
            <parameter index="22" name="EQ Band 5 Gain" parameterValue="0.5"/>
            <parameter index="23" name="EQ Band 5 Enable" parameterValue="1"/>
            <parameter index="24" name="Master Gain" parameterValue="0.666666686534881591796875"/>
            <parameter index="25" name="ConstantQ" parameterValue="1"/>
            <parameter index="26" name="Low Shelf Filter Order" parameterValue="0"/>
            <parameter index="27" name="High Shelf Filter Order" parameterValue="0"/>
            <parameter index="28" name="Ultra-Quiet Mode" parameterValue="0"/>
            <parameter index="29" name="Low Shelf Enable" parameterValue="1"/>
            <parameter index="30" name="High Shelf Enable" parameterValue="1"/>
            <parameter index="31" name="Original Sample Rate" parameterValue="0.25"/>
            <parameter index="32" name="EQ Band 1 Bandwidth" parameterValue="0.002499990165233612060546875"/>
            <parameter index="33" name="EQ Band 2 Bandwidth" parameterValue="0.0099999904632568359375"/>
            <parameter index="34" name="EQ Band 3 Bandwidth" parameterValue="0.0399999916553497314453125"/>
            <parameter index="35" name="EQ Band 4 Bandwidth" parameterValue="0.15999998152256011962890625"/>
            <parameter index="36" name="EQ Band 5 Bandwidth" parameterValue="0.63999998569488525390625"/>
            <parameter index="37" name="High-Pass Filter Enable" parameterValue="0"/>
            <parameter index="38" name="High-Pass Cutoff Frequency" parameterValue="0"/>
            <parameter index="39" name="High-Pass Slope" parameterValue="0.4000000059604644775390625"/>
            <parameter index="40" name="Low-Pass Filter Enable" parameterValue="0"/>
            <parameter index="41" name="Low-Pass Cutoff Frequency" parameterValue="0.833194315433502197265625"/>
            <parameter index="42" name="Low-Pass Slope" parameterValue="0.4000000059604644775390625"/>
            <parameter index="43" name="Bypass" parameterValue="0"/>
            <parameter index="44" name="LowGraphRange" parameterValue="1"/>
          </component>
        </trackAudioParameters>
        <effectsRack preFader="true">
          <component componentGuid="0766c27b-0ee0-4748-8521-207fe5512098" componentID="Audition.ComponentGroup" id="rackMix" powered="true">
            <parameter index="0" parameterValue="0"/>
            <parameter index="1" parameterValue="0"/>
          </component>
          <component componentGuid="8c2c8443-571d-4caf-8161-0b13b2f82ea2" id="rackInput" powered="true">
            <parameter index="0" parameterValue="1"/>
            <parameter index="1" parameterValue="0"/>
          </component>
          <component componentGuid="24a69d5e-046a-4697-a0de-e82597b06d46" id="rackOutput" powered="true">
            <parameter index="0" parameterValue="1"/>
            <parameter index="1" parameterValue="0"/>
          </component>
          <slot powered="true" slotIndex="0">
            <component componentGuid="73ac3f9e-f82a-4085-86cc-237ab87afd41" componentID="f83ad984-04c6-4474-b8c0-e31d98875cfe" name="Adaptive Noise Reduction" presetName="(Custom)">
              <busConfig><![CDATA[{"in":[{"layout":[100,101],"name":"","type":0}],"out":[{"layout":[100,101],"name":"","type":0}]}]]></busConfig>
              <channelMap direction="input">
                <channel index="0" sourceIndex="0"/>
                <channel index="1" sourceIndex="1"/>
              </channelMap>
              <channelMap direction="output">
                <channel index="0" sourceIndex="0"/>
                <channel index="1" sourceIndex="1"/>
              </channelMap>
              <parameter index="0" name="Reduce Noise By" parameterValue="0.1411277353763580322265625"/>
              <parameter index="1" name="Noisiness" parameterValue="0.589572489261627197265625"/>
              <parameter index="2" name="Fine Tune Noise Floor" parameterValue="0.7772171497344970703125"/>
              <parameter index="3" name="Signal Threshold" parameterValue="0.50202548503875732421875"/>
              <parameter index="4" name="Spectral Decay Rate" parameterValue="0"/>
              <parameter index="5" name="Broadband Preservation" parameterValue="0.370081007480621337890625"/>
              <parameter index="6" name="FFT Size" parameterValue="0.0078125"/>
              <parameter index="7" name="High Quality Mode (slower)" parameterValue="1"/>
              <parameter index="8" name="Is Processing" parameterValue="0"/>
            </component>
          </slot>
          <slot powered="true" slotIndex="1">
            <component componentGuid="6b03eab1-6ac9-4e9e-b281-3971c57463d4" componentID="8edcd326-33de-4a4d-985b-f1bf48ed1427" name="Parametric Equalizer" presetName="(Custom)">
              <busConfig><![CDATA[{"in":[{"layout":[100,101],"name":"","type":0}],"out":[{"layout":[100,101],"name":"","type":0}]}]]></busConfig>
              <channelMap direction="input">
                <channel index="0" sourceIndex="0"/>
                <channel index="1" sourceIndex="1"/>
              </channelMap>
              <channelMap direction="output">
                <channel index="0" sourceIndex="0"/>
                <channel index="1" sourceIndex="1"/>
              </channelMap>
              <parameter index="0" name="Low Shelf Frequency" parameterValue="0.0037501840852200984954833984375"/>
              <parameter index="1" name="Low Shelf Gain" parameterValue="0.21052630245685577392578125"/>
              <parameter index="2" name="High Shelf Frequency" parameterValue="0.3978315293788909912109375"/>
              <parameter index="3" name="High Shelf Gain" parameterValue="0.3157894611358642578125"/>
              <parameter index="4" name="EQ Band 1 Center Frequency" parameterValue="0.01392506062984466552734375"/>
              <parameter index="5" name="EQ Band 1 Q" parameterValue="9.99900003080256283283233642578125e-05"/>
              <parameter index="6" name="EQ Band 1 Gain" parameterValue="0.17894737422466278076171875"/>
              <parameter index="7" name="EQ Band 1 Enable" parameterValue="1"/>
              <parameter index="8" name="EQ Band 2 Center Frequency" parameterValue="0.03270854055881500244140625"/>
              <parameter index="9" name="EQ Band 2 Q" parameterValue="0.0004999900120310485363006591796875"/>
              <parameter index="10" name="EQ Band 2 Gain" parameterValue="0.16315789520740509033203125"/>
              <parameter index="11" name="EQ Band 2 Enable" parameterValue="1"/>
              <parameter index="12" name="EQ Band 3 Center Frequency" parameterValue="0.077317453920841217041015625"/>
              <parameter index="13" name="EQ Band 3 Q" parameterValue="0.000199989997781813144683837890625"/>
              <parameter index="14" name="EQ Band 3 Gain" parameterValue="0.789473712444305419921875"/>
              <parameter index="15" name="EQ Band 3 Enable" parameterValue="1"/>
              <parameter index="16" name="EQ Band 4 Center Frequency" parameterValue="0.16196788847446441650390625"/>
              <parameter index="17" name="EQ Band 4 Q" parameterValue="0.000199989997781813144683837890625"/>
              <parameter index="18" name="EQ Band 4 Gain" parameterValue="0.64736843109130859375"/>
              <parameter index="19" name="EQ Band 4 Enable" parameterValue="1"/>
              <parameter index="20" name="EQ Band 5 Center Frequency" parameterValue="0.423413217067718505859375"/>
              <parameter index="21" name="EQ Band 5 Q" parameterValue="0.000199989997781813144683837890625"/>
              <parameter index="22" name="EQ Band 5 Gain" parameterValue="0.515789449214935302734375"/>
              <parameter index="23" name="EQ Band 5 Enable" parameterValue="1"/>
              <parameter index="24" name="Master Gain" parameterValue="0.661057412624359130859375"/>
              <parameter index="25" name="ConstantQ" parameterValue="1"/>
              <parameter index="26" name="Low Shelf Filter Order" parameterValue="0"/>
              <parameter index="27" name="High Shelf Filter Order" parameterValue="0"/>
              <parameter index="28" name="Ultra-Quiet Mode" parameterValue="1"/>
              <parameter index="29" name="Low Shelf Enable" parameterValue="1"/>
              <parameter index="30" name="High Shelf Enable" parameterValue="1"/>
              <parameter index="31" name="Original Sample Rate" parameterValue="0.25"/>
              <parameter index="32" name="EQ Band 1 Bandwidth" parameterValue="0.035392284393310546875"/>
              <parameter index="33" name="EQ Band 2 Bandwidth" parameterValue="0.01608700491487979888916015625"/>
              <parameter index="34" name="EQ Band 3 Bandwidth" parameterValue="0.09370361268520355224609375"/>
              <parameter index="35" name="EQ Band 4 Bandwidth" parameterValue="0.195199489593505859375"/>
              <parameter index="36" name="EQ Band 5 Bandwidth" parameterValue="0.5086724758148193359375"/>
              <parameter index="37" name="High-Pass Filter Enable" parameterValue="0"/>
              <parameter index="38" name="High-Pass Cutoff Frequency" parameterValue="0.0008340280619449913501739501953125"/>
              <parameter index="39" name="High-Pass Slope" parameterValue="0.4000000059604644775390625"/>
              <parameter index="40" name="Low-Pass Filter Enable" parameterValue="0"/>
              <parameter index="41" name="Low-Pass Cutoff Frequency" parameterValue="0.74979197978973388671875"/>
              <parameter index="42" name="Low-Pass Slope" parameterValue="0.4000000059604644775390625"/>
              <parameter index="43" name="Bypass" parameterValue="0"/>
              <parameter index="44" name="LowGraphRange" parameterValue="0"/>
            </component>
          </slot>
          <slot powered="true" slotIndex="2">
            <component componentGuid="b0ce758a-2335-4793-8e92-5a17f02d5134" componentID="f14fee7d-fe5f-4202-b790-f53209e56411" name="Amplify" presetName="(Custom)">
              <busConfig><![CDATA[{"in":[{"layout":[100,101],"name":"","type":0}],"out":[{"layout":[100,101],"name":"","type":0}]}]]></busConfig>
              <channelMap direction="input">
                <channel index="0" sourceIndex="0"/>
                <channel index="1" sourceIndex="1"/>
              </channelMap>
              <channelMap direction="output">
                <channel index="0" sourceIndex="0"/>
                <channel index="1" sourceIndex="1"/>
              </channelMap>
              <parameter index="0" name="Channel Count" parameterValue="0.0625"/>
              <parameter index="1" name="Link Sliders" parameterValue="1"/>
              <parameter index="2" name="Left" parameterValue="0.72970640659332275390625"/>
              <parameter index="3" name="Right" parameterValue="0.72970640659332275390625"/>
              <parameter index="4" name="" parameterValue="0.666666686534881591796875"/>
              <parameter index="5" name="" parameterValue="0.666666686534881591796875"/>
              <parameter index="6" name="" parameterValue="0.666666686534881591796875"/>
              <parameter index="7" name="" parameterValue="0.666666686534881591796875"/>
              <parameter index="8" name="" parameterValue="0.666666686534881591796875"/>
              <parameter index="9" name="" parameterValue="0.666666686534881591796875"/>
              <parameter index="10" name="" parameterValue="0.666666686534881591796875"/>
              <parameter index="11" name="" parameterValue="0.666666686534881591796875"/>
              <parameter index="12" name="" parameterValue="0.666666686534881591796875"/>
              <parameter index="13" name="" parameterValue="0.666666686534881591796875"/>
              <parameter index="14" name="" parameterValue="0.666666686534881591796875"/>
              <parameter index="15" name="" parameterValue="0.666666686534881591796875"/>
              <parameter index="16" name="" parameterValue="0.666666686534881591796875"/>
              <parameter index="17" name="" parameterValue="0.666666686534881591796875"/>
              <parameter index="18" name="" parameterValue="0.666666686534881591796875"/>
              <parameter index="19" name="" parameterValue="0.666666686534881591796875"/>
              <parameter index="20" name="" parameterValue="0.666666686534881591796875"/>
              <parameter index="21" name="" parameterValue="0.666666686534881591796875"/>
              <parameter index="22" name="" parameterValue="0.666666686534881591796875"/>
              <parameter index="23" name="" parameterValue="0.666666686534881591796875"/>
              <parameter index="24" name="" parameterValue="0.666666686534881591796875"/>
              <parameter index="25" name="" parameterValue="0.666666686534881591796875"/>
              <parameter index="26" name="" parameterValue="0.666666686534881591796875"/>
              <parameter index="27" name="" parameterValue="0.666666686534881591796875"/>
              <parameter index="28" name="" parameterValue="0.666666686534881591796875"/>
              <parameter index="29" name="" parameterValue="0.666666686534881591796875"/>
              <parameter index="30" name="" parameterValue="0.666666686534881591796875"/>
              <parameter index="31" name="" parameterValue="0.666666686534881591796875"/>
              <parameter index="32" name="" parameterValue="0.666666686534881591796875"/>
              <parameter index="33" name="" parameterValue="0.666666686534881591796875"/>
              <parameter index="34" name="Link Keyframes" parameterValue="1"/>
            </component>
          </slot>
        </effectsRack>
        <editParameter parameterIndex="0" slotIndex="4294967280"/>
        <audioClip clipAutoCrossfade="true" crossFadeHeadClipID="-1" crossFadeTailClipID="-1" endPoint="4886752" fileID="7" hue="-1" id="0" lockedInTime="false" looped="false" name="Bird chirps: Waterfront near Meeker Ave" offline="false" select="false" sourceInPoint="792723" sourceOutPoint="1088426" startPoint="4591049" zOrder="0">
          <component componentGuid="05561896-9753-47a0-a4ad-1d26a296e441" componentID="Audition.Fader" id="clipGain" name="volume" powered="true">
            <parameter index="0" name="volume" parameterValue="1"/>
            <parameter index="1" name="static gain" parameterValue="1"/>
          </component>
          <component componentGuid="37f6b47f-2a7a-47e1-bbdc-b57ef058de28" componentID="Audition.Mute" id="clipMute" name="Mute" powered="true">
            <parameter index="0" parameterValue="0"/>
            <parameter index="1" name="mute" parameterValue="0"/>
          </component>
          <component componentGuid="648d6a89-cc11-40b7-8f1d-355451950b5f" componentID="Audition.StereoPanner" id="clipPan" name="StereoPanner" powered="true">
            <parameter index="0" name="Pan" parameterValue="0"/>
          </component>
          <fadeIn crossFadeLinkType="linkedAsymmetric" endPoint="56666" shape="19" startPoint="0" type="log"/>
          <fadeOut crossFadeLinkType="linkedAsymmetric" endPoint="295703" shape="19" startPoint="224871" type="log"/>
          <editParameter parameterIndex="0" slotIndex="4294967280"/>
          <editParameter parameterIndex="0" slotIndex="4294967281"/>
          <channelMap>
            <channel index="0" sourceIndex="0"/>
            <channel index="1" sourceIndex="1"/>
          </channelMap>
        </audioClip>
        <audioClip clipAutoCrossfade="true" crossFadeHeadClipID="-1" crossFadeTailClipID="2" endPoint="9991703" fileID="7" hue="-1" id="1" lockedInTime="false" looped="false" name="Bird chirps: Waterfront near Meeker Ave" offline="false" select="false" sourceInPoint="792723" sourceOutPoint="1088426" startPoint="9696000" zOrder="1">
          <component componentGuid="cae7a01a-dacf-4dc0-b616-4a8eedae935d" componentID="Audition.Fader" id="clipGain" name="volume" powered="true">
            <parameter index="0" name="volume" parameterValue="1"/>
            <parameter index="1" name="static gain" parameterValue="1"/>
          </component>
          <component componentGuid="9c5cc55c-057c-448f-9012-ebce71b0f86c" componentID="Audition.Mute" id="clipMute" name="Mute" powered="true">
            <parameter index="0" parameterValue="0"/>
            <parameter index="1" name="mute" parameterValue="0"/>
          </component>
          <component componentGuid="4b0becfb-a18a-4371-a919-c58daca82d3a" componentID="Audition.StereoPanner" id="clipPan" name="StereoPanner" powered="true">
            <parameter index="0" name="Pan" parameterValue="0"/>
          </component>
          <fadeIn crossFadeLinkType="linkedAsymmetric" endPoint="0" shape="19" startPoint="0" type="log"/>
          <fadeOut crossFadeLinkType="linkedAsymmetric" endPoint="295703" shape="19" startPoint="266007" type="log"/>
          <editParameter parameterIndex="0" slotIndex="4294967280"/>
          <editParameter parameterIndex="0" slotIndex="4294967281"/>
          <channelMap>
            <channel index="0" sourceIndex="0"/>
            <channel index="1" sourceIndex="1"/>
          </channelMap>
        </audioClip>
        <audioClip clipAutoCrossfade="true" crossFadeHeadClipID="1" crossFadeTailClipID="-1" endPoint="10248000" fileID="7" hue="-1" id="2" lockedInTime="false" looped="false" name="Bird chirps: Waterfront near Meeker Ave" offline="false" select="false" sourceInPoint="792723" sourceOutPoint="1078716" startPoint="9962007" zOrder="2">
          <component componentGuid="43514bef-24fe-4201-a4d3-e8bd31201e02" componentID="Audition.Fader" id="clipGain" name="volume" powered="true">
            <parameter index="0" name="volume" parameterValue="1"/>
            <parameter index="1" name="static gain" parameterValue="1"/>
          </component>
          <component componentGuid="b06689ba-b63c-4d7f-a651-752549dca09c" componentID="Audition.Mute" id="clipMute" name="Mute" powered="true">
            <parameter index="0" parameterValue="0"/>
            <parameter index="1" name="mute" parameterValue="0"/>
          </component>
          <component componentGuid="a8410c6d-5f5c-486d-b441-902bf2776be6" componentID="Audition.StereoPanner" id="clipPan" name="StereoPanner" powered="true">
            <parameter index="0" name="Pan" parameterValue="0"/>
          </component>
          <fadeIn crossFadeLinkType="linkedAsymmetric" endPoint="29696" shape="18" startPoint="0" type="log"/>
          <fadeOut crossFadeLinkType="linkedAsymmetric" endPoint="285993" shape="25" startPoint="285993" type="log"/>
          <editParameter parameterIndex="0" slotIndex="4294967280"/>
          <editParameter parameterIndex="0" slotIndex="4294967281"/>
          <channelMap>
            <channel index="0" sourceIndex="0"/>
            <channel index="1" sourceIndex="1"/>
          </channelMap>
        </audioClip>
      </audioTrack>
      <audioTrack automationLaneOpenState="false" id="10013" index="6" select="false" visible="true">
        <trackParameters trackHeight="30" trackHue="326" trackMinimized="false">
          <name>birds R60</name>
        </trackParameters>
        <trackAudioParameters audioChannelType="stereo" automationMode="1" monitoring="false" recordArmed="false" solo="false" soloSafe="false">
          <trackOutput outputID="10000" type="trackID"/>
          <trackInput inputID="1"/>
          <component componentGuid="bc6a4f5a-09d0-433e-a918-594615a12a80" componentID="Audition.Fader" id="trackFader" name="volume" powered="true">
            <parameter index="0" name="volume" parameterValue="3.01995182037353515625"/>
            <parameter index="1" name="static gain" parameterValue="1"/>
          </component>
          <component componentGuid="18397f8c-a006-41dd-bba8-e7a354763dd3" componentID="Audition.Mute" id="trackMute" name="Mute" powered="true">
            <parameter index="0" parameterValue="0"/>
            <parameter index="1" name="mute" parameterValue="0"/>
          </component>
          <component componentGuid="7ce4798c-bec9-4ca3-a3a8-3f1db27488bf" componentID="Audition.StereoPanner" id="trackPan" name="StereoPanner" powered="true">
            <parameter index="0" name="Pan" parameterValue="60"/>
          </component>
          <component componentGuid="b018f10b-10b8-4ec8-bc1e-f678b0996c7c" componentID="Audition.EQ" id="trackEQ" name="EQ" powered="false">
            <parameter index="0" name="Low Shelf Frequency" parameterValue="0.000834028352983295917510986328125"/>
            <parameter index="1" name="Low Shelf Gain" parameterValue="0.5"/>
            <parameter index="2" name="High Shelf Frequency" parameterValue="0.74979150295257568359375"/>
            <parameter index="3" name="High Shelf Gain" parameterValue="0.5"/>
            <parameter index="4" name="EQ Band 1 Center Frequency" parameterValue="0.00125104258768260478973388671875"/>
            <parameter index="5" name="EQ Band 1 Q" parameterValue="0.000199989997781813144683837890625"/>
            <parameter index="6" name="EQ Band 1 Gain" parameterValue="0.5"/>
            <parameter index="7" name="EQ Band 1 Enable" parameterValue="1"/>
            <parameter index="8" name="EQ Band 2 Center Frequency" parameterValue="0.0075062550604343414306640625"/>
            <parameter index="9" name="EQ Band 2 Q" parameterValue="0.000199989997781813144683837890625"/>
            <parameter index="10" name="EQ Band 2 Gain" parameterValue="0.5"/>
            <parameter index="11" name="EQ Band 2 Enable" parameterValue="1"/>
            <parameter index="12" name="EQ Band 3 Center Frequency" parameterValue="0.0325271077454090118408203125"/>
            <parameter index="13" name="EQ Band 3 Q" parameterValue="0.000199989997781813144683837890625"/>
            <parameter index="14" name="EQ Band 3 Gain" parameterValue="0.5"/>
            <parameter index="15" name="EQ Band 3 Enable" parameterValue="1"/>
            <parameter index="16" name="EQ Band 4 Center Frequency" parameterValue="0.13261051476001739501953125"/>
            <parameter index="17" name="EQ Band 4 Q" parameterValue="0.000199989997781813144683837890625"/>
            <parameter index="18" name="EQ Band 4 Gain" parameterValue="0.5"/>
            <parameter index="19" name="EQ Band 4 Enable" parameterValue="1"/>
            <parameter index="20" name="EQ Band 5 Center Frequency" parameterValue="0.532944142818450927734375"/>
            <parameter index="21" name="EQ Band 5 Q" parameterValue="0.000199989997781813144683837890625"/>
            <parameter index="22" name="EQ Band 5 Gain" parameterValue="0.5"/>
            <parameter index="23" name="EQ Band 5 Enable" parameterValue="1"/>
            <parameter index="24" name="Master Gain" parameterValue="0.666666686534881591796875"/>
            <parameter index="25" name="ConstantQ" parameterValue="1"/>
            <parameter index="26" name="Low Shelf Filter Order" parameterValue="0"/>
            <parameter index="27" name="High Shelf Filter Order" parameterValue="0"/>
            <parameter index="28" name="Ultra-Quiet Mode" parameterValue="0"/>
            <parameter index="29" name="Low Shelf Enable" parameterValue="1"/>
            <parameter index="30" name="High Shelf Enable" parameterValue="1"/>
            <parameter index="31" name="Original Sample Rate" parameterValue="0.25"/>
            <parameter index="32" name="EQ Band 1 Bandwidth" parameterValue="0.002499990165233612060546875"/>
            <parameter index="33" name="EQ Band 2 Bandwidth" parameterValue="0.0099999904632568359375"/>
            <parameter index="34" name="EQ Band 3 Bandwidth" parameterValue="0.0399999916553497314453125"/>
            <parameter index="35" name="EQ Band 4 Bandwidth" parameterValue="0.15999998152256011962890625"/>
            <parameter index="36" name="EQ Band 5 Bandwidth" parameterValue="0.63999998569488525390625"/>
            <parameter index="37" name="High-Pass Filter Enable" parameterValue="0"/>
            <parameter index="38" name="High-Pass Cutoff Frequency" parameterValue="0"/>
            <parameter index="39" name="High-Pass Slope" parameterValue="0.4000000059604644775390625"/>
            <parameter index="40" name="Low-Pass Filter Enable" parameterValue="0"/>
            <parameter index="41" name="Low-Pass Cutoff Frequency" parameterValue="0.833194315433502197265625"/>
            <parameter index="42" name="Low-Pass Slope" parameterValue="0.4000000059604644775390625"/>
            <parameter index="43" name="Bypass" parameterValue="0"/>
            <parameter index="44" name="LowGraphRange" parameterValue="1"/>
          </component>
        </trackAudioParameters>
        <effectsRack preFader="true">
          <component componentGuid="0d03e586-c6c8-446a-947a-62f13fe8037a" componentID="Audition.ComponentGroup" id="rackMix" powered="true">
            <parameter index="0" parameterValue="0"/>
            <parameter index="1" parameterValue="0"/>
          </component>
          <component componentGuid="bd0ae7ab-e7ba-4e1e-a4c0-cef8064889a8" id="rackInput" powered="true">
            <parameter index="0" parameterValue="1"/>
            <parameter index="1" parameterValue="0"/>
          </component>
          <component componentGuid="67da2eaf-5590-45e8-afb1-3d1c5149218d" id="rackOutput" powered="true">
            <parameter index="0" parameterValue="1"/>
            <parameter index="1" parameterValue="0"/>
          </component>
          <slot powered="true" slotIndex="0">
            <component componentGuid="375ece14-b42d-4c44-893a-4b7f594c74ed" componentID="f83ad984-04c6-4474-b8c0-e31d98875cfe" name="Adaptive Noise Reduction" presetName="(Custom)">
              <busConfig><![CDATA[{"in":[{"layout":[100,101],"name":"","type":0}],"out":[{"layout":[100,101],"name":"","type":0}]}]]></busConfig>
              <channelMap direction="input">
                <channel index="0" sourceIndex="0"/>
                <channel index="1" sourceIndex="1"/>
              </channelMap>
              <channelMap direction="output">
                <channel index="0" sourceIndex="0"/>
                <channel index="1" sourceIndex="1"/>
              </channelMap>
              <parameter index="0" name="Reduce Noise By" parameterValue="0.1411277353763580322265625"/>
              <parameter index="1" name="Noisiness" parameterValue="0.589572489261627197265625"/>
              <parameter index="2" name="Fine Tune Noise Floor" parameterValue="0.7772171497344970703125"/>
              <parameter index="3" name="Signal Threshold" parameterValue="0.50202548503875732421875"/>
              <parameter index="4" name="Spectral Decay Rate" parameterValue="0"/>
              <parameter index="5" name="Broadband Preservation" parameterValue="0.370081007480621337890625"/>
              <parameter index="6" name="FFT Size" parameterValue="0.0078125"/>
              <parameter index="7" name="High Quality Mode (slower)" parameterValue="1"/>
              <parameter index="8" name="Is Processing" parameterValue="0"/>
            </component>
          </slot>
          <slot powered="true" slotIndex="1">
            <component componentGuid="9d5583ec-8692-4827-b141-bb700cbb858c" componentID="8edcd326-33de-4a4d-985b-f1bf48ed1427" name="Parametric Equalizer" presetName="(Custom)">
              <busConfig><![CDATA[{"in":[{"layout":[100,101],"name":"","type":0}],"out":[{"layout":[100,101],"name":"","type":0}]}]]></busConfig>
              <channelMap direction="input">
                <channel index="0" sourceIndex="0"/>
                <channel index="1" sourceIndex="1"/>
              </channelMap>
              <channelMap direction="output">
                <channel index="0" sourceIndex="0"/>
                <channel index="1" sourceIndex="1"/>
              </channelMap>
              <parameter index="0" name="Low Shelf Frequency" parameterValue="0.0037501840852200984954833984375"/>
              <parameter index="1" name="Low Shelf Gain" parameterValue="0.21052630245685577392578125"/>
              <parameter index="2" name="High Shelf Frequency" parameterValue="0.3978315293788909912109375"/>
              <parameter index="3" name="High Shelf Gain" parameterValue="0.3157894611358642578125"/>
              <parameter index="4" name="EQ Band 1 Center Frequency" parameterValue="0.01392506062984466552734375"/>
              <parameter index="5" name="EQ Band 1 Q" parameterValue="9.99900003080256283283233642578125e-05"/>
              <parameter index="6" name="EQ Band 1 Gain" parameterValue="0.17894737422466278076171875"/>
              <parameter index="7" name="EQ Band 1 Enable" parameterValue="1"/>
              <parameter index="8" name="EQ Band 2 Center Frequency" parameterValue="0.03270854055881500244140625"/>
              <parameter index="9" name="EQ Band 2 Q" parameterValue="0.0004999900120310485363006591796875"/>
              <parameter index="10" name="EQ Band 2 Gain" parameterValue="0.16315789520740509033203125"/>
              <parameter index="11" name="EQ Band 2 Enable" parameterValue="1"/>
              <parameter index="12" name="EQ Band 3 Center Frequency" parameterValue="0.077317453920841217041015625"/>
              <parameter index="13" name="EQ Band 3 Q" parameterValue="0.000199989997781813144683837890625"/>
              <parameter index="14" name="EQ Band 3 Gain" parameterValue="0.789473712444305419921875"/>
              <parameter index="15" name="EQ Band 3 Enable" parameterValue="1"/>
              <parameter index="16" name="EQ Band 4 Center Frequency" parameterValue="0.16196788847446441650390625"/>
              <parameter index="17" name="EQ Band 4 Q" parameterValue="0.000199989997781813144683837890625"/>
              <parameter index="18" name="EQ Band 4 Gain" parameterValue="0.64736843109130859375"/>
              <parameter index="19" name="EQ Band 4 Enable" parameterValue="1"/>
              <parameter index="20" name="EQ Band 5 Center Frequency" parameterValue="0.423413217067718505859375"/>
              <parameter index="21" name="EQ Band 5 Q" parameterValue="0.000199989997781813144683837890625"/>
              <parameter index="22" name="EQ Band 5 Gain" parameterValue="0.515789449214935302734375"/>
              <parameter index="23" name="EQ Band 5 Enable" parameterValue="1"/>
              <parameter index="24" name="Master Gain" parameterValue="0.661057412624359130859375"/>
              <parameter index="25" name="ConstantQ" parameterValue="1"/>
              <parameter index="26" name="Low Shelf Filter Order" parameterValue="0"/>
              <parameter index="27" name="High Shelf Filter Order" parameterValue="0"/>
              <parameter index="28" name="Ultra-Quiet Mode" parameterValue="1"/>
              <parameter index="29" name="Low Shelf Enable" parameterValue="1"/>
              <parameter index="30" name="High Shelf Enable" parameterValue="1"/>
              <parameter index="31" name="Original Sample Rate" parameterValue="0.25"/>
              <parameter index="32" name="EQ Band 1 Bandwidth" parameterValue="0.035392284393310546875"/>
              <parameter index="33" name="EQ Band 2 Bandwidth" parameterValue="0.01608700491487979888916015625"/>
              <parameter index="34" name="EQ Band 3 Bandwidth" parameterValue="0.09370361268520355224609375"/>
              <parameter index="35" name="EQ Band 4 Bandwidth" parameterValue="0.195199489593505859375"/>
              <parameter index="36" name="EQ Band 5 Bandwidth" parameterValue="0.5086724758148193359375"/>
              <parameter index="37" name="High-Pass Filter Enable" parameterValue="0"/>
              <parameter index="38" name="High-Pass Cutoff Frequency" parameterValue="0.0008340280619449913501739501953125"/>
              <parameter index="39" name="High-Pass Slope" parameterValue="0.4000000059604644775390625"/>
              <parameter index="40" name="Low-Pass Filter Enable" parameterValue="0"/>
              <parameter index="41" name="Low-Pass Cutoff Frequency" parameterValue="0.74979197978973388671875"/>
              <parameter index="42" name="Low-Pass Slope" parameterValue="0.4000000059604644775390625"/>
              <parameter index="43" name="Bypass" parameterValue="0"/>
              <parameter index="44" name="LowGraphRange" parameterValue="0"/>
            </component>
          </slot>
          <slot powered="true" slotIndex="2">
            <component componentGuid="5b334cde-5dea-4da9-b674-29146903da5f" componentID="f14fee7d-fe5f-4202-b790-f53209e56411" name="Amplify" presetName="(Custom)">
              <busConfig><![CDATA[{"in":[{"layout":[100,101],"name":"","type":0}],"out":[{"layout":[100,101],"name":"","type":0}]}]]></busConfig>
              <channelMap direction="input">
                <channel index="0" sourceIndex="0"/>
                <channel index="1" sourceIndex="1"/>
              </channelMap>
              <channelMap direction="output">
                <channel index="0" sourceIndex="0"/>
                <channel index="1" sourceIndex="1"/>
              </channelMap>
              <parameter index="0" name="Channel Count" parameterValue="0.0625"/>
              <parameter index="1" name="Link Sliders" parameterValue="1"/>
              <parameter index="2" name="Left" parameterValue="0.72970640659332275390625"/>
              <parameter index="3" name="Right" parameterValue="0.72970640659332275390625"/>
              <parameter index="4" name="" parameterValue="0.666666686534881591796875"/>
              <parameter index="5" name="" parameterValue="0.666666686534881591796875"/>
              <parameter index="6" name="" parameterValue="0.666666686534881591796875"/>
              <parameter index="7" name="" parameterValue="0.666666686534881591796875"/>
              <parameter index="8" name="" parameterValue="0.666666686534881591796875"/>
              <parameter index="9" name="" parameterValue="0.666666686534881591796875"/>
              <parameter index="10" name="" parameterValue="0.666666686534881591796875"/>
              <parameter index="11" name="" parameterValue="0.666666686534881591796875"/>
              <parameter index="12" name="" parameterValue="0.666666686534881591796875"/>
              <parameter index="13" name="" parameterValue="0.666666686534881591796875"/>
              <parameter index="14" name="" parameterValue="0.666666686534881591796875"/>
              <parameter index="15" name="" parameterValue="0.666666686534881591796875"/>
              <parameter index="16" name="" parameterValue="0.666666686534881591796875"/>
              <parameter index="17" name="" parameterValue="0.666666686534881591796875"/>
              <parameter index="18" name="" parameterValue="0.666666686534881591796875"/>
              <parameter index="19" name="" parameterValue="0.666666686534881591796875"/>
              <parameter index="20" name="" parameterValue="0.666666686534881591796875"/>
              <parameter index="21" name="" parameterValue="0.666666686534881591796875"/>
              <parameter index="22" name="" parameterValue="0.666666686534881591796875"/>
              <parameter index="23" name="" parameterValue="0.666666686534881591796875"/>
              <parameter index="24" name="" parameterValue="0.666666686534881591796875"/>
              <parameter index="25" name="" parameterValue="0.666666686534881591796875"/>
              <parameter index="26" name="" parameterValue="0.666666686534881591796875"/>
              <parameter index="27" name="" parameterValue="0.666666686534881591796875"/>
              <parameter index="28" name="" parameterValue="0.666666686534881591796875"/>
              <parameter index="29" name="" parameterValue="0.666666686534881591796875"/>
              <parameter index="30" name="" parameterValue="0.666666686534881591796875"/>
              <parameter index="31" name="" parameterValue="0.666666686534881591796875"/>
              <parameter index="32" name="" parameterValue="0.666666686534881591796875"/>
              <parameter index="33" name="" parameterValue="0.666666686534881591796875"/>
              <parameter index="34" name="Link Keyframes" parameterValue="1"/>
            </component>
          </slot>
        </effectsRack>
        <editParameter parameterIndex="0" slotIndex="4294967280"/>
        <audioClip clipAutoCrossfade="true" crossFadeHeadClipID="-1" crossFadeTailClipID="-1" endPoint="4432759" fileID="7" hue="-1" id="0" lockedInTime="false" looped="false" name="Bird chirps: Waterfront near Meeker Ave" offline="false" select="false" sourceInPoint="792723" sourceOutPoint="1088426" startPoint="4137056" zOrder="0">
          <component componentGuid="45c01569-9a64-4225-a81f-59daa455b162" componentID="Audition.Fader" id="clipGain" name="volume" powered="true">
            <parameter index="0" name="volume" parameterValue="1"/>
            <parameter index="1" name="static gain" parameterValue="1"/>
          </component>
          <component componentGuid="a92c6a88-1467-4c2d-b821-0481a5f5bbd4" componentID="Audition.Mute" id="clipMute" name="Mute" powered="true">
            <parameter index="0" parameterValue="0"/>
            <parameter index="1" name="mute" parameterValue="0"/>
          </component>
          <component componentGuid="a7406455-de52-4283-9da2-11d02c050ded" componentID="Audition.StereoPanner" id="clipPan" name="StereoPanner" powered="true">
            <parameter index="0" name="Pan" parameterValue="0"/>
          </component>
          <fadeIn crossFadeLinkType="linkedAsymmetric" endPoint="56666" shape="19" startPoint="0" type="log"/>
          <fadeOut crossFadeLinkType="linkedAsymmetric" endPoint="295703" shape="19" startPoint="224871" type="log"/>
          <editParameter parameterIndex="0" slotIndex="4294967280"/>
          <editParameter parameterIndex="0" slotIndex="4294967281"/>
          <channelMap>
            <channel index="0" sourceIndex="0"/>
            <channel index="1" sourceIndex="1"/>
          </channelMap>
        </audioClip>
        <audioClip clipAutoCrossfade="true" crossFadeHeadClipID="-1" crossFadeTailClipID="-1" endPoint="7510688" fileID="7" hue="-1" id="1" lockedInTime="false" looped="false" name="Bird chirps: Waterfront near Meeker Ave" offline="false" select="false" sourceInPoint="792723" sourceOutPoint="1088426" startPoint="7214985" zOrder="1">
          <component componentGuid="fbc4522b-a594-494a-b7fb-53042054600b" componentID="Audition.Fader" id="clipGain" name="volume" powered="true">
            <parameter index="0" name="volume" parameterValue="0.509594738483428955078125"/>
            <parameter index="1" name="static gain" parameterValue="1"/>
          </component>
          <component componentGuid="77321a13-1dea-4c78-9f62-9b4239f28b80" componentID="Audition.Mute" id="clipMute" name="Mute" powered="true">
            <parameter index="0" parameterValue="0"/>
            <parameter index="1" name="mute" parameterValue="0"/>
          </component>
          <component componentGuid="2e18c881-f4d7-4856-aedb-4e835068c64d" componentID="Audition.StereoPanner" id="clipPan" name="StereoPanner" powered="true">
            <parameter index="0" name="Pan" parameterValue="0"/>
          </component>
          <fadeIn crossFadeLinkType="linkedAsymmetric" endPoint="56666" shape="19" startPoint="0" type="log"/>
          <fadeOut crossFadeLinkType="linkedAsymmetric" endPoint="295703" shape="19" startPoint="224871" type="log"/>
          <editParameter parameterIndex="0" slotIndex="4294967281"/>
          <editParameter parameterIndex="0" slotIndex="4294967280"/>
          <channelMap>
            <channel index="0" sourceIndex="0"/>
            <channel index="1" sourceIndex="1"/>
          </channelMap>
        </audioClip>
        <audioClip clipAutoCrossfade="true" crossFadeHeadClipID="-1" crossFadeTailClipID="-1" endPoint="8256000" fileID="7" hue="-1" id="2" lockedInTime="false" looped="false" name="Bird chirps: Waterfront near Meeker Ave" offline="false" select="false" sourceInPoint="232287" sourceOutPoint="472287" startPoint="8016000" zOrder="2">
          <component componentGuid="ea7d0133-134a-48a5-9ac3-278fac368e2f" componentID="Audition.Fader" id="clipGain" name="volume" powered="true">
            <parameter index="0" name="volume" parameterValue="1"/>
            <parameter index="1" name="static gain" parameterValue="1"/>
          </component>
          <component componentGuid="60e8557a-7ecd-451d-a296-086248af6734" componentID="Audition.Mute" id="clipMute" name="Mute" powered="true">
            <parameter index="0" parameterValue="0"/>
            <parameter index="1" name="mute" parameterValue="0"/>
          </component>
          <component componentGuid="7d224bfb-8e91-457f-8e9d-6278d2938c7e" componentID="Audition.StereoPanner" id="clipPan" name="StereoPanner" powered="true">
            <parameter index="0" name="Pan" parameterValue="0"/>
          </component>
          <fadeIn crossFadeLinkType="linkedAsymmetric" endPoint="23315" shape="19" startPoint="0" type="log"/>
          <fadeOut crossFadeLinkType="linkedAsymmetric" endPoint="240000" shape="11" startPoint="240000" type="log"/>
          <editParameter parameterIndex="0" slotIndex="4294967280"/>
          <editParameter parameterIndex="0" slotIndex="4294967281"/>
          <channelMap>
            <channel index="0" sourceIndex="0"/>
            <channel index="1" sourceIndex="1"/>
          </channelMap>
        </audioClip>
        <audioClip clipAutoCrossfade="true" crossFadeHeadClipID="-1" crossFadeTailClipID="-1" endPoint="10848000" fileID="7" hue="-1" id="3" lockedInTime="false" looped="false" name="Bird chirps: Waterfront near Meeker Ave" offline="false" select="false" sourceInPoint="232287" sourceOutPoint="762171" startPoint="10318116" zOrder="3">
          <component componentGuid="a73c6c64-bb83-48d9-8dad-ee64cbf5c9a7" componentID="Audition.Fader" id="clipGain" name="volume" powered="true">
            <parameter index="0" name="volume" parameterValue="1"/>
            <parameter index="1" name="static gain" parameterValue="1"/>
          </component>
          <component componentGuid="0389ce6c-8ac6-490f-b51a-e25279acd98e" componentID="Audition.Mute" id="clipMute" name="Mute" powered="true">
            <parameter index="0" parameterValue="0"/>
            <parameter index="1" name="mute" parameterValue="0"/>
          </component>
          <component componentGuid="04de614c-2968-4737-a91b-cfc004ab38e6" componentID="Audition.StereoPanner" id="clipPan" name="StereoPanner" powered="true">
            <parameter index="0" name="Pan" parameterValue="0"/>
          </component>
          <fadeIn crossFadeLinkType="linkedAsymmetric" endPoint="0" shape="19" startPoint="0" type="log"/>
          <fadeOut crossFadeLinkType="linkedAsymmetric" endPoint="529884" shape="19" startPoint="493068" type="log"/>
          <editParameter parameterIndex="0" slotIndex="4294967280"/>
          <editParameter parameterIndex="0" slotIndex="4294967281"/>
          <channelMap>
            <channel index="0" sourceIndex="0"/>
            <channel index="1" sourceIndex="1"/>
          </channelMap>
        </audioClip>
      </audioTrack>
      <audioTrack automationLaneOpenState="false" id="10016" index="7" select="true" visible="true">
        <trackParameters trackHeight="30" trackHue="326" trackMinimized="false">
          <name>birds R100</name>
        </trackParameters>
        <trackAudioParameters audioChannelType="stereo" automationMode="1" monitoring="false" recordArmed="false" solo="false" soloSafe="false">
          <trackOutput outputID="10000" type="trackID"/>
          <trackInput inputID="1"/>
          <component componentGuid="12548174-241d-43e5-a2b5-626a13c19d07" componentID="Audition.Fader" id="trackFader" name="volume" powered="true">
            <parameter index="0" name="volume" parameterValue="3.01995182037353515625"/>
            <parameter index="1" name="static gain" parameterValue="1"/>
          </component>
          <component componentGuid="2ef837b6-1719-4317-b26e-0431bfd9e4b4" componentID="Audition.Mute" id="trackMute" name="Mute" powered="true">
            <parameter index="0" parameterValue="0"/>
            <parameter index="1" name="mute" parameterValue="0"/>
          </component>
          <component componentGuid="38831668-bccc-4cc1-817c-3e57626cdd3c" componentID="Audition.StereoPanner" id="trackPan" name="StereoPanner" powered="true">
            <parameter index="0" name="Pan" parameterValue="100"/>
          </component>
          <component componentGuid="6bf15ff6-1a9f-4b56-bc82-a20c7070ef32" componentID="Audition.EQ" id="trackEQ" name="EQ" powered="false">
            <parameter index="0" name="Low Shelf Frequency" parameterValue="0.000834028352983295917510986328125"/>
            <parameter index="1" name="Low Shelf Gain" parameterValue="0.5"/>
            <parameter index="2" name="High Shelf Frequency" parameterValue="0.74979150295257568359375"/>
            <parameter index="3" name="High Shelf Gain" parameterValue="0.5"/>
            <parameter index="4" name="EQ Band 1 Center Frequency" parameterValue="0.00125104258768260478973388671875"/>
            <parameter index="5" name="EQ Band 1 Q" parameterValue="0.000199989997781813144683837890625"/>
            <parameter index="6" name="EQ Band 1 Gain" parameterValue="0.5"/>
            <parameter index="7" name="EQ Band 1 Enable" parameterValue="1"/>
            <parameter index="8" name="EQ Band 2 Center Frequency" parameterValue="0.0075062550604343414306640625"/>
            <parameter index="9" name="EQ Band 2 Q" parameterValue="0.000199989997781813144683837890625"/>
            <parameter index="10" name="EQ Band 2 Gain" parameterValue="0.5"/>
            <parameter index="11" name="EQ Band 2 Enable" parameterValue="1"/>
            <parameter index="12" name="EQ Band 3 Center Frequency" parameterValue="0.0325271077454090118408203125"/>
            <parameter index="13" name="EQ Band 3 Q" parameterValue="0.000199989997781813144683837890625"/>
            <parameter index="14" name="EQ Band 3 Gain" parameterValue="0.5"/>
            <parameter index="15" name="EQ Band 3 Enable" parameterValue="1"/>
            <parameter index="16" name="EQ Band 4 Center Frequency" parameterValue="0.13261051476001739501953125"/>
            <parameter index="17" name="EQ Band 4 Q" parameterValue="0.000199989997781813144683837890625"/>
            <parameter index="18" name="EQ Band 4 Gain" parameterValue="0.5"/>
            <parameter index="19" name="EQ Band 4 Enable" parameterValue="1"/>
            <parameter index="20" name="EQ Band 5 Center Frequency" parameterValue="0.532944142818450927734375"/>
            <parameter index="21" name="EQ Band 5 Q" parameterValue="0.000199989997781813144683837890625"/>
            <parameter index="22" name="EQ Band 5 Gain" parameterValue="0.5"/>
            <parameter index="23" name="EQ Band 5 Enable" parameterValue="1"/>
            <parameter index="24" name="Master Gain" parameterValue="0.666666686534881591796875"/>
            <parameter index="25" name="ConstantQ" parameterValue="1"/>
            <parameter index="26" name="Low Shelf Filter Order" parameterValue="0"/>
            <parameter index="27" name="High Shelf Filter Order" parameterValue="0"/>
            <parameter index="28" name="Ultra-Quiet Mode" parameterValue="0"/>
            <parameter index="29" name="Low Shelf Enable" parameterValue="1"/>
            <parameter index="30" name="High Shelf Enable" parameterValue="1"/>
            <parameter index="31" name="Original Sample Rate" parameterValue="0.25"/>
            <parameter index="32" name="EQ Band 1 Bandwidth" parameterValue="0.002499990165233612060546875"/>
            <parameter index="33" name="EQ Band 2 Bandwidth" parameterValue="0.0099999904632568359375"/>
            <parameter index="34" name="EQ Band 3 Bandwidth" parameterValue="0.0399999916553497314453125"/>
            <parameter index="35" name="EQ Band 4 Bandwidth" parameterValue="0.15999998152256011962890625"/>
            <parameter index="36" name="EQ Band 5 Bandwidth" parameterValue="0.63999998569488525390625"/>
            <parameter index="37" name="High-Pass Filter Enable" parameterValue="0"/>
            <parameter index="38" name="High-Pass Cutoff Frequency" parameterValue="0"/>
            <parameter index="39" name="High-Pass Slope" parameterValue="0.4000000059604644775390625"/>
            <parameter index="40" name="Low-Pass Filter Enable" parameterValue="0"/>
            <parameter index="41" name="Low-Pass Cutoff Frequency" parameterValue="0.833194315433502197265625"/>
            <parameter index="42" name="Low-Pass Slope" parameterValue="0.4000000059604644775390625"/>
            <parameter index="43" name="Bypass" parameterValue="0"/>
            <parameter index="44" name="LowGraphRange" parameterValue="1"/>
          </component>
        </trackAudioParameters>
        <effectsRack preFader="true">
          <component componentGuid="f2eb5bb0-32d5-4ad1-b227-73c1afbef458" componentID="Audition.ComponentGroup" id="rackMix" powered="true">
            <parameter index="0" parameterValue="0"/>
            <parameter index="1" parameterValue="0"/>
          </component>
          <component componentGuid="1db17305-a11e-4c93-a16c-895da0fa9d52" id="rackInput" powered="true">
            <parameter index="0" parameterValue="1"/>
            <parameter index="1" parameterValue="0"/>
          </component>
          <component componentGuid="aa348222-cc9c-4564-880c-48e493a88c1d" id="rackOutput" powered="true">
            <parameter index="0" parameterValue="1"/>
            <parameter index="1" parameterValue="0"/>
          </component>
          <slot powered="true" slotIndex="0">
            <component componentGuid="020ec283-ee55-4646-862c-f0a59c845b5c" componentID="f83ad984-04c6-4474-b8c0-e31d98875cfe" name="Adaptive Noise Reduction" presetName="(Custom)">
              <busConfig><![CDATA[{"in":[{"layout":[100,101],"name":"","type":0}],"out":[{"layout":[100,101],"name":"","type":0}]}]]></busConfig>
              <channelMap direction="input">
                <channel index="0" sourceIndex="0"/>
                <channel index="1" sourceIndex="1"/>
              </channelMap>
              <channelMap direction="output">
                <channel index="0" sourceIndex="0"/>
                <channel index="1" sourceIndex="1"/>
              </channelMap>
              <parameter index="0" name="Reduce Noise By" parameterValue="0.1411277353763580322265625"/>
              <parameter index="1" name="Noisiness" parameterValue="0.589572489261627197265625"/>
              <parameter index="2" name="Fine Tune Noise Floor" parameterValue="0.7772171497344970703125"/>
              <parameter index="3" name="Signal Threshold" parameterValue="0.50202548503875732421875"/>
              <parameter index="4" name="Spectral Decay Rate" parameterValue="0"/>
              <parameter index="5" name="Broadband Preservation" parameterValue="0.370081007480621337890625"/>
              <parameter index="6" name="FFT Size" parameterValue="0.0078125"/>
              <parameter index="7" name="High Quality Mode (slower)" parameterValue="1"/>
              <parameter index="8" name="Is Processing" parameterValue="0"/>
            </component>
          </slot>
          <slot powered="true" slotIndex="1">
            <component componentGuid="bf649764-fb63-43e3-b9e5-ba791edb7ed4" componentID="8edcd326-33de-4a4d-985b-f1bf48ed1427" name="Parametric Equalizer" presetName="(Custom)">
              <busConfig><![CDATA[{"in":[{"layout":[100,101],"name":"","type":0}],"out":[{"layout":[100,101],"name":"","type":0}]}]]></busConfig>
              <channelMap direction="input">
                <channel index="0" sourceIndex="0"/>
                <channel index="1" sourceIndex="1"/>
              </channelMap>
              <channelMap direction="output">
                <channel index="0" sourceIndex="0"/>
                <channel index="1" sourceIndex="1"/>
              </channelMap>
              <parameter index="0" name="Low Shelf Frequency" parameterValue="0.0037501840852200984954833984375"/>
              <parameter index="1" name="Low Shelf Gain" parameterValue="0.21052630245685577392578125"/>
              <parameter index="2" name="High Shelf Frequency" parameterValue="0.3978315293788909912109375"/>
              <parameter index="3" name="High Shelf Gain" parameterValue="0.3157894611358642578125"/>
              <parameter index="4" name="EQ Band 1 Center Frequency" parameterValue="0.01392506062984466552734375"/>
              <parameter index="5" name="EQ Band 1 Q" parameterValue="9.99900003080256283283233642578125e-05"/>
              <parameter index="6" name="EQ Band 1 Gain" parameterValue="0.17894737422466278076171875"/>
              <parameter index="7" name="EQ Band 1 Enable" parameterValue="1"/>
              <parameter index="8" name="EQ Band 2 Center Frequency" parameterValue="0.03270854055881500244140625"/>
              <parameter index="9" name="EQ Band 2 Q" parameterValue="0.0004999900120310485363006591796875"/>
              <parameter index="10" name="EQ Band 2 Gain" parameterValue="0.16315789520740509033203125"/>
              <parameter index="11" name="EQ Band 2 Enable" parameterValue="1"/>
              <parameter index="12" name="EQ Band 3 Center Frequency" parameterValue="0.077317453920841217041015625"/>
              <parameter index="13" name="EQ Band 3 Q" parameterValue="0.000199989997781813144683837890625"/>
              <parameter index="14" name="EQ Band 3 Gain" parameterValue="0.789473712444305419921875"/>
              <parameter index="15" name="EQ Band 3 Enable" parameterValue="1"/>
              <parameter index="16" name="EQ Band 4 Center Frequency" parameterValue="0.16196788847446441650390625"/>
              <parameter index="17" name="EQ Band 4 Q" parameterValue="0.000199989997781813144683837890625"/>
              <parameter index="18" name="EQ Band 4 Gain" parameterValue="0.64736843109130859375"/>
              <parameter index="19" name="EQ Band 4 Enable" parameterValue="1"/>
              <parameter index="20" name="EQ Band 5 Center Frequency" parameterValue="0.423413217067718505859375"/>
              <parameter index="21" name="EQ Band 5 Q" parameterValue="0.000199989997781813144683837890625"/>
              <parameter index="22" name="EQ Band 5 Gain" parameterValue="0.515789449214935302734375"/>
              <parameter index="23" name="EQ Band 5 Enable" parameterValue="1"/>
              <parameter index="24" name="Master Gain" parameterValue="0.661057412624359130859375"/>
              <parameter index="25" name="ConstantQ" parameterValue="1"/>
              <parameter index="26" name="Low Shelf Filter Order" parameterValue="0"/>
              <parameter index="27" name="High Shelf Filter Order" parameterValue="0"/>
              <parameter index="28" name="Ultra-Quiet Mode" parameterValue="1"/>
              <parameter index="29" name="Low Shelf Enable" parameterValue="1"/>
              <parameter index="30" name="High Shelf Enable" parameterValue="1"/>
              <parameter index="31" name="Original Sample Rate" parameterValue="0.25"/>
              <parameter index="32" name="EQ Band 1 Bandwidth" parameterValue="0.035392284393310546875"/>
              <parameter index="33" name="EQ Band 2 Bandwidth" parameterValue="0.01608700491487979888916015625"/>
              <parameter index="34" name="EQ Band 3 Bandwidth" parameterValue="0.09370361268520355224609375"/>
              <parameter index="35" name="EQ Band 4 Bandwidth" parameterValue="0.195199489593505859375"/>
              <parameter index="36" name="EQ Band 5 Bandwidth" parameterValue="0.5086724758148193359375"/>
              <parameter index="37" name="High-Pass Filter Enable" parameterValue="0"/>
              <parameter index="38" name="High-Pass Cutoff Frequency" parameterValue="0.0008340280619449913501739501953125"/>
              <parameter index="39" name="High-Pass Slope" parameterValue="0.4000000059604644775390625"/>
              <parameter index="40" name="Low-Pass Filter Enable" parameterValue="0"/>
              <parameter index="41" name="Low-Pass Cutoff Frequency" parameterValue="0.74979197978973388671875"/>
              <parameter index="42" name="Low-Pass Slope" parameterValue="0.4000000059604644775390625"/>
              <parameter index="43" name="Bypass" parameterValue="0"/>
              <parameter index="44" name="LowGraphRange" parameterValue="0"/>
            </component>
          </slot>
          <slot powered="true" slotIndex="2">
            <component componentGuid="93e43585-3ae7-4752-b4cb-6d870e980b59" componentID="f14fee7d-fe5f-4202-b790-f53209e56411" name="Amplify" presetName="(Custom)">
              <busConfig><![CDATA[{"in":[{"layout":[100,101],"name":"","type":0}],"out":[{"layout":[100,101],"name":"","type":0}]}]]></busConfig>
              <channelMap direction="input">
                <channel index="0" sourceIndex="0"/>
                <channel index="1" sourceIndex="1"/>
              </channelMap>
              <channelMap direction="output">
                <channel index="0" sourceIndex="0"/>
                <channel index="1" sourceIndex="1"/>
              </channelMap>
              <parameter index="0" name="Channel Count" parameterValue="0.0625"/>
              <parameter index="1" name="Link Sliders" parameterValue="1"/>
              <parameter index="2" name="Left" parameterValue="0.72970640659332275390625"/>
              <parameter index="3" name="Right" parameterValue="0.72970640659332275390625"/>
              <parameter index="4" name="" parameterValue="0.666666686534881591796875"/>
              <parameter index="5" name="" parameterValue="0.666666686534881591796875"/>
              <parameter index="6" name="" parameterValue="0.666666686534881591796875"/>
              <parameter index="7" name="" parameterValue="0.666666686534881591796875"/>
              <parameter index="8" name="" parameterValue="0.666666686534881591796875"/>
              <parameter index="9" name="" parameterValue="0.666666686534881591796875"/>
              <parameter index="10" name="" parameterValue="0.666666686534881591796875"/>
              <parameter index="11" name="" parameterValue="0.666666686534881591796875"/>
              <parameter index="12" name="" parameterValue="0.666666686534881591796875"/>
              <parameter index="13" name="" parameterValue="0.666666686534881591796875"/>
              <parameter index="14" name="" parameterValue="0.666666686534881591796875"/>
              <parameter index="15" name="" parameterValue="0.666666686534881591796875"/>
              <parameter index="16" name="" parameterValue="0.666666686534881591796875"/>
              <parameter index="17" name="" parameterValue="0.666666686534881591796875"/>
              <parameter index="18" name="" parameterValue="0.666666686534881591796875"/>
              <parameter index="19" name="" parameterValue="0.666666686534881591796875"/>
              <parameter index="20" name="" parameterValue="0.666666686534881591796875"/>
              <parameter index="21" name="" parameterValue="0.666666686534881591796875"/>
              <parameter index="22" name="" parameterValue="0.666666686534881591796875"/>
              <parameter index="23" name="" parameterValue="0.666666686534881591796875"/>
              <parameter index="24" name="" parameterValue="0.666666686534881591796875"/>
              <parameter index="25" name="" parameterValue="0.666666686534881591796875"/>
              <parameter index="26" name="" parameterValue="0.666666686534881591796875"/>
              <parameter index="27" name="" parameterValue="0.666666686534881591796875"/>
              <parameter index="28" name="" parameterValue="0.666666686534881591796875"/>
              <parameter index="29" name="" parameterValue="0.666666686534881591796875"/>
              <parameter index="30" name="" parameterValue="0.666666686534881591796875"/>
              <parameter index="31" name="" parameterValue="0.666666686534881591796875"/>
              <parameter index="32" name="" parameterValue="0.666666686534881591796875"/>
              <parameter index="33" name="" parameterValue="0.666666686534881591796875"/>
              <parameter index="34" name="Link Keyframes" parameterValue="1"/>
            </component>
          </slot>
        </effectsRack>
        <editParameter parameterIndex="0" slotIndex="4294967280"/>
        <audioClip clipAutoCrossfade="true" crossFadeHeadClipID="-1" crossFadeTailClipID="-1" endPoint="5384773" fileID="7" hue="-1" id="0" lockedInTime="false" looped="false" name="Bird chirps: Waterfront near Meeker Ave" offline="false" select="false" sourceInPoint="4636343" sourceOutPoint="5321788" startPoint="4699328" zOrder="0">
          <component componentGuid="cee9341d-b943-4e0b-9922-301f1ecc7b0f" componentID="Audition.Fader" id="clipGain" name="volume" powered="true">
            <parameter index="0" name="volume" parameterValue="1"/>
            <parameter index="1" name="static gain" parameterValue="1"/>
          </component>
          <component componentGuid="8c5e68e5-5708-405d-9574-fa6c8b43b2b0" componentID="Audition.Mute" id="clipMute" name="Mute" powered="true">
            <parameter index="0" parameterValue="0"/>
            <parameter index="1" name="mute" parameterValue="0"/>
          </component>
          <component componentGuid="36859765-3ef8-4d5b-8109-393ab6d92ac0" componentID="Audition.StereoPanner" id="clipPan" name="StereoPanner" powered="true">
            <parameter index="0" name="Pan" parameterValue="0"/>
          </component>
          <fadeIn crossFadeLinkType="linkedAsymmetric" endPoint="175925" shape="19" startPoint="0" type="log"/>
          <fadeOut crossFadeLinkType="linkedAsymmetric" endPoint="685445" shape="19" startPoint="641828" type="log"/>
          <editParameter parameterIndex="0" slotIndex="4294967280"/>
          <editParameter parameterIndex="0" slotIndex="4294967281"/>
          <channelMap>
            <channel index="0" sourceIndex="0"/>
            <channel index="1" sourceIndex="1"/>
          </channelMap>
        </audioClip>
        <audioClip clipAutoCrossfade="true" crossFadeHeadClipID="-1" crossFadeTailClipID="-1" endPoint="6854653" fileID="7" hue="-1" id="1" lockedInTime="false" looped="false" name="Bird chirps: Waterfront near Meeker Ave" offline="false" select="false" sourceInPoint="3717893" sourceOutPoint="4236546" startPoint="6336000" zOrder="1">
          <component componentGuid="0bb663e6-22dd-48a5-8298-9da4dc5e282a" componentID="Audition.Fader" id="clipGain" name="volume" powered="true">
            <parameter index="0" name="volume" parameterValue="0.4471060931682586669921875"/>
            <parameter index="1" name="static gain" parameterValue="1"/>
          </component>
          <component componentGuid="fdf3ea98-9d32-4762-80b0-d98723fcbac6" componentID="Audition.Mute" id="clipMute" name="Mute" powered="true">
            <parameter index="0" parameterValue="0"/>
            <parameter index="1" name="mute" parameterValue="0"/>
          </component>
          <component componentGuid="4dcb6e0b-95e2-4488-b15e-b6f36dc25e99" componentID="Audition.StereoPanner" id="clipPan" name="StereoPanner" powered="true">
            <parameter index="0" name="Pan" parameterValue="0"/>
          </component>
          <fadeIn crossFadeLinkType="linkedAsymmetric" endPoint="131188" shape="19" startPoint="0" type="log"/>
          <fadeOut crossFadeLinkType="linkedAsymmetric" endPoint="518653" shape="19" startPoint="410281" type="log"/>
          <editParameter parameterIndex="0" slotIndex="4294967281"/>
          <editParameter parameterIndex="0" slotIndex="4294967280"/>
          <channelMap>
            <channel index="0" sourceIndex="0"/>
            <channel index="1" sourceIndex="1"/>
          </channelMap>
        </audioClip>
        <audioClip clipAutoCrossfade="true" crossFadeHeadClipID="-1" crossFadeTailClipID="-1" endPoint="10543703" fileID="7" hue="-1" id="2" lockedInTime="false" looped="false" name="Bird chirps: Waterfront near Meeker Ave" offline="false" select="false" sourceInPoint="792723" sourceOutPoint="1088426" startPoint="10248000" zOrder="2">
          <component componentGuid="391a5857-75fe-4daf-a31b-8525bead3a14" componentID="Audition.Fader" id="clipGain" name="volume" powered="true">
            <parameter index="0" name="volume" parameterValue="1"/>
            <parameter index="1" name="static gain" parameterValue="1"/>
          </component>
          <component componentGuid="797adf0c-7c0b-4f2e-8297-9af327bb3122" componentID="Audition.Mute" id="clipMute" name="Mute" powered="true">
            <parameter index="0" parameterValue="0"/>
            <parameter index="1" name="mute" parameterValue="0"/>
          </component>
          <component componentGuid="36f1e8d1-69a8-4af9-b782-c9c9aa4f6f0e" componentID="Audition.StereoPanner" id="clipPan" name="StereoPanner" powered="true">
            <parameter index="0" name="Pan" parameterValue="0"/>
          </component>
          <fadeIn crossFadeLinkType="linkedAsymmetric" endPoint="0" shape="11" startPoint="0" type="log"/>
          <fadeOut crossFadeLinkType="linkedAsymmetric" endPoint="295703" shape="19" startPoint="295703" type="log"/>
          <editParameter parameterIndex="0" slotIndex="4294967280"/>
          <editParameter parameterIndex="0" slotIndex="4294967281"/>
          <channelMap>
            <channel index="0" sourceIndex="0"/>
            <channel index="1" sourceIndex="1"/>
          </channelMap>
        </audioClip>
        <audioClip clipAutoCrossfade="true" crossFadeHeadClipID="-1" crossFadeTailClipID="-1" endPoint="10796365" fileID="7" hue="-1" id="3" lockedInTime="false" looped="false" name="Bird chirps: Waterfront near Meeker Ave" offline="false" select="false" sourceInPoint="792723" sourceOutPoint="1032723" startPoint="10556365" zOrder="3">
          <component componentGuid="832438e3-d7ec-444b-9544-9ea023999a21" componentID="Audition.Fader" id="clipGain" name="volume" powered="true">
            <parameter index="0" name="volume" parameterValue="1"/>
            <parameter index="1" name="static gain" parameterValue="1"/>
          </component>
          <component componentGuid="fa9cf424-b517-4c28-808a-f5e769b6c74b" componentID="Audition.Mute" id="clipMute" name="Mute" powered="true">
            <parameter index="0" parameterValue="0"/>
            <parameter index="1" name="mute" parameterValue="0"/>
          </component>
          <component componentGuid="0fd0d354-d03b-47c6-a309-95f27f9ae516" componentID="Audition.StereoPanner" id="clipPan" name="StereoPanner" powered="true">
            <parameter index="0" name="Pan" parameterValue="0"/>
          </component>
          <fadeIn crossFadeLinkType="linkedAsymmetric" endPoint="0" shape="19" startPoint="0" type="log"/>
          <fadeOut crossFadeLinkType="linkedAsymmetric" endPoint="240000" shape="19" startPoint="240000" type="log"/>
          <editParameter parameterIndex="0" slotIndex="4294967280"/>
          <editParameter parameterIndex="0" slotIndex="4294967281"/>
          <channelMap>
            <channel index="0" sourceIndex="0"/>
            <channel index="1" sourceIndex="1"/>
          </channelMap>
        </audioClip>
      </audioTrack>
      <audioTrack automationLaneOpenState="false" id="10004" index="8" select="false" visible="true">
        <trackParameters trackHeight="30" trackHue="160" trackMinimized="false">
          <name>people</name>
        </trackParameters>
        <trackAudioParameters audioChannelType="stereo" automationMode="1" monitoring="false" recordArmed="false" solo="false" soloSafe="false">
          <trackOutput outputID="10000" type="trackID"/>
          <trackInput inputID="1"/>
          <component componentGuid="470503ce-ee35-4dad-9491-ab5642fa1e48" componentID="Audition.Fader" id="trackFader" name="volume" powered="true">
            <parameter index="0" name="volume" parameterValue="2.5118868350982666015625"/>
            <parameter index="1" name="static gain" parameterValue="1"/>
          </component>
          <component componentGuid="620e589b-4df7-4ab3-8fd6-587137bfc244" componentID="Audition.Mute" id="trackMute" name="Mute" powered="true">
            <parameter index="0" parameterValue="0"/>
            <parameter index="1" name="mute" parameterValue="0"/>
          </component>
          <component componentGuid="1869d72f-bbed-4b83-8cf7-534d0f800b10" componentID="Audition.StereoPanner" id="trackPan" name="StereoPanner" powered="true">
            <parameter index="0" name="Pan" parameterValue="0"/>
          </component>
          <component componentGuid="4e97683e-4bc1-4b8c-a74f-bc4fdfd3da99" componentID="Audition.EQ" id="trackEQ" name="EQ" powered="false">
            <parameter index="0" name="Low Shelf Frequency" parameterValue="0.000834028352983295917510986328125"/>
            <parameter index="1" name="Low Shelf Gain" parameterValue="0.5"/>
            <parameter index="2" name="High Shelf Frequency" parameterValue="0.74979150295257568359375"/>
            <parameter index="3" name="High Shelf Gain" parameterValue="0.5"/>
            <parameter index="4" name="EQ Band 1 Center Frequency" parameterValue="0.00125104258768260478973388671875"/>
            <parameter index="5" name="EQ Band 1 Q" parameterValue="0.000199989997781813144683837890625"/>
            <parameter index="6" name="EQ Band 1 Gain" parameterValue="0.5"/>
            <parameter index="7" name="EQ Band 1 Enable" parameterValue="1"/>
            <parameter index="8" name="EQ Band 2 Center Frequency" parameterValue="0.0075062550604343414306640625"/>
            <parameter index="9" name="EQ Band 2 Q" parameterValue="0.000199989997781813144683837890625"/>
            <parameter index="10" name="EQ Band 2 Gain" parameterValue="0.5"/>
            <parameter index="11" name="EQ Band 2 Enable" parameterValue="1"/>
            <parameter index="12" name="EQ Band 3 Center Frequency" parameterValue="0.0325271077454090118408203125"/>
            <parameter index="13" name="EQ Band 3 Q" parameterValue="0.000199989997781813144683837890625"/>
            <parameter index="14" name="EQ Band 3 Gain" parameterValue="0.5"/>
            <parameter index="15" name="EQ Band 3 Enable" parameterValue="1"/>
            <parameter index="16" name="EQ Band 4 Center Frequency" parameterValue="0.13261051476001739501953125"/>
            <parameter index="17" name="EQ Band 4 Q" parameterValue="0.000199989997781813144683837890625"/>
            <parameter index="18" name="EQ Band 4 Gain" parameterValue="0.5"/>
            <parameter index="19" name="EQ Band 4 Enable" parameterValue="1"/>
            <parameter index="20" name="EQ Band 5 Center Frequency" parameterValue="0.532944142818450927734375"/>
            <parameter index="21" name="EQ Band 5 Q" parameterValue="0.000199989997781813144683837890625"/>
            <parameter index="22" name="EQ Band 5 Gain" parameterValue="0.5"/>
            <parameter index="23" name="EQ Band 5 Enable" parameterValue="1"/>
            <parameter index="24" name="Master Gain" parameterValue="0.666666686534881591796875"/>
            <parameter index="25" name="ConstantQ" parameterValue="1"/>
            <parameter index="26" name="Low Shelf Filter Order" parameterValue="0"/>
            <parameter index="27" name="High Shelf Filter Order" parameterValue="0"/>
            <parameter index="28" name="Ultra-Quiet Mode" parameterValue="0"/>
            <parameter index="29" name="Low Shelf Enable" parameterValue="1"/>
            <parameter index="30" name="High Shelf Enable" parameterValue="1"/>
            <parameter index="31" name="Original Sample Rate" parameterValue="0.25"/>
            <parameter index="32" name="EQ Band 1 Bandwidth" parameterValue="0.002499990165233612060546875"/>
            <parameter index="33" name="EQ Band 2 Bandwidth" parameterValue="0.0099999904632568359375"/>
            <parameter index="34" name="EQ Band 3 Bandwidth" parameterValue="0.0399999916553497314453125"/>
            <parameter index="35" name="EQ Band 4 Bandwidth" parameterValue="0.15999998152256011962890625"/>
            <parameter index="36" name="EQ Band 5 Bandwidth" parameterValue="0.63999998569488525390625"/>
            <parameter index="37" name="High-Pass Filter Enable" parameterValue="0"/>
            <parameter index="38" name="High-Pass Cutoff Frequency" parameterValue="0"/>
            <parameter index="39" name="High-Pass Slope" parameterValue="0.4000000059604644775390625"/>
            <parameter index="40" name="Low-Pass Filter Enable" parameterValue="0"/>
            <parameter index="41" name="Low-Pass Cutoff Frequency" parameterValue="0.833194315433502197265625"/>
            <parameter index="42" name="Low-Pass Slope" parameterValue="0.4000000059604644775390625"/>
            <parameter index="43" name="Bypass" parameterValue="0"/>
            <parameter index="44" name="LowGraphRange" parameterValue="1"/>
          </component>
        </trackAudioParameters>
        <effectsRack preFader="true">
          <component componentGuid="dfe4d489-6ca4-4c09-9958-4841e0e7c23a" componentID="Audition.ComponentGroup" id="rackMix" powered="true">
            <parameter index="0" parameterValue="0"/>
            <parameter index="1" parameterValue="0"/>
          </component>
          <component componentGuid="bd5f9092-2e80-4abe-9b1a-d8a7127d3cce" id="rackInput" powered="true">
            <parameter index="0" parameterValue="1"/>
            <parameter index="1" parameterValue="0"/>
          </component>
          <component componentGuid="44dc8da6-83c1-4707-b478-652e2c12e584" id="rackOutput" powered="true">
            <parameter index="0" parameterValue="1"/>
            <parameter index="1" parameterValue="0"/>
          </component>
          <slot powered="true" slotIndex="0">
            <component componentGuid="9abeaf48-577b-4cae-8e48-400cc6c03c58" componentID="82882adc-18cb-475b-b237-597576a5e707" editorHeight="192" editorLeft="496" editorTop="344" editorWidth="448" name="Vocal Enhancer" presetName="Male">
              <busConfig><![CDATA[{"in":[{"layout":[100,101],"name":"","type":0}],"out":[{"layout":[100,101],"name":"","type":0}]}]]></busConfig>
              <channelMap direction="input">
                <channel index="0" sourceIndex="0"/>
                <channel index="1" sourceIndex="1"/>
              </channelMap>
              <channelMap direction="output">
                <channel index="0" sourceIndex="0"/>
                <channel index="1" sourceIndex="1"/>
              </channelMap>
              <presetChunkData><![CDATA[EiBuYWZldFMBAAAAAQAAAAAAAAA=]]></presetChunkData>
            </component>
          </slot>
          <slot powered="true" slotIndex="1">
            <component componentGuid="a30ff3ef-ccdc-4e2a-b8f7-3ad0b676c1d1" componentID="8edcd326-33de-4a4d-985b-f1bf48ed1427" editorHeight="542" editorLeft="106" editorTop="185" editorWidth="746" name="Parametric Equalizer" presetName="Vocal Enhancer">
              <busConfig><![CDATA[{"in":[{"layout":[100,101],"name":"","type":0}],"out":[{"layout":[100,101],"name":"","type":0}]}]]></busConfig>
              <channelMap direction="input">
                <channel index="0" sourceIndex="0"/>
                <channel index="1" sourceIndex="1"/>
              </channelMap>
              <channelMap direction="output">
                <channel index="0" sourceIndex="0"/>
                <channel index="1" sourceIndex="1"/>
              </channelMap>
              <parameter index="0" name="Low Shelf Frequency" parameterValue="0.0042298273183405399322509765625"/>
              <parameter index="1" name="Low Shelf Gain" parameterValue="0.3980263173580169677734375"/>
              <parameter index="2" name="High Shelf Frequency" parameterValue="0.829649388790130615234375"/>
              <parameter index="3" name="High Shelf Gain" parameterValue="0.5592105388641357421875"/>
              <parameter index="4" name="EQ Band 1 Center Frequency" parameterValue="0.00125104002654552459716796875"/>
              <parameter index="5" name="EQ Band 1 Q" parameterValue="0.000199989997781813144683837890625"/>
              <parameter index="6" name="EQ Band 1 Gain" parameterValue="0.5"/>
              <parameter index="7" name="EQ Band 1 Enable" parameterValue="0"/>
              <parameter index="8" name="EQ Band 2 Center Frequency" parameterValue="0.0075062601827085018157958984375"/>
              <parameter index="9" name="EQ Band 2 Q" parameterValue="0.000199989997781813144683837890625"/>
              <parameter index="10" name="EQ Band 2 Gain" parameterValue="0.5"/>
              <parameter index="11" name="EQ Band 2 Enable" parameterValue="0"/>
              <parameter index="12" name="EQ Band 3 Center Frequency" parameterValue="0.01132103241980075836181640625"/>
              <parameter index="13" name="EQ Band 3 Q" parameterValue="0.00014998999540694057941436767578125"/>
              <parameter index="14" name="EQ Band 3 Gain" parameterValue="0.4684210717678070068359375"/>
              <parameter index="15" name="EQ Band 3 Enable" parameterValue="1"/>
              <parameter index="16" name="EQ Band 4 Center Frequency" parameterValue="0.1326110064983367919921875"/>
              <parameter index="17" name="EQ Band 4 Q" parameterValue="0.000199989997781813144683837890625"/>
              <parameter index="18" name="EQ Band 4 Gain" parameterValue="0.5"/>
              <parameter index="19" name="EQ Band 4 Enable" parameterValue="1"/>
              <parameter index="20" name="EQ Band 5 Center Frequency" parameterValue="0.532944023609161376953125"/>
              <parameter index="21" name="EQ Band 5 Q" parameterValue="0.000199989997781813144683837890625"/>
              <parameter index="22" name="EQ Band 5 Gain" parameterValue="0.5"/>
              <parameter index="23" name="EQ Band 5 Enable" parameterValue="1"/>
              <parameter index="24" name="Master Gain" parameterValue="0.66666698455810546875"/>
              <parameter index="25" name="ConstantQ" parameterValue="1"/>
              <parameter index="26" name="Low Shelf Filter Order" parameterValue="0"/>
              <parameter index="27" name="High Shelf Filter Order" parameterValue="0"/>
              <parameter index="28" name="Ultra-Quiet Mode" parameterValue="1"/>
              <parameter index="29" name="Low Shelf Enable" parameterValue="1"/>
              <parameter index="30" name="High Shelf Enable" parameterValue="1"/>
              <parameter index="31" name="Original Sample Rate" parameterValue="0.25"/>
              <parameter index="32" name="EQ Band 1 Bandwidth" parameterValue="0.00249998713843524456024169921875"/>
              <parameter index="33" name="EQ Band 2 Bandwidth" parameterValue="0.00999999605119228363037109375"/>
              <parameter index="34" name="EQ Band 3 Bandwidth" parameterValue="0.01943187974393367767333984375"/>
              <parameter index="35" name="EQ Band 4 Bandwidth" parameterValue="0.1600005924701690673828125"/>
              <parameter index="36" name="EQ Band 5 Bandwidth" parameterValue="0.639999926090240478515625"/>
              <parameter index="37" name="High-Pass Filter Enable" parameterValue="1"/>
              <parameter index="38" name="High-Pass Cutoff Frequency" parameterValue="0.0038075619377195835113525390625"/>
              <parameter index="39" name="High-Pass Slope" parameterValue="0.4000000059604644775390625"/>
              <parameter index="40" name="Low-Pass Filter Enable" parameterValue="0"/>
              <parameter index="41" name="Low-Pass Cutoff Frequency" parameterValue="0.74979197978973388671875"/>
              <parameter index="42" name="Low-Pass Slope" parameterValue="0.4000000059604644775390625"/>
              <parameter index="43" name="Bypass" parameterValue="0"/>
              <parameter index="44" name="LowGraphRange" parameterValue="1"/>
            </component>
          </slot>
        </effectsRack>
        <editParameter parameterIndex="0" slotIndex="4294967280"/>
        <audioClip clipAutoCrossfade="true" crossFadeHeadClipID="-1" crossFadeTailClipID="1" endPoint="6088513" fileID="9" hue="-1" id="0" lockedInTime="false" looped="false" name="People playing basketball: Cooper Park on Morgan Ave" offline="false" select="false" sourceInPoint="1367363" sourceOutPoint="1806555" startPoint="5649321" zOrder="0">
          <component componentGuid="40b12a9e-5fad-493a-a9c8-b0e2e91f133c" componentID="Audition.Fader" id="clipGain" name="volume" powered="true">
            <parameter index="0" name="volume" parameterValue="1"/>
            <parameter index="1" name="static gain" parameterValue="1"/>
          </component>
          <component componentGuid="b9700bde-7597-40be-aecd-55e50bb59b6a" componentID="Audition.Mute" id="clipMute" name="Mute" powered="true">
            <parameter index="0" parameterValue="0"/>
            <parameter index="1" name="mute" parameterValue="0"/>
          </component>
          <component componentGuid="7de62cdf-49a6-4885-a957-8567f1c60447" componentID="Audition.StereoPanner" id="clipPan" name="StereoPanner" powered="true">
            <parameter index="0" name="Pan" parameterValue="0"/>
          </component>
          <fadeIn crossFadeLinkType="linkedAsymmetric" endPoint="42957" shape="19" startPoint="0" type="log"/>
          <fadeOut crossFadeLinkType="linkedAsymmetric" endPoint="439192" shape="19" startPoint="361975" type="log"/>
          <editParameter parameterIndex="0" slotIndex="4294967280"/>
          <editParameter parameterIndex="0" slotIndex="4294967281"/>
          <channelMap>
            <channel index="0" sourceIndex="0"/>
            <channel index="1" sourceIndex="1"/>
          </channelMap>
        </audioClip>
        <audioClip clipAutoCrossfade="true" crossFadeHeadClipID="0" crossFadeTailClipID="2" endPoint="6707729" fileID="9" hue="-1" id="1" lockedInTime="false" looped="false" name="People playing basketball: Cooper Park on Morgan Ave" offline="false" select="false" sourceInPoint="2923693" sourceOutPoint="3620126" startPoint="6011296" zOrder="1">
          <component componentGuid="8bf279b2-f952-4003-869b-e1125fb49790" componentID="Audition.Fader" id="clipGain" name="volume" powered="true">
            <parameter index="0" name="volume" parameterValue="1"/>
            <parameter index="1" name="static gain" parameterValue="1"/>
          </component>
          <component componentGuid="e3fb07a0-0780-49a1-a3eb-aa0481de7f29" componentID="Audition.Mute" id="clipMute" name="Mute" powered="true">
            <parameter index="0" parameterValue="0"/>
            <parameter index="1" name="mute" parameterValue="0"/>
          </component>
          <component componentGuid="2ebd600a-e466-4beb-aae0-c99b0c4547ef" componentID="Audition.StereoPanner" id="clipPan" name="StereoPanner" powered="true">
            <parameter index="0" name="Pan" parameterValue="0"/>
          </component>
          <fadeIn crossFadeLinkType="linkedAsymmetric" endPoint="77217" shape="18" startPoint="0" type="log"/>
          <fadeOut crossFadeLinkType="linkedAsymmetric" endPoint="696433" shape="19" startPoint="650496" type="log"/>
          <editParameter parameterIndex="0" slotIndex="4294967280"/>
          <editParameter parameterIndex="0" slotIndex="4294967281"/>
          <channelMap>
            <channel index="0" sourceIndex="0"/>
            <channel index="1" sourceIndex="1"/>
          </channelMap>
        </audioClip>
        <audioClip clipAutoCrossfade="true" crossFadeHeadClipID="1" crossFadeTailClipID="3" endPoint="7088243" fileID="9" hue="-1" id="2" lockedInTime="false" looped="false" name="People playing basketball: Cooper Park on Morgan Ave" offline="false" select="false" sourceInPoint="6901068" sourceOutPoint="7327519" startPoint="6661792" zOrder="2">
          <component componentGuid="a55f4174-1f7f-4bad-aea2-0176a27ac9ea" componentID="Audition.Fader" id="clipGain" name="volume" powered="true">
            <parameter index="0" name="volume" parameterValue="1"/>
            <parameter index="1" name="static gain" parameterValue="1"/>
          </component>
          <component componentGuid="a4c89f37-12e3-428b-81e8-56b7bb539e88" componentID="Audition.Mute" id="clipMute" name="Mute" powered="true">
            <parameter index="0" parameterValue="0"/>
            <parameter index="1" name="mute" parameterValue="0"/>
          </component>
          <component componentGuid="e898f8e9-e0ce-4fb8-8416-de899aa4975e" componentID="Audition.StereoPanner" id="clipPan" name="StereoPanner" powered="true">
            <parameter index="0" name="Pan" parameterValue="0"/>
          </component>
          <fadeIn crossFadeLinkType="linkedAsymmetric" endPoint="45937" shape="18" startPoint="0" type="log"/>
          <fadeOut crossFadeLinkType="linkedAsymmetric" endPoint="426451" shape="19" startPoint="364449" type="log"/>
          <editParameter parameterIndex="0" slotIndex="4294967280"/>
          <editParameter parameterIndex="0" slotIndex="4294967281"/>
          <channelMap>
            <channel index="0" sourceIndex="0"/>
            <channel index="1" sourceIndex="1"/>
          </channelMap>
        </audioClip>
        <audioClip clipAutoCrossfade="true" crossFadeHeadClipID="2" crossFadeTailClipID="-1" endPoint="7776000" fileID="9" hue="-1" id="3" lockedInTime="false" looped="false" name="People playing basketball: Cooper Park on Morgan Ave" offline="false" select="false" sourceInPoint="8119403" sourceOutPoint="8869162" startPoint="7026241" zOrder="3">
          <component componentGuid="8f3cc4cd-1e21-42af-af6f-6d602ee8d704" componentID="Audition.Fader" id="clipGain" name="volume" powered="true">
            <parameter index="0" name="volume" parameterValue="1"/>
            <parameter index="1" name="static gain" parameterValue="1"/>
          </component>
          <component componentGuid="42a435d1-0587-4ac9-b126-cb44d718da04" componentID="Audition.Mute" id="clipMute" name="Mute" powered="true">
            <parameter index="0" parameterValue="0"/>
            <parameter index="1" name="mute" parameterValue="0"/>
          </component>
          <component componentGuid="45d47af0-00d2-4ecf-aa4f-bf74496338f3" componentID="Audition.StereoPanner" id="clipPan" name="StereoPanner" powered="true">
            <parameter index="0" name="Pan" parameterValue="0"/>
          </component>
          <fadeIn crossFadeLinkType="linkedAsymmetric" endPoint="62002" shape="18" startPoint="0" type="log"/>
          <fadeOut crossFadeLinkType="linkedAsymmetric" endPoint="749759" shape="19" startPoint="601460" type="log"/>
          <editParameter parameterIndex="0" slotIndex="4294967280"/>
          <editParameter parameterIndex="0" slotIndex="4294967281"/>
          <channelMap>
            <channel index="0" sourceIndex="0"/>
            <channel index="1" sourceIndex="1"/>
          </channelMap>
        </audioClip>
        <audioClip clipAutoCrossfade="true" crossFadeHeadClipID="-1" crossFadeTailClipID="-1" endPoint="8736000" fileID="9" hue="-1" id="4" lockedInTime="false" looped="false" name="People playing basketball: Cooper Park on Morgan Ave" offline="false" select="false" sourceInPoint="1566555" sourceOutPoint="1806555" startPoint="8496000" zOrder="4">
          <component componentGuid="cc40196c-ef09-4997-a656-fb902c2e3aa8" componentID="Audition.Fader" id="clipGain" name="volume" powered="true">
            <parameter index="0" name="volume" parameterValue="1"/>
            <parameter index="1" name="static gain" parameterValue="1"/>
          </component>
          <component componentGuid="4532d337-4c85-459b-8105-ccfbb8fb69d8" componentID="Audition.Mute" id="clipMute" name="Mute" powered="true">
            <parameter index="0" parameterValue="0"/>
            <parameter index="1" name="mute" parameterValue="0"/>
          </component>
          <component componentGuid="30a6e14f-6b88-4baf-a8a6-493749088107" componentID="Audition.StereoPanner" id="clipPan" name="StereoPanner" powered="true">
            <parameter index="0" name="Pan" parameterValue="0"/>
          </component>
          <fadeIn crossFadeLinkType="linkedAsymmetric" endPoint="0" shape="19" startPoint="0" type="log"/>
          <fadeOut crossFadeLinkType="linkedAsymmetric" endPoint="240000" shape="19" startPoint="240000" type="log"/>
          <editParameter parameterIndex="0" slotIndex="4294967280"/>
          <editParameter parameterIndex="0" slotIndex="4294967281"/>
          <channelMap>
            <channel index="0" sourceIndex="0"/>
            <channel index="1" sourceIndex="1"/>
          </channelMap>
        </audioClip>
        <audioClip clipAutoCrossfade="true" crossFadeHeadClipID="-1" crossFadeTailClipID="6" endPoint="10248000" fileID="9" hue="-1" id="5" lockedInTime="false" looped="false" name="People playing basketball: Cooper Park on Morgan Ave" offline="false" select="false" sourceInPoint="3167761" sourceOutPoint="3719761" startPoint="9696000" zOrder="5">
          <component componentGuid="a06d643e-d55b-43f6-b7df-b5c5907bf4ed" componentID="Audition.Fader" id="clipGain" name="volume" powered="true">
            <parameter index="0" name="volume" parameterValue="2.2884309291839599609375"/>
            <parameter index="1" name="static gain" parameterValue="1"/>
          </component>
          <component componentGuid="68ec31ec-2793-4418-ba7a-eb4f8bc45c7b" componentID="Audition.Mute" id="clipMute" name="Mute" powered="true">
            <parameter index="0" parameterValue="0"/>
            <parameter index="1" name="mute" parameterValue="0"/>
          </component>
          <component componentGuid="7c6252a1-a8e1-4280-9c24-a2fa7c4c514d" componentID="Audition.StereoPanner" id="clipPan" name="StereoPanner" powered="true">
            <parameter index="0" name="Pan" parameterValue="-31.047454833984375">
              <parameterKeyframes enableSplines="false" readOnly="false">
                <parameterKeyframe sampleOffset="3216942" select="false" type="linear" value="0.655237257480621337890625"/>
                <parameterKeyframe sampleOffset="3574154" select="true" type="linear" value="0.3125723302364349365234375"/>
              </parameterKeyframes>
            </parameter>
          </component>
          <fadeIn crossFadeLinkType="linkedAsymmetric" endPoint="0" shape="18" startPoint="0" type="log"/>
          <fadeOut crossFadeLinkType="linkedAsymmetric" endPoint="552000" shape="19" startPoint="476365" type="log"/>
          <editParameter parameterIndex="0" slotIndex="4294967280"/>
          <editParameter parameterIndex="0" slotIndex="4294967281"/>
          <channelMap>
            <channel index="0" sourceIndex="0"/>
            <channel index="1" sourceIndex="1"/>
          </channelMap>
        </audioClip>
        <audioClip clipAutoCrossfade="true" crossFadeHeadClipID="5" crossFadeTailClipID="7" endPoint="10512000" fileID="9" hue="-1" id="6" lockedInTime="false" looped="false" name="200302_0217" offline="false" select="false" sourceInPoint="8529527" sourceOutPoint="8869162" startPoint="10172365" zOrder="6">
          <component componentGuid="08dd0963-d98a-4719-9212-774e3cf9e5dd" componentID="Audition.Fader" id="clipGain" name="volume" powered="true">
            <parameter index="0" name="volume" parameterValue="2.2453525066375732421875"/>
            <parameter index="1" name="static gain" parameterValue="1"/>
          </component>
          <component componentGuid="029c3e7e-68b1-4cf0-944d-2124f4275557" componentID="Audition.Mute" id="clipMute" name="Mute" powered="true">
            <parameter index="0" parameterValue="0"/>
            <parameter index="1" name="mute" parameterValue="0"/>
          </component>
          <component componentGuid="db9b22ca-aefc-41c2-9b38-db968b38d957" componentID="Audition.StereoPanner" id="clipPan" name="StereoPanner" powered="true">
            <parameter index="0" name="Pan" parameterValue="0"/>
          </component>
          <fadeIn crossFadeLinkType="linkedAsymmetric" endPoint="75635" shape="18" startPoint="0" type="log"/>
          <fadeOut crossFadeLinkType="linkedAsymmetric" endPoint="339635" shape="19" startPoint="264000" type="log"/>
          <editParameter parameterIndex="0" slotIndex="4294967281"/>
          <editParameter parameterIndex="0" slotIndex="4294967280"/>
          <channelMap>
            <channel index="0" sourceIndex="0"/>
            <channel index="1" sourceIndex="1"/>
          </channelMap>
        </audioClip>
        <audioClip clipAutoCrossfade="true" crossFadeHeadClipID="6" crossFadeTailClipID="-1" endPoint="10848000" fileID="9" hue="-1" id="7" lockedInTime="false" looped="false" name="200302_0217" offline="false" select="false" sourceInPoint="6967519" sourceOutPoint="7379154" startPoint="10436365" zOrder="7">
          <component componentGuid="5485f1fa-be57-447f-b6d0-21d51478be74" componentID="Audition.Fader" id="clipGain" name="volume" powered="true">
            <parameter index="0" name="volume" parameterValue="2.1377985477447509765625"/>
            <parameter index="1" name="static gain" parameterValue="1"/>
          </component>
          <component componentGuid="a49fc2cf-a041-49a2-961a-45d45a8704e4" componentID="Audition.Mute" id="clipMute" name="Mute" powered="true">
            <parameter index="0" parameterValue="0"/>
            <parameter index="1" name="mute" parameterValue="0"/>
          </component>
          <component componentGuid="cba13ea2-3390-4e68-b78b-b6383dacf509" componentID="Audition.StereoPanner" id="clipPan" name="StereoPanner" powered="true">
            <parameter index="0" name="Pan" parameterValue="44.632537841796875">
              <parameterKeyframes enableSplines="false" readOnly="false">
                <parameterKeyframe sampleOffset="7007387" select="false" type="linear" value="0.2768373787403106689453125"/>
                <parameterKeyframe sampleOffset="7336327" select="true" type="linear" value="0.763165533542633056640625"/>
              </parameterKeyframes>
            </parameter>
          </component>
          <fadeIn crossFadeLinkType="linkedAsymmetric" endPoint="75635" shape="18" startPoint="0" type="log"/>
          <fadeOut crossFadeLinkType="linkedAsymmetric" endPoint="411635" shape="19" startPoint="369241" type="log"/>
          <editParameter parameterIndex="0" slotIndex="4294967280"/>
          <editParameter parameterIndex="0" slotIndex="4294967281"/>
          <channelMap>
            <channel index="0" sourceIndex="0"/>
            <channel index="1" sourceIndex="1"/>
          </channelMap>
        </audioClip>
      </audioTrack>
      <audioTrack automationLaneOpenState="false" id="10003" index="9" select="false" visible="true">
        <trackParameters trackHeight="30" trackHue="51" trackMinimized="false">
          <name>machines</name>
        </trackParameters>
        <trackAudioParameters audioChannelType="stereo" automationMode="1" monitoring="false" recordArmed="false" solo="false" soloSafe="false">
          <trackOutput outputID="10000" type="trackID"/>
          <trackInput inputID="1"/>
          <component componentGuid="dfdb9160-cf50-47f3-9b1b-41934e338d78" componentID="Audition.Fader" id="trackFader" name="volume" powered="true">
            <parameter index="0" name="volume" parameterValue="1"/>
            <parameter index="1" name="static gain" parameterValue="1"/>
          </component>
          <component componentGuid="6d5a383e-1f73-4412-ac71-d08f7996c8f5" componentID="Audition.Mute" id="trackMute" name="Mute" powered="true">
            <parameter index="0" parameterValue="0"/>
            <parameter index="1" name="mute" parameterValue="0"/>
          </component>
          <component componentGuid="32302daa-ba76-43dc-bc79-2caab2b07230" componentID="Audition.StereoPanner" id="trackPan" name="StereoPanner" powered="true">
            <parameter index="0" name="Pan" parameterValue="0"/>
          </component>
          <component componentGuid="08860ac7-83a1-4e5e-8f3a-1b391b845968" componentID="Audition.EQ" id="trackEQ" name="EQ" powered="false">
            <parameter index="0" name="Low Shelf Frequency" parameterValue="0.000834028352983295917510986328125"/>
            <parameter index="1" name="Low Shelf Gain" parameterValue="0.5"/>
            <parameter index="2" name="High Shelf Frequency" parameterValue="0.74979150295257568359375"/>
            <parameter index="3" name="High Shelf Gain" parameterValue="0.5"/>
            <parameter index="4" name="EQ Band 1 Center Frequency" parameterValue="0.00125104258768260478973388671875"/>
            <parameter index="5" name="EQ Band 1 Q" parameterValue="0.000199989997781813144683837890625"/>
            <parameter index="6" name="EQ Band 1 Gain" parameterValue="0.5"/>
            <parameter index="7" name="EQ Band 1 Enable" parameterValue="1"/>
            <parameter index="8" name="EQ Band 2 Center Frequency" parameterValue="0.0075062550604343414306640625"/>
            <parameter index="9" name="EQ Band 2 Q" parameterValue="0.000199989997781813144683837890625"/>
            <parameter index="10" name="EQ Band 2 Gain" parameterValue="0.5"/>
            <parameter index="11" name="EQ Band 2 Enable" parameterValue="1"/>
            <parameter index="12" name="EQ Band 3 Center Frequency" parameterValue="0.0325271077454090118408203125"/>
            <parameter index="13" name="EQ Band 3 Q" parameterValue="0.000199989997781813144683837890625"/>
            <parameter index="14" name="EQ Band 3 Gain" parameterValue="0.5"/>
            <parameter index="15" name="EQ Band 3 Enable" parameterValue="1"/>
            <parameter index="16" name="EQ Band 4 Center Frequency" parameterValue="0.13261051476001739501953125"/>
            <parameter index="17" name="EQ Band 4 Q" parameterValue="0.000199989997781813144683837890625"/>
            <parameter index="18" name="EQ Band 4 Gain" parameterValue="0.5"/>
            <parameter index="19" name="EQ Band 4 Enable" parameterValue="1"/>
            <parameter index="20" name="EQ Band 5 Center Frequency" parameterValue="0.532944142818450927734375"/>
            <parameter index="21" name="EQ Band 5 Q" parameterValue="0.000199989997781813144683837890625"/>
            <parameter index="22" name="EQ Band 5 Gain" parameterValue="0.5"/>
            <parameter index="23" name="EQ Band 5 Enable" parameterValue="1"/>
            <parameter index="24" name="Master Gain" parameterValue="0.666666686534881591796875"/>
            <parameter index="25" name="ConstantQ" parameterValue="1"/>
            <parameter index="26" name="Low Shelf Filter Order" parameterValue="0"/>
            <parameter index="27" name="High Shelf Filter Order" parameterValue="0"/>
            <parameter index="28" name="Ultra-Quiet Mode" parameterValue="0"/>
            <parameter index="29" name="Low Shelf Enable" parameterValue="1"/>
            <parameter index="30" name="High Shelf Enable" parameterValue="1"/>
            <parameter index="31" name="Original Sample Rate" parameterValue="0.25"/>
            <parameter index="32" name="EQ Band 1 Bandwidth" parameterValue="0.002499990165233612060546875"/>
            <parameter index="33" name="EQ Band 2 Bandwidth" parameterValue="0.0099999904632568359375"/>
            <parameter index="34" name="EQ Band 3 Bandwidth" parameterValue="0.0399999916553497314453125"/>
            <parameter index="35" name="EQ Band 4 Bandwidth" parameterValue="0.15999998152256011962890625"/>
            <parameter index="36" name="EQ Band 5 Bandwidth" parameterValue="0.63999998569488525390625"/>
            <parameter index="37" name="High-Pass Filter Enable" parameterValue="0"/>
            <parameter index="38" name="High-Pass Cutoff Frequency" parameterValue="0"/>
            <parameter index="39" name="High-Pass Slope" parameterValue="0.4000000059604644775390625"/>
            <parameter index="40" name="Low-Pass Filter Enable" parameterValue="0"/>
            <parameter index="41" name="Low-Pass Cutoff Frequency" parameterValue="0.833194315433502197265625"/>
            <parameter index="42" name="Low-Pass Slope" parameterValue="0.4000000059604644775390625"/>
            <parameter index="43" name="Bypass" parameterValue="0"/>
            <parameter index="44" name="LowGraphRange" parameterValue="1"/>
          </component>
        </trackAudioParameters>
        <effectsRack preFader="true">
          <component componentGuid="96de700e-4ebd-4a24-8139-2b9aadc26523" componentID="Audition.ComponentGroup" id="rackMix" powered="true">
            <parameter index="0" parameterValue="0"/>
            <parameter index="1" parameterValue="0"/>
          </component>
          <component componentGuid="2333350c-12ae-49e7-b612-7e3141ae0d60" id="rackInput" powered="true">
            <parameter index="0" parameterValue="1"/>
            <parameter index="1" parameterValue="0"/>
          </component>
          <component componentGuid="23add1e3-c4b3-4c6e-8394-27ebcb437be0" id="rackOutput" powered="true">
            <parameter index="0" parameterValue="1"/>
            <parameter index="1" parameterValue="0"/>
          </component>
          <slot powered="true" slotIndex="0">
            <component componentGuid="53feb5e9-cd44-44c9-b4da-0da92eaa5394" componentID="8edcd326-33de-4a4d-985b-f1bf48ed1427" editorHeight="542" editorLeft="168" editorTop="178" editorWidth="746" name="Parametric Equalizer" presetName="Kick">
              <busConfig><![CDATA[{"in":[{"layout":[100,101],"name":"","type":0}],"out":[{"layout":[100,101],"name":"","type":0}]}]]></busConfig>
              <channelMap direction="input">
                <channel index="0" sourceIndex="0"/>
                <channel index="1" sourceIndex="1"/>
              </channelMap>
              <channelMap direction="output">
                <channel index="0" sourceIndex="0"/>
                <channel index="1" sourceIndex="1"/>
              </channelMap>
              <parameter index="0" name="Low Shelf Frequency" parameterValue="0"/>
              <parameter index="1" name="Low Shelf Gain" parameterValue="0.40625"/>
              <parameter index="2" name="High Shelf Frequency" parameterValue="0.74979174137115478515625"/>
              <parameter index="3" name="High Shelf Gain" parameterValue="0.2916670143604278564453125"/>
              <parameter index="4" name="EQ Band 1 Center Frequency" parameterValue="0.00250208633951842784881591796875"/>
              <parameter index="5" name="EQ Band 1 Q" parameterValue="0.000199989997781813144683837890625"/>
              <parameter index="6" name="EQ Band 1 Gain" parameterValue="0.53125"/>
              <parameter index="7" name="EQ Band 1 Enable" parameterValue="1"/>
              <parameter index="8" name="EQ Band 2 Center Frequency" parameterValue="0.004170137457549571990966796875"/>
              <parameter index="9" name="EQ Band 2 Q" parameterValue="0.00039999000728130340576171875"/>
              <parameter index="10" name="EQ Band 2 Gain" parameterValue="0.46875"/>
              <parameter index="11" name="EQ Band 2 Enable" parameterValue="1"/>
              <parameter index="12" name="EQ Band 3 Center Frequency" parameterValue="0.0325271375477313995361328125"/>
              <parameter index="13" name="EQ Band 3 Q" parameterValue="0.000199989997781813144683837890625"/>
              <parameter index="14" name="EQ Band 3 Gain" parameterValue="0.5"/>
              <parameter index="15" name="EQ Band 3 Enable" parameterValue="0"/>
              <parameter index="16" name="EQ Band 4 Center Frequency" parameterValue="0.102335698902606964111328125"/>
              <parameter index="17" name="EQ Band 4 Q" parameterValue="0.000199989997781813144683837890625"/>
              <parameter index="18" name="EQ Band 4 Gain" parameterValue="0.54166698455810546875"/>
              <parameter index="19" name="EQ Band 4 Enable" parameterValue="1"/>
              <parameter index="20" name="EQ Band 5 Center Frequency" parameterValue="0.53294408321380615234375"/>
              <parameter index="21" name="EQ Band 5 Q" parameterValue="0.000199989997781813144683837890625"/>
              <parameter index="22" name="EQ Band 5 Gain" parameterValue="0.5"/>
              <parameter index="23" name="EQ Band 5 Enable" parameterValue="0"/>
              <parameter index="24" name="Master Gain" parameterValue="0.66666698455810546875"/>
              <parameter index="25" name="ConstantQ" parameterValue="1"/>
              <parameter index="26" name="Low Shelf Filter Order" parameterValue="0"/>
              <parameter index="27" name="High Shelf Filter Order" parameterValue="0"/>
              <parameter index="28" name="Ultra-Quiet Mode" parameterValue="0"/>
              <parameter index="29" name="Low Shelf Enable" parameterValue="1"/>
              <parameter index="30" name="High Shelf Enable" parameterValue="1"/>
              <parameter index="31" name="Original Sample Rate" parameterValue="0.25"/>
              <parameter index="32" name="EQ Band 1 Bandwidth" parameterValue="0.0039999918080866336822509765625"/>
              <parameter index="33" name="EQ Band 2 Bandwidth" parameterValue="0.0029999874532222747802734375"/>
              <parameter index="34" name="EQ Band 3 Bandwidth" parameterValue="0.040000028908252716064453125"/>
              <parameter index="35" name="EQ Band 4 Bandwidth" parameterValue="0.12370048463344573974609375"/>
              <parameter index="36" name="EQ Band 5 Bandwidth" parameterValue="0.639999926090240478515625"/>
              <parameter index="37" name="High-Pass Filter Enable" parameterValue="0"/>
              <parameter index="38" name="High-Pass Cutoff Frequency" parameterValue="0.00076620676554739475250244140625"/>
              <parameter index="39" name="High-Pass Slope" parameterValue="0.4000000059604644775390625"/>
              <parameter index="40" name="Low-Pass Filter Enable" parameterValue="0"/>
              <parameter index="41" name="Low-Pass Cutoff Frequency" parameterValue="0.688820540904998779296875"/>
              <parameter index="42" name="Low-Pass Slope" parameterValue="0.4000000059604644775390625"/>
              <parameter index="43" name="Bypass" parameterValue="0"/>
              <parameter index="44" name="LowGraphRange" parameterValue="0"/>
            </component>
          </slot>
          <slot powered="true" slotIndex="1">
            <component componentGuid="53c60cd8-3e2b-4cc7-a22d-1989c84bb332" componentID="f14fee7d-fe5f-4202-b790-f53209e56411" editorHeight="283" editorLeft="496" editorTop="299" editorWidth="448" name="Amplify" presetName="+6dB Boost">
              <busConfig><![CDATA[{"in":[{"layout":[100,101],"name":"","type":0}],"out":[{"layout":[100,101],"name":"","type":0}]}]]></busConfig>
              <channelMap direction="input">
                <channel index="0" sourceIndex="0"/>
                <channel index="1" sourceIndex="1"/>
              </channelMap>
              <channelMap direction="output">
                <channel index="0" sourceIndex="0"/>
                <channel index="1" sourceIndex="1"/>
              </channelMap>
              <parameter index="0" name="Channel Count" parameterValue="0.0625"/>
              <parameter index="1" name="Link Sliders" parameterValue="1"/>
              <parameter index="2" name="Left" parameterValue="0.70833301544189453125"/>
              <parameter index="3" name="Right" parameterValue="0.70833301544189453125"/>
              <parameter index="4" name="" parameterValue="0.666666686534881591796875"/>
              <parameter index="5" name="" parameterValue="0.666666686534881591796875"/>
              <parameter index="6" name="" parameterValue="0.666666686534881591796875"/>
              <parameter index="7" name="" parameterValue="0.666666686534881591796875"/>
              <parameter index="8" name="" parameterValue="0.666666686534881591796875"/>
              <parameter index="9" name="" parameterValue="0.666666686534881591796875"/>
              <parameter index="10" name="" parameterValue="0.666666686534881591796875"/>
              <parameter index="11" name="" parameterValue="0.666666686534881591796875"/>
              <parameter index="12" name="" parameterValue="0.666666686534881591796875"/>
              <parameter index="13" name="" parameterValue="0.666666686534881591796875"/>
              <parameter index="14" name="" parameterValue="0.666666686534881591796875"/>
              <parameter index="15" name="" parameterValue="0.666666686534881591796875"/>
              <parameter index="16" name="" parameterValue="0.666666686534881591796875"/>
              <parameter index="17" name="" parameterValue="0.666666686534881591796875"/>
              <parameter index="18" name="" parameterValue="0.666666686534881591796875"/>
              <parameter index="19" name="" parameterValue="0.666666686534881591796875"/>
              <parameter index="20" name="" parameterValue="0.666666686534881591796875"/>
              <parameter index="21" name="" parameterValue="0.666666686534881591796875"/>
              <parameter index="22" name="" parameterValue="0.666666686534881591796875"/>
              <parameter index="23" name="" parameterValue="0.666666686534881591796875"/>
              <parameter index="24" name="" parameterValue="0.666666686534881591796875"/>
              <parameter index="25" name="" parameterValue="0.666666686534881591796875"/>
              <parameter index="26" name="" parameterValue="0.666666686534881591796875"/>
              <parameter index="27" name="" parameterValue="0.666666686534881591796875"/>
              <parameter index="28" name="" parameterValue="0.666666686534881591796875"/>
              <parameter index="29" name="" parameterValue="0.666666686534881591796875"/>
              <parameter index="30" name="" parameterValue="0.666666686534881591796875"/>
              <parameter index="31" name="" parameterValue="0.666666686534881591796875"/>
              <parameter index="32" name="" parameterValue="0.666666686534881591796875"/>
              <parameter index="33" name="" parameterValue="0.666666686534881591796875"/>
              <parameter index="34" name="Link Keyframes" parameterValue="1"/>
            </component>
          </slot>
        </effectsRack>
        <editParameter parameterIndex="0" slotIndex="4294967280"/>
        <audioClip clipAutoCrossfade="true" crossFadeHeadClipID="-1" crossFadeTailClipID="1" endPoint="1678278" fileID="2" hue="-1" id="0" lockedInTime="false" looped="false" name="Vehicle noise: Varick Ave &amp; Harrison Pl" offline="false" select="false" sourceInPoint="3246366" sourceOutPoint="3676644" startPoint="1248000" zOrder="0">
          <component componentGuid="e1815c95-10eb-4c5f-a3cc-3ae2ccb35d3e" componentID="Audition.Fader" id="clipGain" name="volume" powered="true">
            <parameter index="0" name="volume" parameterValue="1"/>
            <parameter index="1" name="static gain" parameterValue="1"/>
          </component>
          <component componentGuid="46e5c231-65f8-4fa1-a6c2-ad98fadbd999" componentID="Audition.Mute" id="clipMute" name="Mute" powered="true">
            <parameter index="0" parameterValue="0"/>
            <parameter index="1" name="mute" parameterValue="0"/>
          </component>
          <component componentGuid="531eeecc-a917-40a5-a208-21eb43429f8d" componentID="Audition.StereoPanner" id="clipPan" name="StereoPanner" powered="true">
            <parameter index="0" name="Pan" parameterValue="0"/>
          </component>
          <fadeIn crossFadeLinkType="linkedAsymmetric" endPoint="27309" shape="19" startPoint="0" type="log"/>
          <fadeOut crossFadeLinkType="linkedAsymmetric" endPoint="430278" shape="19" startPoint="393738" type="log"/>
          <editParameter parameterIndex="0" slotIndex="4294967280"/>
          <editParameter parameterIndex="0" slotIndex="4294967281"/>
          <channelMap>
            <channel index="0" sourceIndex="0"/>
            <channel index="1" sourceIndex="1"/>
          </channelMap>
        </audioClip>
        <audioClip clipAutoCrossfade="true" crossFadeHeadClipID="0" crossFadeTailClipID="2" endPoint="1863824" fileID="0" hue="-1" id="1" lockedInTime="false" looped="false" name="Vehicle noise: Varick Ave" offline="false" select="false" sourceInPoint="2572340" sourceOutPoint="2794426" startPoint="1641738" zOrder="1">
          <component componentGuid="5766adc2-db02-4e70-95a0-1cd36a1c81c1" componentID="Audition.Fader" id="clipGain" name="volume" powered="true">
            <parameter index="0" name="volume" parameterValue="1"/>
            <parameter index="1" name="static gain" parameterValue="1"/>
          </component>
          <component componentGuid="0461d8a2-43ba-4bd2-9dde-d47850280849" componentID="Audition.Mute" id="clipMute" name="Mute" powered="true">
            <parameter index="0" parameterValue="0"/>
            <parameter index="1" name="mute" parameterValue="0"/>
          </component>
          <component componentGuid="7c3d9559-1cc8-49fd-a714-6728943d7584" componentID="Audition.StereoPanner" id="clipPan" name="StereoPanner" powered="true">
            <parameter index="0" name="Pan" parameterValue="0"/>
          </component>
          <fadeIn crossFadeLinkType="linkedAsymmetric" endPoint="36540" shape="18" startPoint="0" type="log"/>
          <fadeOut crossFadeLinkType="linkedAsymmetric" endPoint="222086" shape="19" startPoint="170717" type="log"/>
          <editParameter parameterIndex="0" slotIndex="4294967280"/>
          <editParameter parameterIndex="0" slotIndex="4294967281"/>
          <channelMap>
            <channel index="0" sourceIndex="0"/>
            <channel index="1" sourceIndex="1"/>
          </channelMap>
        </audioClip>
        <audioClip clipAutoCrossfade="true" crossFadeHeadClipID="1" crossFadeTailClipID="-1" endPoint="2501753" fileID="6" hue="-1" id="2" lockedInTime="false" looped="false" name="Machine noise: Maspeth Ave" offline="false" select="false" sourceInPoint="693760" sourceOutPoint="1383058" startPoint="1812455" zOrder="2">
          <component componentGuid="b410523a-f9cd-4e66-80d6-7039f8241da5" componentID="Audition.Fader" id="clipGain" name="volume" powered="true">
            <parameter index="0" name="volume" parameterValue="0.462434470653533935546875"/>
            <parameter index="1" name="static gain" parameterValue="1"/>
          </component>
          <component componentGuid="47796a0b-1db2-415e-b7d7-145093d6635c" componentID="Audition.Mute" id="clipMute" name="Mute" powered="true">
            <parameter index="0" parameterValue="0"/>
            <parameter index="1" name="mute" parameterValue="0"/>
          </component>
          <component componentGuid="dfc86761-6351-4970-b066-7deeb41f7858" componentID="Audition.StereoPanner" id="clipPan" name="StereoPanner" powered="true">
            <parameter index="0" name="Pan" parameterValue="0"/>
          </component>
          <fadeIn crossFadeLinkType="linkedAsymmetric" endPoint="51369" shape="18" startPoint="0" type="log"/>
          <fadeOut crossFadeLinkType="linkedAsymmetric" endPoint="689298" shape="19" startPoint="568883" type="log"/>
          <editParameter parameterIndex="0" slotIndex="4294967281"/>
          <editParameter parameterIndex="0" slotIndex="4294967280"/>
          <channelMap>
            <channel index="0" sourceIndex="0"/>
            <channel index="1" sourceIndex="1"/>
          </channelMap>
        </audioClip>
        <audioClip clipAutoCrossfade="true" crossFadeHeadClipID="-1" crossFadeTailClipID="-1" endPoint="9456000" fileID="5" hue="-1" id="3" lockedInTime="false" looped="false" name="200302_0215" offline="false" select="false" sourceInPoint="3828654" sourceOutPoint="4068654" startPoint="9216000" zOrder="3">
          <component componentGuid="5bbdac50-f07c-472b-9bc3-be2865e20156" componentID="Audition.Fader" id="clipGain" name="volume" powered="true">
            <parameter index="0" name="volume" parameterValue="1"/>
            <parameter index="1" name="static gain" parameterValue="1"/>
          </component>
          <component componentGuid="a4d085d6-a4fb-4b62-b481-a087f934893f" componentID="Audition.Mute" id="clipMute" name="Mute" powered="true">
            <parameter index="0" parameterValue="0"/>
            <parameter index="1" name="mute" parameterValue="0"/>
          </component>
          <component componentGuid="185efd60-88f1-4018-ba2e-c24f1e8399bd" componentID="Audition.StereoPanner" id="clipPan" name="StereoPanner" powered="true">
            <parameter index="0" name="Pan" parameterValue="0"/>
          </component>
          <fadeIn crossFadeLinkType="linkedAsymmetric" endPoint="0" shape="33" startPoint="0" type="log"/>
          <fadeOut crossFadeLinkType="linkedAsymmetric" endPoint="240000" shape="19" startPoint="240000" type="log"/>
          <editParameter parameterIndex="0" slotIndex="4294967280"/>
          <editParameter parameterIndex="0" slotIndex="4294967281"/>
          <channelMap>
            <channel index="0" sourceIndex="0"/>
            <channel index="1" sourceIndex="1"/>
          </channelMap>
        </audioClip>
      </audioTrack>
      <audioTrack automationLaneOpenState="false" id="10007" index="10" select="false" visible="true">
        <trackParameters trackHeight="30" trackHue="51" trackMinimized="false">
          <name>machines L40</name>
        </trackParameters>
        <trackAudioParameters audioChannelType="stereo" automationMode="1" monitoring="false" recordArmed="false" solo="false" soloSafe="false">
          <trackOutput outputID="10000" type="trackID"/>
          <trackInput inputID="1"/>
          <component componentGuid="b3f5430a-5ca7-4046-8002-50471559fc2c" componentID="Audition.Fader" id="trackFader" name="volume" powered="true">
            <parameter index="0" name="volume" parameterValue="1"/>
            <parameter index="1" name="static gain" parameterValue="1"/>
          </component>
          <component componentGuid="f1839119-14a2-449d-885d-67b1482abcd5" componentID="Audition.Mute" id="trackMute" name="Mute" powered="true">
            <parameter index="0" parameterValue="0"/>
            <parameter index="1" name="mute" parameterValue="0"/>
          </component>
          <component componentGuid="3e9b0385-9b7e-44b0-b7fe-1d4daa27ccf6" componentID="Audition.StereoPanner" id="trackPan" name="StereoPanner" powered="true">
            <parameter index="0" name="Pan" parameterValue="-39.999996185302734375"/>
          </component>
          <component componentGuid="21d5e93e-7f17-46da-b83f-0a6cb553db9d" componentID="Audition.EQ" id="trackEQ" name="EQ" powered="false">
            <parameter index="0" name="Low Shelf Frequency" parameterValue="0.000834028352983295917510986328125"/>
            <parameter index="1" name="Low Shelf Gain" parameterValue="0.5"/>
            <parameter index="2" name="High Shelf Frequency" parameterValue="0.74979150295257568359375"/>
            <parameter index="3" name="High Shelf Gain" parameterValue="0.5"/>
            <parameter index="4" name="EQ Band 1 Center Frequency" parameterValue="0.00125104258768260478973388671875"/>
            <parameter index="5" name="EQ Band 1 Q" parameterValue="0.000199989997781813144683837890625"/>
            <parameter index="6" name="EQ Band 1 Gain" parameterValue="0.5"/>
            <parameter index="7" name="EQ Band 1 Enable" parameterValue="1"/>
            <parameter index="8" name="EQ Band 2 Center Frequency" parameterValue="0.0075062550604343414306640625"/>
            <parameter index="9" name="EQ Band 2 Q" parameterValue="0.000199989997781813144683837890625"/>
            <parameter index="10" name="EQ Band 2 Gain" parameterValue="0.5"/>
            <parameter index="11" name="EQ Band 2 Enable" parameterValue="1"/>
            <parameter index="12" name="EQ Band 3 Center Frequency" parameterValue="0.0325271077454090118408203125"/>
            <parameter index="13" name="EQ Band 3 Q" parameterValue="0.000199989997781813144683837890625"/>
            <parameter index="14" name="EQ Band 3 Gain" parameterValue="0.5"/>
            <parameter index="15" name="EQ Band 3 Enable" parameterValue="1"/>
            <parameter index="16" name="EQ Band 4 Center Frequency" parameterValue="0.13261051476001739501953125"/>
            <parameter index="17" name="EQ Band 4 Q" parameterValue="0.000199989997781813144683837890625"/>
            <parameter index="18" name="EQ Band 4 Gain" parameterValue="0.5"/>
            <parameter index="19" name="EQ Band 4 Enable" parameterValue="1"/>
            <parameter index="20" name="EQ Band 5 Center Frequency" parameterValue="0.532944142818450927734375"/>
            <parameter index="21" name="EQ Band 5 Q" parameterValue="0.000199989997781813144683837890625"/>
            <parameter index="22" name="EQ Band 5 Gain" parameterValue="0.5"/>
            <parameter index="23" name="EQ Band 5 Enable" parameterValue="1"/>
            <parameter index="24" name="Master Gain" parameterValue="0.666666686534881591796875"/>
            <parameter index="25" name="ConstantQ" parameterValue="1"/>
            <parameter index="26" name="Low Shelf Filter Order" parameterValue="0"/>
            <parameter index="27" name="High Shelf Filter Order" parameterValue="0"/>
            <parameter index="28" name="Ultra-Quiet Mode" parameterValue="0"/>
            <parameter index="29" name="Low Shelf Enable" parameterValue="1"/>
            <parameter index="30" name="High Shelf Enable" parameterValue="1"/>
            <parameter index="31" name="Original Sample Rate" parameterValue="0.25"/>
            <parameter index="32" name="EQ Band 1 Bandwidth" parameterValue="0.002499990165233612060546875"/>
            <parameter index="33" name="EQ Band 2 Bandwidth" parameterValue="0.0099999904632568359375"/>
            <parameter index="34" name="EQ Band 3 Bandwidth" parameterValue="0.0399999916553497314453125"/>
            <parameter index="35" name="EQ Band 4 Bandwidth" parameterValue="0.15999998152256011962890625"/>
            <parameter index="36" name="EQ Band 5 Bandwidth" parameterValue="0.63999998569488525390625"/>
            <parameter index="37" name="High-Pass Filter Enable" parameterValue="0"/>
            <parameter index="38" name="High-Pass Cutoff Frequency" parameterValue="0"/>
            <parameter index="39" name="High-Pass Slope" parameterValue="0.4000000059604644775390625"/>
            <parameter index="40" name="Low-Pass Filter Enable" parameterValue="0"/>
            <parameter index="41" name="Low-Pass Cutoff Frequency" parameterValue="0.833194315433502197265625"/>
            <parameter index="42" name="Low-Pass Slope" parameterValue="0.4000000059604644775390625"/>
            <parameter index="43" name="Bypass" parameterValue="0"/>
            <parameter index="44" name="LowGraphRange" parameterValue="1"/>
          </component>
        </trackAudioParameters>
        <effectsRack preFader="true">
          <component componentGuid="a495c6c9-fd6c-45ef-8bb7-f56575142a34" componentID="Audition.ComponentGroup" id="rackMix" powered="true">
            <parameter index="0" parameterValue="0"/>
            <parameter index="1" parameterValue="0"/>
          </component>
          <component componentGuid="edce1b03-7e8d-4cfe-a081-5c7bf9531426" id="rackInput" powered="true">
            <parameter index="0" parameterValue="1"/>
            <parameter index="1" parameterValue="0"/>
          </component>
          <component componentGuid="725463c7-fe66-414d-85fa-b2101a5a4117" id="rackOutput" powered="true">
            <parameter index="0" parameterValue="1"/>
            <parameter index="1" parameterValue="0"/>
          </component>
          <slot powered="true" slotIndex="0">
            <component componentGuid="98ac19fa-4048-4d64-9aea-af6d6e52dd5a" componentID="8edcd326-33de-4a4d-985b-f1bf48ed1427" name="Parametric Equalizer" presetName="Kick">
              <busConfig><![CDATA[{"in":[{"layout":[100,101],"name":"","type":0}],"out":[{"layout":[100,101],"name":"","type":0}]}]]></busConfig>
              <channelMap direction="input">
                <channel index="0" sourceIndex="0"/>
                <channel index="1" sourceIndex="1"/>
              </channelMap>
              <channelMap direction="output">
                <channel index="0" sourceIndex="0"/>
                <channel index="1" sourceIndex="1"/>
              </channelMap>
              <parameter index="0" name="Low Shelf Frequency" parameterValue="0"/>
              <parameter index="1" name="Low Shelf Gain" parameterValue="0.40625"/>
              <parameter index="2" name="High Shelf Frequency" parameterValue="0.74979174137115478515625"/>
              <parameter index="3" name="High Shelf Gain" parameterValue="0.2916670143604278564453125"/>
              <parameter index="4" name="EQ Band 1 Center Frequency" parameterValue="0.00250208633951842784881591796875"/>
              <parameter index="5" name="EQ Band 1 Q" parameterValue="0.000199989997781813144683837890625"/>
              <parameter index="6" name="EQ Band 1 Gain" parameterValue="0.53125"/>
              <parameter index="7" name="EQ Band 1 Enable" parameterValue="1"/>
              <parameter index="8" name="EQ Band 2 Center Frequency" parameterValue="0.004170137457549571990966796875"/>
              <parameter index="9" name="EQ Band 2 Q" parameterValue="0.00039999000728130340576171875"/>
              <parameter index="10" name="EQ Band 2 Gain" parameterValue="0.46875"/>
              <parameter index="11" name="EQ Band 2 Enable" parameterValue="1"/>
              <parameter index="12" name="EQ Band 3 Center Frequency" parameterValue="0.0325271375477313995361328125"/>
              <parameter index="13" name="EQ Band 3 Q" parameterValue="0.000199989997781813144683837890625"/>
              <parameter index="14" name="EQ Band 3 Gain" parameterValue="0.5"/>
              <parameter index="15" name="EQ Band 3 Enable" parameterValue="0"/>
              <parameter index="16" name="EQ Band 4 Center Frequency" parameterValue="0.102335698902606964111328125"/>
              <parameter index="17" name="EQ Band 4 Q" parameterValue="0.000199989997781813144683837890625"/>
              <parameter index="18" name="EQ Band 4 Gain" parameterValue="0.54166698455810546875"/>
              <parameter index="19" name="EQ Band 4 Enable" parameterValue="1"/>
              <parameter index="20" name="EQ Band 5 Center Frequency" parameterValue="0.53294408321380615234375"/>
              <parameter index="21" name="EQ Band 5 Q" parameterValue="0.000199989997781813144683837890625"/>
              <parameter index="22" name="EQ Band 5 Gain" parameterValue="0.5"/>
              <parameter index="23" name="EQ Band 5 Enable" parameterValue="0"/>
              <parameter index="24" name="Master Gain" parameterValue="0.66666698455810546875"/>
              <parameter index="25" name="ConstantQ" parameterValue="1"/>
              <parameter index="26" name="Low Shelf Filter Order" parameterValue="0"/>
              <parameter index="27" name="High Shelf Filter Order" parameterValue="0"/>
              <parameter index="28" name="Ultra-Quiet Mode" parameterValue="0"/>
              <parameter index="29" name="Low Shelf Enable" parameterValue="1"/>
              <parameter index="30" name="High Shelf Enable" parameterValue="1"/>
              <parameter index="31" name="Original Sample Rate" parameterValue="0.25"/>
              <parameter index="32" name="EQ Band 1 Bandwidth" parameterValue="0.0039999918080866336822509765625"/>
              <parameter index="33" name="EQ Band 2 Bandwidth" parameterValue="0.0029999874532222747802734375"/>
              <parameter index="34" name="EQ Band 3 Bandwidth" parameterValue="0.040000028908252716064453125"/>
              <parameter index="35" name="EQ Band 4 Bandwidth" parameterValue="0.12370048463344573974609375"/>
              <parameter index="36" name="EQ Band 5 Bandwidth" parameterValue="0.639999926090240478515625"/>
              <parameter index="37" name="High-Pass Filter Enable" parameterValue="0"/>
              <parameter index="38" name="High-Pass Cutoff Frequency" parameterValue="0.00076620676554739475250244140625"/>
              <parameter index="39" name="High-Pass Slope" parameterValue="0.4000000059604644775390625"/>
              <parameter index="40" name="Low-Pass Filter Enable" parameterValue="0"/>
              <parameter index="41" name="Low-Pass Cutoff Frequency" parameterValue="0.688820540904998779296875"/>
              <parameter index="42" name="Low-Pass Slope" parameterValue="0.4000000059604644775390625"/>
              <parameter index="43" name="Bypass" parameterValue="0"/>
              <parameter index="44" name="LowGraphRange" parameterValue="0"/>
            </component>
          </slot>
          <slot powered="true" slotIndex="1">
            <component componentGuid="0ab78a97-ebe3-499b-a43e-0f15559e4e8c" componentID="f14fee7d-fe5f-4202-b790-f53209e56411" name="Amplify" presetName="+6dB Boost">
              <busConfig><![CDATA[{"in":[{"layout":[100,101],"name":"","type":0}],"out":[{"layout":[100,101],"name":"","type":0}]}]]></busConfig>
              <channelMap direction="input">
                <channel index="0" sourceIndex="0"/>
                <channel index="1" sourceIndex="1"/>
              </channelMap>
              <channelMap direction="output">
                <channel index="0" sourceIndex="0"/>
                <channel index="1" sourceIndex="1"/>
              </channelMap>
              <parameter index="0" name="Channel Count" parameterValue="0.0625"/>
              <parameter index="1" name="Link Sliders" parameterValue="1"/>
              <parameter index="2" name="Left" parameterValue="0.70833301544189453125"/>
              <parameter index="3" name="Right" parameterValue="0.70833301544189453125"/>
              <parameter index="4" name="" parameterValue="0.666666686534881591796875"/>
              <parameter index="5" name="" parameterValue="0.666666686534881591796875"/>
              <parameter index="6" name="" parameterValue="0.666666686534881591796875"/>
              <parameter index="7" name="" parameterValue="0.666666686534881591796875"/>
              <parameter index="8" name="" parameterValue="0.666666686534881591796875"/>
              <parameter index="9" name="" parameterValue="0.666666686534881591796875"/>
              <parameter index="10" name="" parameterValue="0.666666686534881591796875"/>
              <parameter index="11" name="" parameterValue="0.666666686534881591796875"/>
              <parameter index="12" name="" parameterValue="0.666666686534881591796875"/>
              <parameter index="13" name="" parameterValue="0.666666686534881591796875"/>
              <parameter index="14" name="" parameterValue="0.666666686534881591796875"/>
              <parameter index="15" name="" parameterValue="0.666666686534881591796875"/>
              <parameter index="16" name="" parameterValue="0.666666686534881591796875"/>
              <parameter index="17" name="" parameterValue="0.666666686534881591796875"/>
              <parameter index="18" name="" parameterValue="0.666666686534881591796875"/>
              <parameter index="19" name="" parameterValue="0.666666686534881591796875"/>
              <parameter index="20" name="" parameterValue="0.666666686534881591796875"/>
              <parameter index="21" name="" parameterValue="0.666666686534881591796875"/>
              <parameter index="22" name="" parameterValue="0.666666686534881591796875"/>
              <parameter index="23" name="" parameterValue="0.666666686534881591796875"/>
              <parameter index="24" name="" parameterValue="0.666666686534881591796875"/>
              <parameter index="25" name="" parameterValue="0.666666686534881591796875"/>
              <parameter index="26" name="" parameterValue="0.666666686534881591796875"/>
              <parameter index="27" name="" parameterValue="0.666666686534881591796875"/>
              <parameter index="28" name="" parameterValue="0.666666686534881591796875"/>
              <parameter index="29" name="" parameterValue="0.666666686534881591796875"/>
              <parameter index="30" name="" parameterValue="0.666666686534881591796875"/>
              <parameter index="31" name="" parameterValue="0.666666686534881591796875"/>
              <parameter index="32" name="" parameterValue="0.666666686534881591796875"/>
              <parameter index="33" name="" parameterValue="0.666666686534881591796875"/>
              <parameter index="34" name="Link Keyframes" parameterValue="1"/>
            </component>
          </slot>
        </effectsRack>
        <editParameter parameterIndex="0" slotIndex="4294967280"/>
        <audioClip clipAutoCrossfade="true" crossFadeHeadClipID="-1" crossFadeTailClipID="-1" endPoint="2075392" fileID="0" hue="-1" id="0" lockedInTime="false" looped="false" name="Vehicle noise: Varick Ave" offline="false" select="false" sourceInPoint="6579503" sourceOutPoint="7039644" startPoint="1615251" zOrder="0">
          <component componentGuid="f7e1972a-42db-4614-8f31-b5fff3911d9e" componentID="Audition.Fader" id="clipGain" name="volume" powered="true">
            <parameter index="0" name="volume" parameterValue="1"/>
            <parameter index="1" name="static gain" parameterValue="1"/>
          </component>
          <component componentGuid="3aeadfc1-3393-4118-8646-3b371c0b2b00" componentID="Audition.Mute" id="clipMute" name="Mute" powered="true">
            <parameter index="0" parameterValue="0"/>
            <parameter index="1" name="mute" parameterValue="0"/>
          </component>
          <component componentGuid="b19db614-ccca-418c-967a-3e2ff879e60f" componentID="Audition.StereoPanner" id="clipPan" name="StereoPanner" powered="true">
            <parameter index="0" name="Pan" parameterValue="0"/>
          </component>
          <fadeIn crossFadeLinkType="linkedAsymmetric" endPoint="45928" shape="19" startPoint="0" type="log"/>
          <fadeOut crossFadeLinkType="linkedAsymmetric" endPoint="460141" shape="19" startPoint="324040" type="log"/>
          <editParameter parameterIndex="0" slotIndex="4294967280"/>
          <editParameter parameterIndex="0" slotIndex="4294967281"/>
          <channelMap>
            <channel index="0" sourceIndex="0"/>
            <channel index="1" sourceIndex="1"/>
          </channelMap>
        </audioClip>
        <audioClip clipAutoCrossfade="true" crossFadeHeadClipID="-1" crossFadeTailClipID="-1" endPoint="2799252" fileID="5" hue="-1" id="1" lockedInTime="false" looped="false" name="Noise: Cargo loading and car horn: Morgan Ave &amp; Meadow Pl" offline="false" select="false" sourceInPoint="3682549" sourceOutPoint="4031561" startPoint="2450240" zOrder="1">
          <component componentGuid="7f3f540e-0136-423b-b585-4f83ea414bd6" componentID="Audition.Fader" id="clipGain" name="volume" powered="true">
            <parameter index="0" name="volume" parameterValue="1"/>
            <parameter index="1" name="static gain" parameterValue="1"/>
          </component>
          <component componentGuid="a24265db-b07d-4c70-900f-c66b6dd9aea5" componentID="Audition.Mute" id="clipMute" name="Mute" powered="true">
            <parameter index="0" parameterValue="0"/>
            <parameter index="1" name="mute" parameterValue="0"/>
          </component>
          <component componentGuid="e719ac71-8878-4856-9669-797a78c9c597" componentID="Audition.StereoPanner" id="clipPan" name="StereoPanner" powered="true">
            <parameter index="0" name="Pan" parameterValue="0"/>
          </component>
          <fadeIn crossFadeLinkType="linkedAsymmetric" endPoint="84999" shape="25" startPoint="0" type="log"/>
          <fadeOut crossFadeLinkType="linkedAsymmetric" endPoint="349012" shape="19" startPoint="302971" type="log"/>
          <editParameter parameterIndex="0" slotIndex="4294967280"/>
          <editParameter parameterIndex="0" slotIndex="4294967281"/>
          <channelMap>
            <channel index="0" sourceIndex="0"/>
            <channel index="1" sourceIndex="1"/>
          </channelMap>
        </audioClip>
        <audioClip clipAutoCrossfade="true" crossFadeHeadClipID="-1" crossFadeTailClipID="-1" endPoint="8496000" fileID="6" hue="-1" id="2" lockedInTime="false" looped="false" name="200302_0218" offline="false" select="false" sourceInPoint="693760" sourceOutPoint="933760" startPoint="8256000" zOrder="2">
          <component componentGuid="cc1e4969-6b15-4f6a-9391-fa6406428991" componentID="Audition.Fader" id="clipGain" name="volume" powered="true">
            <parameter index="0" name="volume" parameterValue="0.462434470653533935546875"/>
            <parameter index="1" name="static gain" parameterValue="1"/>
          </component>
          <component componentGuid="2fb040db-1b11-46d8-bd42-e8ef12c568ee" componentID="Audition.Mute" id="clipMute" name="Mute" powered="true">
            <parameter index="0" parameterValue="0"/>
            <parameter index="1" name="mute" parameterValue="0"/>
          </component>
          <component componentGuid="8bb88f03-c381-410f-a0f4-c0cfd749dd07" componentID="Audition.StereoPanner" id="clipPan" name="StereoPanner" powered="true">
            <parameter index="0" name="Pan" parameterValue="0"/>
          </component>
          <fadeIn crossFadeLinkType="linkedAsymmetric" endPoint="0" shape="18" startPoint="0" type="log"/>
          <fadeOut crossFadeLinkType="linkedAsymmetric" endPoint="240000" shape="19" startPoint="240000" type="log"/>
          <editParameter parameterIndex="0" slotIndex="4294967281"/>
          <editParameter parameterIndex="0" slotIndex="4294967280"/>
          <channelMap>
            <channel index="0" sourceIndex="0"/>
            <channel index="1" sourceIndex="1"/>
          </channelMap>
        </audioClip>
        <audioClip clipAutoCrossfade="true" crossFadeHeadClipID="-1" crossFadeTailClipID="-1" endPoint="9978614" fileID="5" hue="-1" id="3" lockedInTime="false" looped="false" name="200302_0215" offline="false" select="false" sourceInPoint="3825848" sourceOutPoint="3962102" startPoint="9842360" zOrder="4">
          <component componentGuid="a868fb9b-039f-4472-9ce0-4a71a5d67b25" componentID="Audition.Fader" id="clipGain" name="volume" powered="true">
            <parameter index="0" name="volume" parameterValue="1"/>
            <parameter index="1" name="static gain" parameterValue="1"/>
          </component>
          <component componentGuid="320be522-3e5b-47b4-b75c-dd654e95be6f" componentID="Audition.Mute" id="clipMute" name="Mute" powered="true">
            <parameter index="0" parameterValue="0"/>
            <parameter index="1" name="mute" parameterValue="0"/>
          </component>
          <component componentGuid="95144a00-0aac-436d-9fa8-c1e54797cb70" componentID="Audition.StereoPanner" id="clipPan" name="StereoPanner" powered="true">
            <parameter index="0" name="Pan" parameterValue="0"/>
          </component>
          <fadeIn crossFadeLinkType="linkedAsymmetric" endPoint="0" shape="25" startPoint="0" type="log"/>
          <fadeOut crossFadeLinkType="linkedAsymmetric" endPoint="136254" shape="29" startPoint="136254" type="log"/>
          <editParameter parameterIndex="0" slotIndex="4294967280"/>
          <editParameter parameterIndex="0" slotIndex="4294967281"/>
          <channelMap>
            <channel index="0" sourceIndex="0"/>
            <channel index="1" sourceIndex="1"/>
          </channelMap>
        </audioClip>
        <audioClip clipAutoCrossfade="true" crossFadeHeadClipID="-1" crossFadeTailClipID="-1" endPoint="10144730" fileID="4" hue="-1" id="4" lockedInTime="false" looped="false" name="200302_0214" offline="false" select="false" sourceInPoint="4607340" sourceOutPoint="4699705" startPoint="10052365" zOrder="5">
          <component componentGuid="63c2a85d-404d-434b-9653-d68d9d9c9865" componentID="Audition.Fader" id="clipGain" name="volume" powered="true">
            <parameter index="0" name="volume" parameterValue="1"/>
            <parameter index="1" name="static gain" parameterValue="1"/>
          </component>
          <component componentGuid="36517d84-eb76-4cc8-b652-5489d67abcb3" componentID="Audition.Mute" id="clipMute" name="Mute" powered="true">
            <parameter index="0" parameterValue="0"/>
            <parameter index="1" name="mute" parameterValue="0"/>
          </component>
          <component componentGuid="1886bf5a-df47-4b33-a92a-7fbe3b48da3a" componentID="Audition.StereoPanner" id="clipPan" name="StereoPanner" powered="true">
            <parameter index="0" name="Pan" parameterValue="0"/>
          </component>
          <fadeIn crossFadeLinkType="linkedAsymmetric" endPoint="0" shape="18" startPoint="0" type="log"/>
          <fadeOut crossFadeLinkType="linkedAsymmetric" endPoint="92365" shape="19" startPoint="92365" type="log"/>
          <editParameter parameterIndex="0" slotIndex="4294967280"/>
          <editParameter parameterIndex="0" slotIndex="4294967281"/>
          <channelMap>
            <channel index="0" sourceIndex="0"/>
            <channel index="1" sourceIndex="1"/>
          </channelMap>
        </audioClip>
        <audioClip clipAutoCrossfade="true" crossFadeHeadClipID="-1" crossFadeTailClipID="-1" endPoint="10316365" fileID="4" hue="-1" id="5" lockedInTime="false" looped="false" name="200302_0214" offline="false" select="false" sourceInPoint="4607340" sourceOutPoint="4675705" startPoint="10248000" zOrder="3">
          <component componentGuid="003a179c-8726-4b81-a85f-e68b2ddd7771" componentID="Audition.Fader" id="clipGain" name="volume" powered="true">
            <parameter index="0" name="volume" parameterValue="1"/>
            <parameter index="1" name="static gain" parameterValue="1"/>
          </component>
          <component componentGuid="5952cc8f-66f6-451d-aaf0-5f774fe84482" componentID="Audition.Mute" id="clipMute" name="Mute" powered="true">
            <parameter index="0" parameterValue="0"/>
            <parameter index="1" name="mute" parameterValue="0"/>
          </component>
          <component componentGuid="6e309c65-25d9-472a-89e3-c0d575bf3eaf" componentID="Audition.StereoPanner" id="clipPan" name="StereoPanner" powered="true">
            <parameter index="0" name="Pan" parameterValue="0"/>
          </component>
          <fadeIn crossFadeLinkType="linkedAsymmetric" endPoint="0" shape="19" startPoint="0" type="log"/>
          <fadeOut crossFadeLinkType="linkedAsymmetric" endPoint="68365" shape="19" startPoint="68365" type="log"/>
          <editParameter parameterIndex="0" slotIndex="4294967280"/>
          <editParameter parameterIndex="0" slotIndex="4294967281"/>
          <channelMap>
            <channel index="0" sourceIndex="0"/>
            <channel index="1" sourceIndex="1"/>
          </channelMap>
        </audioClip>
        <audioClip clipAutoCrossfade="true" crossFadeHeadClipID="-1" crossFadeTailClipID="7" endPoint="10522778" fileID="4" hue="-1" id="6" lockedInTime="false" looped="false" name="200302_0214" offline="false" select="false" sourceInPoint="4607340" sourceOutPoint="4699705" startPoint="10430413" zOrder="6">
          <component componentGuid="2191e6f7-9bbf-4c65-9a6c-027f425c2dea" componentID="Audition.Fader" id="clipGain" name="volume" powered="true">
            <parameter index="0" name="volume" parameterValue="1"/>
            <parameter index="1" name="static gain" parameterValue="1"/>
          </component>
          <component componentGuid="9c6650b0-45ca-4493-8586-d4bb0e709efd" componentID="Audition.Mute" id="clipMute" name="Mute" powered="true">
            <parameter index="0" parameterValue="0"/>
            <parameter index="1" name="mute" parameterValue="0"/>
          </component>
          <component componentGuid="df5720f6-c946-473d-8df9-80f09e2abaec" componentID="Audition.StereoPanner" id="clipPan" name="StereoPanner" powered="true">
            <parameter index="0" name="Pan" parameterValue="0"/>
          </component>
          <fadeIn crossFadeLinkType="linkedAsymmetric" endPoint="0" shape="18" startPoint="0" type="log"/>
          <fadeOut crossFadeLinkType="linkedAsymmetric" endPoint="92365" shape="19" startPoint="79703" type="log"/>
          <editParameter parameterIndex="0" slotIndex="4294967280"/>
          <editParameter parameterIndex="0" slotIndex="4294967281"/>
          <channelMap>
            <channel index="0" sourceIndex="0"/>
            <channel index="1" sourceIndex="1"/>
          </channelMap>
        </audioClip>
        <audioClip clipAutoCrossfade="true" crossFadeHeadClipID="6" crossFadeTailClipID="-1" endPoint="10560672" fileID="5" hue="-1" id="7" lockedInTime="false" looped="false" name="200302_0215" offline="false" select="false" sourceInPoint="3882980" sourceOutPoint="3933536" startPoint="10510116" zOrder="7">
          <component componentGuid="f1275717-22a6-4d5b-bee1-b96d9760fe38" componentID="Audition.Fader" id="clipGain" name="volume" powered="true">
            <parameter index="0" name="volume" parameterValue="1"/>
            <parameter index="1" name="static gain" parameterValue="1"/>
          </component>
          <component componentGuid="a2937c01-a2da-4cd7-bddb-d4def964bb1e" componentID="Audition.Mute" id="clipMute" name="Mute" powered="true">
            <parameter index="0" parameterValue="0"/>
            <parameter index="1" name="mute" parameterValue="0"/>
          </component>
          <component componentGuid="1b74c656-a452-4832-9764-2ce1a6f62981" componentID="Audition.StereoPanner" id="clipPan" name="StereoPanner" powered="true">
            <parameter index="0" name="Pan" parameterValue="0"/>
          </component>
          <fadeIn crossFadeLinkType="linkedAsymmetric" endPoint="12662" shape="18" startPoint="0" type="log"/>
          <fadeOut crossFadeLinkType="linkedAsymmetric" endPoint="50556" shape="29" startPoint="50556" type="log"/>
          <editParameter parameterIndex="0" slotIndex="4294967281"/>
          <editParameter parameterIndex="0" slotIndex="4294967280"/>
          <channelMap>
            <channel index="0" sourceIndex="0"/>
            <channel index="1" sourceIndex="1"/>
          </channelMap>
        </audioClip>
      </audioTrack>
      <audioTrack automationLaneOpenState="false" id="10011" index="11" select="false" visible="true">
        <trackParameters trackHeight="30" trackHue="51" trackMinimized="false">
          <name>machines L100</name>
        </trackParameters>
        <trackAudioParameters audioChannelType="stereo" automationMode="1" monitoring="false" recordArmed="false" solo="false" soloSafe="false">
          <trackOutput outputID="10000" type="trackID"/>
          <trackInput inputID="1"/>
          <component componentGuid="a2af7516-49a6-49ee-9f0f-7598bba36ca6" componentID="Audition.Fader" id="trackFader" name="volume" powered="true">
            <parameter index="0" name="volume" parameterValue="1"/>
            <parameter index="1" name="static gain" parameterValue="1"/>
          </component>
          <component componentGuid="466ba006-c09e-4cb1-aef7-1b4a757df986" componentID="Audition.Mute" id="trackMute" name="Mute" powered="true">
            <parameter index="0" parameterValue="0"/>
            <parameter index="1" name="mute" parameterValue="0"/>
          </component>
          <component componentGuid="13185058-2a87-476e-9431-ba7bddaa041f" componentID="Audition.StereoPanner" id="trackPan" name="StereoPanner" powered="true">
            <parameter index="0" name="Pan" parameterValue="-100"/>
          </component>
          <component componentGuid="b4a8fb4f-edc0-43c2-a444-3800a75640a3" componentID="Audition.EQ" id="trackEQ" name="EQ" powered="false">
            <parameter index="0" name="Low Shelf Frequency" parameterValue="0.000834028352983295917510986328125"/>
            <parameter index="1" name="Low Shelf Gain" parameterValue="0.5"/>
            <parameter index="2" name="High Shelf Frequency" parameterValue="0.74979150295257568359375"/>
            <parameter index="3" name="High Shelf Gain" parameterValue="0.5"/>
            <parameter index="4" name="EQ Band 1 Center Frequency" parameterValue="0.00125104258768260478973388671875"/>
            <parameter index="5" name="EQ Band 1 Q" parameterValue="0.000199989997781813144683837890625"/>
            <parameter index="6" name="EQ Band 1 Gain" parameterValue="0.5"/>
            <parameter index="7" name="EQ Band 1 Enable" parameterValue="1"/>
            <parameter index="8" name="EQ Band 2 Center Frequency" parameterValue="0.0075062550604343414306640625"/>
            <parameter index="9" name="EQ Band 2 Q" parameterValue="0.000199989997781813144683837890625"/>
            <parameter index="10" name="EQ Band 2 Gain" parameterValue="0.5"/>
            <parameter index="11" name="EQ Band 2 Enable" parameterValue="1"/>
            <parameter index="12" name="EQ Band 3 Center Frequency" parameterValue="0.0325271077454090118408203125"/>
            <parameter index="13" name="EQ Band 3 Q" parameterValue="0.000199989997781813144683837890625"/>
            <parameter index="14" name="EQ Band 3 Gain" parameterValue="0.5"/>
            <parameter index="15" name="EQ Band 3 Enable" parameterValue="1"/>
            <parameter index="16" name="EQ Band 4 Center Frequency" parameterValue="0.13261051476001739501953125"/>
            <parameter index="17" name="EQ Band 4 Q" parameterValue="0.000199989997781813144683837890625"/>
            <parameter index="18" name="EQ Band 4 Gain" parameterValue="0.5"/>
            <parameter index="19" name="EQ Band 4 Enable" parameterValue="1"/>
            <parameter index="20" name="EQ Band 5 Center Frequency" parameterValue="0.532944142818450927734375"/>
            <parameter index="21" name="EQ Band 5 Q" parameterValue="0.000199989997781813144683837890625"/>
            <parameter index="22" name="EQ Band 5 Gain" parameterValue="0.5"/>
            <parameter index="23" name="EQ Band 5 Enable" parameterValue="1"/>
            <parameter index="24" name="Master Gain" parameterValue="0.666666686534881591796875"/>
            <parameter index="25" name="ConstantQ" parameterValue="1"/>
            <parameter index="26" name="Low Shelf Filter Order" parameterValue="0"/>
            <parameter index="27" name="High Shelf Filter Order" parameterValue="0"/>
            <parameter index="28" name="Ultra-Quiet Mode" parameterValue="0"/>
            <parameter index="29" name="Low Shelf Enable" parameterValue="1"/>
            <parameter index="30" name="High Shelf Enable" parameterValue="1"/>
            <parameter index="31" name="Original Sample Rate" parameterValue="0.25"/>
            <parameter index="32" name="EQ Band 1 Bandwidth" parameterValue="0.002499990165233612060546875"/>
            <parameter index="33" name="EQ Band 2 Bandwidth" parameterValue="0.0099999904632568359375"/>
            <parameter index="34" name="EQ Band 3 Bandwidth" parameterValue="0.0399999916553497314453125"/>
            <parameter index="35" name="EQ Band 4 Bandwidth" parameterValue="0.15999998152256011962890625"/>
            <parameter index="36" name="EQ Band 5 Bandwidth" parameterValue="0.63999998569488525390625"/>
            <parameter index="37" name="High-Pass Filter Enable" parameterValue="0"/>
            <parameter index="38" name="High-Pass Cutoff Frequency" parameterValue="0"/>
            <parameter index="39" name="High-Pass Slope" parameterValue="0.4000000059604644775390625"/>
            <parameter index="40" name="Low-Pass Filter Enable" parameterValue="0"/>
            <parameter index="41" name="Low-Pass Cutoff Frequency" parameterValue="0.833194315433502197265625"/>
            <parameter index="42" name="Low-Pass Slope" parameterValue="0.4000000059604644775390625"/>
            <parameter index="43" name="Bypass" parameterValue="0"/>
            <parameter index="44" name="LowGraphRange" parameterValue="1"/>
          </component>
        </trackAudioParameters>
        <effectsRack preFader="true">
          <component componentGuid="b162b07e-1924-4aed-9278-7eb8b5036ce2" componentID="Audition.ComponentGroup" id="rackMix" powered="true">
            <parameter index="0" parameterValue="0"/>
            <parameter index="1" parameterValue="0"/>
          </component>
          <component componentGuid="b24502e9-ff31-4ec3-9ea7-f444239a8269" id="rackInput" powered="true">
            <parameter index="0" parameterValue="1"/>
            <parameter index="1" parameterValue="0"/>
          </component>
          <component componentGuid="ec538dc1-731d-49fa-a25c-3814ff675167" id="rackOutput" powered="true">
            <parameter index="0" parameterValue="1"/>
            <parameter index="1" parameterValue="0"/>
          </component>
          <slot powered="true" slotIndex="0">
            <component componentGuid="e702bbcb-22b9-4f65-9e48-1a407d21fbf7" componentID="8edcd326-33de-4a4d-985b-f1bf48ed1427" name="Parametric Equalizer" presetName="Kick">
              <busConfig><![CDATA[{"in":[{"layout":[100,101],"name":"","type":0}],"out":[{"layout":[100,101],"name":"","type":0}]}]]></busConfig>
              <channelMap direction="input">
                <channel index="0" sourceIndex="0"/>
                <channel index="1" sourceIndex="1"/>
              </channelMap>
              <channelMap direction="output">
                <channel index="0" sourceIndex="0"/>
                <channel index="1" sourceIndex="1"/>
              </channelMap>
              <parameter index="0" name="Low Shelf Frequency" parameterValue="0"/>
              <parameter index="1" name="Low Shelf Gain" parameterValue="0.40625"/>
              <parameter index="2" name="High Shelf Frequency" parameterValue="0.74979174137115478515625"/>
              <parameter index="3" name="High Shelf Gain" parameterValue="0.2916670143604278564453125"/>
              <parameter index="4" name="EQ Band 1 Center Frequency" parameterValue="0.00250208633951842784881591796875"/>
              <parameter index="5" name="EQ Band 1 Q" parameterValue="0.000199989997781813144683837890625"/>
              <parameter index="6" name="EQ Band 1 Gain" parameterValue="0.53125"/>
              <parameter index="7" name="EQ Band 1 Enable" parameterValue="1"/>
              <parameter index="8" name="EQ Band 2 Center Frequency" parameterValue="0.004170137457549571990966796875"/>
              <parameter index="9" name="EQ Band 2 Q" parameterValue="0.00039999000728130340576171875"/>
              <parameter index="10" name="EQ Band 2 Gain" parameterValue="0.46875"/>
              <parameter index="11" name="EQ Band 2 Enable" parameterValue="1"/>
              <parameter index="12" name="EQ Band 3 Center Frequency" parameterValue="0.0325271375477313995361328125"/>
              <parameter index="13" name="EQ Band 3 Q" parameterValue="0.000199989997781813144683837890625"/>
              <parameter index="14" name="EQ Band 3 Gain" parameterValue="0.5"/>
              <parameter index="15" name="EQ Band 3 Enable" parameterValue="0"/>
              <parameter index="16" name="EQ Band 4 Center Frequency" parameterValue="0.102335698902606964111328125"/>
              <parameter index="17" name="EQ Band 4 Q" parameterValue="0.000199989997781813144683837890625"/>
              <parameter index="18" name="EQ Band 4 Gain" parameterValue="0.54166698455810546875"/>
              <parameter index="19" name="EQ Band 4 Enable" parameterValue="1"/>
              <parameter index="20" name="EQ Band 5 Center Frequency" parameterValue="0.53294408321380615234375"/>
              <parameter index="21" name="EQ Band 5 Q" parameterValue="0.000199989997781813144683837890625"/>
              <parameter index="22" name="EQ Band 5 Gain" parameterValue="0.5"/>
              <parameter index="23" name="EQ Band 5 Enable" parameterValue="0"/>
              <parameter index="24" name="Master Gain" parameterValue="0.66666698455810546875"/>
              <parameter index="25" name="ConstantQ" parameterValue="1"/>
              <parameter index="26" name="Low Shelf Filter Order" parameterValue="0"/>
              <parameter index="27" name="High Shelf Filter Order" parameterValue="0"/>
              <parameter index="28" name="Ultra-Quiet Mode" parameterValue="0"/>
              <parameter index="29" name="Low Shelf Enable" parameterValue="1"/>
              <parameter index="30" name="High Shelf Enable" parameterValue="1"/>
              <parameter index="31" name="Original Sample Rate" parameterValue="0.25"/>
              <parameter index="32" name="EQ Band 1 Bandwidth" parameterValue="0.0039999918080866336822509765625"/>
              <parameter index="33" name="EQ Band 2 Bandwidth" parameterValue="0.0029999874532222747802734375"/>
              <parameter index="34" name="EQ Band 3 Bandwidth" parameterValue="0.040000028908252716064453125"/>
              <parameter index="35" name="EQ Band 4 Bandwidth" parameterValue="0.12370048463344573974609375"/>
              <parameter index="36" name="EQ Band 5 Bandwidth" parameterValue="0.639999926090240478515625"/>
              <parameter index="37" name="High-Pass Filter Enable" parameterValue="0"/>
              <parameter index="38" name="High-Pass Cutoff Frequency" parameterValue="0.00076620676554739475250244140625"/>
              <parameter index="39" name="High-Pass Slope" parameterValue="0.4000000059604644775390625"/>
              <parameter index="40" name="Low-Pass Filter Enable" parameterValue="0"/>
              <parameter index="41" name="Low-Pass Cutoff Frequency" parameterValue="0.688820540904998779296875"/>
              <parameter index="42" name="Low-Pass Slope" parameterValue="0.4000000059604644775390625"/>
              <parameter index="43" name="Bypass" parameterValue="0"/>
              <parameter index="44" name="LowGraphRange" parameterValue="0"/>
            </component>
          </slot>
          <slot powered="true" slotIndex="1">
            <component componentGuid="d599b0ff-ed67-48f9-a003-cea19887d169" componentID="f14fee7d-fe5f-4202-b790-f53209e56411" name="Amplify" presetName="+6dB Boost">
              <busConfig><![CDATA[{"in":[{"layout":[100,101],"name":"","type":0}],"out":[{"layout":[100,101],"name":"","type":0}]}]]></busConfig>
              <channelMap direction="input">
                <channel index="0" sourceIndex="0"/>
                <channel index="1" sourceIndex="1"/>
              </channelMap>
              <channelMap direction="output">
                <channel index="0" sourceIndex="0"/>
                <channel index="1" sourceIndex="1"/>
              </channelMap>
              <parameter index="0" name="Channel Count" parameterValue="0.0625"/>
              <parameter index="1" name="Link Sliders" parameterValue="1"/>
              <parameter index="2" name="Left" parameterValue="0.70833301544189453125"/>
              <parameter index="3" name="Right" parameterValue="0.70833301544189453125"/>
              <parameter index="4" name="" parameterValue="0.666666686534881591796875"/>
              <parameter index="5" name="" parameterValue="0.666666686534881591796875"/>
              <parameter index="6" name="" parameterValue="0.666666686534881591796875"/>
              <parameter index="7" name="" parameterValue="0.666666686534881591796875"/>
              <parameter index="8" name="" parameterValue="0.666666686534881591796875"/>
              <parameter index="9" name="" parameterValue="0.666666686534881591796875"/>
              <parameter index="10" name="" parameterValue="0.666666686534881591796875"/>
              <parameter index="11" name="" parameterValue="0.666666686534881591796875"/>
              <parameter index="12" name="" parameterValue="0.666666686534881591796875"/>
              <parameter index="13" name="" parameterValue="0.666666686534881591796875"/>
              <parameter index="14" name="" parameterValue="0.666666686534881591796875"/>
              <parameter index="15" name="" parameterValue="0.666666686534881591796875"/>
              <parameter index="16" name="" parameterValue="0.666666686534881591796875"/>
              <parameter index="17" name="" parameterValue="0.666666686534881591796875"/>
              <parameter index="18" name="" parameterValue="0.666666686534881591796875"/>
              <parameter index="19" name="" parameterValue="0.666666686534881591796875"/>
              <parameter index="20" name="" parameterValue="0.666666686534881591796875"/>
              <parameter index="21" name="" parameterValue="0.666666686534881591796875"/>
              <parameter index="22" name="" parameterValue="0.666666686534881591796875"/>
              <parameter index="23" name="" parameterValue="0.666666686534881591796875"/>
              <parameter index="24" name="" parameterValue="0.666666686534881591796875"/>
              <parameter index="25" name="" parameterValue="0.666666686534881591796875"/>
              <parameter index="26" name="" parameterValue="0.666666686534881591796875"/>
              <parameter index="27" name="" parameterValue="0.666666686534881591796875"/>
              <parameter index="28" name="" parameterValue="0.666666686534881591796875"/>
              <parameter index="29" name="" parameterValue="0.666666686534881591796875"/>
              <parameter index="30" name="" parameterValue="0.666666686534881591796875"/>
              <parameter index="31" name="" parameterValue="0.666666686534881591796875"/>
              <parameter index="32" name="" parameterValue="0.666666686534881591796875"/>
              <parameter index="33" name="" parameterValue="0.666666686534881591796875"/>
              <parameter index="34" name="Link Keyframes" parameterValue="1"/>
            </component>
          </slot>
        </effectsRack>
        <editParameter parameterIndex="0" slotIndex="4294967280"/>
        <audioClip clipAutoCrossfade="true" crossFadeHeadClipID="-1" crossFadeTailClipID="-1" endPoint="2549446" fileID="3" hue="-1" id="0" lockedInTime="false" looped="false" name="Machine noise: Varick Ave" offline="false" select="false" sourceInPoint="4899086" sourceOutPoint="5241781" startPoint="2206751" zOrder="0">
          <component componentGuid="3a3e4888-a59f-4ba1-aa38-6113d011392f" componentID="Audition.Fader" id="clipGain" name="volume" powered="true">
            <parameter index="0" name="volume" parameterValue="1"/>
            <parameter index="1" name="static gain" parameterValue="1"/>
          </component>
          <component componentGuid="b2320feb-f2f1-4550-9250-3429ce3487ba" componentID="Audition.Mute" id="clipMute" name="Mute" powered="true">
            <parameter index="0" parameterValue="0"/>
            <parameter index="1" name="mute" parameterValue="0"/>
          </component>
          <component componentGuid="a05e437e-8b84-4387-9af8-12bf13e14823" componentID="Audition.StereoPanner" id="clipPan" name="StereoPanner" powered="true">
            <parameter index="0" name="Pan" parameterValue="0"/>
          </component>
          <fadeIn crossFadeLinkType="linkedAsymmetric" endPoint="103029" shape="19" startPoint="0" type="log"/>
          <fadeOut crossFadeLinkType="linkedAsymmetric" endPoint="342695" shape="19" startPoint="254155" type="log"/>
          <editParameter parameterIndex="0" slotIndex="4294967280"/>
          <editParameter parameterIndex="0" slotIndex="4294967281"/>
          <channelMap>
            <channel index="0" sourceIndex="0"/>
            <channel index="1" sourceIndex="1"/>
          </channelMap>
        </audioClip>
        <audioClip clipAutoCrossfade="true" crossFadeHeadClipID="-1" crossFadeTailClipID="-1" endPoint="3456000" fileID="5" hue="-1" id="1" lockedInTime="false" looped="false" name="Vehicle noise: Morgan Ave" offline="false" select="false" sourceInPoint="232287" sourceOutPoint="710536" startPoint="2977751" zOrder="1">
          <component componentGuid="bd23effa-4c16-4ea7-a367-39ca67989306" componentID="Audition.Fader" id="clipGain" name="volume" powered="true">
            <parameter index="0" name="volume" parameterValue="1"/>
            <parameter index="1" name="static gain" parameterValue="1"/>
          </component>
          <component componentGuid="6a486276-6266-4e71-b446-b95fc5fa475d" componentID="Audition.Mute" id="clipMute" name="Mute" powered="true">
            <parameter index="0" parameterValue="0"/>
            <parameter index="1" name="mute" parameterValue="0"/>
          </component>
          <component componentGuid="4f76e19e-cbdc-49d8-8d3a-570641240ff2" componentID="Audition.StereoPanner" id="clipPan" name="StereoPanner" powered="true">
            <parameter index="0" name="Pan" parameterValue="0"/>
          </component>
          <fadeIn crossFadeLinkType="linkedAsymmetric" endPoint="116873" shape="25" startPoint="0" type="log"/>
          <fadeOut crossFadeLinkType="linkedAsymmetric" endPoint="478249" shape="19" startPoint="386167" type="log"/>
          <editParameter parameterIndex="0" slotIndex="4294967280"/>
          <editParameter parameterIndex="0" slotIndex="4294967281"/>
          <channelMap>
            <channel index="0" sourceIndex="0"/>
            <channel index="1" sourceIndex="1"/>
          </channelMap>
        </audioClip>
        <audioClip clipAutoCrossfade="true" crossFadeHeadClipID="-1" crossFadeTailClipID="-1" endPoint="10028365" fileID="2" hue="-1" id="2" lockedInTime="false" looped="false" name="200302_0209" offline="false" select="false" sourceInPoint="1833298" sourceOutPoint="1853663" startPoint="10008000" zOrder="14">
          <component componentGuid="f24ee6dd-1f6e-49c5-93db-61dfb7d215f5" componentID="Audition.Fader" id="clipGain" name="volume" powered="true">
            <parameter index="0" name="volume" parameterValue="1"/>
            <parameter index="1" name="static gain" parameterValue="1"/>
          </component>
          <component componentGuid="972d7b81-aa83-4649-bd88-9e900356074f" componentID="Audition.Mute" id="clipMute" name="Mute" powered="true">
            <parameter index="0" parameterValue="0"/>
            <parameter index="1" name="mute" parameterValue="0"/>
          </component>
          <component componentGuid="6b4116b9-2d1e-4400-ad88-d0355f53dbdc" componentID="Audition.StereoPanner" id="clipPan" name="StereoPanner" powered="true">
            <parameter index="0" name="Pan" parameterValue="0"/>
          </component>
          <fadeIn crossFadeLinkType="linkedAsymmetric" endPoint="0" shape="0" startPoint="0" type="cosine"/>
          <fadeOut crossFadeLinkType="linkedAsymmetric" endPoint="20365" shape="0" startPoint="20365" type="cosine"/>
          <editParameter parameterIndex="0" slotIndex="4294967280"/>
          <editParameter parameterIndex="0" slotIndex="4294967281"/>
          <channelMap>
            <channel index="0" sourceIndex="0"/>
            <channel index="1" sourceIndex="1"/>
          </channelMap>
        </audioClip>
        <audioClip clipAutoCrossfade="true" crossFadeHeadClipID="-1" crossFadeTailClipID="-1" endPoint="10076365" fileID="2" hue="-1" id="3" lockedInTime="false" looped="false" name="200302_0209" offline="false" select="false" sourceInPoint="1833298" sourceOutPoint="1853663" startPoint="10056000" zOrder="15">
          <component componentGuid="476132b1-5c72-4485-a002-5919a4227870" componentID="Audition.Fader" id="clipGain" name="volume" powered="true">
            <parameter index="0" name="volume" parameterValue="1"/>
            <parameter index="1" name="static gain" parameterValue="1"/>
          </component>
          <component componentGuid="d0cce5b1-9d95-4408-957d-4b026980c96e" componentID="Audition.Mute" id="clipMute" name="Mute" powered="true">
            <parameter index="0" parameterValue="0"/>
            <parameter index="1" name="mute" parameterValue="0"/>
          </component>
          <component componentGuid="35016926-7072-43f0-b402-be6c20b6a335" componentID="Audition.StereoPanner" id="clipPan" name="StereoPanner" powered="true">
            <parameter index="0" name="Pan" parameterValue="0"/>
          </component>
          <fadeIn crossFadeLinkType="linkedAsymmetric" endPoint="0" shape="0" startPoint="0" type="cosine"/>
          <fadeOut crossFadeLinkType="linkedAsymmetric" endPoint="20365" shape="0" startPoint="20365" type="cosine"/>
          <editParameter parameterIndex="0" slotIndex="4294967280"/>
          <editParameter parameterIndex="0" slotIndex="4294967281"/>
          <channelMap>
            <channel index="0" sourceIndex="0"/>
            <channel index="1" sourceIndex="1"/>
          </channelMap>
        </audioClip>
        <audioClip clipAutoCrossfade="true" crossFadeHeadClipID="-1" crossFadeTailClipID="-1" endPoint="10124365" fileID="2" hue="-1" id="4" lockedInTime="false" looped="false" name="200302_0209" offline="false" select="false" sourceInPoint="1833298" sourceOutPoint="1853663" startPoint="10104000" zOrder="16">
          <component componentGuid="fdb451f7-690f-426e-9353-d5ee0da5347c" componentID="Audition.Fader" id="clipGain" name="volume" powered="true">
            <parameter index="0" name="volume" parameterValue="1"/>
            <parameter index="1" name="static gain" parameterValue="1"/>
          </component>
          <component componentGuid="736e1d89-fdd4-4e04-873a-b1ab71b38f7b" componentID="Audition.Mute" id="clipMute" name="Mute" powered="true">
            <parameter index="0" parameterValue="0"/>
            <parameter index="1" name="mute" parameterValue="0"/>
          </component>
          <component componentGuid="dbdb5bfa-c5bf-49ab-963f-0a48f6dd4698" componentID="Audition.StereoPanner" id="clipPan" name="StereoPanner" powered="true">
            <parameter index="0" name="Pan" parameterValue="0"/>
          </component>
          <fadeIn crossFadeLinkType="linkedAsymmetric" endPoint="0" shape="0" startPoint="0" type="cosine"/>
          <fadeOut crossFadeLinkType="linkedAsymmetric" endPoint="20365" shape="0" startPoint="20365" type="cosine"/>
          <editParameter parameterIndex="0" slotIndex="4294967280"/>
          <editParameter parameterIndex="0" slotIndex="4294967281"/>
          <channelMap>
            <channel index="0" sourceIndex="0"/>
            <channel index="1" sourceIndex="1"/>
          </channelMap>
        </audioClip>
        <audioClip clipAutoCrossfade="true" crossFadeHeadClipID="-1" crossFadeTailClipID="-1" endPoint="10172365" fileID="2" hue="-1" id="5" lockedInTime="false" looped="false" name="200302_0209" offline="false" select="false" sourceInPoint="1833298" sourceOutPoint="1853663" startPoint="10152000" zOrder="17">
          <component componentGuid="f071dc08-e2b7-4a07-b7b6-e90717162771" componentID="Audition.Fader" id="clipGain" name="volume" powered="true">
            <parameter index="0" name="volume" parameterValue="1"/>
            <parameter index="1" name="static gain" parameterValue="1"/>
          </component>
          <component componentGuid="be4b79b1-fe4e-45d1-b75b-4614ff940bc5" componentID="Audition.Mute" id="clipMute" name="Mute" powered="true">
            <parameter index="0" parameterValue="0"/>
            <parameter index="1" name="mute" parameterValue="0"/>
          </component>
          <component componentGuid="36087e9e-0856-407f-bfe6-5bf28f9e1722" componentID="Audition.StereoPanner" id="clipPan" name="StereoPanner" powered="true">
            <parameter index="0" name="Pan" parameterValue="0"/>
          </component>
          <fadeIn crossFadeLinkType="linkedAsymmetric" endPoint="0" shape="0" startPoint="0" type="cosine"/>
          <fadeOut crossFadeLinkType="linkedAsymmetric" endPoint="20365" shape="0" startPoint="20365" type="cosine"/>
          <editParameter parameterIndex="0" slotIndex="4294967280"/>
          <editParameter parameterIndex="0" slotIndex="4294967281"/>
          <channelMap>
            <channel index="0" sourceIndex="0"/>
            <channel index="1" sourceIndex="1"/>
          </channelMap>
        </audioClip>
        <audioClip clipAutoCrossfade="true" crossFadeHeadClipID="-1" crossFadeTailClipID="-1" endPoint="10220365" fileID="2" hue="-1" id="6" lockedInTime="false" looped="false" name="200302_0209" offline="false" select="false" sourceInPoint="1833298" sourceOutPoint="1853663" startPoint="10200000" zOrder="18">
          <component componentGuid="296559ec-0c14-4b94-8d2b-744527c56ef4" componentID="Audition.Fader" id="clipGain" name="volume" powered="true">
            <parameter index="0" name="volume" parameterValue="1"/>
            <parameter index="1" name="static gain" parameterValue="1"/>
          </component>
          <component componentGuid="0ceb0663-f239-40fb-aee3-d27e34121c4f" componentID="Audition.Mute" id="clipMute" name="Mute" powered="true">
            <parameter index="0" parameterValue="0"/>
            <parameter index="1" name="mute" parameterValue="0"/>
          </component>
          <component componentGuid="4d91016b-71e2-4a4b-9b1a-851c7e5e4265" componentID="Audition.StereoPanner" id="clipPan" name="StereoPanner" powered="true">
            <parameter index="0" name="Pan" parameterValue="0"/>
          </component>
          <fadeIn crossFadeLinkType="linkedAsymmetric" endPoint="0" shape="0" startPoint="0" type="cosine"/>
          <fadeOut crossFadeLinkType="linkedAsymmetric" endPoint="20365" shape="0" startPoint="20365" type="cosine"/>
          <editParameter parameterIndex="0" slotIndex="4294967280"/>
          <editParameter parameterIndex="0" slotIndex="4294967281"/>
          <channelMap>
            <channel index="0" sourceIndex="0"/>
            <channel index="1" sourceIndex="1"/>
          </channelMap>
        </audioClip>
        <audioClip clipAutoCrossfade="true" crossFadeHeadClipID="-1" crossFadeTailClipID="-1" endPoint="10270116" fileID="2" hue="-1" id="7" lockedInTime="false" looped="false" name="200302_0209" offline="false" select="false" sourceInPoint="1833298" sourceOutPoint="1853663" startPoint="10249751" zOrder="2">
          <component componentGuid="54a21844-528b-49a0-83cd-7f510adaca2c" componentID="Audition.Fader" id="clipGain" name="volume" powered="true">
            <parameter index="0" name="volume" parameterValue="1"/>
            <parameter index="1" name="static gain" parameterValue="1"/>
          </component>
          <component componentGuid="8d77ebc4-a219-475c-8f0f-09ed6479dcc1" componentID="Audition.Mute" id="clipMute" name="Mute" powered="true">
            <parameter index="0" parameterValue="0"/>
            <parameter index="1" name="mute" parameterValue="0"/>
          </component>
          <component componentGuid="c372588b-7f09-4969-933c-f31918f353d6" componentID="Audition.StereoPanner" id="clipPan" name="StereoPanner" powered="true">
            <parameter index="0" name="Pan" parameterValue="0"/>
          </component>
          <fadeIn crossFadeLinkType="linkedAsymmetric" endPoint="0" shape="0" startPoint="0" type="cosine"/>
          <fadeOut crossFadeLinkType="linkedAsymmetric" endPoint="20365" shape="0" startPoint="20365" type="cosine"/>
          <editParameter parameterIndex="0" slotIndex="4294967280"/>
          <editParameter parameterIndex="0" slotIndex="4294967281"/>
          <channelMap>
            <channel index="0" sourceIndex="0"/>
            <channel index="1" sourceIndex="1"/>
          </channelMap>
        </audioClip>
        <audioClip clipAutoCrossfade="true" crossFadeHeadClipID="-1" crossFadeTailClipID="-1" endPoint="10318116" fileID="2" hue="-1" id="8" lockedInTime="false" looped="false" name="200302_0209" offline="false" select="false" sourceInPoint="1833298" sourceOutPoint="1853663" startPoint="10297751" zOrder="3">
          <component componentGuid="b1fc860d-c165-40bf-9ef6-e3f096418fc0" componentID="Audition.Fader" id="clipGain" name="volume" powered="true">
            <parameter index="0" name="volume" parameterValue="1"/>
            <parameter index="1" name="static gain" parameterValue="1"/>
          </component>
          <component componentGuid="f76cf1fe-3f08-469c-84cd-a2f348cdf67b" componentID="Audition.Mute" id="clipMute" name="Mute" powered="true">
            <parameter index="0" parameterValue="0"/>
            <parameter index="1" name="mute" parameterValue="0"/>
          </component>
          <component componentGuid="f21dddc9-d6d1-474d-b290-4663fca9ae4f" componentID="Audition.StereoPanner" id="clipPan" name="StereoPanner" powered="true">
            <parameter index="0" name="Pan" parameterValue="0"/>
          </component>
          <fadeIn crossFadeLinkType="linkedAsymmetric" endPoint="0" shape="0" startPoint="0" type="cosine"/>
          <fadeOut crossFadeLinkType="linkedAsymmetric" endPoint="20365" shape="0" startPoint="20365" type="cosine"/>
          <editParameter parameterIndex="0" slotIndex="4294967280"/>
          <editParameter parameterIndex="0" slotIndex="4294967281"/>
          <channelMap>
            <channel index="0" sourceIndex="0"/>
            <channel index="1" sourceIndex="1"/>
          </channelMap>
        </audioClip>
        <audioClip clipAutoCrossfade="true" crossFadeHeadClipID="-1" crossFadeTailClipID="-1" endPoint="10366116" fileID="2" hue="-1" id="9" lockedInTime="false" looped="false" name="200302_0209" offline="false" select="false" sourceInPoint="1833298" sourceOutPoint="1853663" startPoint="10345751" zOrder="4">
          <component componentGuid="3d31fe05-2915-4d36-8bc3-0d01d5a66c72" componentID="Audition.Fader" id="clipGain" name="volume" powered="true">
            <parameter index="0" name="volume" parameterValue="1"/>
            <parameter index="1" name="static gain" parameterValue="1"/>
          </component>
          <component componentGuid="0449c5a2-5f87-4a72-a917-62ba68eacc3d" componentID="Audition.Mute" id="clipMute" name="Mute" powered="true">
            <parameter index="0" parameterValue="0"/>
            <parameter index="1" name="mute" parameterValue="0"/>
          </component>
          <component componentGuid="e2b52554-ab14-4cb3-a859-0d40d66a9e33" componentID="Audition.StereoPanner" id="clipPan" name="StereoPanner" powered="true">
            <parameter index="0" name="Pan" parameterValue="0"/>
          </component>
          <fadeIn crossFadeLinkType="linkedAsymmetric" endPoint="0" shape="0" startPoint="0" type="cosine"/>
          <fadeOut crossFadeLinkType="linkedAsymmetric" endPoint="20365" shape="0" startPoint="20365" type="cosine"/>
          <editParameter parameterIndex="0" slotIndex="4294967280"/>
          <editParameter parameterIndex="0" slotIndex="4294967281"/>
          <channelMap>
            <channel index="0" sourceIndex="0"/>
            <channel index="1" sourceIndex="1"/>
          </channelMap>
        </audioClip>
        <audioClip clipAutoCrossfade="true" crossFadeHeadClipID="-1" crossFadeTailClipID="-1" endPoint="10414116" fileID="2" hue="-1" id="10" lockedInTime="false" looped="false" name="200302_0209" offline="false" select="false" sourceInPoint="1833298" sourceOutPoint="1853663" startPoint="10393751" zOrder="5">
          <component componentGuid="7d5e4524-d5d6-415f-8f54-fa653990a8c9" componentID="Audition.Fader" id="clipGain" name="volume" powered="true">
            <parameter index="0" name="volume" parameterValue="1"/>
            <parameter index="1" name="static gain" parameterValue="1"/>
          </component>
          <component componentGuid="fdfb2379-797e-47e5-8eef-543d88c6b3f8" componentID="Audition.Mute" id="clipMute" name="Mute" powered="true">
            <parameter index="0" parameterValue="0"/>
            <parameter index="1" name="mute" parameterValue="0"/>
          </component>
          <component componentGuid="6191d4c8-5c62-4cc7-9a17-bfe482793b8f" componentID="Audition.StereoPanner" id="clipPan" name="StereoPanner" powered="true">
            <parameter index="0" name="Pan" parameterValue="0"/>
          </component>
          <fadeIn crossFadeLinkType="linkedAsymmetric" endPoint="0" shape="0" startPoint="0" type="cosine"/>
          <fadeOut crossFadeLinkType="linkedAsymmetric" endPoint="20365" shape="0" startPoint="20365" type="cosine"/>
          <editParameter parameterIndex="0" slotIndex="4294967280"/>
          <editParameter parameterIndex="0" slotIndex="4294967281"/>
          <channelMap>
            <channel index="0" sourceIndex="0"/>
            <channel index="1" sourceIndex="1"/>
          </channelMap>
        </audioClip>
        <audioClip clipAutoCrossfade="true" crossFadeHeadClipID="-1" crossFadeTailClipID="-1" endPoint="10462116" fileID="2" hue="-1" id="11" lockedInTime="false" looped="false" name="200302_0209" offline="false" select="false" sourceInPoint="1833298" sourceOutPoint="1853663" startPoint="10441751" zOrder="6">
          <component componentGuid="0981f121-77ef-4cc4-8deb-0c0f72a6f537" componentID="Audition.Fader" id="clipGain" name="volume" powered="true">
            <parameter index="0" name="volume" parameterValue="1"/>
            <parameter index="1" name="static gain" parameterValue="1"/>
          </component>
          <component componentGuid="41bb6d00-3646-468d-911c-456b2ae2ada9" componentID="Audition.Mute" id="clipMute" name="Mute" powered="true">
            <parameter index="0" parameterValue="0"/>
            <parameter index="1" name="mute" parameterValue="0"/>
          </component>
          <component componentGuid="f930590e-cba9-44d4-96c6-0aa5cfa842da" componentID="Audition.StereoPanner" id="clipPan" name="StereoPanner" powered="true">
            <parameter index="0" name="Pan" parameterValue="0"/>
          </component>
          <fadeIn crossFadeLinkType="linkedAsymmetric" endPoint="0" shape="0" startPoint="0" type="cosine"/>
          <fadeOut crossFadeLinkType="linkedAsymmetric" endPoint="20365" shape="0" startPoint="20365" type="cosine"/>
          <editParameter parameterIndex="0" slotIndex="4294967280"/>
          <editParameter parameterIndex="0" slotIndex="4294967281"/>
          <channelMap>
            <channel index="0" sourceIndex="0"/>
            <channel index="1" sourceIndex="1"/>
          </channelMap>
        </audioClip>
        <audioClip clipAutoCrossfade="true" crossFadeHeadClipID="-1" crossFadeTailClipID="-1" endPoint="10484365" fileID="2" hue="-1" id="12" lockedInTime="false" looped="false" name="200302_0209" offline="false" select="false" sourceInPoint="1833298" sourceOutPoint="1853663" startPoint="10464000" zOrder="19">
          <component componentGuid="0f776e1a-9540-47f8-8b81-027b3b36891e" componentID="Audition.Fader" id="clipGain" name="volume" powered="true">
            <parameter index="0" name="volume" parameterValue="1"/>
            <parameter index="1" name="static gain" parameterValue="1"/>
          </component>
          <component componentGuid="b989e8f7-4f20-4368-906c-75f53dbecafe" componentID="Audition.Mute" id="clipMute" name="Mute" powered="true">
            <parameter index="0" parameterValue="0"/>
            <parameter index="1" name="mute" parameterValue="0"/>
          </component>
          <component componentGuid="f97b2206-7b3c-40fd-847e-68ac5f67cf96" componentID="Audition.StereoPanner" id="clipPan" name="StereoPanner" powered="true">
            <parameter index="0" name="Pan" parameterValue="0"/>
          </component>
          <fadeIn crossFadeLinkType="linkedAsymmetric" endPoint="0" shape="0" startPoint="0" type="cosine"/>
          <fadeOut crossFadeLinkType="linkedAsymmetric" endPoint="20365" shape="0" startPoint="20365" type="cosine"/>
          <editParameter parameterIndex="0" slotIndex="4294967280"/>
          <editParameter parameterIndex="0" slotIndex="4294967281"/>
          <channelMap>
            <channel index="0" sourceIndex="0"/>
            <channel index="1" sourceIndex="1"/>
          </channelMap>
        </audioClip>
        <audioClip clipAutoCrossfade="true" crossFadeHeadClipID="-1" crossFadeTailClipID="-1" endPoint="10510116" fileID="2" hue="-1" id="13" lockedInTime="false" looped="false" name="200302_0209" offline="false" select="false" sourceInPoint="1833298" sourceOutPoint="1853663" startPoint="10489751" zOrder="7">
          <component componentGuid="0b3a091e-72fc-41f6-af4e-acf010eaa8db" componentID="Audition.Fader" id="clipGain" name="volume" powered="true">
            <parameter index="0" name="volume" parameterValue="1"/>
            <parameter index="1" name="static gain" parameterValue="1"/>
          </component>
          <component componentGuid="c855246c-1a24-44e5-8504-6d89becefb66" componentID="Audition.Mute" id="clipMute" name="Mute" powered="true">
            <parameter index="0" parameterValue="0"/>
            <parameter index="1" name="mute" parameterValue="0"/>
          </component>
          <component componentGuid="41db614d-f123-4d20-9bb2-51536daa3166" componentID="Audition.StereoPanner" id="clipPan" name="StereoPanner" powered="true">
            <parameter index="0" name="Pan" parameterValue="0"/>
          </component>
          <fadeIn crossFadeLinkType="linkedAsymmetric" endPoint="0" shape="0" startPoint="0" type="cosine"/>
          <fadeOut crossFadeLinkType="linkedAsymmetric" endPoint="20365" shape="0" startPoint="20365" type="cosine"/>
          <editParameter parameterIndex="0" slotIndex="4294967280"/>
          <editParameter parameterIndex="0" slotIndex="4294967281"/>
          <channelMap>
            <channel index="0" sourceIndex="0"/>
            <channel index="1" sourceIndex="1"/>
          </channelMap>
        </audioClip>
        <audioClip clipAutoCrossfade="true" crossFadeHeadClipID="-1" crossFadeTailClipID="-1" endPoint="10532365" fileID="2" hue="-1" id="14" lockedInTime="false" looped="false" name="200302_0209" offline="false" select="false" sourceInPoint="1833298" sourceOutPoint="1853663" startPoint="10512000" zOrder="20">
          <component componentGuid="afdd19a3-31d0-4b7d-9d69-419a17655a51" componentID="Audition.Fader" id="clipGain" name="volume" powered="true">
            <parameter index="0" name="volume" parameterValue="1"/>
            <parameter index="1" name="static gain" parameterValue="1"/>
          </component>
          <component componentGuid="a4b6699a-69a0-4a50-8335-523e20aaf57f" componentID="Audition.Mute" id="clipMute" name="Mute" powered="true">
            <parameter index="0" parameterValue="0"/>
            <parameter index="1" name="mute" parameterValue="0"/>
          </component>
          <component componentGuid="c2395a90-c880-402c-9338-000e646cb742" componentID="Audition.StereoPanner" id="clipPan" name="StereoPanner" powered="true">
            <parameter index="0" name="Pan" parameterValue="0"/>
          </component>
          <fadeIn crossFadeLinkType="linkedAsymmetric" endPoint="0" shape="0" startPoint="0" type="cosine"/>
          <fadeOut crossFadeLinkType="linkedAsymmetric" endPoint="20365" shape="0" startPoint="20365" type="cosine"/>
          <editParameter parameterIndex="0" slotIndex="4294967280"/>
          <editParameter parameterIndex="0" slotIndex="4294967281"/>
          <channelMap>
            <channel index="0" sourceIndex="0"/>
            <channel index="1" sourceIndex="1"/>
          </channelMap>
        </audioClip>
        <audioClip clipAutoCrossfade="true" crossFadeHeadClipID="-1" crossFadeTailClipID="-1" endPoint="10558116" fileID="2" hue="-1" id="15" lockedInTime="false" looped="false" name="200302_0209" offline="false" select="false" sourceInPoint="1833298" sourceOutPoint="1853663" startPoint="10537751" zOrder="8">
          <component componentGuid="630be4cd-927c-48d8-8d44-61b9a6dd16ba" componentID="Audition.Fader" id="clipGain" name="volume" powered="true">
            <parameter index="0" name="volume" parameterValue="1"/>
            <parameter index="1" name="static gain" parameterValue="1"/>
          </component>
          <component componentGuid="59a9a1dc-3b1b-475a-b3d8-7366253359b4" componentID="Audition.Mute" id="clipMute" name="Mute" powered="true">
            <parameter index="0" parameterValue="0"/>
            <parameter index="1" name="mute" parameterValue="0"/>
          </component>
          <component componentGuid="9c73e49b-2c13-4079-9c18-d889152f28d2" componentID="Audition.StereoPanner" id="clipPan" name="StereoPanner" powered="true">
            <parameter index="0" name="Pan" parameterValue="0"/>
          </component>
          <fadeIn crossFadeLinkType="linkedAsymmetric" endPoint="0" shape="0" startPoint="0" type="cosine"/>
          <fadeOut crossFadeLinkType="linkedAsymmetric" endPoint="20365" shape="0" startPoint="20365" type="cosine"/>
          <editParameter parameterIndex="0" slotIndex="4294967280"/>
          <editParameter parameterIndex="0" slotIndex="4294967281"/>
          <channelMap>
            <channel index="0" sourceIndex="0"/>
            <channel index="1" sourceIndex="1"/>
          </channelMap>
        </audioClip>
        <audioClip clipAutoCrossfade="true" crossFadeHeadClipID="-1" crossFadeTailClipID="-1" endPoint="10580365" fileID="2" hue="-1" id="16" lockedInTime="false" looped="false" name="200302_0209" offline="false" select="false" sourceInPoint="1833298" sourceOutPoint="1853663" startPoint="10560000" zOrder="21">
          <component componentGuid="97738528-0696-469d-b5ee-fb139afb353e" componentID="Audition.Fader" id="clipGain" name="volume" powered="true">
            <parameter index="0" name="volume" parameterValue="1"/>
            <parameter index="1" name="static gain" parameterValue="1"/>
          </component>
          <component componentGuid="58ced821-fa16-40e5-a83b-72b99ca62ad8" componentID="Audition.Mute" id="clipMute" name="Mute" powered="true">
            <parameter index="0" parameterValue="0"/>
            <parameter index="1" name="mute" parameterValue="0"/>
          </component>
          <component componentGuid="32a171e2-637e-48ef-a783-bfdc4d404782" componentID="Audition.StereoPanner" id="clipPan" name="StereoPanner" powered="true">
            <parameter index="0" name="Pan" parameterValue="0"/>
          </component>
          <fadeIn crossFadeLinkType="linkedAsymmetric" endPoint="0" shape="0" startPoint="0" type="cosine"/>
          <fadeOut crossFadeLinkType="linkedAsymmetric" endPoint="20365" shape="0" startPoint="20365" type="cosine"/>
          <editParameter parameterIndex="0" slotIndex="4294967280"/>
          <editParameter parameterIndex="0" slotIndex="4294967281"/>
          <channelMap>
            <channel index="0" sourceIndex="0"/>
            <channel index="1" sourceIndex="1"/>
          </channelMap>
        </audioClip>
        <audioClip clipAutoCrossfade="true" crossFadeHeadClipID="-1" crossFadeTailClipID="-1" endPoint="10606116" fileID="2" hue="-1" id="17" lockedInTime="false" looped="false" name="200302_0209" offline="false" select="false" sourceInPoint="1833298" sourceOutPoint="1853663" startPoint="10585751" zOrder="9">
          <component componentGuid="99514cf3-6795-4955-8b8c-19136dd3572a" componentID="Audition.Fader" id="clipGain" name="volume" powered="true">
            <parameter index="0" name="volume" parameterValue="1"/>
            <parameter index="1" name="static gain" parameterValue="1"/>
          </component>
          <component componentGuid="13edff4b-e331-473d-8929-1acc37cc2cf8" componentID="Audition.Mute" id="clipMute" name="Mute" powered="true">
            <parameter index="0" parameterValue="0"/>
            <parameter index="1" name="mute" parameterValue="0"/>
          </component>
          <component componentGuid="f3e484ec-99a1-4aad-bd25-9ad1f7742c9a" componentID="Audition.StereoPanner" id="clipPan" name="StereoPanner" powered="true">
            <parameter index="0" name="Pan" parameterValue="0"/>
          </component>
          <fadeIn crossFadeLinkType="linkedAsymmetric" endPoint="0" shape="0" startPoint="0" type="cosine"/>
          <fadeOut crossFadeLinkType="linkedAsymmetric" endPoint="20365" shape="0" startPoint="20365" type="cosine"/>
          <editParameter parameterIndex="0" slotIndex="4294967280"/>
          <editParameter parameterIndex="0" slotIndex="4294967281"/>
          <channelMap>
            <channel index="0" sourceIndex="0"/>
            <channel index="1" sourceIndex="1"/>
          </channelMap>
        </audioClip>
        <audioClip clipAutoCrossfade="true" crossFadeHeadClipID="-1" crossFadeTailClipID="-1" endPoint="10628365" fileID="2" hue="-1" id="18" lockedInTime="false" looped="false" name="200302_0209" offline="false" select="false" sourceInPoint="1833298" sourceOutPoint="1853663" startPoint="10608000" zOrder="22">
          <component componentGuid="fd599765-ae2a-4531-a0fd-814fbb70a422" componentID="Audition.Fader" id="clipGain" name="volume" powered="true">
            <parameter index="0" name="volume" parameterValue="1"/>
            <parameter index="1" name="static gain" parameterValue="1"/>
          </component>
          <component componentGuid="2d3cb0ab-b570-4a05-a4bc-3266c5320d00" componentID="Audition.Mute" id="clipMute" name="Mute" powered="true">
            <parameter index="0" parameterValue="0"/>
            <parameter index="1" name="mute" parameterValue="0"/>
          </component>
          <component componentGuid="664a3c15-7cb3-4076-85b8-6d283eb39bf8" componentID="Audition.StereoPanner" id="clipPan" name="StereoPanner" powered="true">
            <parameter index="0" name="Pan" parameterValue="0"/>
          </component>
          <fadeIn crossFadeLinkType="linkedAsymmetric" endPoint="0" shape="0" startPoint="0" type="cosine"/>
          <fadeOut crossFadeLinkType="linkedAsymmetric" endPoint="20365" shape="0" startPoint="20365" type="cosine"/>
          <editParameter parameterIndex="0" slotIndex="4294967280"/>
          <editParameter parameterIndex="0" slotIndex="4294967281"/>
          <channelMap>
            <channel index="0" sourceIndex="0"/>
            <channel index="1" sourceIndex="1"/>
          </channelMap>
        </audioClip>
        <audioClip clipAutoCrossfade="true" crossFadeHeadClipID="-1" crossFadeTailClipID="-1" endPoint="10654116" fileID="2" hue="-1" id="19" lockedInTime="false" looped="false" name="200302_0209" offline="false" select="false" sourceInPoint="1833298" sourceOutPoint="1853663" startPoint="10633751" zOrder="10">
          <component componentGuid="a7f5427c-549f-47d5-9b99-afd963c2666a" componentID="Audition.Fader" id="clipGain" name="volume" powered="true">
            <parameter index="0" name="volume" parameterValue="1"/>
            <parameter index="1" name="static gain" parameterValue="1"/>
          </component>
          <component componentGuid="a4785a73-db35-4cf0-8c5a-6c5322102218" componentID="Audition.Mute" id="clipMute" name="Mute" powered="true">
            <parameter index="0" parameterValue="0"/>
            <parameter index="1" name="mute" parameterValue="0"/>
          </component>
          <component componentGuid="2dbc2cd2-48cf-494d-ac69-cd706a732a28" componentID="Audition.StereoPanner" id="clipPan" name="StereoPanner" powered="true">
            <parameter index="0" name="Pan" parameterValue="0"/>
          </component>
          <fadeIn crossFadeLinkType="linkedAsymmetric" endPoint="0" shape="0" startPoint="0" type="cosine"/>
          <fadeOut crossFadeLinkType="linkedAsymmetric" endPoint="20365" shape="0" startPoint="20365" type="cosine"/>
          <editParameter parameterIndex="0" slotIndex="4294967280"/>
          <editParameter parameterIndex="0" slotIndex="4294967281"/>
          <channelMap>
            <channel index="0" sourceIndex="0"/>
            <channel index="1" sourceIndex="1"/>
          </channelMap>
        </audioClip>
        <audioClip clipAutoCrossfade="true" crossFadeHeadClipID="-1" crossFadeTailClipID="-1" endPoint="10676365" fileID="2" hue="-1" id="20" lockedInTime="false" looped="false" name="200302_0209" offline="false" select="false" sourceInPoint="1833298" sourceOutPoint="1853663" startPoint="10656000" zOrder="23">
          <component componentGuid="92634b8b-3520-4399-a49c-a5c84b6a0418" componentID="Audition.Fader" id="clipGain" name="volume" powered="true">
            <parameter index="0" name="volume" parameterValue="1"/>
            <parameter index="1" name="static gain" parameterValue="1"/>
          </component>
          <component componentGuid="6f249aca-8d20-4fd4-8cd8-22bce9da01a5" componentID="Audition.Mute" id="clipMute" name="Mute" powered="true">
            <parameter index="0" parameterValue="0"/>
            <parameter index="1" name="mute" parameterValue="0"/>
          </component>
          <component componentGuid="59079671-c9e9-48fd-aa47-1d54647b63b8" componentID="Audition.StereoPanner" id="clipPan" name="StereoPanner" powered="true">
            <parameter index="0" name="Pan" parameterValue="0"/>
          </component>
          <fadeIn crossFadeLinkType="linkedAsymmetric" endPoint="0" shape="0" startPoint="0" type="cosine"/>
          <fadeOut crossFadeLinkType="linkedAsymmetric" endPoint="20365" shape="0" startPoint="20365" type="cosine"/>
          <editParameter parameterIndex="0" slotIndex="4294967280"/>
          <editParameter parameterIndex="0" slotIndex="4294967281"/>
          <channelMap>
            <channel index="0" sourceIndex="0"/>
            <channel index="1" sourceIndex="1"/>
          </channelMap>
        </audioClip>
        <audioClip clipAutoCrossfade="true" crossFadeHeadClipID="-1" crossFadeTailClipID="-1" endPoint="10702116" fileID="2" hue="-1" id="21" lockedInTime="false" looped="false" name="200302_0209" offline="false" select="false" sourceInPoint="1833298" sourceOutPoint="1853663" startPoint="10681751" zOrder="11">
          <component componentGuid="e1f83048-9596-4566-ba05-71a111da1bed" componentID="Audition.Fader" id="clipGain" name="volume" powered="true">
            <parameter index="0" name="volume" parameterValue="1"/>
            <parameter index="1" name="static gain" parameterValue="1"/>
          </component>
          <component componentGuid="97f1247a-31d3-43e4-a6b7-e8887ada58ca" componentID="Audition.Mute" id="clipMute" name="Mute" powered="true">
            <parameter index="0" parameterValue="0"/>
            <parameter index="1" name="mute" parameterValue="0"/>
          </component>
          <component componentGuid="2cd054a1-44b3-46ff-a364-8745be378bfc" componentID="Audition.StereoPanner" id="clipPan" name="StereoPanner" powered="true">
            <parameter index="0" name="Pan" parameterValue="0"/>
          </component>
          <fadeIn crossFadeLinkType="linkedAsymmetric" endPoint="0" shape="0" startPoint="0" type="cosine"/>
          <fadeOut crossFadeLinkType="linkedAsymmetric" endPoint="20365" shape="0" startPoint="20365" type="cosine"/>
          <editParameter parameterIndex="0" slotIndex="4294967280"/>
          <editParameter parameterIndex="0" slotIndex="4294967281"/>
          <channelMap>
            <channel index="0" sourceIndex="0"/>
            <channel index="1" sourceIndex="1"/>
          </channelMap>
        </audioClip>
        <audioClip clipAutoCrossfade="true" crossFadeHeadClipID="-1" crossFadeTailClipID="-1" endPoint="10724365" fileID="2" hue="-1" id="22" lockedInTime="false" looped="false" name="200302_0209" offline="false" select="false" sourceInPoint="1833298" sourceOutPoint="1853663" startPoint="10704000" zOrder="24">
          <component componentGuid="48632af7-ac87-46b8-8f21-0c854f7fe09f" componentID="Audition.Fader" id="clipGain" name="volume" powered="true">
            <parameter index="0" name="volume" parameterValue="1"/>
            <parameter index="1" name="static gain" parameterValue="1"/>
          </component>
          <component componentGuid="b3a60219-b43d-40bf-961d-534fd8451993" componentID="Audition.Mute" id="clipMute" name="Mute" powered="true">
            <parameter index="0" parameterValue="0"/>
            <parameter index="1" name="mute" parameterValue="0"/>
          </component>
          <component componentGuid="807d1f42-c203-4fee-8c4b-e15fec013289" componentID="Audition.StereoPanner" id="clipPan" name="StereoPanner" powered="true">
            <parameter index="0" name="Pan" parameterValue="0"/>
          </component>
          <fadeIn crossFadeLinkType="linkedAsymmetric" endPoint="0" shape="0" startPoint="0" type="cosine"/>
          <fadeOut crossFadeLinkType="linkedAsymmetric" endPoint="20365" shape="0" startPoint="20365" type="cosine"/>
          <editParameter parameterIndex="0" slotIndex="4294967280"/>
          <editParameter parameterIndex="0" slotIndex="4294967281"/>
          <channelMap>
            <channel index="0" sourceIndex="0"/>
            <channel index="1" sourceIndex="1"/>
          </channelMap>
        </audioClip>
        <audioClip clipAutoCrossfade="true" crossFadeHeadClipID="-1" crossFadeTailClipID="-1" endPoint="10750116" fileID="2" hue="-1" id="23" lockedInTime="false" looped="false" name="200302_0209" offline="false" select="false" sourceInPoint="1833298" sourceOutPoint="1853663" startPoint="10729751" zOrder="12">
          <component componentGuid="eff92b70-4053-430a-9a7b-dbf37666235a" componentID="Audition.Fader" id="clipGain" name="volume" powered="true">
            <parameter index="0" name="volume" parameterValue="1"/>
            <parameter index="1" name="static gain" parameterValue="1"/>
          </component>
          <component componentGuid="73ba4131-f622-464e-9e6d-8b2bc99d1208" componentID="Audition.Mute" id="clipMute" name="Mute" powered="true">
            <parameter index="0" parameterValue="0"/>
            <parameter index="1" name="mute" parameterValue="0"/>
          </component>
          <component componentGuid="508e3f55-1938-4140-936a-38d13a88071f" componentID="Audition.StereoPanner" id="clipPan" name="StereoPanner" powered="true">
            <parameter index="0" name="Pan" parameterValue="0"/>
          </component>
          <fadeIn crossFadeLinkType="linkedAsymmetric" endPoint="0" shape="0" startPoint="0" type="cosine"/>
          <fadeOut crossFadeLinkType="linkedAsymmetric" endPoint="20365" shape="0" startPoint="20365" type="cosine"/>
          <editParameter parameterIndex="0" slotIndex="4294967280"/>
          <editParameter parameterIndex="0" slotIndex="4294967281"/>
          <channelMap>
            <channel index="0" sourceIndex="0"/>
            <channel index="1" sourceIndex="1"/>
          </channelMap>
        </audioClip>
        <audioClip clipAutoCrossfade="true" crossFadeHeadClipID="-1" crossFadeTailClipID="-1" endPoint="10772365" fileID="2" hue="-1" id="24" lockedInTime="false" looped="false" name="200302_0209" offline="false" select="false" sourceInPoint="1833298" sourceOutPoint="1853663" startPoint="10752000" zOrder="25">
          <component componentGuid="c9ec6bcf-7286-4371-827b-34ff30002ebe" componentID="Audition.Fader" id="clipGain" name="volume" powered="true">
            <parameter index="0" name="volume" parameterValue="1"/>
            <parameter index="1" name="static gain" parameterValue="1"/>
          </component>
          <component componentGuid="b5656a7e-53ef-448c-ab6c-5f2092fe4b45" componentID="Audition.Mute" id="clipMute" name="Mute" powered="true">
            <parameter index="0" parameterValue="0"/>
            <parameter index="1" name="mute" parameterValue="0"/>
          </component>
          <component componentGuid="72fa8ee3-7bfe-4395-b0b0-5cecaa439968" componentID="Audition.StereoPanner" id="clipPan" name="StereoPanner" powered="true">
            <parameter index="0" name="Pan" parameterValue="0"/>
          </component>
          <fadeIn crossFadeLinkType="linkedAsymmetric" endPoint="0" shape="0" startPoint="0" type="cosine"/>
          <fadeOut crossFadeLinkType="linkedAsymmetric" endPoint="20365" shape="0" startPoint="20365" type="cosine"/>
          <editParameter parameterIndex="0" slotIndex="4294967280"/>
          <editParameter parameterIndex="0" slotIndex="4294967281"/>
          <channelMap>
            <channel index="0" sourceIndex="0"/>
            <channel index="1" sourceIndex="1"/>
          </channelMap>
        </audioClip>
        <audioClip clipAutoCrossfade="true" crossFadeHeadClipID="-1" crossFadeTailClipID="-1" endPoint="10798116" fileID="2" hue="-1" id="25" lockedInTime="false" looped="false" name="200302_0209" offline="false" select="false" sourceInPoint="1833298" sourceOutPoint="1853663" startPoint="10777751" zOrder="13">
          <component componentGuid="f544eb6a-d9d2-47e5-80dd-ce134bdeee6b" componentID="Audition.Fader" id="clipGain" name="volume" powered="true">
            <parameter index="0" name="volume" parameterValue="1"/>
            <parameter index="1" name="static gain" parameterValue="1"/>
          </component>
          <component componentGuid="53d99592-4659-4e45-a487-8aa121aa232d" componentID="Audition.Mute" id="clipMute" name="Mute" powered="true">
            <parameter index="0" parameterValue="0"/>
            <parameter index="1" name="mute" parameterValue="0"/>
          </component>
          <component componentGuid="777fd38e-3e02-4d83-8a9d-7a1795da6eed" componentID="Audition.StereoPanner" id="clipPan" name="StereoPanner" powered="true">
            <parameter index="0" name="Pan" parameterValue="0"/>
          </component>
          <fadeIn crossFadeLinkType="linkedAsymmetric" endPoint="0" shape="0" startPoint="0" type="cosine"/>
          <fadeOut crossFadeLinkType="linkedAsymmetric" endPoint="20365" shape="0" startPoint="20365" type="cosine"/>
          <editParameter parameterIndex="0" slotIndex="4294967280"/>
          <editParameter parameterIndex="0" slotIndex="4294967281"/>
          <channelMap>
            <channel index="0" sourceIndex="0"/>
            <channel index="1" sourceIndex="1"/>
          </channelMap>
        </audioClip>
      </audioTrack>
      <audioTrack automationLaneOpenState="false" id="10008" index="12" select="false" visible="true">
        <trackParameters trackHeight="30" trackHue="51" trackMinimized="false">
          <name>machines R40</name>
        </trackParameters>
        <trackAudioParameters audioChannelType="stereo" automationMode="1" monitoring="false" recordArmed="false" solo="false" soloSafe="false">
          <trackOutput outputID="10000" type="trackID"/>
          <trackInput inputID="1"/>
          <component componentGuid="547dce5c-c69e-4f5f-9357-afc5a5101901" componentID="Audition.Fader" id="trackFader" name="volume" powered="true">
            <parameter index="0" name="volume" parameterValue="1"/>
            <parameter index="1" name="static gain" parameterValue="1"/>
          </component>
          <component componentGuid="09058385-0809-43c0-bdca-56dfb79133a9" componentID="Audition.Mute" id="trackMute" name="Mute" powered="true">
            <parameter index="0" parameterValue="0"/>
            <parameter index="1" name="mute" parameterValue="0"/>
          </component>
          <component componentGuid="2c81743a-dda6-4d37-9910-0169231b258a" componentID="Audition.StereoPanner" id="trackPan" name="StereoPanner" powered="true">
            <parameter index="0" name="Pan" parameterValue="40"/>
          </component>
          <component componentGuid="19f438c7-090a-40a4-a4e8-a6164ec124c7" componentID="Audition.EQ" id="trackEQ" name="EQ" powered="false">
            <parameter index="0" name="Low Shelf Frequency" parameterValue="0.000834028352983295917510986328125"/>
            <parameter index="1" name="Low Shelf Gain" parameterValue="0.5"/>
            <parameter index="2" name="High Shelf Frequency" parameterValue="0.74979150295257568359375"/>
            <parameter index="3" name="High Shelf Gain" parameterValue="0.5"/>
            <parameter index="4" name="EQ Band 1 Center Frequency" parameterValue="0.00125104258768260478973388671875"/>
            <parameter index="5" name="EQ Band 1 Q" parameterValue="0.000199989997781813144683837890625"/>
            <parameter index="6" name="EQ Band 1 Gain" parameterValue="0.5"/>
            <parameter index="7" name="EQ Band 1 Enable" parameterValue="1"/>
            <parameter index="8" name="EQ Band 2 Center Frequency" parameterValue="0.0075062550604343414306640625"/>
            <parameter index="9" name="EQ Band 2 Q" parameterValue="0.000199989997781813144683837890625"/>
            <parameter index="10" name="EQ Band 2 Gain" parameterValue="0.5"/>
            <parameter index="11" name="EQ Band 2 Enable" parameterValue="1"/>
            <parameter index="12" name="EQ Band 3 Center Frequency" parameterValue="0.0325271077454090118408203125"/>
            <parameter index="13" name="EQ Band 3 Q" parameterValue="0.000199989997781813144683837890625"/>
            <parameter index="14" name="EQ Band 3 Gain" parameterValue="0.5"/>
            <parameter index="15" name="EQ Band 3 Enable" parameterValue="1"/>
            <parameter index="16" name="EQ Band 4 Center Frequency" parameterValue="0.13261051476001739501953125"/>
            <parameter index="17" name="EQ Band 4 Q" parameterValue="0.000199989997781813144683837890625"/>
            <parameter index="18" name="EQ Band 4 Gain" parameterValue="0.5"/>
            <parameter index="19" name="EQ Band 4 Enable" parameterValue="1"/>
            <parameter index="20" name="EQ Band 5 Center Frequency" parameterValue="0.532944142818450927734375"/>
            <parameter index="21" name="EQ Band 5 Q" parameterValue="0.000199989997781813144683837890625"/>
            <parameter index="22" name="EQ Band 5 Gain" parameterValue="0.5"/>
            <parameter index="23" name="EQ Band 5 Enable" parameterValue="1"/>
            <parameter index="24" name="Master Gain" parameterValue="0.666666686534881591796875"/>
            <parameter index="25" name="ConstantQ" parameterValue="1"/>
            <parameter index="26" name="Low Shelf Filter Order" parameterValue="0"/>
            <parameter index="27" name="High Shelf Filter Order" parameterValue="0"/>
            <parameter index="28" name="Ultra-Quiet Mode" parameterValue="0"/>
            <parameter index="29" name="Low Shelf Enable" parameterValue="1"/>
            <parameter index="30" name="High Shelf Enable" parameterValue="1"/>
            <parameter index="31" name="Original Sample Rate" parameterValue="0.25"/>
            <parameter index="32" name="EQ Band 1 Bandwidth" parameterValue="0.002499990165233612060546875"/>
            <parameter index="33" name="EQ Band 2 Bandwidth" parameterValue="0.0099999904632568359375"/>
            <parameter index="34" name="EQ Band 3 Bandwidth" parameterValue="0.0399999916553497314453125"/>
            <parameter index="35" name="EQ Band 4 Bandwidth" parameterValue="0.15999998152256011962890625"/>
            <parameter index="36" name="EQ Band 5 Bandwidth" parameterValue="0.63999998569488525390625"/>
            <parameter index="37" name="High-Pass Filter Enable" parameterValue="0"/>
            <parameter index="38" name="High-Pass Cutoff Frequency" parameterValue="0"/>
            <parameter index="39" name="High-Pass Slope" parameterValue="0.4000000059604644775390625"/>
            <parameter index="40" name="Low-Pass Filter Enable" parameterValue="0"/>
            <parameter index="41" name="Low-Pass Cutoff Frequency" parameterValue="0.833194315433502197265625"/>
            <parameter index="42" name="Low-Pass Slope" parameterValue="0.4000000059604644775390625"/>
            <parameter index="43" name="Bypass" parameterValue="0"/>
            <parameter index="44" name="LowGraphRange" parameterValue="1"/>
          </component>
        </trackAudioParameters>
        <effectsRack preFader="true">
          <component componentGuid="7bcce399-07be-4994-a853-19679d3d6e09" componentID="Audition.ComponentGroup" id="rackMix" powered="true">
            <parameter index="0" parameterValue="0"/>
            <parameter index="1" parameterValue="0"/>
          </component>
          <component componentGuid="dd63fdf1-4263-4c8e-975c-2d5319df668b" id="rackInput" powered="true">
            <parameter index="0" parameterValue="1"/>
            <parameter index="1" parameterValue="0"/>
          </component>
          <component componentGuid="356be837-a457-4ac9-b861-0eb76ad42aa2" id="rackOutput" powered="true">
            <parameter index="0" parameterValue="1"/>
            <parameter index="1" parameterValue="0"/>
          </component>
          <slot powered="true" slotIndex="0">
            <component componentGuid="ab9a4d7e-6461-4f3e-a62c-c713ff9edcce" componentID="8edcd326-33de-4a4d-985b-f1bf48ed1427" name="Parametric Equalizer" presetName="Kick">
              <busConfig><![CDATA[{"in":[{"layout":[100,101],"name":"","type":0}],"out":[{"layout":[100,101],"name":"","type":0}]}]]></busConfig>
              <channelMap direction="input">
                <channel index="0" sourceIndex="0"/>
                <channel index="1" sourceIndex="1"/>
              </channelMap>
              <channelMap direction="output">
                <channel index="0" sourceIndex="0"/>
                <channel index="1" sourceIndex="1"/>
              </channelMap>
              <parameter index="0" name="Low Shelf Frequency" parameterValue="0"/>
              <parameter index="1" name="Low Shelf Gain" parameterValue="0.40625"/>
              <parameter index="2" name="High Shelf Frequency" parameterValue="0.74979174137115478515625"/>
              <parameter index="3" name="High Shelf Gain" parameterValue="0.2916670143604278564453125"/>
              <parameter index="4" name="EQ Band 1 Center Frequency" parameterValue="0.00250208633951842784881591796875"/>
              <parameter index="5" name="EQ Band 1 Q" parameterValue="0.000199989997781813144683837890625"/>
              <parameter index="6" name="EQ Band 1 Gain" parameterValue="0.53125"/>
              <parameter index="7" name="EQ Band 1 Enable" parameterValue="1"/>
              <parameter index="8" name="EQ Band 2 Center Frequency" parameterValue="0.004170137457549571990966796875"/>
              <parameter index="9" name="EQ Band 2 Q" parameterValue="0.00039999000728130340576171875"/>
              <parameter index="10" name="EQ Band 2 Gain" parameterValue="0.46875"/>
              <parameter index="11" name="EQ Band 2 Enable" parameterValue="1"/>
              <parameter index="12" name="EQ Band 3 Center Frequency" parameterValue="0.0325271375477313995361328125"/>
              <parameter index="13" name="EQ Band 3 Q" parameterValue="0.000199989997781813144683837890625"/>
              <parameter index="14" name="EQ Band 3 Gain" parameterValue="0.5"/>
              <parameter index="15" name="EQ Band 3 Enable" parameterValue="0"/>
              <parameter index="16" name="EQ Band 4 Center Frequency" parameterValue="0.102335698902606964111328125"/>
              <parameter index="17" name="EQ Band 4 Q" parameterValue="0.000199989997781813144683837890625"/>
              <parameter index="18" name="EQ Band 4 Gain" parameterValue="0.54166698455810546875"/>
              <parameter index="19" name="EQ Band 4 Enable" parameterValue="1"/>
              <parameter index="20" name="EQ Band 5 Center Frequency" parameterValue="0.53294408321380615234375"/>
              <parameter index="21" name="EQ Band 5 Q" parameterValue="0.000199989997781813144683837890625"/>
              <parameter index="22" name="EQ Band 5 Gain" parameterValue="0.5"/>
              <parameter index="23" name="EQ Band 5 Enable" parameterValue="0"/>
              <parameter index="24" name="Master Gain" parameterValue="0.66666698455810546875"/>
              <parameter index="25" name="ConstantQ" parameterValue="1"/>
              <parameter index="26" name="Low Shelf Filter Order" parameterValue="0"/>
              <parameter index="27" name="High Shelf Filter Order" parameterValue="0"/>
              <parameter index="28" name="Ultra-Quiet Mode" parameterValue="0"/>
              <parameter index="29" name="Low Shelf Enable" parameterValue="1"/>
              <parameter index="30" name="High Shelf Enable" parameterValue="1"/>
              <parameter index="31" name="Original Sample Rate" parameterValue="0.25"/>
              <parameter index="32" name="EQ Band 1 Bandwidth" parameterValue="0.0039999918080866336822509765625"/>
              <parameter index="33" name="EQ Band 2 Bandwidth" parameterValue="0.0029999874532222747802734375"/>
              <parameter index="34" name="EQ Band 3 Bandwidth" parameterValue="0.040000028908252716064453125"/>
              <parameter index="35" name="EQ Band 4 Bandwidth" parameterValue="0.12370048463344573974609375"/>
              <parameter index="36" name="EQ Band 5 Bandwidth" parameterValue="0.639999926090240478515625"/>
              <parameter index="37" name="High-Pass Filter Enable" parameterValue="0"/>
              <parameter index="38" name="High-Pass Cutoff Frequency" parameterValue="0.00076620676554739475250244140625"/>
              <parameter index="39" name="High-Pass Slope" parameterValue="0.4000000059604644775390625"/>
              <parameter index="40" name="Low-Pass Filter Enable" parameterValue="0"/>
              <parameter index="41" name="Low-Pass Cutoff Frequency" parameterValue="0.688820540904998779296875"/>
              <parameter index="42" name="Low-Pass Slope" parameterValue="0.4000000059604644775390625"/>
              <parameter index="43" name="Bypass" parameterValue="0"/>
              <parameter index="44" name="LowGraphRange" parameterValue="0"/>
            </component>
          </slot>
          <slot powered="true" slotIndex="1">
            <component componentGuid="0aa53e9a-9093-4f78-b4c8-0789967c0bb1" componentID="f14fee7d-fe5f-4202-b790-f53209e56411" name="Amplify" presetName="+6dB Boost">
              <busConfig><![CDATA[{"in":[{"layout":[100,101],"name":"","type":0}],"out":[{"layout":[100,101],"name":"","type":0}]}]]></busConfig>
              <channelMap direction="input">
                <channel index="0" sourceIndex="0"/>
                <channel index="1" sourceIndex="1"/>
              </channelMap>
              <channelMap direction="output">
                <channel index="0" sourceIndex="0"/>
                <channel index="1" sourceIndex="1"/>
              </channelMap>
              <parameter index="0" name="Channel Count" parameterValue="0.0625"/>
              <parameter index="1" name="Link Sliders" parameterValue="1"/>
              <parameter index="2" name="Left" parameterValue="0.70833301544189453125"/>
              <parameter index="3" name="Right" parameterValue="0.70833301544189453125"/>
              <parameter index="4" name="" parameterValue="0.666666686534881591796875"/>
              <parameter index="5" name="" parameterValue="0.666666686534881591796875"/>
              <parameter index="6" name="" parameterValue="0.666666686534881591796875"/>
              <parameter index="7" name="" parameterValue="0.666666686534881591796875"/>
              <parameter index="8" name="" parameterValue="0.666666686534881591796875"/>
              <parameter index="9" name="" parameterValue="0.666666686534881591796875"/>
              <parameter index="10" name="" parameterValue="0.666666686534881591796875"/>
              <parameter index="11" name="" parameterValue="0.666666686534881591796875"/>
              <parameter index="12" name="" parameterValue="0.666666686534881591796875"/>
              <parameter index="13" name="" parameterValue="0.666666686534881591796875"/>
              <parameter index="14" name="" parameterValue="0.666666686534881591796875"/>
              <parameter index="15" name="" parameterValue="0.666666686534881591796875"/>
              <parameter index="16" name="" parameterValue="0.666666686534881591796875"/>
              <parameter index="17" name="" parameterValue="0.666666686534881591796875"/>
              <parameter index="18" name="" parameterValue="0.666666686534881591796875"/>
              <parameter index="19" name="" parameterValue="0.666666686534881591796875"/>
              <parameter index="20" name="" parameterValue="0.666666686534881591796875"/>
              <parameter index="21" name="" parameterValue="0.666666686534881591796875"/>
              <parameter index="22" name="" parameterValue="0.666666686534881591796875"/>
              <parameter index="23" name="" parameterValue="0.666666686534881591796875"/>
              <parameter index="24" name="" parameterValue="0.666666686534881591796875"/>
              <parameter index="25" name="" parameterValue="0.666666686534881591796875"/>
              <parameter index="26" name="" parameterValue="0.666666686534881591796875"/>
              <parameter index="27" name="" parameterValue="0.666666686534881591796875"/>
              <parameter index="28" name="" parameterValue="0.666666686534881591796875"/>
              <parameter index="29" name="" parameterValue="0.666666686534881591796875"/>
              <parameter index="30" name="" parameterValue="0.666666686534881591796875"/>
              <parameter index="31" name="" parameterValue="0.666666686534881591796875"/>
              <parameter index="32" name="" parameterValue="0.666666686534881591796875"/>
              <parameter index="33" name="" parameterValue="0.666666686534881591796875"/>
              <parameter index="34" name="Link Keyframes" parameterValue="1"/>
            </component>
          </slot>
        </effectsRack>
        <editParameter parameterIndex="0" slotIndex="4294967280"/>
        <audioClip clipAutoCrossfade="true" crossFadeHeadClipID="-1" crossFadeTailClipID="-1" endPoint="3456000" fileID="3" hue="-1" id="0" lockedInTime="false" looped="false" name="Traffic: Varick Ave" offline="false" select="false" sourceInPoint="1362579" sourceOutPoint="2094731" startPoint="2723848" zOrder="0">
          <component componentGuid="5f49074e-068b-42bb-9efa-dffd6610dca6" componentID="Audition.Fader" id="clipGain" name="volume" powered="true">
            <parameter index="0" name="volume" parameterValue="1"/>
            <parameter index="1" name="static gain" parameterValue="1"/>
          </component>
          <component componentGuid="4fe96712-5ec9-4151-a7de-7e82bc27fcf2" componentID="Audition.Mute" id="clipMute" name="Mute" powered="true">
            <parameter index="0" parameterValue="0"/>
            <parameter index="1" name="mute" parameterValue="0"/>
          </component>
          <component componentGuid="03f26708-df99-4f0e-8251-62840a566989" componentID="Audition.StereoPanner" id="clipPan" name="StereoPanner" powered="true">
            <parameter index="0" name="Pan" parameterValue="0"/>
          </component>
          <fadeIn crossFadeLinkType="linkedAsymmetric" endPoint="60079" shape="24" startPoint="0" type="log"/>
          <fadeOut crossFadeLinkType="linkedAsymmetric" endPoint="732152" shape="19" startPoint="600146" type="log"/>
          <editParameter parameterIndex="0" slotIndex="4294967280"/>
          <editParameter parameterIndex="0" slotIndex="4294967281"/>
          <channelMap>
            <channel index="0" sourceIndex="0"/>
            <channel index="1" sourceIndex="1"/>
          </channelMap>
        </audioClip>
        <audioClip clipAutoCrossfade="true" crossFadeHeadClipID="-1" crossFadeTailClipID="-1" endPoint="8976000" fileID="2" hue="-1" id="1" lockedInTime="false" looped="false" name="200302_0209" offline="false" select="false" sourceInPoint="3380210" sourceOutPoint="3620210" startPoint="8736000" zOrder="1">
          <component componentGuid="1a1a8549-9558-4a40-a7d4-bd32048be61e" componentID="Audition.Fader" id="clipGain" name="volume" powered="true">
            <parameter index="0" name="volume" parameterValue="2.834370136260986328125"/>
            <parameter index="1" name="static gain" parameterValue="1"/>
          </component>
          <component componentGuid="668883da-cd45-47df-b5ac-257031e4c747" componentID="Audition.Mute" id="clipMute" name="Mute" powered="true">
            <parameter index="0" parameterValue="0"/>
            <parameter index="1" name="mute" parameterValue="0"/>
          </component>
          <component componentGuid="da322eb2-bdf1-42d9-8a63-15e3f5d3c951" componentID="Audition.StereoPanner" id="clipPan" name="StereoPanner" powered="true">
            <parameter index="0" name="Pan" parameterValue="0"/>
          </component>
          <fadeIn crossFadeLinkType="linkedAsymmetric" endPoint="0" shape="19" startPoint="0" type="log"/>
          <fadeOut crossFadeLinkType="linkedAsymmetric" endPoint="240000" shape="19" startPoint="240000" type="log"/>
          <editParameter parameterIndex="0" slotIndex="4294967281"/>
          <editParameter parameterIndex="0" slotIndex="4294967280"/>
          <channelMap>
            <channel index="0" sourceIndex="0"/>
            <channel index="1" sourceIndex="1"/>
          </channelMap>
        </audioClip>
        <audioClip clipAutoCrossfade="true" crossFadeHeadClipID="-1" crossFadeTailClipID="-1" endPoint="10248000" fileID="6" hue="-1" id="2" lockedInTime="false" looped="false" name="200302_0218" offline="false" select="false" sourceInPoint="855058" sourceOutPoint="1311058" startPoint="9792000" zOrder="2">
          <component componentGuid="328188de-72dd-4100-9e2a-2c3044110a74" componentID="Audition.Fader" id="clipGain" name="volume" powered="true">
            <parameter index="0" name="volume" parameterValue="0.204795539379119873046875"/>
            <parameter index="1" name="static gain" parameterValue="1"/>
          </component>
          <component componentGuid="f5610a14-60cb-4368-bfe8-70c447b330ec" componentID="Audition.Mute" id="clipMute" name="Mute" powered="true">
            <parameter index="0" parameterValue="0"/>
            <parameter index="1" name="mute" parameterValue="0"/>
          </component>
          <component componentGuid="b10c3ffd-e1bc-496b-a547-036444132982" componentID="Audition.StereoPanner" id="clipPan" name="StereoPanner" powered="true">
            <parameter index="0" name="Pan" parameterValue="0"/>
          </component>
          <fadeIn crossFadeLinkType="linkedAsymmetric" endPoint="0" shape="18" startPoint="0" type="log"/>
          <fadeOut crossFadeLinkType="linkedAsymmetric" endPoint="456000" shape="18" startPoint="456000" type="log"/>
          <editParameter parameterIndex="0" slotIndex="4294967281"/>
          <editParameter parameterIndex="0" slotIndex="4294967280"/>
          <channelMap>
            <channel index="0" sourceIndex="0"/>
            <channel index="1" sourceIndex="1"/>
          </channelMap>
        </audioClip>
        <audioClip clipAutoCrossfade="true" crossFadeHeadClipID="-1" crossFadeTailClipID="-1" endPoint="10080000" fileID="5" hue="-1" id="3" lockedInTime="false" looped="false" name="200302_0215" offline="false" select="false" sourceInPoint="3838467" sourceOutPoint="3962102" startPoint="9956365" zOrder="3">
          <component componentGuid="0debb928-6cbe-49ed-b453-304f2445f9e2" componentID="Audition.Fader" id="clipGain" name="volume" powered="true">
            <parameter index="0" name="volume" parameterValue="1"/>
            <parameter index="1" name="static gain" parameterValue="1"/>
          </component>
          <component componentGuid="d60cfac4-1980-44fb-8523-ee4f5878ca1b" componentID="Audition.Mute" id="clipMute" name="Mute" powered="true">
            <parameter index="0" parameterValue="0"/>
            <parameter index="1" name="mute" parameterValue="0"/>
          </component>
          <component componentGuid="02516a2a-22bf-4503-9a28-74321a4d1a30" componentID="Audition.StereoPanner" id="clipPan" name="StereoPanner" powered="true">
            <parameter index="0" name="Pan" parameterValue="0"/>
          </component>
          <fadeIn crossFadeLinkType="linkedAsymmetric" endPoint="0" shape="25" startPoint="0" type="log"/>
          <fadeOut crossFadeLinkType="linkedAsymmetric" endPoint="123635" shape="29" startPoint="123635" type="log"/>
          <editParameter parameterIndex="0" slotIndex="4294967280"/>
          <editParameter parameterIndex="0" slotIndex="4294967281"/>
          <channelMap>
            <channel index="0" sourceIndex="0"/>
            <channel index="1" sourceIndex="1"/>
          </channelMap>
        </audioClip>
        <audioClip clipAutoCrossfade="true" crossFadeHeadClipID="-1" crossFadeTailClipID="-1" endPoint="10216730" fileID="4" hue="-1" id="4" lockedInTime="false" looped="false" name="200302_0214" offline="false" select="false" sourceInPoint="4607340" sourceOutPoint="4699705" startPoint="10124365" zOrder="6">
          <component componentGuid="109961c9-b065-4ad4-ae52-c389749cf776" componentID="Audition.Fader" id="clipGain" name="volume" powered="true">
            <parameter index="0" name="volume" parameterValue="1"/>
            <parameter index="1" name="static gain" parameterValue="1"/>
          </component>
          <component componentGuid="517ecf1f-cfb5-44b0-9cea-78daf8633312" componentID="Audition.Mute" id="clipMute" name="Mute" powered="true">
            <parameter index="0" parameterValue="0"/>
            <parameter index="1" name="mute" parameterValue="0"/>
          </component>
          <component componentGuid="a6c1c1df-a147-423b-abc2-bca7e2bd48cc" componentID="Audition.StereoPanner" id="clipPan" name="StereoPanner" powered="true">
            <parameter index="0" name="Pan" parameterValue="0"/>
          </component>
          <fadeIn crossFadeLinkType="linkedAsymmetric" endPoint="0" shape="18" startPoint="0" type="log"/>
          <fadeOut crossFadeLinkType="linkedAsymmetric" endPoint="92365" shape="19" startPoint="92365" type="log"/>
          <editParameter parameterIndex="0" slotIndex="4294967280"/>
          <editParameter parameterIndex="0" slotIndex="4294967281"/>
          <channelMap>
            <channel index="0" sourceIndex="0"/>
            <channel index="1" sourceIndex="1"/>
          </channelMap>
        </audioClip>
        <audioClip clipAutoCrossfade="true" crossFadeHeadClipID="-1" crossFadeTailClipID="-1" endPoint="10440000" fileID="5" hue="-1" id="5" lockedInTime="false" looped="false" name="200302_0215" offline="false" select="false" sourceInPoint="3825848" sourceOutPoint="3962102" startPoint="10303746" zOrder="4">
          <component componentGuid="1f5d7097-9a96-405b-9fe8-fcfd5a40ad02" componentID="Audition.Fader" id="clipGain" name="volume" powered="true">
            <parameter index="0" name="volume" parameterValue="1"/>
            <parameter index="1" name="static gain" parameterValue="1"/>
          </component>
          <component componentGuid="9069fa00-14dc-46a6-9a00-2436f22c64d2" componentID="Audition.Mute" id="clipMute" name="Mute" powered="true">
            <parameter index="0" parameterValue="0"/>
            <parameter index="1" name="mute" parameterValue="0"/>
          </component>
          <component componentGuid="e6b44ef1-7c99-442d-8e31-bad14c113f9a" componentID="Audition.StereoPanner" id="clipPan" name="StereoPanner" powered="true">
            <parameter index="0" name="Pan" parameterValue="0"/>
          </component>
          <fadeIn crossFadeLinkType="linkedAsymmetric" endPoint="0" shape="18" startPoint="0" type="log"/>
          <fadeOut crossFadeLinkType="linkedAsymmetric" endPoint="136254" shape="19" startPoint="136254" type="log"/>
          <editParameter parameterIndex="0" slotIndex="4294967280"/>
          <editParameter parameterIndex="0" slotIndex="4294967281"/>
          <channelMap>
            <channel index="0" sourceIndex="0"/>
            <channel index="1" sourceIndex="1"/>
          </channelMap>
        </audioClip>
        <audioClip clipAutoCrossfade="true" crossFadeHeadClipID="-1" crossFadeTailClipID="-1" endPoint="10796365" fileID="6" hue="-1" id="6" lockedInTime="false" looped="false" name="200302_0218" offline="false" select="false" sourceInPoint="855058" sourceOutPoint="1187423" startPoint="10464000" zOrder="5">
          <component componentGuid="89548bfe-3552-4726-bdc0-0f16e24e6686" componentID="Audition.Fader" id="clipGain" name="volume" powered="true">
            <parameter index="0" name="volume" parameterValue="0.204795539379119873046875"/>
            <parameter index="1" name="static gain" parameterValue="1"/>
          </component>
          <component componentGuid="fc6be172-2b35-430a-b770-a357e27e19e8" componentID="Audition.Mute" id="clipMute" name="Mute" powered="true">
            <parameter index="0" parameterValue="0"/>
            <parameter index="1" name="mute" parameterValue="0"/>
          </component>
          <component componentGuid="aad00214-250d-42d1-af60-b4cb1eb662f5" componentID="Audition.StereoPanner" id="clipPan" name="StereoPanner" powered="true">
            <parameter index="0" name="Pan" parameterValue="0"/>
          </component>
          <fadeIn crossFadeLinkType="linkedAsymmetric" endPoint="0" shape="18" startPoint="0" type="log"/>
          <fadeOut crossFadeLinkType="linkedAsymmetric" endPoint="332365" shape="18" startPoint="332365" type="log"/>
          <editParameter parameterIndex="0" slotIndex="4294967281"/>
          <editParameter parameterIndex="0" slotIndex="4294967280"/>
          <channelMap>
            <channel index="0" sourceIndex="0"/>
            <channel index="1" sourceIndex="1"/>
          </channelMap>
        </audioClip>
      </audioTrack>
      <audioTrack automationLaneOpenState="false" id="10012" index="13" select="false" visible="true">
        <trackParameters trackHeight="30" trackHue="51" trackMinimized="false">
          <name>machines R100</name>
        </trackParameters>
        <trackAudioParameters audioChannelType="stereo" automationMode="1" monitoring="false" recordArmed="false" solo="false" soloSafe="false">
          <trackOutput outputID="10000" type="trackID"/>
          <trackInput inputID="1"/>
          <component componentGuid="d2f8b373-471a-40dd-ba0f-3ca9337bf3c7" componentID="Audition.Fader" id="trackFader" name="volume" powered="true">
            <parameter index="0" name="volume" parameterValue="1"/>
            <parameter index="1" name="static gain" parameterValue="1"/>
          </component>
          <component componentGuid="64aa3e04-2b17-4314-88ae-e4bc758ebfbe" componentID="Audition.Mute" id="trackMute" name="Mute" powered="true">
            <parameter index="0" parameterValue="0"/>
            <parameter index="1" name="mute" parameterValue="0"/>
          </component>
          <component componentGuid="dc6917e7-18cc-407b-a0fe-8e595b646329" componentID="Audition.StereoPanner" id="trackPan" name="StereoPanner" powered="true">
            <parameter index="0" name="Pan" parameterValue="100"/>
          </component>
          <component componentGuid="79fc84ae-78d5-45e6-bf83-5f3775f20f83" componentID="Audition.EQ" id="trackEQ" name="EQ" powered="false">
            <parameter index="0" name="Low Shelf Frequency" parameterValue="0.000834028352983295917510986328125"/>
            <parameter index="1" name="Low Shelf Gain" parameterValue="0.5"/>
            <parameter index="2" name="High Shelf Frequency" parameterValue="0.74979150295257568359375"/>
            <parameter index="3" name="High Shelf Gain" parameterValue="0.5"/>
            <parameter index="4" name="EQ Band 1 Center Frequency" parameterValue="0.00125104258768260478973388671875"/>
            <parameter index="5" name="EQ Band 1 Q" parameterValue="0.000199989997781813144683837890625"/>
            <parameter index="6" name="EQ Band 1 Gain" parameterValue="0.5"/>
            <parameter index="7" name="EQ Band 1 Enable" parameterValue="1"/>
            <parameter index="8" name="EQ Band 2 Center Frequency" parameterValue="0.0075062550604343414306640625"/>
            <parameter index="9" name="EQ Band 2 Q" parameterValue="0.000199989997781813144683837890625"/>
            <parameter index="10" name="EQ Band 2 Gain" parameterValue="0.5"/>
            <parameter index="11" name="EQ Band 2 Enable" parameterValue="1"/>
            <parameter index="12" name="EQ Band 3 Center Frequency" parameterValue="0.0325271077454090118408203125"/>
            <parameter index="13" name="EQ Band 3 Q" parameterValue="0.000199989997781813144683837890625"/>
            <parameter index="14" name="EQ Band 3 Gain" parameterValue="0.5"/>
            <parameter index="15" name="EQ Band 3 Enable" parameterValue="1"/>
            <parameter index="16" name="EQ Band 4 Center Frequency" parameterValue="0.13261051476001739501953125"/>
            <parameter index="17" name="EQ Band 4 Q" parameterValue="0.000199989997781813144683837890625"/>
            <parameter index="18" name="EQ Band 4 Gain" parameterValue="0.5"/>
            <parameter index="19" name="EQ Band 4 Enable" parameterValue="1"/>
            <parameter index="20" name="EQ Band 5 Center Frequency" parameterValue="0.532944142818450927734375"/>
            <parameter index="21" name="EQ Band 5 Q" parameterValue="0.000199989997781813144683837890625"/>
            <parameter index="22" name="EQ Band 5 Gain" parameterValue="0.5"/>
            <parameter index="23" name="EQ Band 5 Enable" parameterValue="1"/>
            <parameter index="24" name="Master Gain" parameterValue="0.666666686534881591796875"/>
            <parameter index="25" name="ConstantQ" parameterValue="1"/>
            <parameter index="26" name="Low Shelf Filter Order" parameterValue="0"/>
            <parameter index="27" name="High Shelf Filter Order" parameterValue="0"/>
            <parameter index="28" name="Ultra-Quiet Mode" parameterValue="0"/>
            <parameter index="29" name="Low Shelf Enable" parameterValue="1"/>
            <parameter index="30" name="High Shelf Enable" parameterValue="1"/>
            <parameter index="31" name="Original Sample Rate" parameterValue="0.25"/>
            <parameter index="32" name="EQ Band 1 Bandwidth" parameterValue="0.002499990165233612060546875"/>
            <parameter index="33" name="EQ Band 2 Bandwidth" parameterValue="0.0099999904632568359375"/>
            <parameter index="34" name="EQ Band 3 Bandwidth" parameterValue="0.0399999916553497314453125"/>
            <parameter index="35" name="EQ Band 4 Bandwidth" parameterValue="0.15999998152256011962890625"/>
            <parameter index="36" name="EQ Band 5 Bandwidth" parameterValue="0.63999998569488525390625"/>
            <parameter index="37" name="High-Pass Filter Enable" parameterValue="0"/>
            <parameter index="38" name="High-Pass Cutoff Frequency" parameterValue="0"/>
            <parameter index="39" name="High-Pass Slope" parameterValue="0.4000000059604644775390625"/>
            <parameter index="40" name="Low-Pass Filter Enable" parameterValue="0"/>
            <parameter index="41" name="Low-Pass Cutoff Frequency" parameterValue="0.833194315433502197265625"/>
            <parameter index="42" name="Low-Pass Slope" parameterValue="0.4000000059604644775390625"/>
            <parameter index="43" name="Bypass" parameterValue="0"/>
            <parameter index="44" name="LowGraphRange" parameterValue="1"/>
          </component>
        </trackAudioParameters>
        <effectsRack preFader="true">
          <component componentGuid="eed2903e-c3e0-4fbf-9e20-396f09a9ac37" componentID="Audition.ComponentGroup" id="rackMix" powered="true">
            <parameter index="0" parameterValue="0"/>
            <parameter index="1" parameterValue="0"/>
          </component>
          <component componentGuid="e7253c4c-f9f2-4653-933e-ded6222fefe4" id="rackInput" powered="true">
            <parameter index="0" parameterValue="1"/>
            <parameter index="1" parameterValue="0"/>
          </component>
          <component componentGuid="e559449b-f727-46bd-b954-dff2faf5709d" id="rackOutput" powered="true">
            <parameter index="0" parameterValue="1"/>
            <parameter index="1" parameterValue="0"/>
          </component>
          <slot powered="true" slotIndex="0">
            <component componentGuid="c685e841-7922-4bce-a921-cedf736c3519" componentID="8edcd326-33de-4a4d-985b-f1bf48ed1427" name="Parametric Equalizer" presetName="Kick">
              <busConfig><![CDATA[{"in":[{"layout":[100,101],"name":"","type":0}],"out":[{"layout":[100,101],"name":"","type":0}]}]]></busConfig>
              <channelMap direction="input">
                <channel index="0" sourceIndex="0"/>
                <channel index="1" sourceIndex="1"/>
              </channelMap>
              <channelMap direction="output">
                <channel index="0" sourceIndex="0"/>
                <channel index="1" sourceIndex="1"/>
              </channelMap>
              <parameter index="0" name="Low Shelf Frequency" parameterValue="0"/>
              <parameter index="1" name="Low Shelf Gain" parameterValue="0.40625"/>
              <parameter index="2" name="High Shelf Frequency" parameterValue="0.74979174137115478515625"/>
              <parameter index="3" name="High Shelf Gain" parameterValue="0.2916670143604278564453125"/>
              <parameter index="4" name="EQ Band 1 Center Frequency" parameterValue="0.00250208633951842784881591796875"/>
              <parameter index="5" name="EQ Band 1 Q" parameterValue="0.000199989997781813144683837890625"/>
              <parameter index="6" name="EQ Band 1 Gain" parameterValue="0.53125"/>
              <parameter index="7" name="EQ Band 1 Enable" parameterValue="1"/>
              <parameter index="8" name="EQ Band 2 Center Frequency" parameterValue="0.004170137457549571990966796875"/>
              <parameter index="9" name="EQ Band 2 Q" parameterValue="0.00039999000728130340576171875"/>
              <parameter index="10" name="EQ Band 2 Gain" parameterValue="0.46875"/>
              <parameter index="11" name="EQ Band 2 Enable" parameterValue="1"/>
              <parameter index="12" name="EQ Band 3 Center Frequency" parameterValue="0.0325271375477313995361328125"/>
              <parameter index="13" name="EQ Band 3 Q" parameterValue="0.000199989997781813144683837890625"/>
              <parameter index="14" name="EQ Band 3 Gain" parameterValue="0.5"/>
              <parameter index="15" name="EQ Band 3 Enable" parameterValue="0"/>
              <parameter index="16" name="EQ Band 4 Center Frequency" parameterValue="0.102335698902606964111328125"/>
              <parameter index="17" name="EQ Band 4 Q" parameterValue="0.000199989997781813144683837890625"/>
              <parameter index="18" name="EQ Band 4 Gain" parameterValue="0.54166698455810546875"/>
              <parameter index="19" name="EQ Band 4 Enable" parameterValue="1"/>
              <parameter index="20" name="EQ Band 5 Center Frequency" parameterValue="0.53294408321380615234375"/>
              <parameter index="21" name="EQ Band 5 Q" parameterValue="0.000199989997781813144683837890625"/>
              <parameter index="22" name="EQ Band 5 Gain" parameterValue="0.5"/>
              <parameter index="23" name="EQ Band 5 Enable" parameterValue="0"/>
              <parameter index="24" name="Master Gain" parameterValue="0.66666698455810546875"/>
              <parameter index="25" name="ConstantQ" parameterValue="1"/>
              <parameter index="26" name="Low Shelf Filter Order" parameterValue="0"/>
              <parameter index="27" name="High Shelf Filter Order" parameterValue="0"/>
              <parameter index="28" name="Ultra-Quiet Mode" parameterValue="0"/>
              <parameter index="29" name="Low Shelf Enable" parameterValue="1"/>
              <parameter index="30" name="High Shelf Enable" parameterValue="1"/>
              <parameter index="31" name="Original Sample Rate" parameterValue="0.25"/>
              <parameter index="32" name="EQ Band 1 Bandwidth" parameterValue="0.0039999918080866336822509765625"/>
              <parameter index="33" name="EQ Band 2 Bandwidth" parameterValue="0.0029999874532222747802734375"/>
              <parameter index="34" name="EQ Band 3 Bandwidth" parameterValue="0.040000028908252716064453125"/>
              <parameter index="35" name="EQ Band 4 Bandwidth" parameterValue="0.12370048463344573974609375"/>
              <parameter index="36" name="EQ Band 5 Bandwidth" parameterValue="0.639999926090240478515625"/>
              <parameter index="37" name="High-Pass Filter Enable" parameterValue="0"/>
              <parameter index="38" name="High-Pass Cutoff Frequency" parameterValue="0.00076620676554739475250244140625"/>
              <parameter index="39" name="High-Pass Slope" parameterValue="0.4000000059604644775390625"/>
              <parameter index="40" name="Low-Pass Filter Enable" parameterValue="0"/>
              <parameter index="41" name="Low-Pass Cutoff Frequency" parameterValue="0.688820540904998779296875"/>
              <parameter index="42" name="Low-Pass Slope" parameterValue="0.4000000059604644775390625"/>
              <parameter index="43" name="Bypass" parameterValue="0"/>
              <parameter index="44" name="LowGraphRange" parameterValue="0"/>
            </component>
          </slot>
          <slot powered="true" slotIndex="1">
            <component componentGuid="bb88ef85-3234-435b-a12d-b3d2fc2ec006" componentID="f14fee7d-fe5f-4202-b790-f53209e56411" name="Amplify" presetName="+6dB Boost">
              <busConfig><![CDATA[{"in":[{"layout":[100,101],"name":"","type":0}],"out":[{"layout":[100,101],"name":"","type":0}]}]]></busConfig>
              <channelMap direction="input">
                <channel index="0" sourceIndex="0"/>
                <channel index="1" sourceIndex="1"/>
              </channelMap>
              <channelMap direction="output">
                <channel index="0" sourceIndex="0"/>
                <channel index="1" sourceIndex="1"/>
              </channelMap>
              <parameter index="0" name="Channel Count" parameterValue="0.0625"/>
              <parameter index="1" name="Link Sliders" parameterValue="1"/>
              <parameter index="2" name="Left" parameterValue="0.70833301544189453125"/>
              <parameter index="3" name="Right" parameterValue="0.70833301544189453125"/>
              <parameter index="4" name="" parameterValue="0.666666686534881591796875"/>
              <parameter index="5" name="" parameterValue="0.666666686534881591796875"/>
              <parameter index="6" name="" parameterValue="0.666666686534881591796875"/>
              <parameter index="7" name="" parameterValue="0.666666686534881591796875"/>
              <parameter index="8" name="" parameterValue="0.666666686534881591796875"/>
              <parameter index="9" name="" parameterValue="0.666666686534881591796875"/>
              <parameter index="10" name="" parameterValue="0.666666686534881591796875"/>
              <parameter index="11" name="" parameterValue="0.666666686534881591796875"/>
              <parameter index="12" name="" parameterValue="0.666666686534881591796875"/>
              <parameter index="13" name="" parameterValue="0.666666686534881591796875"/>
              <parameter index="14" name="" parameterValue="0.666666686534881591796875"/>
              <parameter index="15" name="" parameterValue="0.666666686534881591796875"/>
              <parameter index="16" name="" parameterValue="0.666666686534881591796875"/>
              <parameter index="17" name="" parameterValue="0.666666686534881591796875"/>
              <parameter index="18" name="" parameterValue="0.666666686534881591796875"/>
              <parameter index="19" name="" parameterValue="0.666666686534881591796875"/>
              <parameter index="20" name="" parameterValue="0.666666686534881591796875"/>
              <parameter index="21" name="" parameterValue="0.666666686534881591796875"/>
              <parameter index="22" name="" parameterValue="0.666666686534881591796875"/>
              <parameter index="23" name="" parameterValue="0.666666686534881591796875"/>
              <parameter index="24" name="" parameterValue="0.666666686534881591796875"/>
              <parameter index="25" name="" parameterValue="0.666666686534881591796875"/>
              <parameter index="26" name="" parameterValue="0.666666686534881591796875"/>
              <parameter index="27" name="" parameterValue="0.666666686534881591796875"/>
              <parameter index="28" name="" parameterValue="0.666666686534881591796875"/>
              <parameter index="29" name="" parameterValue="0.666666686534881591796875"/>
              <parameter index="30" name="" parameterValue="0.666666686534881591796875"/>
              <parameter index="31" name="" parameterValue="0.666666686534881591796875"/>
              <parameter index="32" name="" parameterValue="0.666666686534881591796875"/>
              <parameter index="33" name="" parameterValue="0.666666686534881591796875"/>
              <parameter index="34" name="Link Keyframes" parameterValue="1"/>
            </component>
          </slot>
        </effectsRack>
        <editParameter parameterIndex="0" slotIndex="4294967280"/>
        <audioClip clipAutoCrossfade="true" crossFadeHeadClipID="-1" crossFadeTailClipID="1" endPoint="1840546" fileID="4" hue="-1" id="0" lockedInTime="false" looped="false" name="Metropolitan Ave Bridge" offline="false" select="false" sourceInPoint="3798477" sourceOutPoint="3960745" startPoint="1678278" zOrder="1">
          <component componentGuid="085ff4e1-b630-4490-929c-3fd1b2ce88cb" componentID="Audition.Fader" id="clipGain" name="volume" powered="true">
            <parameter index="0" name="volume" parameterValue="1"/>
            <parameter index="1" name="static gain" parameterValue="1"/>
          </component>
          <component componentGuid="cea1cd19-3aa0-404f-88ac-6d872f9fc347" componentID="Audition.Mute" id="clipMute" name="Mute" powered="true">
            <parameter index="0" parameterValue="0"/>
            <parameter index="1" name="mute" parameterValue="0"/>
          </component>
          <component componentGuid="e4ecdecf-53f5-4dd3-bd68-ea470b322337" componentID="Audition.StereoPanner" id="clipPan" name="StereoPanner" powered="true">
            <parameter index="0" name="Pan" parameterValue="0"/>
          </component>
          <fadeIn crossFadeLinkType="linkedAsymmetric" endPoint="53376" shape="19" startPoint="0" type="log"/>
          <fadeOut crossFadeLinkType="linkedAsymmetric" endPoint="162268" shape="18" startPoint="134177" type="log"/>
          <editParameter parameterIndex="0" slotIndex="4294967280"/>
          <editParameter parameterIndex="0" slotIndex="4294967281"/>
          <channelMap>
            <channel index="0" sourceIndex="0"/>
            <channel index="1" sourceIndex="1"/>
          </channelMap>
        </audioClip>
        <audioClip clipAutoCrossfade="true" crossFadeHeadClipID="0" crossFadeTailClipID="-1" endPoint="2063974" fileID="4" hue="-1" id="1" lockedInTime="false" looped="false" name="Metropolitan Ave Bridge" offline="false" select="false" sourceInPoint="4511340" sourceOutPoint="4762859" startPoint="1812455" zOrder="2">
          <component componentGuid="a9ae0c0b-9bf1-400d-b01e-de6101e3dc3b" componentID="Audition.Fader" id="clipGain" name="volume" powered="true">
            <parameter index="0" name="volume" parameterValue="1"/>
            <parameter index="1" name="static gain" parameterValue="1"/>
          </component>
          <component componentGuid="5c1b6746-59f8-4de9-b400-b0cdf8dcb0c8" componentID="Audition.Mute" id="clipMute" name="Mute" powered="true">
            <parameter index="0" parameterValue="0"/>
            <parameter index="1" name="mute" parameterValue="0"/>
          </component>
          <component componentGuid="2461f273-1350-4c7a-acf3-a7ac34297d14" componentID="Audition.StereoPanner" id="clipPan" name="StereoPanner" powered="true">
            <parameter index="0" name="Pan" parameterValue="0"/>
          </component>
          <fadeIn crossFadeLinkType="linkedAsymmetric" endPoint="28091" shape="19" startPoint="0" type="log"/>
          <fadeOut crossFadeLinkType="linkedAsymmetric" endPoint="251519" shape="19" startPoint="187770" type="log"/>
          <editParameter parameterIndex="0" slotIndex="4294967280"/>
          <editParameter parameterIndex="0" slotIndex="4294967281"/>
          <channelMap>
            <channel index="0" sourceIndex="0"/>
            <channel index="1" sourceIndex="1"/>
          </channelMap>
        </audioClip>
        <audioClip clipAutoCrossfade="true" crossFadeHeadClipID="-1" crossFadeTailClipID="-1" endPoint="2816735" fileID="5" hue="-1" id="2" lockedInTime="false" looped="false" name="Drilling sound: Morgan Ave" offline="false" select="false" sourceInPoint="246030" sourceOutPoint="566765" startPoint="2496000" zOrder="0">
          <component componentGuid="4a48e171-2c1c-4b67-85fc-340cb380ee9d" componentID="Audition.Fader" id="clipGain" name="volume" powered="true">
            <parameter index="0" name="volume" parameterValue="1"/>
            <parameter index="1" name="static gain" parameterValue="1"/>
          </component>
          <component componentGuid="2968276e-442e-434f-85cd-60507f61d421" componentID="Audition.Mute" id="clipMute" name="Mute" powered="true">
            <parameter index="0" parameterValue="0"/>
            <parameter index="1" name="mute" parameterValue="0"/>
          </component>
          <component componentGuid="65483bcd-4596-4532-90ee-56a1f1a29434" componentID="Audition.StereoPanner" id="clipPan" name="StereoPanner" powered="true">
            <parameter index="0" name="Pan" parameterValue="0"/>
          </component>
          <fadeIn crossFadeLinkType="linkedAsymmetric" endPoint="74374" shape="19" startPoint="0" type="log"/>
          <fadeOut crossFadeLinkType="linkedAsymmetric" endPoint="320735" shape="19" startPoint="264069" type="log"/>
          <editParameter parameterIndex="0" slotIndex="4294967280"/>
          <editParameter parameterIndex="0" slotIndex="4294967281"/>
          <channelMap>
            <channel index="0" sourceIndex="0"/>
            <channel index="1" sourceIndex="1"/>
          </channelMap>
        </audioClip>
        <audioClip clipAutoCrossfade="true" crossFadeHeadClipID="-1" crossFadeTailClipID="-1" endPoint="9716365" fileID="2" hue="-1" id="3" lockedInTime="false" looped="false" name="200302_0209" offline="false" select="false" sourceInPoint="1833298" sourceOutPoint="1853663" startPoint="9696000" zOrder="3">
          <component componentGuid="9379814d-f288-40cf-b410-bddb115f406a" componentID="Audition.Fader" id="clipGain" name="volume" powered="true">
            <parameter index="0" name="volume" parameterValue="1"/>
            <parameter index="1" name="static gain" parameterValue="1"/>
          </component>
          <component componentGuid="3fe159f3-f7c8-4153-8b29-66b7e168d519" componentID="Audition.Mute" id="clipMute" name="Mute" powered="true">
            <parameter index="0" parameterValue="0"/>
            <parameter index="1" name="mute" parameterValue="0"/>
          </component>
          <component componentGuid="54308a5a-e471-4e43-9856-94556640302e" componentID="Audition.StereoPanner" id="clipPan" name="StereoPanner" powered="true">
            <parameter index="0" name="Pan" parameterValue="0"/>
          </component>
          <fadeIn crossFadeLinkType="linkedAsymmetric" endPoint="0" shape="0" startPoint="0" type="cosine"/>
          <fadeOut crossFadeLinkType="linkedAsymmetric" endPoint="20365" shape="0" startPoint="20365" type="cosine"/>
          <editParameter parameterIndex="0" slotIndex="4294967280"/>
          <editParameter parameterIndex="0" slotIndex="4294967281"/>
          <channelMap>
            <channel index="0" sourceIndex="0"/>
            <channel index="1" sourceIndex="1"/>
          </channelMap>
        </audioClip>
        <audioClip clipAutoCrossfade="true" crossFadeHeadClipID="-1" crossFadeTailClipID="-1" endPoint="9740365" fileID="2" hue="-1" id="4" lockedInTime="false" looped="false" name="200302_0209" offline="false" select="false" sourceInPoint="1833298" sourceOutPoint="1853663" startPoint="9720000" zOrder="19">
          <component componentGuid="0a7bc4a6-4a6f-4da8-9fb3-f4a3186f62d8" componentID="Audition.Fader" id="clipGain" name="volume" powered="true">
            <parameter index="0" name="volume" parameterValue="1"/>
            <parameter index="1" name="static gain" parameterValue="1"/>
          </component>
          <component componentGuid="1d65038b-421a-43a9-a986-fbfba35453f3" componentID="Audition.Mute" id="clipMute" name="Mute" powered="true">
            <parameter index="0" parameterValue="0"/>
            <parameter index="1" name="mute" parameterValue="0"/>
          </component>
          <component componentGuid="a92eeccd-b4f6-4c3c-924f-84a358c4e9ea" componentID="Audition.StereoPanner" id="clipPan" name="StereoPanner" powered="true">
            <parameter index="0" name="Pan" parameterValue="0"/>
          </component>
          <fadeIn crossFadeLinkType="linkedAsymmetric" endPoint="0" shape="0" startPoint="0" type="cosine"/>
          <fadeOut crossFadeLinkType="linkedAsymmetric" endPoint="20365" shape="0" startPoint="20365" type="cosine"/>
          <editParameter parameterIndex="0" slotIndex="4294967280"/>
          <editParameter parameterIndex="0" slotIndex="4294967281"/>
          <channelMap>
            <channel index="0" sourceIndex="0"/>
            <channel index="1" sourceIndex="1"/>
          </channelMap>
        </audioClip>
        <audioClip clipAutoCrossfade="true" crossFadeHeadClipID="-1" crossFadeTailClipID="-1" endPoint="9764365" fileID="2" hue="-1" id="5" lockedInTime="false" looped="false" name="200302_0209" offline="false" select="false" sourceInPoint="1833298" sourceOutPoint="1853663" startPoint="9744000" zOrder="4">
          <component componentGuid="74ebb263-7d37-4a3a-9ad4-574bcfcbcc5e" componentID="Audition.Fader" id="clipGain" name="volume" powered="true">
            <parameter index="0" name="volume" parameterValue="1"/>
            <parameter index="1" name="static gain" parameterValue="1"/>
          </component>
          <component componentGuid="fe8409a6-682e-4853-ad0b-b46c32cd7666" componentID="Audition.Mute" id="clipMute" name="Mute" powered="true">
            <parameter index="0" parameterValue="0"/>
            <parameter index="1" name="mute" parameterValue="0"/>
          </component>
          <component componentGuid="eb84a5ef-299f-472d-b728-6a77296fae08" componentID="Audition.StereoPanner" id="clipPan" name="StereoPanner" powered="true">
            <parameter index="0" name="Pan" parameterValue="0"/>
          </component>
          <fadeIn crossFadeLinkType="linkedAsymmetric" endPoint="0" shape="0" startPoint="0" type="cosine"/>
          <fadeOut crossFadeLinkType="linkedAsymmetric" endPoint="20365" shape="0" startPoint="20365" type="cosine"/>
          <editParameter parameterIndex="0" slotIndex="4294967280"/>
          <editParameter parameterIndex="0" slotIndex="4294967281"/>
          <channelMap>
            <channel index="0" sourceIndex="0"/>
            <channel index="1" sourceIndex="1"/>
          </channelMap>
        </audioClip>
        <audioClip clipAutoCrossfade="true" crossFadeHeadClipID="-1" crossFadeTailClipID="-1" endPoint="9788365" fileID="2" hue="-1" id="6" lockedInTime="false" looped="false" name="200302_0209" offline="false" select="false" sourceInPoint="1833298" sourceOutPoint="1853663" startPoint="9768000" zOrder="20">
          <component componentGuid="38c9eb90-149e-4627-9b6b-d5185a0f824b" componentID="Audition.Fader" id="clipGain" name="volume" powered="true">
            <parameter index="0" name="volume" parameterValue="1"/>
            <parameter index="1" name="static gain" parameterValue="1"/>
          </component>
          <component componentGuid="2789df3c-c052-4f1b-85a2-4191d88eadc8" componentID="Audition.Mute" id="clipMute" name="Mute" powered="true">
            <parameter index="0" parameterValue="0"/>
            <parameter index="1" name="mute" parameterValue="0"/>
          </component>
          <component componentGuid="d2ca714e-4998-4143-b9a2-6cd1d3d0f094" componentID="Audition.StereoPanner" id="clipPan" name="StereoPanner" powered="true">
            <parameter index="0" name="Pan" parameterValue="0"/>
          </component>
          <fadeIn crossFadeLinkType="linkedAsymmetric" endPoint="0" shape="0" startPoint="0" type="cosine"/>
          <fadeOut crossFadeLinkType="linkedAsymmetric" endPoint="20365" shape="0" startPoint="20365" type="cosine"/>
          <editParameter parameterIndex="0" slotIndex="4294967280"/>
          <editParameter parameterIndex="0" slotIndex="4294967281"/>
          <channelMap>
            <channel index="0" sourceIndex="0"/>
            <channel index="1" sourceIndex="1"/>
          </channelMap>
        </audioClip>
        <audioClip clipAutoCrossfade="true" crossFadeHeadClipID="-1" crossFadeTailClipID="-1" endPoint="9812365" fileID="2" hue="-1" id="7" lockedInTime="false" looped="false" name="200302_0209" offline="false" select="false" sourceInPoint="1833298" sourceOutPoint="1853663" startPoint="9792000" zOrder="5">
          <component componentGuid="62de484d-e516-4f27-9c41-984c1d2a35ee" componentID="Audition.Fader" id="clipGain" name="volume" powered="true">
            <parameter index="0" name="volume" parameterValue="1"/>
            <parameter index="1" name="static gain" parameterValue="1"/>
          </component>
          <component componentGuid="1ed122eb-8655-4005-8604-1372c7266cf1" componentID="Audition.Mute" id="clipMute" name="Mute" powered="true">
            <parameter index="0" parameterValue="0"/>
            <parameter index="1" name="mute" parameterValue="0"/>
          </component>
          <component componentGuid="d22a6da3-643c-40d4-b1c5-9299c51ef6bc" componentID="Audition.StereoPanner" id="clipPan" name="StereoPanner" powered="true">
            <parameter index="0" name="Pan" parameterValue="0"/>
          </component>
          <fadeIn crossFadeLinkType="linkedAsymmetric" endPoint="0" shape="0" startPoint="0" type="cosine"/>
          <fadeOut crossFadeLinkType="linkedAsymmetric" endPoint="20365" shape="0" startPoint="20365" type="cosine"/>
          <editParameter parameterIndex="0" slotIndex="4294967280"/>
          <editParameter parameterIndex="0" slotIndex="4294967281"/>
          <channelMap>
            <channel index="0" sourceIndex="0"/>
            <channel index="1" sourceIndex="1"/>
          </channelMap>
        </audioClip>
        <audioClip clipAutoCrossfade="true" crossFadeHeadClipID="-1" crossFadeTailClipID="-1" endPoint="9836365" fileID="2" hue="-1" id="8" lockedInTime="false" looped="false" name="200302_0209" offline="false" select="false" sourceInPoint="1833298" sourceOutPoint="1853663" startPoint="9816000" zOrder="21">
          <component componentGuid="782da1db-30da-433e-bed8-14f571b44995" componentID="Audition.Fader" id="clipGain" name="volume" powered="true">
            <parameter index="0" name="volume" parameterValue="1"/>
            <parameter index="1" name="static gain" parameterValue="1"/>
          </component>
          <component componentGuid="0067f495-20af-465b-8561-20c5cf44c980" componentID="Audition.Mute" id="clipMute" name="Mute" powered="true">
            <parameter index="0" parameterValue="0"/>
            <parameter index="1" name="mute" parameterValue="0"/>
          </component>
          <component componentGuid="00040974-5c9c-4cca-b6d5-779fbc97397c" componentID="Audition.StereoPanner" id="clipPan" name="StereoPanner" powered="true">
            <parameter index="0" name="Pan" parameterValue="0"/>
          </component>
          <fadeIn crossFadeLinkType="linkedAsymmetric" endPoint="0" shape="0" startPoint="0" type="cosine"/>
          <fadeOut crossFadeLinkType="linkedAsymmetric" endPoint="20365" shape="0" startPoint="20365" type="cosine"/>
          <editParameter parameterIndex="0" slotIndex="4294967280"/>
          <editParameter parameterIndex="0" slotIndex="4294967281"/>
          <channelMap>
            <channel index="0" sourceIndex="0"/>
            <channel index="1" sourceIndex="1"/>
          </channelMap>
        </audioClip>
        <audioClip clipAutoCrossfade="true" crossFadeHeadClipID="-1" crossFadeTailClipID="-1" endPoint="9860365" fileID="2" hue="-1" id="9" lockedInTime="false" looped="false" name="200302_0209" offline="false" select="false" sourceInPoint="1833298" sourceOutPoint="1853663" startPoint="9840000" zOrder="6">
          <component componentGuid="e2033a82-f90a-450a-87f7-8bfbfac65fff" componentID="Audition.Fader" id="clipGain" name="volume" powered="true">
            <parameter index="0" name="volume" parameterValue="1"/>
            <parameter index="1" name="static gain" parameterValue="1"/>
          </component>
          <component componentGuid="7b517c5c-55da-41fa-808a-7462ae2e5ec0" componentID="Audition.Mute" id="clipMute" name="Mute" powered="true">
            <parameter index="0" parameterValue="0"/>
            <parameter index="1" name="mute" parameterValue="0"/>
          </component>
          <component componentGuid="991ccf91-eba9-41c8-a3c0-2fe4924d0af5" componentID="Audition.StereoPanner" id="clipPan" name="StereoPanner" powered="true">
            <parameter index="0" name="Pan" parameterValue="0"/>
          </component>
          <fadeIn crossFadeLinkType="linkedAsymmetric" endPoint="0" shape="0" startPoint="0" type="cosine"/>
          <fadeOut crossFadeLinkType="linkedAsymmetric" endPoint="20365" shape="0" startPoint="20365" type="cosine"/>
          <editParameter parameterIndex="0" slotIndex="4294967280"/>
          <editParameter parameterIndex="0" slotIndex="4294967281"/>
          <channelMap>
            <channel index="0" sourceIndex="0"/>
            <channel index="1" sourceIndex="1"/>
          </channelMap>
        </audioClip>
        <audioClip clipAutoCrossfade="true" crossFadeHeadClipID="-1" crossFadeTailClipID="-1" endPoint="9884365" fileID="2" hue="-1" id="10" lockedInTime="false" looped="false" name="200302_0209" offline="false" select="false" sourceInPoint="1833298" sourceOutPoint="1853663" startPoint="9864000" zOrder="22">
          <component componentGuid="0ac6a021-fbd3-4624-b1ff-a57aa7625667" componentID="Audition.Fader" id="clipGain" name="volume" powered="true">
            <parameter index="0" name="volume" parameterValue="1"/>
            <parameter index="1" name="static gain" parameterValue="1"/>
          </component>
          <component componentGuid="d6c35bf0-68e7-41a2-8a61-cb3e0fada41f" componentID="Audition.Mute" id="clipMute" name="Mute" powered="true">
            <parameter index="0" parameterValue="0"/>
            <parameter index="1" name="mute" parameterValue="0"/>
          </component>
          <component componentGuid="046a823e-095d-4bee-8bae-4b8694832049" componentID="Audition.StereoPanner" id="clipPan" name="StereoPanner" powered="true">
            <parameter index="0" name="Pan" parameterValue="0"/>
          </component>
          <fadeIn crossFadeLinkType="linkedAsymmetric" endPoint="0" shape="0" startPoint="0" type="cosine"/>
          <fadeOut crossFadeLinkType="linkedAsymmetric" endPoint="20365" shape="0" startPoint="20365" type="cosine"/>
          <editParameter parameterIndex="0" slotIndex="4294967280"/>
          <editParameter parameterIndex="0" slotIndex="4294967281"/>
          <channelMap>
            <channel index="0" sourceIndex="0"/>
            <channel index="1" sourceIndex="1"/>
          </channelMap>
        </audioClip>
        <audioClip clipAutoCrossfade="true" crossFadeHeadClipID="-1" crossFadeTailClipID="-1" endPoint="9908365" fileID="2" hue="-1" id="11" lockedInTime="false" looped="false" name="200302_0209" offline="false" select="false" sourceInPoint="1833298" sourceOutPoint="1853663" startPoint="9888000" zOrder="7">
          <component componentGuid="70a7f3e3-c3ca-4ccc-940d-7ebc3d76f12f" componentID="Audition.Fader" id="clipGain" name="volume" powered="true">
            <parameter index="0" name="volume" parameterValue="1"/>
            <parameter index="1" name="static gain" parameterValue="1"/>
          </component>
          <component componentGuid="127085a9-dc57-421f-aa07-7b582809a292" componentID="Audition.Mute" id="clipMute" name="Mute" powered="true">
            <parameter index="0" parameterValue="0"/>
            <parameter index="1" name="mute" parameterValue="0"/>
          </component>
          <component componentGuid="ce0981f0-05c9-4860-b0d2-2ce828d4f522" componentID="Audition.StereoPanner" id="clipPan" name="StereoPanner" powered="true">
            <parameter index="0" name="Pan" parameterValue="0"/>
          </component>
          <fadeIn crossFadeLinkType="linkedAsymmetric" endPoint="0" shape="0" startPoint="0" type="cosine"/>
          <fadeOut crossFadeLinkType="linkedAsymmetric" endPoint="20365" shape="0" startPoint="20365" type="cosine"/>
          <editParameter parameterIndex="0" slotIndex="4294967280"/>
          <editParameter parameterIndex="0" slotIndex="4294967281"/>
          <channelMap>
            <channel index="0" sourceIndex="0"/>
            <channel index="1" sourceIndex="1"/>
          </channelMap>
        </audioClip>
        <audioClip clipAutoCrossfade="true" crossFadeHeadClipID="-1" crossFadeTailClipID="-1" endPoint="9932365" fileID="2" hue="-1" id="12" lockedInTime="false" looped="false" name="200302_0209" offline="false" select="false" sourceInPoint="1833298" sourceOutPoint="1853663" startPoint="9912000" zOrder="23">
          <component componentGuid="20826f18-4487-4a5f-910e-2e424b62f10f" componentID="Audition.Fader" id="clipGain" name="volume" powered="true">
            <parameter index="0" name="volume" parameterValue="1"/>
            <parameter index="1" name="static gain" parameterValue="1"/>
          </component>
          <component componentGuid="c551acb2-e9bd-4797-9e38-7c9b84457dbc" componentID="Audition.Mute" id="clipMute" name="Mute" powered="true">
            <parameter index="0" parameterValue="0"/>
            <parameter index="1" name="mute" parameterValue="0"/>
          </component>
          <component componentGuid="4e24845e-735c-4ecd-8be0-341ac9f45318" componentID="Audition.StereoPanner" id="clipPan" name="StereoPanner" powered="true">
            <parameter index="0" name="Pan" parameterValue="0"/>
          </component>
          <fadeIn crossFadeLinkType="linkedAsymmetric" endPoint="0" shape="0" startPoint="0" type="cosine"/>
          <fadeOut crossFadeLinkType="linkedAsymmetric" endPoint="20365" shape="0" startPoint="20365" type="cosine"/>
          <editParameter parameterIndex="0" slotIndex="4294967280"/>
          <editParameter parameterIndex="0" slotIndex="4294967281"/>
          <channelMap>
            <channel index="0" sourceIndex="0"/>
            <channel index="1" sourceIndex="1"/>
          </channelMap>
        </audioClip>
        <audioClip clipAutoCrossfade="true" crossFadeHeadClipID="-1" crossFadeTailClipID="-1" endPoint="9956365" fileID="2" hue="-1" id="13" lockedInTime="false" looped="false" name="200302_0209" offline="false" select="false" sourceInPoint="1833298" sourceOutPoint="1853663" startPoint="9936000" zOrder="8">
          <component componentGuid="ac59656d-a7ea-4b58-a533-ab547743b045" componentID="Audition.Fader" id="clipGain" name="volume" powered="true">
            <parameter index="0" name="volume" parameterValue="1"/>
            <parameter index="1" name="static gain" parameterValue="1"/>
          </component>
          <component componentGuid="27e4da22-802d-4204-b31f-850bab2a9a83" componentID="Audition.Mute" id="clipMute" name="Mute" powered="true">
            <parameter index="0" parameterValue="0"/>
            <parameter index="1" name="mute" parameterValue="0"/>
          </component>
          <component componentGuid="2ae70de5-0333-4d46-ae75-c7972a2c62e5" componentID="Audition.StereoPanner" id="clipPan" name="StereoPanner" powered="true">
            <parameter index="0" name="Pan" parameterValue="0"/>
          </component>
          <fadeIn crossFadeLinkType="linkedAsymmetric" endPoint="0" shape="0" startPoint="0" type="cosine"/>
          <fadeOut crossFadeLinkType="linkedAsymmetric" endPoint="20365" shape="0" startPoint="20365" type="cosine"/>
          <editParameter parameterIndex="0" slotIndex="4294967280"/>
          <editParameter parameterIndex="0" slotIndex="4294967281"/>
          <channelMap>
            <channel index="0" sourceIndex="0"/>
            <channel index="1" sourceIndex="1"/>
          </channelMap>
        </audioClip>
        <audioClip clipAutoCrossfade="true" crossFadeHeadClipID="-1" crossFadeTailClipID="-1" endPoint="9980365" fileID="2" hue="-1" id="14" lockedInTime="false" looped="false" name="200302_0209" offline="false" select="false" sourceInPoint="1833298" sourceOutPoint="1853663" startPoint="9960000" zOrder="24">
          <component componentGuid="1681e4b8-a747-4bd9-88ae-e02ca022aa70" componentID="Audition.Fader" id="clipGain" name="volume" powered="true">
            <parameter index="0" name="volume" parameterValue="1"/>
            <parameter index="1" name="static gain" parameterValue="1"/>
          </component>
          <component componentGuid="6fbad188-2e77-4b5a-b46c-fe56e9fa0ff0" componentID="Audition.Mute" id="clipMute" name="Mute" powered="true">
            <parameter index="0" parameterValue="0"/>
            <parameter index="1" name="mute" parameterValue="0"/>
          </component>
          <component componentGuid="14548018-b6be-4391-b121-5143680ac0ae" componentID="Audition.StereoPanner" id="clipPan" name="StereoPanner" powered="true">
            <parameter index="0" name="Pan" parameterValue="0"/>
          </component>
          <fadeIn crossFadeLinkType="linkedAsymmetric" endPoint="0" shape="0" startPoint="0" type="cosine"/>
          <fadeOut crossFadeLinkType="linkedAsymmetric" endPoint="20365" shape="0" startPoint="20365" type="cosine"/>
          <editParameter parameterIndex="0" slotIndex="4294967280"/>
          <editParameter parameterIndex="0" slotIndex="4294967281"/>
          <channelMap>
            <channel index="0" sourceIndex="0"/>
            <channel index="1" sourceIndex="1"/>
          </channelMap>
        </audioClip>
        <audioClip clipAutoCrossfade="true" crossFadeHeadClipID="-1" crossFadeTailClipID="-1" endPoint="10004365" fileID="2" hue="-1" id="15" lockedInTime="false" looped="false" name="200302_0209" offline="false" select="false" sourceInPoint="1833298" sourceOutPoint="1853663" startPoint="9984000" zOrder="9">
          <component componentGuid="5403372a-0bfa-4a35-ad2a-937d955af3c4" componentID="Audition.Fader" id="clipGain" name="volume" powered="true">
            <parameter index="0" name="volume" parameterValue="1"/>
            <parameter index="1" name="static gain" parameterValue="1"/>
          </component>
          <component componentGuid="5052f0e0-a30a-4912-b420-8119872aeb50" componentID="Audition.Mute" id="clipMute" name="Mute" powered="true">
            <parameter index="0" parameterValue="0"/>
            <parameter index="1" name="mute" parameterValue="0"/>
          </component>
          <component componentGuid="60c22653-943d-4cd3-bf37-d74c4010006c" componentID="Audition.StereoPanner" id="clipPan" name="StereoPanner" powered="true">
            <parameter index="0" name="Pan" parameterValue="0"/>
          </component>
          <fadeIn crossFadeLinkType="linkedAsymmetric" endPoint="0" shape="0" startPoint="0" type="cosine"/>
          <fadeOut crossFadeLinkType="linkedAsymmetric" endPoint="20365" shape="0" startPoint="20365" type="cosine"/>
          <editParameter parameterIndex="0" slotIndex="4294967280"/>
          <editParameter parameterIndex="0" slotIndex="4294967281"/>
          <channelMap>
            <channel index="0" sourceIndex="0"/>
            <channel index="1" sourceIndex="1"/>
          </channelMap>
        </audioClip>
        <audioClip clipAutoCrossfade="true" crossFadeHeadClipID="-1" crossFadeTailClipID="-1" endPoint="10052365" fileID="2" hue="-1" id="16" lockedInTime="false" looped="false" name="200302_0209" offline="false" select="false" sourceInPoint="1833298" sourceOutPoint="1853663" startPoint="10032000" zOrder="10">
          <component componentGuid="2fafe524-f6e6-4a3a-97e1-56fe26094bb7" componentID="Audition.Fader" id="clipGain" name="volume" powered="true">
            <parameter index="0" name="volume" parameterValue="1"/>
            <parameter index="1" name="static gain" parameterValue="1"/>
          </component>
          <component componentGuid="48adc362-eda8-4151-b322-21caa8b4bbec" componentID="Audition.Mute" id="clipMute" name="Mute" powered="true">
            <parameter index="0" parameterValue="0"/>
            <parameter index="1" name="mute" parameterValue="0"/>
          </component>
          <component componentGuid="7ecd0311-5287-4fed-8b00-d579592fbee9" componentID="Audition.StereoPanner" id="clipPan" name="StereoPanner" powered="true">
            <parameter index="0" name="Pan" parameterValue="0"/>
          </component>
          <fadeIn crossFadeLinkType="linkedAsymmetric" endPoint="0" shape="0" startPoint="0" type="cosine"/>
          <fadeOut crossFadeLinkType="linkedAsymmetric" endPoint="20365" shape="0" startPoint="20365" type="cosine"/>
          <editParameter parameterIndex="0" slotIndex="4294967280"/>
          <editParameter parameterIndex="0" slotIndex="4294967281"/>
          <channelMap>
            <channel index="0" sourceIndex="0"/>
            <channel index="1" sourceIndex="1"/>
          </channelMap>
        </audioClip>
        <audioClip clipAutoCrossfade="true" crossFadeHeadClipID="-1" crossFadeTailClipID="-1" endPoint="10100365" fileID="2" hue="-1" id="17" lockedInTime="false" looped="false" name="200302_0209" offline="false" select="false" sourceInPoint="1833298" sourceOutPoint="1853663" startPoint="10080000" zOrder="11">
          <component componentGuid="0c69b620-3d9d-47c6-b656-90b49d56d44e" componentID="Audition.Fader" id="clipGain" name="volume" powered="true">
            <parameter index="0" name="volume" parameterValue="1"/>
            <parameter index="1" name="static gain" parameterValue="1"/>
          </component>
          <component componentGuid="f513b596-7773-449f-9a98-524122b5fbd1" componentID="Audition.Mute" id="clipMute" name="Mute" powered="true">
            <parameter index="0" parameterValue="0"/>
            <parameter index="1" name="mute" parameterValue="0"/>
          </component>
          <component componentGuid="fd9d1745-d87a-4843-80f3-136c85e2eec9" componentID="Audition.StereoPanner" id="clipPan" name="StereoPanner" powered="true">
            <parameter index="0" name="Pan" parameterValue="0"/>
          </component>
          <fadeIn crossFadeLinkType="linkedAsymmetric" endPoint="0" shape="0" startPoint="0" type="cosine"/>
          <fadeOut crossFadeLinkType="linkedAsymmetric" endPoint="20365" shape="0" startPoint="20365" type="cosine"/>
          <editParameter parameterIndex="0" slotIndex="4294967280"/>
          <editParameter parameterIndex="0" slotIndex="4294967281"/>
          <channelMap>
            <channel index="0" sourceIndex="0"/>
            <channel index="1" sourceIndex="1"/>
          </channelMap>
        </audioClip>
        <audioClip clipAutoCrossfade="true" crossFadeHeadClipID="-1" crossFadeTailClipID="-1" endPoint="10148365" fileID="2" hue="-1" id="18" lockedInTime="false" looped="false" name="200302_0209" offline="false" select="false" sourceInPoint="1833298" sourceOutPoint="1853663" startPoint="10128000" zOrder="12">
          <component componentGuid="3cfc3bf2-627d-41e4-ae5f-274f3ef235d6" componentID="Audition.Fader" id="clipGain" name="volume" powered="true">
            <parameter index="0" name="volume" parameterValue="1"/>
            <parameter index="1" name="static gain" parameterValue="1"/>
          </component>
          <component componentGuid="d042f256-2fd7-42af-8e27-7eed28b1b8ff" componentID="Audition.Mute" id="clipMute" name="Mute" powered="true">
            <parameter index="0" parameterValue="0"/>
            <parameter index="1" name="mute" parameterValue="0"/>
          </component>
          <component componentGuid="40533ec6-44eb-496f-a190-4510cbafe731" componentID="Audition.StereoPanner" id="clipPan" name="StereoPanner" powered="true">
            <parameter index="0" name="Pan" parameterValue="0"/>
          </component>
          <fadeIn crossFadeLinkType="linkedAsymmetric" endPoint="0" shape="0" startPoint="0" type="cosine"/>
          <fadeOut crossFadeLinkType="linkedAsymmetric" endPoint="20365" shape="0" startPoint="20365" type="cosine"/>
          <editParameter parameterIndex="0" slotIndex="4294967280"/>
          <editParameter parameterIndex="0" slotIndex="4294967281"/>
          <channelMap>
            <channel index="0" sourceIndex="0"/>
            <channel index="1" sourceIndex="1"/>
          </channelMap>
        </audioClip>
        <audioClip clipAutoCrossfade="true" crossFadeHeadClipID="-1" crossFadeTailClipID="-1" endPoint="10196365" fileID="2" hue="-1" id="19" lockedInTime="false" looped="false" name="200302_0209" offline="false" select="false" sourceInPoint="1833298" sourceOutPoint="1853663" startPoint="10176000" zOrder="13">
          <component componentGuid="102de30a-4399-40ba-b7f5-ccb30ddbe081" componentID="Audition.Fader" id="clipGain" name="volume" powered="true">
            <parameter index="0" name="volume" parameterValue="1"/>
            <parameter index="1" name="static gain" parameterValue="1"/>
          </component>
          <component componentGuid="c028003e-ffd4-4376-b119-1e7b8a1b77ab" componentID="Audition.Mute" id="clipMute" name="Mute" powered="true">
            <parameter index="0" parameterValue="0"/>
            <parameter index="1" name="mute" parameterValue="0"/>
          </component>
          <component componentGuid="850f4ba2-a3f1-4bdf-b692-e2b322b8cc0b" componentID="Audition.StereoPanner" id="clipPan" name="StereoPanner" powered="true">
            <parameter index="0" name="Pan" parameterValue="0"/>
          </component>
          <fadeIn crossFadeLinkType="linkedAsymmetric" endPoint="0" shape="0" startPoint="0" type="cosine"/>
          <fadeOut crossFadeLinkType="linkedAsymmetric" endPoint="20365" shape="0" startPoint="20365" type="cosine"/>
          <editParameter parameterIndex="0" slotIndex="4294967280"/>
          <editParameter parameterIndex="0" slotIndex="4294967281"/>
          <channelMap>
            <channel index="0" sourceIndex="0"/>
            <channel index="1" sourceIndex="1"/>
          </channelMap>
        </audioClip>
        <audioClip clipAutoCrossfade="true" crossFadeHeadClipID="-1" crossFadeTailClipID="-1" endPoint="10244365" fileID="2" hue="-1" id="20" lockedInTime="false" looped="false" name="200302_0209" offline="false" select="false" sourceInPoint="1833298" sourceOutPoint="1853663" startPoint="10224000" zOrder="14">
          <component componentGuid="1517e37e-6bc4-40b8-92ab-10fed5b2d4c6" componentID="Audition.Fader" id="clipGain" name="volume" powered="true">
            <parameter index="0" name="volume" parameterValue="1"/>
            <parameter index="1" name="static gain" parameterValue="1"/>
          </component>
          <component componentGuid="690244ca-e8d3-4cdd-89c3-59330c320028" componentID="Audition.Mute" id="clipMute" name="Mute" powered="true">
            <parameter index="0" parameterValue="0"/>
            <parameter index="1" name="mute" parameterValue="0"/>
          </component>
          <component componentGuid="f6589f34-39eb-44f1-82ca-e69d6c8785ad" componentID="Audition.StereoPanner" id="clipPan" name="StereoPanner" powered="true">
            <parameter index="0" name="Pan" parameterValue="0"/>
          </component>
          <fadeIn crossFadeLinkType="linkedAsymmetric" endPoint="0" shape="0" startPoint="0" type="cosine"/>
          <fadeOut crossFadeLinkType="linkedAsymmetric" endPoint="20365" shape="0" startPoint="20365" type="cosine"/>
          <editParameter parameterIndex="0" slotIndex="4294967280"/>
          <editParameter parameterIndex="0" slotIndex="4294967281"/>
          <channelMap>
            <channel index="0" sourceIndex="0"/>
            <channel index="1" sourceIndex="1"/>
          </channelMap>
        </audioClip>
        <audioClip clipAutoCrossfade="true" crossFadeHeadClipID="-1" crossFadeTailClipID="-1" endPoint="10292365" fileID="2" hue="-1" id="21" lockedInTime="false" looped="false" name="200302_0209" offline="false" select="false" sourceInPoint="1833298" sourceOutPoint="1853663" startPoint="10272000" zOrder="15">
          <component componentGuid="8cf08d30-383d-4963-ad85-3202d7ef6b4a" componentID="Audition.Fader" id="clipGain" name="volume" powered="true">
            <parameter index="0" name="volume" parameterValue="1"/>
            <parameter index="1" name="static gain" parameterValue="1"/>
          </component>
          <component componentGuid="fc330d3c-0f9e-459c-941e-3c22da6e5d31" componentID="Audition.Mute" id="clipMute" name="Mute" powered="true">
            <parameter index="0" parameterValue="0"/>
            <parameter index="1" name="mute" parameterValue="0"/>
          </component>
          <component componentGuid="77e0c6ed-5d21-4607-a585-62e35bb398d2" componentID="Audition.StereoPanner" id="clipPan" name="StereoPanner" powered="true">
            <parameter index="0" name="Pan" parameterValue="0"/>
          </component>
          <fadeIn crossFadeLinkType="linkedAsymmetric" endPoint="0" shape="0" startPoint="0" type="cosine"/>
          <fadeOut crossFadeLinkType="linkedAsymmetric" endPoint="20365" shape="0" startPoint="20365" type="cosine"/>
          <editParameter parameterIndex="0" slotIndex="4294967280"/>
          <editParameter parameterIndex="0" slotIndex="4294967281"/>
          <channelMap>
            <channel index="0" sourceIndex="0"/>
            <channel index="1" sourceIndex="1"/>
          </channelMap>
        </audioClip>
        <audioClip clipAutoCrossfade="true" crossFadeHeadClipID="-1" crossFadeTailClipID="-1" endPoint="10340365" fileID="2" hue="-1" id="22" lockedInTime="false" looped="false" name="200302_0209" offline="false" select="false" sourceInPoint="1833298" sourceOutPoint="1853663" startPoint="10320000" zOrder="16">
          <component componentGuid="8dc8b52d-b981-4882-9bad-c0b84960796c" componentID="Audition.Fader" id="clipGain" name="volume" powered="true">
            <parameter index="0" name="volume" parameterValue="1"/>
            <parameter index="1" name="static gain" parameterValue="1"/>
          </component>
          <component componentGuid="30fab65b-3a98-4f49-9092-900f178fa2be" componentID="Audition.Mute" id="clipMute" name="Mute" powered="true">
            <parameter index="0" parameterValue="0"/>
            <parameter index="1" name="mute" parameterValue="0"/>
          </component>
          <component componentGuid="15d1c698-52fb-4e65-92d5-705acbc73b07" componentID="Audition.StereoPanner" id="clipPan" name="StereoPanner" powered="true">
            <parameter index="0" name="Pan" parameterValue="0"/>
          </component>
          <fadeIn crossFadeLinkType="linkedAsymmetric" endPoint="0" shape="0" startPoint="0" type="cosine"/>
          <fadeOut crossFadeLinkType="linkedAsymmetric" endPoint="20365" shape="0" startPoint="20365" type="cosine"/>
          <editParameter parameterIndex="0" slotIndex="4294967280"/>
          <editParameter parameterIndex="0" slotIndex="4294967281"/>
          <channelMap>
            <channel index="0" sourceIndex="0"/>
            <channel index="1" sourceIndex="1"/>
          </channelMap>
        </audioClip>
        <audioClip clipAutoCrossfade="true" crossFadeHeadClipID="-1" crossFadeTailClipID="-1" endPoint="10388365" fileID="2" hue="-1" id="23" lockedInTime="false" looped="false" name="200302_0209" offline="false" select="false" sourceInPoint="1833298" sourceOutPoint="1853663" startPoint="10368000" zOrder="17">
          <component componentGuid="7adc7828-95f1-4d13-ad63-d97e63f14e87" componentID="Audition.Fader" id="clipGain" name="volume" powered="true">
            <parameter index="0" name="volume" parameterValue="1"/>
            <parameter index="1" name="static gain" parameterValue="1"/>
          </component>
          <component componentGuid="3e8906da-317c-48d5-ad47-1251d99a3e84" componentID="Audition.Mute" id="clipMute" name="Mute" powered="true">
            <parameter index="0" parameterValue="0"/>
            <parameter index="1" name="mute" parameterValue="0"/>
          </component>
          <component componentGuid="80d3d9c1-35d1-48d9-bcd1-24c17181464c" componentID="Audition.StereoPanner" id="clipPan" name="StereoPanner" powered="true">
            <parameter index="0" name="Pan" parameterValue="0"/>
          </component>
          <fadeIn crossFadeLinkType="linkedAsymmetric" endPoint="0" shape="0" startPoint="0" type="cosine"/>
          <fadeOut crossFadeLinkType="linkedAsymmetric" endPoint="20365" shape="0" startPoint="20365" type="cosine"/>
          <editParameter parameterIndex="0" slotIndex="4294967280"/>
          <editParameter parameterIndex="0" slotIndex="4294967281"/>
          <channelMap>
            <channel index="0" sourceIndex="0"/>
            <channel index="1" sourceIndex="1"/>
          </channelMap>
        </audioClip>
        <audioClip clipAutoCrossfade="true" crossFadeHeadClipID="-1" crossFadeTailClipID="-1" endPoint="10436365" fileID="2" hue="-1" id="24" lockedInTime="false" looped="false" name="200302_0209" offline="false" select="false" sourceInPoint="1833298" sourceOutPoint="1853663" startPoint="10416000" zOrder="18">
          <component componentGuid="e364a7a2-50ce-4548-9dc8-f9f2b13238d6" componentID="Audition.Fader" id="clipGain" name="volume" powered="true">
            <parameter index="0" name="volume" parameterValue="1"/>
            <parameter index="1" name="static gain" parameterValue="1"/>
          </component>
          <component componentGuid="32035080-b991-4d1c-a95b-51a13dfb05c9" componentID="Audition.Mute" id="clipMute" name="Mute" powered="true">
            <parameter index="0" parameterValue="0"/>
            <parameter index="1" name="mute" parameterValue="0"/>
          </component>
          <component componentGuid="a855093e-095d-480c-8397-35b67388e64e" componentID="Audition.StereoPanner" id="clipPan" name="StereoPanner" powered="true">
            <parameter index="0" name="Pan" parameterValue="0"/>
          </component>
          <fadeIn crossFadeLinkType="linkedAsymmetric" endPoint="0" shape="0" startPoint="0" type="cosine"/>
          <fadeOut crossFadeLinkType="linkedAsymmetric" endPoint="20365" shape="0" startPoint="20365" type="cosine"/>
          <editParameter parameterIndex="0" slotIndex="4294967280"/>
          <editParameter parameterIndex="0" slotIndex="4294967281"/>
          <channelMap>
            <channel index="0" sourceIndex="0"/>
            <channel index="1" sourceIndex="1"/>
          </channelMap>
        </audioClip>
      </audioTrack>
      <masterTrack automationLaneOpenState="false" id="10000" index="14" select="false" visible="true">
        <trackParameters trackHeight="30" trackHue="-1" trackMinimized="false">
          <name>Master</name>
        </trackParameters>
        <trackAudioParameters audioChannelType="stereo" automationMode="1" monitoring="false" recordArmed="false" solo="false" soloSafe="true">
          <trackOutput outputID="1" type="hardwareOutput"/>
          <trackInput inputID="-1"/>
          <component componentGuid="ce4966fe-4769-47ec-8fa8-a4c86c6a2114" componentID="Audition.Fader" id="trackFader" name="volume" powered="true">
            <parameter index="0" name="volume" parameterValue="1"/>
            <parameter index="1" name="static gain" parameterValue="1"/>
          </component>
          <component componentGuid="a77a7d96-a550-4638-a47a-eedaade46385" componentID="Audition.Mute" id="trackMute" name="Mute" powered="true">
            <parameter index="0" parameterValue="0"/>
            <parameter index="1" name="mute" parameterValue="0"/>
          </component>
          <component componentGuid="5154b730-60e0-40a1-9a21-16d1304e22d8" componentID="Audition.StereoPanner" id="trackPan" name="StereoPanner" powered="true">
            <parameter index="0" name="Pan" parameterValue="0"/>
          </component>
          <component componentGuid="326f67eb-125b-43e3-b777-7b277706a728" componentID="Audition.EQ" id="trackEQ" name="EQ" powered="false">
            <parameter index="0" name="Low Shelf Frequency" parameterValue="0.000834028352983295917510986328125"/>
            <parameter index="1" name="Low Shelf Gain" parameterValue="0.5"/>
            <parameter index="2" name="High Shelf Frequency" parameterValue="0.74979150295257568359375"/>
            <parameter index="3" name="High Shelf Gain" parameterValue="0.5"/>
            <parameter index="4" name="EQ Band 1 Center Frequency" parameterValue="0.00125104258768260478973388671875"/>
            <parameter index="5" name="EQ Band 1 Q" parameterValue="0.000199989997781813144683837890625"/>
            <parameter index="6" name="EQ Band 1 Gain" parameterValue="0.5"/>
            <parameter index="7" name="EQ Band 1 Enable" parameterValue="1"/>
            <parameter index="8" name="EQ Band 2 Center Frequency" parameterValue="0.0075062550604343414306640625"/>
            <parameter index="9" name="EQ Band 2 Q" parameterValue="0.000199989997781813144683837890625"/>
            <parameter index="10" name="EQ Band 2 Gain" parameterValue="0.5"/>
            <parameter index="11" name="EQ Band 2 Enable" parameterValue="1"/>
            <parameter index="12" name="EQ Band 3 Center Frequency" parameterValue="0.0325271077454090118408203125"/>
            <parameter index="13" name="EQ Band 3 Q" parameterValue="0.000199989997781813144683837890625"/>
            <parameter index="14" name="EQ Band 3 Gain" parameterValue="0.5"/>
            <parameter index="15" name="EQ Band 3 Enable" parameterValue="1"/>
            <parameter index="16" name="EQ Band 4 Center Frequency" parameterValue="0.13261051476001739501953125"/>
            <parameter index="17" name="EQ Band 4 Q" parameterValue="0.000199989997781813144683837890625"/>
            <parameter index="18" name="EQ Band 4 Gain" parameterValue="0.5"/>
            <parameter index="19" name="EQ Band 4 Enable" parameterValue="1"/>
            <parameter index="20" name="EQ Band 5 Center Frequency" parameterValue="0.532944142818450927734375"/>
            <parameter index="21" name="EQ Band 5 Q" parameterValue="0.000199989997781813144683837890625"/>
            <parameter index="22" name="EQ Band 5 Gain" parameterValue="0.5"/>
            <parameter index="23" name="EQ Band 5 Enable" parameterValue="1"/>
            <parameter index="24" name="Master Gain" parameterValue="0.666666686534881591796875"/>
            <parameter index="25" name="ConstantQ" parameterValue="1"/>
            <parameter index="26" name="Low Shelf Filter Order" parameterValue="0"/>
            <parameter index="27" name="High Shelf Filter Order" parameterValue="0"/>
            <parameter index="28" name="Ultra-Quiet Mode" parameterValue="0"/>
            <parameter index="29" name="Low Shelf Enable" parameterValue="1"/>
            <parameter index="30" name="High Shelf Enable" parameterValue="1"/>
            <parameter index="31" name="Original Sample Rate" parameterValue="0.25"/>
            <parameter index="32" name="EQ Band 1 Bandwidth" parameterValue="0.002499990165233612060546875"/>
            <parameter index="33" name="EQ Band 2 Bandwidth" parameterValue="0.0099999904632568359375"/>
            <parameter index="34" name="EQ Band 3 Bandwidth" parameterValue="0.0399999916553497314453125"/>
            <parameter index="35" name="EQ Band 4 Bandwidth" parameterValue="0.15999998152256011962890625"/>
            <parameter index="36" name="EQ Band 5 Bandwidth" parameterValue="0.63999998569488525390625"/>
            <parameter index="37" name="High-Pass Filter Enable" parameterValue="0"/>
            <parameter index="38" name="High-Pass Cutoff Frequency" parameterValue="0"/>
            <parameter index="39" name="High-Pass Slope" parameterValue="0.4000000059604644775390625"/>
            <parameter index="40" name="Low-Pass Filter Enable" parameterValue="0"/>
            <parameter index="41" name="Low-Pass Cutoff Frequency" parameterValue="0.833194315433502197265625"/>
            <parameter index="42" name="Low-Pass Slope" parameterValue="0.4000000059604644775390625"/>
            <parameter index="43" name="Bypass" parameterValue="0"/>
            <parameter index="44" name="LowGraphRange" parameterValue="1"/>
          </component>
        </trackAudioParameters>
        <editParameter parameterIndex="0" slotIndex="4294967280"/>
      </masterTrack>
    </tracks>
    <sessionState ctiPosition="870793" smpteStart="0">
      <selectionState selectionDuration="0" selectionStart="870793"/>
      <viewState horizontalViewDuration="2087219" horizontalViewStart="8467289" trackControlsWidth="224" verticalScrollOffset="0"/>
      <timeFormatState beatsPerBar="4" beatsPerMinute="120" customFrameRate="50" linkToDefaultTimeSettings="false" noteLength="4" subdivisions="16" timeCodeDropFrame="false" timeCodeFrameRate="50" timeCodeNTSC="false" timeFormat="timeFormatDecimal"/>
      <mixingOptionState defaultPanModeLogarithmic="false" panPower="-3" playOverlappingClips="false"/>
    </sessionState>
    <xmpMetadata><![CDATA[<?xpacket begin="﻿" id="W5M0MpCehiHzreSzNTczkc9d"?>
<x:xmpmeta xmlns:x="adobe:ns:meta/" x:xmptk="Adobe XMP Core 5.6-c148 79.164050, 2019/10/01-18:03:16        ">
   <rdf:RDF xmlns:rdf="http://www.w3.org/1999/02/22-rdf-syntax-ns#">
      <rdf:Description rdf:about=""
            xmlns:xmp="http://ns.adobe.com/xap/1.0/"
            xmlns:xmpMM="http://ns.adobe.com/xap/1.0/mm/"
            xmlns:stEvt="http://ns.adobe.com/xap/1.0/sType/ResourceEvent#"
            xmlns:stRef="http://ns.adobe.com/xap/1.0/sType/ResourceRef#"
            xmlns:dc="http://purl.org/dc/elements/1.1/"
            xmlns:AEScart="http://ns.adobe.com/aes/cart/"
            xmlns:xmpDM="http://ns.adobe.com/xmp/1.0/DynamicMedia/">
         <xmp:CreatorTool>Adobe Audition 13.0 (Macintosh)</xmp:CreatorTool>
         <xmp:CreateDate>2020-03-24T17:38:23+08:00</xmp:CreateDate>
         <xmp:MetadataDate>2020-04-07T09:17:04+08:00</xmp:MetadataDate>
         <xmp:ModifyDate>2020-04-07T09:17:04+08:00</xmp:ModifyDate>
         <xmpMM:InstanceID>xmp.iid:49c8c0ad-bd72-4efd-959e-76eeaaff1249</xmpMM:InstanceID>
         <xmpMM:DocumentID>xmp.did:858417c4-97f7-4cb3-ac91-b57496f59000</xmpMM:DocumentID>
         <xmpMM:OriginalDocumentID>xmp.did:d6434cdd-739a-4302-9c30-d1ce3cd7ebd8</xmpMM:OriginalDocumentID>
         <xmpMM:History>
            <rdf:Seq>
               <rdf:li rdf:parseType="Resource">
                  <stEvt:action>saved</stEvt:action>
                  <stEvt:instanceID>xmp.iid:d6434cdd-739a-4302-9c30-d1ce3cd7ebd8</stEvt:instanceID>
                  <stEvt:when>2020-03-24T17:38:23+08:00</stEvt:when>
                  <stEvt:softwareAgent>Adobe Audition 13.0 (Macintosh)</stEvt:softwareAgent>
                  <stEvt:changed>/metadata</stEvt:changed>
               </rdf:li>
               <rdf:li rdf:parseType="Resource">
                  <stEvt:action>saved</stEvt:action>
                  <stEvt:instanceID>xmp.iid:1351415f-de80-4b85-abf6-ab06112938a5</stEvt:instanceID>
                  <stEvt:when>2020-03-24T17:39:37+08:00</stEvt:when>
                  <stEvt:softwareAgent>Adobe Audition 13.0 (Macintosh)</stEvt:softwareAgent>
                  <stEvt:changed>/metadata</stEvt:changed>
               </rdf:li>
               <rdf:li rdf:parseType="Resource">
                  <stEvt:action>saved</stEvt:action>
                  <stEvt:instanceID>xmp.iid:937e821a-a62b-4910-b355-7d9902a59a10</stEvt:instanceID>
                  <stEvt:when>2020-03-24T17:39:37+08:00</stEvt:when>
                  <stEvt:softwareAgent>Adobe Audition 13.0 (Macintosh)</stEvt:softwareAgent>
                  <stEvt:changed>/</stEvt:changed>
               </rdf:li>
               <rdf:li rdf:parseType="Resource">
                  <stEvt:action>saved</stEvt:action>
                  <stEvt:instanceID>xmp.iid:3f6672ec-93f4-4cc1-97ab-b6a464f283af</stEvt:instanceID>
                  <stEvt:when>2020-03-24T17:44:05+08:00</stEvt:when>
                  <stEvt:softwareAgent>Adobe Audition 13.0 (Macintosh)</stEvt:softwareAgent>
                  <stEvt:changed>/metadata</stEvt:changed>
               </rdf:li>
               <rdf:li rdf:parseType="Resource">
                  <stEvt:action>saved</stEvt:action>
                  <stEvt:instanceID>xmp.iid:0b5acfe6-d650-4aa2-8c98-4faa1b9ef853</stEvt:instanceID>
                  <stEvt:when>2020-03-24T17:44:05+08:00</stEvt:when>
                  <stEvt:softwareAgent>Adobe Audition 13.0 (Macintosh)</stEvt:softwareAgent>
                  <stEvt:changed>/</stEvt:changed>
               </rdf:li>
               <rdf:li rdf:parseType="Resource">
                  <stEvt:action>saved</stEvt:action>
                  <stEvt:instanceID>xmp.iid:d7970e06-a605-4fb9-8e6b-542d4731cf48</stEvt:instanceID>
                  <stEvt:when>2020-03-24T17:44:25+08:00</stEvt:when>
                  <stEvt:softwareAgent>Adobe Audition 13.0 (Macintosh)</stEvt:softwareAgent>
                  <stEvt:changed>/metadata</stEvt:changed>
               </rdf:li>
               <rdf:li rdf:parseType="Resource">
                  <stEvt:action>saved</stEvt:action>
                  <stEvt:instanceID>xmp.iid:3bf4563f-711c-4e3e-a544-7ce46db98d3b</stEvt:instanceID>
                  <stEvt:when>2020-03-24T17:44:25+08:00</stEvt:when>
                  <stEvt:softwareAgent>Adobe Audition 13.0 (Macintosh)</stEvt:softwareAgent>
                  <stEvt:changed>/</stEvt:changed>
               </rdf:li>
               <rdf:li rdf:parseType="Resource">
                  <stEvt:action>saved</stEvt:action>
                  <stEvt:instanceID>xmp.iid:52380283-37d9-4442-9afc-b942d5acface</stEvt:instanceID>
                  <stEvt:when>2020-03-24T17:45:28+08:00</stEvt:when>
                  <stEvt:softwareAgent>Adobe Audition 13.0 (Macintosh)</stEvt:softwareAgent>
                  <stEvt:changed>/metadata</stEvt:changed>
               </rdf:li>
               <rdf:li rdf:parseType="Resource">
                  <stEvt:action>saved</stEvt:action>
                  <stEvt:instanceID>xmp.iid:487a24b7-bf7d-4801-a4f8-bacfaa5ec652</stEvt:instanceID>
                  <stEvt:when>2020-03-24T17:45:28+08:00</stEvt:when>
                  <stEvt:softwareAgent>Adobe Audition 13.0 (Macintosh)</stEvt:softwareAgent>
                  <stEvt:changed>/</stEvt:changed>
               </rdf:li>
               <rdf:li rdf:parseType="Resource">
                  <stEvt:action>saved</stEvt:action>
                  <stEvt:instanceID>xmp.iid:6a6f9a03-3ff8-4855-aea8-b67fc8317181</stEvt:instanceID>
                  <stEvt:when>2020-03-24T17:48:23+08:00</stEvt:when>
                  <stEvt:softwareAgent>Adobe Audition 13.0 (Macintosh)</stEvt:softwareAgent>
                  <stEvt:changed>/metadata</stEvt:changed>
               </rdf:li>
               <rdf:li rdf:parseType="Resource">
                  <stEvt:action>saved</stEvt:action>
                  <stEvt:instanceID>xmp.iid:e454fa52-3dcf-4b4d-8c45-48310937505d</stEvt:instanceID>
                  <stEvt:when>2020-03-24T17:48:23+08:00</stEvt:when>
                  <stEvt:softwareAgent>Adobe Audition 13.0 (Macintosh)</stEvt:softwareAgent>
                  <stEvt:changed>/</stEvt:changed>
               </rdf:li>
               <rdf:li rdf:parseType="Resource">
                  <stEvt:action>saved</stEvt:action>
                  <stEvt:instanceID>xmp.iid:cc12b433-51e4-4228-bc75-a85c59a04a19</stEvt:instanceID>
                  <stEvt:when>2020-03-24T19:06:29+08:00</stEvt:when>
                  <stEvt:softwareAgent>Adobe Audition 13.0 (Macintosh)</stEvt:softwareAgent>
                  <stEvt:changed>/metadata</stEvt:changed>
               </rdf:li>
               <rdf:li rdf:parseType="Resource">
                  <stEvt:action>saved</stEvt:action>
                  <stEvt:instanceID>xmp.iid:f1e80536-7f67-4908-8815-17f73c2c44f8</stEvt:instanceID>
                  <stEvt:when>2020-03-24T19:06:29+08:00</stEvt:when>
                  <stEvt:softwareAgent>Adobe Audition 13.0 (Macintosh)</stEvt:softwareAgent>
                  <stEvt:changed>/</stEvt:changed>
               </rdf:li>
               <rdf:li rdf:parseType="Resource">
                  <stEvt:action>saved</stEvt:action>
                  <stEvt:instanceID>xmp.iid:e0237455-8a5b-46a8-8701-625621c828aa</stEvt:instanceID>
                  <stEvt:when>2020-03-24T19:06:51+08:00</stEvt:when>
                  <stEvt:softwareAgent>Adobe Audition 13.0 (Macintosh)</stEvt:softwareAgent>
                  <stEvt:changed>/metadata</stEvt:changed>
               </rdf:li>
               <rdf:li rdf:parseType="Resource">
                  <stEvt:action>saved</stEvt:action>
                  <stEvt:instanceID>xmp.iid:8e355c24-a73d-4f8b-973c-92d1c4c3e5d7</stEvt:instanceID>
                  <stEvt:when>2020-03-24T19:06:51+08:00</stEvt:when>
                  <stEvt:softwareAgent>Adobe Audition 13.0 (Macintosh)</stEvt:softwareAgent>
                  <stEvt:changed>/</stEvt:changed>
               </rdf:li>
               <rdf:li rdf:parseType="Resource">
                  <stEvt:action>saved</stEvt:action>
                  <stEvt:instanceID>xmp.iid:41149d20-16b1-4c48-8472-e5fe2ec222ca</stEvt:instanceID>
                  <stEvt:when>2020-03-24T19:07:22+08:00</stEvt:when>
                  <stEvt:softwareAgent>Adobe Audition 13.0 (Macintosh)</stEvt:softwareAgent>
                  <stEvt:changed>/metadata</stEvt:changed>
               </rdf:li>
               <rdf:li rdf:parseType="Resource">
                  <stEvt:action>saved</stEvt:action>
                  <stEvt:instanceID>xmp.iid:e092d884-e4b1-4311-b93c-ed0e21d65e84</stEvt:instanceID>
                  <stEvt:when>2020-03-24T19:07:22+08:00</stEvt:when>
                  <stEvt:softwareAgent>Adobe Audition 13.0 (Macintosh)</stEvt:softwareAgent>
                  <stEvt:changed>/</stEvt:changed>
               </rdf:li>
               <rdf:li rdf:parseType="Resource">
                  <stEvt:action>saved</stEvt:action>
                  <stEvt:instanceID>xmp.iid:d4b4c182-a8ec-4e2a-a05e-0f084c73cc00</stEvt:instanceID>
                  <stEvt:when>2020-03-24T19:07:40+08:00</stEvt:when>
                  <stEvt:softwareAgent>Adobe Audition 13.0 (Macintosh)</stEvt:softwareAgent>
                  <stEvt:changed>/metadata</stEvt:changed>
               </rdf:li>
               <rdf:li rdf:parseType="Resource">
                  <stEvt:action>saved</stEvt:action>
                  <stEvt:instanceID>xmp.iid:7e9e1a4f-66e6-42cf-97c6-2d046ccf34d5</stEvt:instanceID>
                  <stEvt:when>2020-03-24T19:07:40+08:00</stEvt:when>
                  <stEvt:softwareAgent>Adobe Audition 13.0 (Macintosh)</stEvt:softwareAgent>
                  <stEvt:changed>/</stEvt:changed>
               </rdf:li>
               <rdf:li rdf:parseType="Resource">
                  <stEvt:action>saved</stEvt:action>
                  <stEvt:instanceID>xmp.iid:4dadc617-236a-48ea-9037-aba316ffe556</stEvt:instanceID>
                  <stEvt:when>2020-03-24T19:20:48+08:00</stEvt:when>
                  <stEvt:softwareAgent>Adobe Audition 13.0 (Macintosh)</stEvt:softwareAgent>
                  <stEvt:changed>/metadata</stEvt:changed>
               </rdf:li>
               <rdf:li rdf:parseType="Resource">
                  <stEvt:action>saved</stEvt:action>
                  <stEvt:instanceID>xmp.iid:dc651007-6e60-4d47-b61b-14726b29f108</stEvt:instanceID>
                  <stEvt:when>2020-03-24T19:20:48+08:00</stEvt:when>
                  <stEvt:softwareAgent>Adobe Audition 13.0 (Macintosh)</stEvt:softwareAgent>
                  <stEvt:changed>/</stEvt:changed>
               </rdf:li>
               <rdf:li rdf:parseType="Resource">
                  <stEvt:action>saved</stEvt:action>
                  <stEvt:instanceID>xmp.iid:1bd6562f-646a-48d6-bbf1-866ac79b810c</stEvt:instanceID>
                  <stEvt:when>2020-03-24T19:31:12+08:00</stEvt:when>
                  <stEvt:softwareAgent>Adobe Audition 13.0 (Macintosh)</stEvt:softwareAgent>
                  <stEvt:changed>/metadata</stEvt:changed>
               </rdf:li>
               <rdf:li rdf:parseType="Resource">
                  <stEvt:action>saved</stEvt:action>
                  <stEvt:instanceID>xmp.iid:4f712a64-8e11-43e9-8161-5ea0625be843</stEvt:instanceID>
                  <stEvt:when>2020-03-24T19:31:12+08:00</stEvt:when>
                  <stEvt:softwareAgent>Adobe Audition 13.0 (Macintosh)</stEvt:softwareAgent>
                  <stEvt:changed>/</stEvt:changed>
               </rdf:li>
               <rdf:li rdf:parseType="Resource">
                  <stEvt:action>saved</stEvt:action>
                  <stEvt:instanceID>xmp.iid:d3eb7d14-7493-492b-9d22-16ac4c34e585</stEvt:instanceID>
                  <stEvt:when>2020-03-24T21:50:43+08:00</stEvt:when>
                  <stEvt:softwareAgent>Adobe Audition 13.0 (Macintosh)</stEvt:softwareAgent>
                  <stEvt:changed>/metadata</stEvt:changed>
               </rdf:li>
               <rdf:li rdf:parseType="Resource">
                  <stEvt:action>saved</stEvt:action>
                  <stEvt:instanceID>xmp.iid:8bddcd78-2b5a-40f3-aee4-739e3013e836</stEvt:instanceID>
                  <stEvt:when>2020-03-24T21:50:43+08:00</stEvt:when>
                  <stEvt:softwareAgent>Adobe Audition 13.0 (Macintosh)</stEvt:softwareAgent>
                  <stEvt:changed>/</stEvt:changed>
               </rdf:li>
               <rdf:li rdf:parseType="Resource">
                  <stEvt:action>saved</stEvt:action>
                  <stEvt:instanceID>xmp.iid:2bee01b5-9a27-49ef-a2b3-6301d80bfd23</stEvt:instanceID>
                  <stEvt:when>2020-03-25T00:14:48+08:00</stEvt:when>
                  <stEvt:softwareAgent>Adobe Audition 13.0 (Macintosh)</stEvt:softwareAgent>
                  <stEvt:changed>/metadata</stEvt:changed>
               </rdf:li>
               <rdf:li rdf:parseType="Resource">
                  <stEvt:action>saved</stEvt:action>
                  <stEvt:instanceID>xmp.iid:407c1ffb-7b7b-4dcb-ac14-d5ca5e8b5570</stEvt:instanceID>
                  <stEvt:when>2020-03-25T00:14:48+08:00</stEvt:when>
                  <stEvt:softwareAgent>Adobe Audition 13.0 (Macintosh)</stEvt:softwareAgent>
                  <stEvt:changed>/</stEvt:changed>
               </rdf:li>
               <rdf:li rdf:parseType="Resource">
                  <stEvt:action>saved</stEvt:action>
                  <stEvt:instanceID>xmp.iid:e253df45-d693-4ece-99b4-1ad8f2d850d2</stEvt:instanceID>
                  <stEvt:when>2020-03-25T00:15:57+08:00</stEvt:when>
                  <stEvt:softwareAgent>Adobe Audition 13.0 (Macintosh)</stEvt:softwareAgent>
                  <stEvt:changed>/metadata</stEvt:changed>
               </rdf:li>
               <rdf:li rdf:parseType="Resource">
                  <stEvt:action>saved</stEvt:action>
                  <stEvt:instanceID>xmp.iid:de9cda72-18bc-4872-a9fa-670606363e07</stEvt:instanceID>
                  <stEvt:when>2020-03-25T00:15:57+08:00</stEvt:when>
                  <stEvt:softwareAgent>Adobe Audition 13.0 (Macintosh)</stEvt:softwareAgent>
                  <stEvt:changed>/</stEvt:changed>
               </rdf:li>
               <rdf:li rdf:parseType="Resource">
                  <stEvt:action>saved</stEvt:action>
                  <stEvt:instanceID>xmp.iid:d8bd9437-cda2-4860-8ccb-d7b963db6629</stEvt:instanceID>
                  <stEvt:when>2020-03-25T00:20:39+08:00</stEvt:when>
                  <stEvt:softwareAgent>Adobe Audition 13.0 (Macintosh)</stEvt:softwareAgent>
                  <stEvt:changed>/metadata</stEvt:changed>
               </rdf:li>
               <rdf:li rdf:parseType="Resource">
                  <stEvt:action>saved</stEvt:action>
                  <stEvt:instanceID>xmp.iid:c549f0fd-0864-4bee-afc0-cf8ff16369ef</stEvt:instanceID>
                  <stEvt:when>2020-03-25T00:20:39+08:00</stEvt:when>
                  <stEvt:softwareAgent>Adobe Audition 13.0 (Macintosh)</stEvt:softwareAgent>
                  <stEvt:changed>/</stEvt:changed>
               </rdf:li>
               <rdf:li rdf:parseType="Resource">
                  <stEvt:action>saved</stEvt:action>
                  <stEvt:instanceID>xmp.iid:b7d954c9-a879-44b5-b985-65b9549f3695</stEvt:instanceID>
                  <stEvt:when>2020-03-25T00:20:52+08:00</stEvt:when>
                  <stEvt:softwareAgent>Adobe Audition 13.0 (Macintosh)</stEvt:softwareAgent>
                  <stEvt:changed>/metadata</stEvt:changed>
               </rdf:li>
               <rdf:li rdf:parseType="Resource">
                  <stEvt:action>saved</stEvt:action>
                  <stEvt:instanceID>xmp.iid:c4d02a7a-e0f7-4ac6-9cae-6fc0d75a9a64</stEvt:instanceID>
                  <stEvt:when>2020-03-25T00:20:52+08:00</stEvt:when>
                  <stEvt:softwareAgent>Adobe Audition 13.0 (Macintosh)</stEvt:softwareAgent>
                  <stEvt:changed>/</stEvt:changed>
               </rdf:li>
               <rdf:li rdf:parseType="Resource">
                  <stEvt:action>saved</stEvt:action>
                  <stEvt:instanceID>xmp.iid:20a4922a-a822-48b8-9445-88b5183a0858</stEvt:instanceID>
                  <stEvt:when>2020-03-25T00:26:25+08:00</stEvt:when>
                  <stEvt:softwareAgent>Adobe Audition 13.0 (Macintosh)</stEvt:softwareAgent>
                  <stEvt:changed>/metadata</stEvt:changed>
               </rdf:li>
               <rdf:li rdf:parseType="Resource">
                  <stEvt:action>saved</stEvt:action>
                  <stEvt:instanceID>xmp.iid:9dcdc987-4038-4d9f-b883-584c4a60e565</stEvt:instanceID>
                  <stEvt:when>2020-03-25T00:26:25+08:00</stEvt:when>
                  <stEvt:softwareAgent>Adobe Audition 13.0 (Macintosh)</stEvt:softwareAgent>
                  <stEvt:changed>/</stEvt:changed>
               </rdf:li>
               <rdf:li rdf:parseType="Resource">
                  <stEvt:action>saved</stEvt:action>
                  <stEvt:instanceID>xmp.iid:4b661282-96db-4077-a062-13a665d649d1</stEvt:instanceID>
                  <stEvt:when>2020-03-25T00:27:18+08:00</stEvt:when>
                  <stEvt:softwareAgent>Adobe Audition 13.0 (Macintosh)</stEvt:softwareAgent>
                  <stEvt:changed>/metadata</stEvt:changed>
               </rdf:li>
               <rdf:li rdf:parseType="Resource">
                  <stEvt:action>saved</stEvt:action>
                  <stEvt:instanceID>xmp.iid:2b930837-09fd-4022-90f8-47320312dfc3</stEvt:instanceID>
                  <stEvt:when>2020-03-25T00:27:18+08:00</stEvt:when>
                  <stEvt:softwareAgent>Adobe Audition 13.0 (Macintosh)</stEvt:softwareAgent>
                  <stEvt:changed>/</stEvt:changed>
               </rdf:li>
               <rdf:li rdf:parseType="Resource">
                  <stEvt:action>saved</stEvt:action>
                  <stEvt:instanceID>xmp.iid:5e27105c-ba08-492a-910a-8ee3c362e4e9</stEvt:instanceID>
                  <stEvt:when>2020-03-25T00:27:26+08:00</stEvt:when>
                  <stEvt:softwareAgent>Adobe Audition 13.0 (Macintosh)</stEvt:softwareAgent>
                  <stEvt:changed>/metadata</stEvt:changed>
               </rdf:li>
               <rdf:li rdf:parseType="Resource">
                  <stEvt:action>saved</stEvt:action>
                  <stEvt:instanceID>xmp.iid:e4d6c780-8b45-4cfd-a312-d4d775ead35e</stEvt:instanceID>
                  <stEvt:when>2020-03-25T00:27:26+08:00</stEvt:when>
                  <stEvt:softwareAgent>Adobe Audition 13.0 (Macintosh)</stEvt:softwareAgent>
                  <stEvt:changed>/</stEvt:changed>
               </rdf:li>
               <rdf:li rdf:parseType="Resource">
                  <stEvt:action>saved</stEvt:action>
                  <stEvt:instanceID>xmp.iid:5b4e053c-3959-4798-8bd2-b4f8f454e8f1</stEvt:instanceID>
                  <stEvt:when>2020-03-25T00:30:15+08:00</stEvt:when>
                  <stEvt:softwareAgent>Adobe Audition 13.0 (Macintosh)</stEvt:softwareAgent>
                  <stEvt:changed>/metadata</stEvt:changed>
               </rdf:li>
               <rdf:li rdf:parseType="Resource">
                  <stEvt:action>saved</stEvt:action>
                  <stEvt:instanceID>xmp.iid:066c821a-1851-47e3-b908-c7809ce7d7fe</stEvt:instanceID>
                  <stEvt:when>2020-03-25T00:30:15+08:00</stEvt:when>
                  <stEvt:softwareAgent>Adobe Audition 13.0 (Macintosh)</stEvt:softwareAgent>
                  <stEvt:changed>/</stEvt:changed>
               </rdf:li>
               <rdf:li rdf:parseType="Resource">
                  <stEvt:action>saved</stEvt:action>
                  <stEvt:instanceID>xmp.iid:9aa3f87f-7252-4d94-82df-30672cda86f4</stEvt:instanceID>
                  <stEvt:when>2020-03-25T00:30:28+08:00</stEvt:when>
                  <stEvt:softwareAgent>Adobe Audition 13.0 (Macintosh)</stEvt:softwareAgent>
                  <stEvt:changed>/metadata</stEvt:changed>
               </rdf:li>
               <rdf:li rdf:parseType="Resource">
                  <stEvt:action>saved</stEvt:action>
                  <stEvt:instanceID>xmp.iid:c406fb38-6861-4c5c-ba5c-6a050b7b8354</stEvt:instanceID>
                  <stEvt:when>2020-03-25T00:30:28+08:00</stEvt:when>
                  <stEvt:softwareAgent>Adobe Audition 13.0 (Macintosh)</stEvt:softwareAgent>
                  <stEvt:changed>/</stEvt:changed>
               </rdf:li>
               <rdf:li rdf:parseType="Resource">
                  <stEvt:action>saved</stEvt:action>
                  <stEvt:instanceID>xmp.iid:bab44079-17e8-42dc-abe7-8b2799d35953</stEvt:instanceID>
                  <stEvt:when>2020-03-25T00:31:10+08:00</stEvt:when>
                  <stEvt:softwareAgent>Adobe Audition 13.0 (Macintosh)</stEvt:softwareAgent>
                  <stEvt:changed>/metadata</stEvt:changed>
               </rdf:li>
               <rdf:li rdf:parseType="Resource">
                  <stEvt:action>saved</stEvt:action>
                  <stEvt:instanceID>xmp.iid:0dc780f7-3f90-4581-b864-591566f02c13</stEvt:instanceID>
                  <stEvt:when>2020-03-25T00:31:10+08:00</stEvt:when>
                  <stEvt:softwareAgent>Adobe Audition 13.0 (Macintosh)</stEvt:softwareAgent>
                  <stEvt:changed>/</stEvt:changed>
               </rdf:li>
               <rdf:li rdf:parseType="Resource">
                  <stEvt:action>saved</stEvt:action>
                  <stEvt:instanceID>xmp.iid:e1ab2b8d-3d96-4392-a319-aebcfc31d9c4</stEvt:instanceID>
                  <stEvt:when>2020-03-25T00:33:45+08:00</stEvt:when>
                  <stEvt:softwareAgent>Adobe Audition 13.0 (Macintosh)</stEvt:softwareAgent>
                  <stEvt:changed>/metadata</stEvt:changed>
               </rdf:li>
               <rdf:li rdf:parseType="Resource">
                  <stEvt:action>saved</stEvt:action>
                  <stEvt:instanceID>xmp.iid:01bac48c-bce3-476d-82c1-87387fa83960</stEvt:instanceID>
                  <stEvt:when>2020-03-25T00:33:45+08:00</stEvt:when>
                  <stEvt:softwareAgent>Adobe Audition 13.0 (Macintosh)</stEvt:softwareAgent>
                  <stEvt:changed>/</stEvt:changed>
               </rdf:li>
               <rdf:li rdf:parseType="Resource">
                  <stEvt:action>saved</stEvt:action>
                  <stEvt:instanceID>xmp.iid:d031e0f1-8a54-47bd-8c20-132d141fa721</stEvt:instanceID>
                  <stEvt:when>2020-03-25T00:37:28+08:00</stEvt:when>
                  <stEvt:softwareAgent>Adobe Audition 13.0 (Macintosh)</stEvt:softwareAgent>
                  <stEvt:changed>/metadata</stEvt:changed>
               </rdf:li>
               <rdf:li rdf:parseType="Resource">
                  <stEvt:action>saved</stEvt:action>
                  <stEvt:instanceID>xmp.iid:0e640555-35ce-4dee-b623-747be4e8744c</stEvt:instanceID>
                  <stEvt:when>2020-03-25T00:37:28+08:00</stEvt:when>
                  <stEvt:softwareAgent>Adobe Audition 13.0 (Macintosh)</stEvt:softwareAgent>
                  <stEvt:changed>/</stEvt:changed>
               </rdf:li>
               <rdf:li rdf:parseType="Resource">
                  <stEvt:action>saved</stEvt:action>
                  <stEvt:instanceID>xmp.iid:3016eb82-d721-4b14-8e14-09639113fc97</stEvt:instanceID>
                  <stEvt:when>2020-03-25T00:37:40+08:00</stEvt:when>
                  <stEvt:softwareAgent>Adobe Audition 13.0 (Macintosh)</stEvt:softwareAgent>
                  <stEvt:changed>/metadata</stEvt:changed>
               </rdf:li>
               <rdf:li rdf:parseType="Resource">
                  <stEvt:action>saved</stEvt:action>
                  <stEvt:instanceID>xmp.iid:67a040ec-8231-4955-a7fd-0102bcff7cc1</stEvt:instanceID>
                  <stEvt:when>2020-03-25T00:37:40+08:00</stEvt:when>
                  <stEvt:softwareAgent>Adobe Audition 13.0 (Macintosh)</stEvt:softwareAgent>
                  <stEvt:changed>/</stEvt:changed>
               </rdf:li>
               <rdf:li rdf:parseType="Resource">
                  <stEvt:action>saved</stEvt:action>
                  <stEvt:instanceID>xmp.iid:46bb85d4-07c2-442a-b590-95139485c7c0</stEvt:instanceID>
                  <stEvt:when>2020-03-25T00:39:19+08:00</stEvt:when>
                  <stEvt:softwareAgent>Adobe Audition 13.0 (Macintosh)</stEvt:softwareAgent>
                  <stEvt:changed>/metadata</stEvt:changed>
               </rdf:li>
               <rdf:li rdf:parseType="Resource">
                  <stEvt:action>saved</stEvt:action>
                  <stEvt:instanceID>xmp.iid:e66909e8-a4a2-4fa1-b2f1-84b140629d17</stEvt:instanceID>
                  <stEvt:when>2020-03-25T00:39:19+08:00</stEvt:when>
                  <stEvt:softwareAgent>Adobe Audition 13.0 (Macintosh)</stEvt:softwareAgent>
                  <stEvt:changed>/</stEvt:changed>
               </rdf:li>
               <rdf:li rdf:parseType="Resource">
                  <stEvt:action>saved</stEvt:action>
                  <stEvt:instanceID>xmp.iid:40fa6a5b-cc4f-4567-95ac-9e9d415b33fc</stEvt:instanceID>
                  <stEvt:when>2020-03-25T00:42:23+08:00</stEvt:when>
                  <stEvt:softwareAgent>Adobe Audition 13.0 (Macintosh)</stEvt:softwareAgent>
                  <stEvt:changed>/metadata</stEvt:changed>
               </rdf:li>
               <rdf:li rdf:parseType="Resource">
                  <stEvt:action>saved</stEvt:action>
                  <stEvt:instanceID>xmp.iid:6ef9fa59-76a9-4e46-9af6-b52759d1eb01</stEvt:instanceID>
                  <stEvt:when>2020-03-25T00:42:23+08:00</stEvt:when>
                  <stEvt:softwareAgent>Adobe Audition 13.0 (Macintosh)</stEvt:softwareAgent>
                  <stEvt:changed>/</stEvt:changed>
               </rdf:li>
               <rdf:li rdf:parseType="Resource">
                  <stEvt:action>saved</stEvt:action>
                  <stEvt:instanceID>xmp.iid:eeb36dea-43f5-4428-854a-aba49db9f188</stEvt:instanceID>
                  <stEvt:when>2020-03-25T00:45:40+08:00</stEvt:when>
                  <stEvt:softwareAgent>Adobe Audition 13.0 (Macintosh)</stEvt:softwareAgent>
                  <stEvt:changed>/metadata</stEvt:changed>
               </rdf:li>
               <rdf:li rdf:parseType="Resource">
                  <stEvt:action>saved</stEvt:action>
                  <stEvt:instanceID>xmp.iid:4c111110-a51d-4e66-9f08-17a1429dcc57</stEvt:instanceID>
                  <stEvt:when>2020-03-25T00:45:40+08:00</stEvt:when>
                  <stEvt:softwareAgent>Adobe Audition 13.0 (Macintosh)</stEvt:softwareAgent>
                  <stEvt:changed>/</stEvt:changed>
               </rdf:li>
               <rdf:li rdf:parseType="Resource">
                  <stEvt:action>saved</stEvt:action>
                  <stEvt:instanceID>xmp.iid:7058d74e-36f5-4817-aad2-739a67c71601</stEvt:instanceID>
                  <stEvt:when>2020-03-25T00:48:16+08:00</stEvt:when>
                  <stEvt:softwareAgent>Adobe Audition 13.0 (Macintosh)</stEvt:softwareAgent>
                  <stEvt:changed>/metadata</stEvt:changed>
               </rdf:li>
               <rdf:li rdf:parseType="Resource">
                  <stEvt:action>saved</stEvt:action>
                  <stEvt:instanceID>xmp.iid:9e8a0ebb-254d-4582-afbc-ea4659709cb2</stEvt:instanceID>
                  <stEvt:when>2020-03-25T00:48:16+08:00</stEvt:when>
                  <stEvt:softwareAgent>Adobe Audition 13.0 (Macintosh)</stEvt:softwareAgent>
                  <stEvt:changed>/</stEvt:changed>
               </rdf:li>
               <rdf:li rdf:parseType="Resource">
                  <stEvt:action>saved</stEvt:action>
                  <stEvt:instanceID>xmp.iid:6dad47ec-bbfe-45b7-a738-3fdcfcd240e8</stEvt:instanceID>
                  <stEvt:when>2020-03-25T00:52:07+08:00</stEvt:when>
                  <stEvt:softwareAgent>Adobe Audition 13.0 (Macintosh)</stEvt:softwareAgent>
                  <stEvt:changed>/metadata</stEvt:changed>
               </rdf:li>
               <rdf:li rdf:parseType="Resource">
                  <stEvt:action>saved</stEvt:action>
                  <stEvt:instanceID>xmp.iid:ece5a020-6c59-4277-8999-4b2acb70c6f0</stEvt:instanceID>
                  <stEvt:when>2020-03-25T00:52:07+08:00</stEvt:when>
                  <stEvt:softwareAgent>Adobe Audition 13.0 (Macintosh)</stEvt:softwareAgent>
                  <stEvt:changed>/</stEvt:changed>
               </rdf:li>
               <rdf:li rdf:parseType="Resource">
                  <stEvt:action>saved</stEvt:action>
                  <stEvt:instanceID>xmp.iid:a864bd5d-00e5-43fa-aeff-2358816a782d</stEvt:instanceID>
                  <stEvt:when>2020-03-25T00:57:48+08:00</stEvt:when>
                  <stEvt:softwareAgent>Adobe Audition 13.0 (Macintosh)</stEvt:softwareAgent>
                  <stEvt:changed>/metadata</stEvt:changed>
               </rdf:li>
               <rdf:li rdf:parseType="Resource">
                  <stEvt:action>saved</stEvt:action>
                  <stEvt:instanceID>xmp.iid:b528dac8-d54e-44a2-a719-0de87c96073c</stEvt:instanceID>
                  <stEvt:when>2020-03-25T00:57:48+08:00</stEvt:when>
                  <stEvt:softwareAgent>Adobe Audition 13.0 (Macintosh)</stEvt:softwareAgent>
                  <stEvt:changed>/</stEvt:changed>
               </rdf:li>
               <rdf:li rdf:parseType="Resource">
                  <stEvt:action>saved</stEvt:action>
                  <stEvt:instanceID>xmp.iid:516d43dc-8de7-4a03-9d4b-145e373bc4a6</stEvt:instanceID>
                  <stEvt:when>2020-03-25T00:59:59+08:00</stEvt:when>
                  <stEvt:softwareAgent>Adobe Audition 13.0 (Macintosh)</stEvt:softwareAgent>
                  <stEvt:changed>/metadata</stEvt:changed>
               </rdf:li>
               <rdf:li rdf:parseType="Resource">
                  <stEvt:action>saved</stEvt:action>
                  <stEvt:instanceID>xmp.iid:4c60a652-47ae-4f1b-b4ee-442296e0f48d</stEvt:instanceID>
                  <stEvt:when>2020-03-25T00:59:59+08:00</stEvt:when>
                  <stEvt:softwareAgent>Adobe Audition 13.0 (Macintosh)</stEvt:softwareAgent>
                  <stEvt:changed>/</stEvt:changed>
               </rdf:li>
               <rdf:li rdf:parseType="Resource">
                  <stEvt:action>saved</stEvt:action>
                  <stEvt:instanceID>xmp.iid:c21a9d0a-8417-4804-a7a5-8b2fd85f4d41</stEvt:instanceID>
                  <stEvt:when>2020-03-25T01:01:06+08:00</stEvt:when>
                  <stEvt:softwareAgent>Adobe Audition 13.0 (Macintosh)</stEvt:softwareAgent>
                  <stEvt:changed>/metadata</stEvt:changed>
               </rdf:li>
               <rdf:li rdf:parseType="Resource">
                  <stEvt:action>saved</stEvt:action>
                  <stEvt:instanceID>xmp.iid:07daacce-3845-4253-aed1-d8c263b8f305</stEvt:instanceID>
                  <stEvt:when>2020-03-25T01:01:06+08:00</stEvt:when>
                  <stEvt:softwareAgent>Adobe Audition 13.0 (Macintosh)</stEvt:softwareAgent>
                  <stEvt:changed>/</stEvt:changed>
               </rdf:li>
               <rdf:li rdf:parseType="Resource">
                  <stEvt:action>saved</stEvt:action>
                  <stEvt:instanceID>xmp.iid:fba8b163-451d-4daf-aeb0-a1752e425181</stEvt:instanceID>
                  <stEvt:when>2020-03-25T01:02:47+08:00</stEvt:when>
                  <stEvt:softwareAgent>Adobe Audition 13.0 (Macintosh)</stEvt:softwareAgent>
                  <stEvt:changed>/metadata</stEvt:changed>
               </rdf:li>
               <rdf:li rdf:parseType="Resource">
                  <stEvt:action>saved</stEvt:action>
                  <stEvt:instanceID>xmp.iid:fabe2fc5-9fe1-4974-a545-a9414bdfff4a</stEvt:instanceID>
                  <stEvt:when>2020-03-25T01:02:47+08:00</stEvt:when>
                  <stEvt:softwareAgent>Adobe Audition 13.0 (Macintosh)</stEvt:softwareAgent>
                  <stEvt:changed>/</stEvt:changed>
               </rdf:li>
               <rdf:li rdf:parseType="Resource">
                  <stEvt:action>saved</stEvt:action>
                  <stEvt:instanceID>xmp.iid:015f8bed-6491-49f8-ab42-753ca1ebc978</stEvt:instanceID>
                  <stEvt:when>2020-03-25T01:03:43+08:00</stEvt:when>
                  <stEvt:softwareAgent>Adobe Audition 13.0 (Macintosh)</stEvt:softwareAgent>
                  <stEvt:changed>/metadata</stEvt:changed>
               </rdf:li>
               <rdf:li rdf:parseType="Resource">
                  <stEvt:action>saved</stEvt:action>
                  <stEvt:instanceID>xmp.iid:c9ada4fc-1743-4e54-b521-46d81cd2dd8f</stEvt:instanceID>
                  <stEvt:when>2020-03-25T01:03:43+08:00</stEvt:when>
                  <stEvt:softwareAgent>Adobe Audition 13.0 (Macintosh)</stEvt:softwareAgent>
                  <stEvt:changed>/</stEvt:changed>
               </rdf:li>
               <rdf:li rdf:parseType="Resource">
                  <stEvt:action>saved</stEvt:action>
                  <stEvt:instanceID>xmp.iid:6835bb74-4fc5-43e7-86c1-8b2804c2ce3f</stEvt:instanceID>
                  <stEvt:when>2020-04-01T00:31:54+08:00</stEvt:when>
                  <stEvt:softwareAgent>Adobe Audition 13.0 (Macintosh)</stEvt:softwareAgent>
                  <stEvt:changed>/metadata</stEvt:changed>
               </rdf:li>
               <rdf:li rdf:parseType="Resource">
                  <stEvt:action>saved</stEvt:action>
                  <stEvt:instanceID>xmp.iid:0b51788b-26a9-4f1e-872c-900cf858d11d</stEvt:instanceID>
                  <stEvt:when>2020-04-01T00:31:54+08:00</stEvt:when>
                  <stEvt:softwareAgent>Adobe Audition 13.0 (Macintosh)</stEvt:softwareAgent>
                  <stEvt:changed>/</stEvt:changed>
               </rdf:li>
               <rdf:li rdf:parseType="Resource">
                  <stEvt:action>saved</stEvt:action>
                  <stEvt:instanceID>xmp.iid:17d90b6e-a236-410a-b60e-dd80ec2dac5c</stEvt:instanceID>
                  <stEvt:when>2020-04-01T00:33:58+08:00</stEvt:when>
                  <stEvt:softwareAgent>Adobe Audition 13.0 (Macintosh)</stEvt:softwareAgent>
                  <stEvt:changed>/metadata</stEvt:changed>
               </rdf:li>
               <rdf:li rdf:parseType="Resource">
                  <stEvt:action>saved</stEvt:action>
                  <stEvt:instanceID>xmp.iid:3ed1ee90-87cd-4b56-a7fb-47e723c2d5cf</stEvt:instanceID>
                  <stEvt:when>2020-04-01T00:33:58+08:00</stEvt:when>
                  <stEvt:softwareAgent>Adobe Audition 13.0 (Macintosh)</stEvt:softwareAgent>
                  <stEvt:changed>/</stEvt:changed>
               </rdf:li>
               <rdf:li rdf:parseType="Resource">
                  <stEvt:action>saved</stEvt:action>
                  <stEvt:instanceID>xmp.iid:cc178779-7002-4ff2-baa3-5eb66ffc4b71</stEvt:instanceID>
                  <stEvt:when>2020-04-01T00:35:19+08:00</stEvt:when>
                  <stEvt:softwareAgent>Adobe Audition 13.0 (Macintosh)</stEvt:softwareAgent>
                  <stEvt:changed>/metadata</stEvt:changed>
               </rdf:li>
               <rdf:li rdf:parseType="Resource">
                  <stEvt:action>saved</stEvt:action>
                  <stEvt:instanceID>xmp.iid:2427da1b-6d6b-44e3-8ab2-d96c5614a39f</stEvt:instanceID>
                  <stEvt:when>2020-04-01T00:35:19+08:00</stEvt:when>
                  <stEvt:softwareAgent>Adobe Audition 13.0 (Macintosh)</stEvt:softwareAgent>
                  <stEvt:changed>/</stEvt:changed>
               </rdf:li>
               <rdf:li rdf:parseType="Resource">
                  <stEvt:action>saved</stEvt:action>
                  <stEvt:instanceID>xmp.iid:7abc9794-863e-451f-8ccb-4038ce9447d0</stEvt:instanceID>
                  <stEvt:when>2020-04-01T00:36:41+08:00</stEvt:when>
                  <stEvt:softwareAgent>Adobe Audition 13.0 (Macintosh)</stEvt:softwareAgent>
                  <stEvt:changed>/metadata</stEvt:changed>
               </rdf:li>
               <rdf:li rdf:parseType="Resource">
                  <stEvt:action>saved</stEvt:action>
                  <stEvt:instanceID>xmp.iid:a908ec93-bfe9-4388-9371-a7015b7de632</stEvt:instanceID>
                  <stEvt:when>2020-04-01T00:36:41+08:00</stEvt:when>
                  <stEvt:softwareAgent>Adobe Audition 13.0 (Macintosh)</stEvt:softwareAgent>
                  <stEvt:changed>/</stEvt:changed>
               </rdf:li>
               <rdf:li rdf:parseType="Resource">
                  <stEvt:action>saved</stEvt:action>
                  <stEvt:instanceID>xmp.iid:ce594469-d14c-48a7-a142-01d88fb718b9</stEvt:instanceID>
                  <stEvt:when>2020-04-07T06:01:18+08:00</stEvt:when>
                  <stEvt:softwareAgent>Adobe Audition 13.0 (Macintosh)</stEvt:softwareAgent>
                  <stEvt:changed>/metadata</stEvt:changed>
               </rdf:li>
               <rdf:li rdf:parseType="Resource">
                  <stEvt:action>saved</stEvt:action>
                  <stEvt:instanceID>xmp.iid:c1aeb17b-c5f3-4057-9b1e-dafc24560b40</stEvt:instanceID>
                  <stEvt:when>2020-04-07T06:01:18+08:00</stEvt:when>
                  <stEvt:softwareAgent>Adobe Audition 13.0 (Macintosh)</stEvt:softwareAgent>
                  <stEvt:changed>/</stEvt:changed>
               </rdf:li>
               <rdf:li rdf:parseType="Resource">
                  <stEvt:action>saved</stEvt:action>
                  <stEvt:instanceID>xmp.iid:2178c5f7-07b5-4474-b658-279ea633b6b5</stEvt:instanceID>
                  <stEvt:when>2020-04-07T06:03:30+08:00</stEvt:when>
                  <stEvt:softwareAgent>Adobe Audition 13.0 (Macintosh)</stEvt:softwareAgent>
                  <stEvt:changed>/metadata</stEvt:changed>
               </rdf:li>
               <rdf:li rdf:parseType="Resource">
                  <stEvt:action>saved</stEvt:action>
                  <stEvt:instanceID>xmp.iid:8a16c72c-3e55-4c45-9309-1b54cb908fee</stEvt:instanceID>
                  <stEvt:when>2020-04-07T06:03:30+08:00</stEvt:when>
                  <stEvt:softwareAgent>Adobe Audition 13.0 (Macintosh)</stEvt:softwareAgent>
                  <stEvt:changed>/</stEvt:changed>
               </rdf:li>
               <rdf:li rdf:parseType="Resource">
                  <stEvt:action>saved</stEvt:action>
                  <stEvt:instanceID>xmp.iid:3cec1828-b457-4782-a148-4d0ea19e49f8</stEvt:instanceID>
                  <stEvt:when>2020-04-07T06:14:49+08:00</stEvt:when>
                  <stEvt:softwareAgent>Adobe Audition 13.0 (Macintosh)</stEvt:softwareAgent>
                  <stEvt:changed>/metadata</stEvt:changed>
               </rdf:li>
               <rdf:li rdf:parseType="Resource">
                  <stEvt:action>saved</stEvt:action>
                  <stEvt:instanceID>xmp.iid:65b19b52-2869-42ce-bb1b-f8218a147b64</stEvt:instanceID>
                  <stEvt:when>2020-04-07T06:14:49+08:00</stEvt:when>
                  <stEvt:softwareAgent>Adobe Audition 13.0 (Macintosh)</stEvt:softwareAgent>
                  <stEvt:changed>/</stEvt:changed>
               </rdf:li>
               <rdf:li rdf:parseType="Resource">
                  <stEvt:action>saved</stEvt:action>
                  <stEvt:instanceID>xmp.iid:7e12b300-ff54-4626-97a2-bd63b8dae421</stEvt:instanceID>
                  <stEvt:when>2020-04-07T06:23:27+08:00</stEvt:when>
                  <stEvt:softwareAgent>Adobe Audition 13.0 (Macintosh)</stEvt:softwareAgent>
                  <stEvt:changed>/metadata</stEvt:changed>
               </rdf:li>
               <rdf:li rdf:parseType="Resource">
                  <stEvt:action>saved</stEvt:action>
                  <stEvt:instanceID>xmp.iid:4c13da5f-850b-4270-87d4-717873fbabd1</stEvt:instanceID>
                  <stEvt:when>2020-04-07T06:23:27+08:00</stEvt:when>
                  <stEvt:softwareAgent>Adobe Audition 13.0 (Macintosh)</stEvt:softwareAgent>
                  <stEvt:changed>/</stEvt:changed>
               </rdf:li>
               <rdf:li rdf:parseType="Resource">
                  <stEvt:action>saved</stEvt:action>
                  <stEvt:instanceID>xmp.iid:d0688695-9a02-48a2-a5d0-7ba49434857b</stEvt:instanceID>
                  <stEvt:when>2020-04-07T06:27:49+08:00</stEvt:when>
                  <stEvt:softwareAgent>Adobe Audition 13.0 (Macintosh)</stEvt:softwareAgent>
                  <stEvt:changed>/metadata</stEvt:changed>
               </rdf:li>
               <rdf:li rdf:parseType="Resource">
                  <stEvt:action>saved</stEvt:action>
                  <stEvt:instanceID>xmp.iid:9c1d3af9-e398-4f21-8285-9bb241dbf651</stEvt:instanceID>
                  <stEvt:when>2020-04-07T06:27:49+08:00</stEvt:when>
                  <stEvt:softwareAgent>Adobe Audition 13.0 (Macintosh)</stEvt:softwareAgent>
                  <stEvt:changed>/</stEvt:changed>
               </rdf:li>
               <rdf:li rdf:parseType="Resource">
                  <stEvt:action>saved</stEvt:action>
                  <stEvt:instanceID>xmp.iid:7860ec73-946f-4545-b42b-7e9b3f1e8ccc</stEvt:instanceID>
                  <stEvt:when>2020-04-07T06:30:03+08:00</stEvt:when>
                  <stEvt:softwareAgent>Adobe Audition 13.0 (Macintosh)</stEvt:softwareAgent>
                  <stEvt:changed>/metadata</stEvt:changed>
               </rdf:li>
               <rdf:li rdf:parseType="Resource">
                  <stEvt:action>saved</stEvt:action>
                  <stEvt:instanceID>xmp.iid:005c06ec-74f6-436f-a2ec-8f64f1811932</stEvt:instanceID>
                  <stEvt:when>2020-04-07T06:30:03+08:00</stEvt:when>
                  <stEvt:softwareAgent>Adobe Audition 13.0 (Macintosh)</stEvt:softwareAgent>
                  <stEvt:changed>/</stEvt:changed>
               </rdf:li>
               <rdf:li rdf:parseType="Resource">
                  <stEvt:action>saved</stEvt:action>
                  <stEvt:instanceID>xmp.iid:b5920ea5-8d91-4728-a7d9-8cce4400d284</stEvt:instanceID>
                  <stEvt:when>2020-04-07T06:35:26+08:00</stEvt:when>
                  <stEvt:softwareAgent>Adobe Audition 13.0 (Macintosh)</stEvt:softwareAgent>
                  <stEvt:changed>/metadata</stEvt:changed>
               </rdf:li>
               <rdf:li rdf:parseType="Resource">
                  <stEvt:action>saved</stEvt:action>
                  <stEvt:instanceID>xmp.iid:1e78b782-8246-4f87-9144-f5a1d648dbfa</stEvt:instanceID>
                  <stEvt:when>2020-04-07T06:35:26+08:00</stEvt:when>
                  <stEvt:softwareAgent>Adobe Audition 13.0 (Macintosh)</stEvt:softwareAgent>
                  <stEvt:changed>/</stEvt:changed>
               </rdf:li>
               <rdf:li rdf:parseType="Resource">
                  <stEvt:action>saved</stEvt:action>
                  <stEvt:instanceID>xmp.iid:ed107c45-8344-44ae-8629-a5a87384cd3f</stEvt:instanceID>
                  <stEvt:when>2020-04-07T06:35:46+08:00</stEvt:when>
                  <stEvt:softwareAgent>Adobe Audition 13.0 (Macintosh)</stEvt:softwareAgent>
                  <stEvt:changed>/metadata</stEvt:changed>
               </rdf:li>
               <rdf:li rdf:parseType="Resource">
                  <stEvt:action>saved</stEvt:action>
                  <stEvt:instanceID>xmp.iid:634de751-d89b-4213-9a08-2666e84dc1e9</stEvt:instanceID>
                  <stEvt:when>2020-04-07T06:35:46+08:00</stEvt:when>
                  <stEvt:softwareAgent>Adobe Audition 13.0 (Macintosh)</stEvt:softwareAgent>
                  <stEvt:changed>/</stEvt:changed>
               </rdf:li>
               <rdf:li rdf:parseType="Resource">
                  <stEvt:action>saved</stEvt:action>
                  <stEvt:instanceID>xmp.iid:fd3dfcb6-19ae-4259-ba7d-bdf44130c9ec</stEvt:instanceID>
                  <stEvt:when>2020-04-07T06:38:36+08:00</stEvt:when>
                  <stEvt:softwareAgent>Adobe Audition 13.0 (Macintosh)</stEvt:softwareAgent>
                  <stEvt:changed>/metadata</stEvt:changed>
               </rdf:li>
               <rdf:li rdf:parseType="Resource">
                  <stEvt:action>saved</stEvt:action>
                  <stEvt:instanceID>xmp.iid:913270f9-6658-4551-a4f2-01f7ffe38e42</stEvt:instanceID>
                  <stEvt:when>2020-04-07T06:38:36+08:00</stEvt:when>
                  <stEvt:softwareAgent>Adobe Audition 13.0 (Macintosh)</stEvt:softwareAgent>
                  <stEvt:changed>/</stEvt:changed>
               </rdf:li>
               <rdf:li rdf:parseType="Resource">
                  <stEvt:action>saved</stEvt:action>
                  <stEvt:instanceID>xmp.iid:04646667-54a8-4a5e-88e3-357a15e6a55d</stEvt:instanceID>
                  <stEvt:when>2020-04-07T06:41:09+08:00</stEvt:when>
                  <stEvt:softwareAgent>Adobe Audition 13.0 (Macintosh)</stEvt:softwareAgent>
                  <stEvt:changed>/metadata</stEvt:changed>
               </rdf:li>
               <rdf:li rdf:parseType="Resource">
                  <stEvt:action>saved</stEvt:action>
                  <stEvt:instanceID>xmp.iid:cd504616-180c-497f-8128-76ac83be1257</stEvt:instanceID>
                  <stEvt:when>2020-04-07T06:41:09+08:00</stEvt:when>
                  <stEvt:softwareAgent>Adobe Audition 13.0 (Macintosh)</stEvt:softwareAgent>
                  <stEvt:changed>/</stEvt:changed>
               </rdf:li>
               <rdf:li rdf:parseType="Resource">
                  <stEvt:action>saved</stEvt:action>
                  <stEvt:instanceID>xmp.iid:716dda87-0ec2-47bf-9b53-15acb3ac44a2</stEvt:instanceID>
                  <stEvt:when>2020-04-07T06:47:29+08:00</stEvt:when>
                  <stEvt:softwareAgent>Adobe Audition 13.0 (Macintosh)</stEvt:softwareAgent>
                  <stEvt:changed>/metadata</stEvt:changed>
               </rdf:li>
               <rdf:li rdf:parseType="Resource">
                  <stEvt:action>saved</stEvt:action>
                  <stEvt:instanceID>xmp.iid:9df3e578-79d2-4ed0-b034-3996629a2e1e</stEvt:instanceID>
                  <stEvt:when>2020-04-07T06:47:29+08:00</stEvt:when>
                  <stEvt:softwareAgent>Adobe Audition 13.0 (Macintosh)</stEvt:softwareAgent>
                  <stEvt:changed>/</stEvt:changed>
               </rdf:li>
               <rdf:li rdf:parseType="Resource">
                  <stEvt:action>saved</stEvt:action>
                  <stEvt:instanceID>xmp.iid:ff1993c0-9cfd-43d7-b407-831a6cc39703</stEvt:instanceID>
                  <stEvt:when>2020-04-07T06:47:53+08:00</stEvt:when>
                  <stEvt:softwareAgent>Adobe Audition 13.0 (Macintosh)</stEvt:softwareAgent>
                  <stEvt:changed>/metadata</stEvt:changed>
               </rdf:li>
               <rdf:li rdf:parseType="Resource">
                  <stEvt:action>saved</stEvt:action>
                  <stEvt:instanceID>xmp.iid:4b414de5-a00b-444d-bdc2-ad6c1235dcf7</stEvt:instanceID>
                  <stEvt:when>2020-04-07T06:47:53+08:00</stEvt:when>
                  <stEvt:softwareAgent>Adobe Audition 13.0 (Macintosh)</stEvt:softwareAgent>
                  <stEvt:changed>/</stEvt:changed>
               </rdf:li>
               <rdf:li rdf:parseType="Resource">
                  <stEvt:action>saved</stEvt:action>
                  <stEvt:instanceID>xmp.iid:ebb5dbe3-27dd-4be9-8b61-57ad5fbc78b0</stEvt:instanceID>
                  <stEvt:when>2020-04-07T06:51:16+08:00</stEvt:when>
                  <stEvt:softwareAgent>Adobe Audition 13.0 (Macintosh)</stEvt:softwareAgent>
                  <stEvt:changed>/metadata</stEvt:changed>
               </rdf:li>
               <rdf:li rdf:parseType="Resource">
                  <stEvt:action>saved</stEvt:action>
                  <stEvt:instanceID>xmp.iid:858417c4-97f7-4cb3-ac91-b57496f59000</stEvt:instanceID>
                  <stEvt:when>2020-04-07T06:51:16+08:00</stEvt:when>
                  <stEvt:softwareAgent>Adobe Audition 13.0 (Macintosh)</stEvt:softwareAgent>
                  <stEvt:changed>/</stEvt:changed>
               </rdf:li>
               <rdf:li rdf:parseType="Resource">
                  <stEvt:action>saved</stEvt:action>
                  <stEvt:instanceID>xmp.iid:c484671d-4c15-457c-a72c-3ec3553023d9</stEvt:instanceID>
                  <stEvt:when>2020-04-07T06:56:40+08:00</stEvt:when>
                  <stEvt:softwareAgent>Adobe Audition 13.0 (Macintosh)</stEvt:softwareAgent>
                  <stEvt:changed>/metadata</stEvt:changed>
               </rdf:li>
               <rdf:li rdf:parseType="Resource">
                  <stEvt:action>saved</stEvt:action>
                  <stEvt:instanceID>xmp.iid:351005be-72bc-461a-87eb-9eed604f97ae</stEvt:instanceID>
                  <stEvt:when>2020-04-07T06:56:40+08:00</stEvt:when>
                  <stEvt:softwareAgent>Adobe Audition 13.0 (Macintosh)</stEvt:softwareAgent>
                  <stEvt:changed>/</stEvt:changed>
               </rdf:li>
               <rdf:li rdf:parseType="Resource">
                  <stEvt:action>saved</stEvt:action>
                  <stEvt:instanceID>xmp.iid:2d740fbb-b691-4f72-8624-d00c1abbc634</stEvt:instanceID>
                  <stEvt:when>2020-04-07T07:05:45+08:00</stEvt:when>
                  <stEvt:softwareAgent>Adobe Audition 13.0 (Macintosh)</stEvt:softwareAgent>
                  <stEvt:changed>/metadata</stEvt:changed>
               </rdf:li>
               <rdf:li rdf:parseType="Resource">
                  <stEvt:action>saved</stEvt:action>
                  <stEvt:instanceID>xmp.iid:2a9bdab6-2c13-4226-af1b-580cef60d671</stEvt:instanceID>
                  <stEvt:when>2020-04-07T07:05:45+08:00</stEvt:when>
                  <stEvt:softwareAgent>Adobe Audition 13.0 (Macintosh)</stEvt:softwareAgent>
                  <stEvt:changed>/</stEvt:changed>
               </rdf:li>
               <rdf:li rdf:parseType="Resource">
                  <stEvt:action>saved</stEvt:action>
                  <stEvt:instanceID>xmp.iid:48286b2a-24a7-4701-9d26-c97e4feeb784</stEvt:instanceID>
                  <stEvt:when>2020-04-07T07:08:47+08:00</stEvt:when>
                  <stEvt:softwareAgent>Adobe Audition 13.0 (Macintosh)</stEvt:softwareAgent>
                  <stEvt:changed>/metadata</stEvt:changed>
               </rdf:li>
               <rdf:li rdf:parseType="Resource">
                  <stEvt:action>saved</stEvt:action>
                  <stEvt:instanceID>xmp.iid:663e42b8-65c1-49d3-b9a7-822ee81a8a9d</stEvt:instanceID>
                  <stEvt:when>2020-04-07T07:08:47+08:00</stEvt:when>
                  <stEvt:softwareAgent>Adobe Audition 13.0 (Macintosh)</stEvt:softwareAgent>
                  <stEvt:changed>/</stEvt:changed>
               </rdf:li>
               <rdf:li rdf:parseType="Resource">
                  <stEvt:action>saved</stEvt:action>
                  <stEvt:instanceID>xmp.iid:99f41603-2697-4f13-8c18-541c0379b3e0</stEvt:instanceID>
                  <stEvt:when>2020-04-07T07:15:28+08:00</stEvt:when>
                  <stEvt:softwareAgent>Adobe Audition 13.0 (Macintosh)</stEvt:softwareAgent>
                  <stEvt:changed>/metadata</stEvt:changed>
               </rdf:li>
               <rdf:li rdf:parseType="Resource">
                  <stEvt:action>saved</stEvt:action>
                  <stEvt:instanceID>xmp.iid:db2c9a78-c882-4c7d-b287-30fccfc1cf63</stEvt:instanceID>
                  <stEvt:when>2020-04-07T07:15:28+08:00</stEvt:when>
                  <stEvt:softwareAgent>Adobe Audition 13.0 (Macintosh)</stEvt:softwareAgent>
                  <stEvt:changed>/</stEvt:changed>
               </rdf:li>
               <rdf:li rdf:parseType="Resource">
                  <stEvt:action>saved</stEvt:action>
                  <stEvt:instanceID>xmp.iid:5d2b32bc-ff07-4cfd-a69f-0ef861d6b231</stEvt:instanceID>
                  <stEvt:when>2020-04-07T07:28:56+08:00</stEvt:when>
                  <stEvt:softwareAgent>Adobe Audition 13.0 (Macintosh)</stEvt:softwareAgent>
                  <stEvt:changed>/metadata</stEvt:changed>
               </rdf:li>
               <rdf:li rdf:parseType="Resource">
                  <stEvt:action>saved</stEvt:action>
                  <stEvt:instanceID>xmp.iid:5f086b00-3c69-402d-ab09-71b23d5ec9ba</stEvt:instanceID>
                  <stEvt:when>2020-04-07T07:28:56+08:00</stEvt:when>
                  <stEvt:softwareAgent>Adobe Audition 13.0 (Macintosh)</stEvt:softwareAgent>
                  <stEvt:changed>/</stEvt:changed>
               </rdf:li>
               <rdf:li rdf:parseType="Resource">
                  <stEvt:action>saved</stEvt:action>
                  <stEvt:instanceID>xmp.iid:c5ed8b9e-7208-4c89-8cf3-9423fc31f0b6</stEvt:instanceID>
                  <stEvt:when>2020-04-07T07:34+08:00</stEvt:when>
                  <stEvt:softwareAgent>Adobe Audition 13.0 (Macintosh)</stEvt:softwareAgent>
                  <stEvt:changed>/metadata</stEvt:changed>
               </rdf:li>
               <rdf:li rdf:parseType="Resource">
                  <stEvt:action>saved</stEvt:action>
                  <stEvt:instanceID>xmp.iid:e2efc66e-a9ed-4a1c-84a9-a52e19e61c66</stEvt:instanceID>
                  <stEvt:when>2020-04-07T07:34+08:00</stEvt:when>
                  <stEvt:softwareAgent>Adobe Audition 13.0 (Macintosh)</stEvt:softwareAgent>
                  <stEvt:changed>/</stEvt:changed>
               </rdf:li>
               <rdf:li rdf:parseType="Resource">
                  <stEvt:action>saved</stEvt:action>
                  <stEvt:instanceID>xmp.iid:447abd7a-cfb1-4c95-970a-c7ac42d0c337</stEvt:instanceID>
                  <stEvt:when>2020-04-07T07:38:40+08:00</stEvt:when>
                  <stEvt:softwareAgent>Adobe Audition 13.0 (Macintosh)</stEvt:softwareAgent>
                  <stEvt:changed>/metadata</stEvt:changed>
               </rdf:li>
               <rdf:li rdf:parseType="Resource">
                  <stEvt:action>saved</stEvt:action>
                  <stEvt:instanceID>xmp.iid:05088f4f-ee5b-466c-acfe-6d2137120d66</stEvt:instanceID>
                  <stEvt:when>2020-04-07T07:38:40+08:00</stEvt:when>
                  <stEvt:softwareAgent>Adobe Audition 13.0 (Macintosh)</stEvt:softwareAgent>
                  <stEvt:changed>/</stEvt:changed>
               </rdf:li>
               <rdf:li rdf:parseType="Resource">
                  <stEvt:action>saved</stEvt:action>
                  <stEvt:instanceID>xmp.iid:5b7d60a4-9970-40b1-b167-c69a06bc8359</stEvt:instanceID>
                  <stEvt:when>2020-04-07T07:43:23+08:00</stEvt:when>
                  <stEvt:softwareAgent>Adobe Audition 13.0 (Macintosh)</stEvt:softwareAgent>
                  <stEvt:changed>/metadata</stEvt:changed>
               </rdf:li>
               <rdf:li rdf:parseType="Resource">
                  <stEvt:action>saved</stEvt:action>
                  <stEvt:instanceID>xmp.iid:79e41cfc-237d-4a4c-ba9b-ced6dadf220d</stEvt:instanceID>
                  <stEvt:when>2020-04-07T07:43:23+08:00</stEvt:when>
                  <stEvt:softwareAgent>Adobe Audition 13.0 (Macintosh)</stEvt:softwareAgent>
                  <stEvt:changed>/</stEvt:changed>
               </rdf:li>
               <rdf:li rdf:parseType="Resource">
                  <stEvt:action>saved</stEvt:action>
                  <stEvt:instanceID>xmp.iid:383817c4-74c1-4fca-81de-e5081361093c</stEvt:instanceID>
                  <stEvt:when>2020-04-07T07:47:25+08:00</stEvt:when>
                  <stEvt:softwareAgent>Adobe Audition 13.0 (Macintosh)</stEvt:softwareAgent>
                  <stEvt:changed>/metadata</stEvt:changed>
               </rdf:li>
               <rdf:li rdf:parseType="Resource">
                  <stEvt:action>saved</stEvt:action>
                  <stEvt:instanceID>xmp.iid:794f0455-df39-48f2-82a8-7f62fd6d275b</stEvt:instanceID>
                  <stEvt:when>2020-04-07T07:47:25+08:00</stEvt:when>
                  <stEvt:softwareAgent>Adobe Audition 13.0 (Macintosh)</stEvt:softwareAgent>
                  <stEvt:changed>/</stEvt:changed>
               </rdf:li>
               <rdf:li rdf:parseType="Resource">
                  <stEvt:action>saved</stEvt:action>
                  <stEvt:instanceID>xmp.iid:f6d3b95b-cf02-4564-b11f-8aa639a46ab5</stEvt:instanceID>
                  <stEvt:when>2020-04-07T08:12:50+08:00</stEvt:when>
                  <stEvt:softwareAgent>Adobe Audition 13.0 (Macintosh)</stEvt:softwareAgent>
                  <stEvt:changed>/metadata</stEvt:changed>
               </rdf:li>
               <rdf:li rdf:parseType="Resource">
                  <stEvt:action>saved</stEvt:action>
                  <stEvt:instanceID>xmp.iid:601fb995-d1bb-4524-bdcc-103a2e88737e</stEvt:instanceID>
                  <stEvt:when>2020-04-07T08:12:50+08:00</stEvt:when>
                  <stEvt:softwareAgent>Adobe Audition 13.0 (Macintosh)</stEvt:softwareAgent>
                  <stEvt:changed>/</stEvt:changed>
               </rdf:li>
               <rdf:li rdf:parseType="Resource">
                  <stEvt:action>saved</stEvt:action>
                  <stEvt:instanceID>xmp.iid:ee1dce16-81b2-474b-8e69-840a8fd783b6</stEvt:instanceID>
                  <stEvt:when>2020-04-07T08:14:40+08:00</stEvt:when>
                  <stEvt:softwareAgent>Adobe Audition 13.0 (Macintosh)</stEvt:softwareAgent>
                  <stEvt:changed>/metadata</stEvt:changed>
               </rdf:li>
               <rdf:li rdf:parseType="Resource">
                  <stEvt:action>saved</stEvt:action>
                  <stEvt:instanceID>xmp.iid:2bca9cf3-da1a-497a-acd3-10be9faaa7b9</stEvt:instanceID>
                  <stEvt:when>2020-04-07T08:14:40+08:00</stEvt:when>
                  <stEvt:softwareAgent>Adobe Audition 13.0 (Macintosh)</stEvt:softwareAgent>
                  <stEvt:changed>/</stEvt:changed>
               </rdf:li>
               <rdf:li rdf:parseType="Resource">
                  <stEvt:action>saved</stEvt:action>
                  <stEvt:instanceID>xmp.iid:d9b20e21-a7b0-4e87-bca3-5b5b795334de</stEvt:instanceID>
                  <stEvt:when>2020-04-07T08:20:53+08:00</stEvt:when>
                  <stEvt:softwareAgent>Adobe Audition 13.0 (Macintosh)</stEvt:softwareAgent>
                  <stEvt:changed>/metadata</stEvt:changed>
               </rdf:li>
               <rdf:li rdf:parseType="Resource">
                  <stEvt:action>saved</stEvt:action>
                  <stEvt:instanceID>xmp.iid:8d91820b-9217-4bfd-9e0d-3ae295eb665d</stEvt:instanceID>
                  <stEvt:when>2020-04-07T08:20:53+08:00</stEvt:when>
                  <stEvt:softwareAgent>Adobe Audition 13.0 (Macintosh)</stEvt:softwareAgent>
                  <stEvt:changed>/</stEvt:changed>
               </rdf:li>
               <rdf:li rdf:parseType="Resource">
                  <stEvt:action>saved</stEvt:action>
                  <stEvt:instanceID>xmp.iid:6f52053f-7dad-4cb4-ad17-6c1e93f02de2</stEvt:instanceID>
                  <stEvt:when>2020-04-07T08:21:51+08:00</stEvt:when>
                  <stEvt:softwareAgent>Adobe Audition 13.0 (Macintosh)</stEvt:softwareAgent>
                  <stEvt:changed>/metadata</stEvt:changed>
               </rdf:li>
               <rdf:li rdf:parseType="Resource">
                  <stEvt:action>saved</stEvt:action>
                  <stEvt:instanceID>xmp.iid:5b2552c5-4371-4e8f-92ac-71283204c670</stEvt:instanceID>
                  <stEvt:when>2020-04-07T08:21:51+08:00</stEvt:when>
                  <stEvt:softwareAgent>Adobe Audition 13.0 (Macintosh)</stEvt:softwareAgent>
                  <stEvt:changed>/</stEvt:changed>
               </rdf:li>
               <rdf:li rdf:parseType="Resource">
                  <stEvt:action>saved</stEvt:action>
                  <stEvt:instanceID>xmp.iid:7209c8c7-44e6-405e-bf1f-7a11808e6c9f</stEvt:instanceID>
                  <stEvt:when>2020-04-07T08:26:35+08:00</stEvt:when>
                  <stEvt:softwareAgent>Adobe Audition 13.0 (Macintosh)</stEvt:softwareAgent>
                  <stEvt:changed>/metadata</stEvt:changed>
               </rdf:li>
               <rdf:li rdf:parseType="Resource">
                  <stEvt:action>saved</stEvt:action>
                  <stEvt:instanceID>xmp.iid:a29c21a3-0a02-4d24-a864-7883c1230e22</stEvt:instanceID>
                  <stEvt:when>2020-04-07T08:26:35+08:00</stEvt:when>
                  <stEvt:softwareAgent>Adobe Audition 13.0 (Macintosh)</stEvt:softwareAgent>
                  <stEvt:changed>/</stEvt:changed>
               </rdf:li>
               <rdf:li rdf:parseType="Resource">
                  <stEvt:action>saved</stEvt:action>
                  <stEvt:instanceID>xmp.iid:bc4368fa-e9cf-4614-ab6f-a70250cd954e</stEvt:instanceID>
                  <stEvt:when>2020-04-07T08:28:54+08:00</stEvt:when>
                  <stEvt:softwareAgent>Adobe Audition 13.0 (Macintosh)</stEvt:softwareAgent>
                  <stEvt:changed>/metadata</stEvt:changed>
               </rdf:li>
               <rdf:li rdf:parseType="Resource">
                  <stEvt:action>saved</stEvt:action>
                  <stEvt:instanceID>xmp.iid:51944e3d-9f77-4521-909d-331ee52d073f</stEvt:instanceID>
                  <stEvt:when>2020-04-07T08:28:54+08:00</stEvt:when>
                  <stEvt:softwareAgent>Adobe Audition 13.0 (Macintosh)</stEvt:softwareAgent>
                  <stEvt:changed>/</stEvt:changed>
               </rdf:li>
               <rdf:li rdf:parseType="Resource">
                  <stEvt:action>saved</stEvt:action>
                  <stEvt:instanceID>xmp.iid:19b4dbad-ab2d-4ad1-9852-c1435d13e2aa</stEvt:instanceID>
                  <stEvt:when>2020-04-07T08:29:26+08:00</stEvt:when>
                  <stEvt:softwareAgent>Adobe Audition 13.0 (Macintosh)</stEvt:softwareAgent>
                  <stEvt:changed>/metadata</stEvt:changed>
               </rdf:li>
               <rdf:li rdf:parseType="Resource">
                  <stEvt:action>saved</stEvt:action>
                  <stEvt:instanceID>xmp.iid:ae65cb6b-0727-4e8b-8f0f-dc64593f7921</stEvt:instanceID>
                  <stEvt:when>2020-04-07T08:29:26+08:00</stEvt:when>
                  <stEvt:softwareAgent>Adobe Audition 13.0 (Macintosh)</stEvt:softwareAgent>
                  <stEvt:changed>/</stEvt:changed>
               </rdf:li>
               <rdf:li rdf:parseType="Resource">
                  <stEvt:action>saved</stEvt:action>
                  <stEvt:instanceID>xmp.iid:40d3cfe6-89ee-4d3e-86be-90d295d5831f</stEvt:instanceID>
                  <stEvt:when>2020-04-07T08:29:48+08:00</stEvt:when>
                  <stEvt:softwareAgent>Adobe Audition 13.0 (Macintosh)</stEvt:softwareAgent>
                  <stEvt:changed>/metadata</stEvt:changed>
               </rdf:li>
               <rdf:li rdf:parseType="Resource">
                  <stEvt:action>saved</stEvt:action>
                  <stEvt:instanceID>xmp.iid:05030da9-ee4a-403f-a7ea-00b5dba93e65</stEvt:instanceID>
                  <stEvt:when>2020-04-07T08:29:48+08:00</stEvt:when>
                  <stEvt:softwareAgent>Adobe Audition 13.0 (Macintosh)</stEvt:softwareAgent>
                  <stEvt:changed>/</stEvt:changed>
               </rdf:li>
               <rdf:li rdf:parseType="Resource">
                  <stEvt:action>saved</stEvt:action>
                  <stEvt:instanceID>xmp.iid:a324db7a-4ccb-4be2-b384-0a348750a4d6</stEvt:instanceID>
                  <stEvt:when>2020-04-07T08:54:10+08:00</stEvt:when>
                  <stEvt:softwareAgent>Adobe Audition 13.0 (Macintosh)</stEvt:softwareAgent>
                  <stEvt:changed>/metadata</stEvt:changed>
               </rdf:li>
               <rdf:li rdf:parseType="Resource">
                  <stEvt:action>saved</stEvt:action>
                  <stEvt:instanceID>xmp.iid:1d5b97ed-b380-4694-b9e3-59584514ae22</stEvt:instanceID>
                  <stEvt:when>2020-04-07T08:54:10+08:00</stEvt:when>
                  <stEvt:softwareAgent>Adobe Audition 13.0 (Macintosh)</stEvt:softwareAgent>
                  <stEvt:changed>/</stEvt:changed>
               </rdf:li>
               <rdf:li rdf:parseType="Resource">
                  <stEvt:action>saved</stEvt:action>
                  <stEvt:instanceID>xmp.iid:c3603506-533c-4e56-b9c5-d09081fa04fb</stEvt:instanceID>
                  <stEvt:when>2020-04-07T08:58:55+08:00</stEvt:when>
                  <stEvt:softwareAgent>Adobe Audition 13.0 (Macintosh)</stEvt:softwareAgent>
                  <stEvt:changed>/metadata</stEvt:changed>
               </rdf:li>
               <rdf:li rdf:parseType="Resource">
                  <stEvt:action>saved</stEvt:action>
                  <stEvt:instanceID>xmp.iid:20a1fabb-f218-47ea-a1ed-ff30f395b53a</stEvt:instanceID>
                  <stEvt:when>2020-04-07T08:58:55+08:00</stEvt:when>
                  <stEvt:softwareAgent>Adobe Audition 13.0 (Macintosh)</stEvt:softwareAgent>
                  <stEvt:changed>/</stEvt:changed>
               </rdf:li>
               <rdf:li rdf:parseType="Resource">
                  <stEvt:action>saved</stEvt:action>
                  <stEvt:instanceID>xmp.iid:fba77c01-66ec-425e-be79-2b767e2529ad</stEvt:instanceID>
                  <stEvt:when>2020-04-07T09:17:04+08:00</stEvt:when>
                  <stEvt:softwareAgent>Adobe Audition 13.0 (Macintosh)</stEvt:softwareAgent>
                  <stEvt:changed>/metadata</stEvt:changed>
               </rdf:li>
               <rdf:li rdf:parseType="Resource">
                  <stEvt:action>saved</stEvt:action>
                  <stEvt:instanceID>xmp.iid:49c8c0ad-bd72-4efd-959e-76eeaaff1249</stEvt:instanceID>
                  <stEvt:when>2020-04-07T09:17:04+08:00</stEvt:when>
                  <stEvt:softwareAgent>Adobe Audition 13.0 (Macintosh)</stEvt:softwareAgent>
                  <stEvt:changed>/</stEvt:changed>
               </rdf:li>
            </rdf:Seq>
         </xmpMM:History>
         <xmpMM:DerivedFrom rdf:parseType="Resource">
            <stRef:instanceID>xmp.iid:ebb5dbe3-27dd-4be9-8b61-57ad5fbc78b0</stRef:instanceID>
            <stRef:documentID>xmp.did:407c1ffb-7b7b-4dcb-ac14-d5ca5e8b5570</stRef:documentID>
            <stRef:originalDocumentID>xmp.did:d6434cdd-739a-4302-9c30-d1ce3cd7ebd8</stRef:originalDocumentID>
         </xmpMM:DerivedFrom>
         <dc:format>application/xml</dc:format>
         <AEScart:Version>0101</AEScart:Version>
         <AEScart:PostTimer>
            <rdf:Seq>
               <rdf:li rdf:parseType="Resource">
                  <AEScart:Usage>EOD </AEScart:Usage>
                  <AEScart:Value>2446167</AEScart:Value>
               </rdf:li>
               <rdf:li rdf:parseType="Resource">
                  <AEScart:Usage/>
                  <AEScart:Value>4294967295</AEScart:Value>
               </rdf:li>
               <rdf:li rdf:parseType="Resource">
                  <AEScart:Usage/>
                  <AEScart:Value>4294967295</AEScart:Value>
               </rdf:li>
               <rdf:li rdf:parseType="Resource">
                  <AEScart:Usage/>
                  <AEScart:Value>4294967295</AEScart:Value>
               </rdf:li>
               <rdf:li rdf:parseType="Resource">
                  <AEScart:Usage/>
                  <AEScart:Value>4294967295</AEScart:Value>
               </rdf:li>
               <rdf:li rdf:parseType="Resource">
                  <AEScart:Usage/>
                  <AEScart:Value>4294967295</AEScart:Value>
               </rdf:li>
               <rdf:li rdf:parseType="Resource">
                  <AEScart:Usage/>
                  <AEScart:Value>4294967295</AEScart:Value>
               </rdf:li>
               <rdf:li rdf:parseType="Resource">
                  <AEScart:Usage/>
                  <AEScart:Value>4294967295</AEScart:Value>
               </rdf:li>
            </rdf:Seq>
         </AEScart:PostTimer>
         <xmpDM:Tracks>
            <rdf:Bag>
               <rdf:li rdf:parseType="Resource">
                  <xmpDM:trackName>CuePoint Markers</xmpDM:trackName>
                  <xmpDM:trackType>Cue</xmpDM:trackType>
                  <xmpDM:frameRate>f48000</xmpDM:frameRate>
               </rdf:li>
               <rdf:li rdf:parseType="Resource">
                  <xmpDM:trackName>CD Track Markers</xmpDM:trackName>
                  <xmpDM:trackType>Track</xmpDM:trackType>
                  <xmpDM:frameRate>f48000</xmpDM:frameRate>
               </rdf:li>
               <rdf:li rdf:parseType="Resource">
                  <xmpDM:trackName>Subclip Markers</xmpDM:trackName>
                  <xmpDM:trackType>InOut</xmpDM:trackType>
                  <xmpDM:frameRate>f48000</xmpDM:frameRate>
               </rdf:li>
            </rdf:Bag>
         </xmpDM:Tracks>
      </rdf:Description>
   </rdf:RDF>
</x:xmpmeta>
                                                                                                    
                                                                                                    
                                                                                                    
                                                                                                    
                                                                                                    
                                                                                                    
                                                                                                    
                                                                                                    
                                                                                                    
                                                                                                    
                                                                                                    
                                                                                                    
                                                                                                    
                                                                                                    
                                                                                                    
                                                                                                    
                                                                                                    
                                                                                                    
                                                                                                    
                                                                                                    
                           
<?xpacket end="w"?>]]></xmpMetadata>
    <clipGroups/>
    <metronome enabled="false" pattern="downBeat subdivision subdivision subdivision " soundSet="sticks">
      <metronomeTrack automationLaneOpenState="false" id="40000" index="0" select="false" visible="false">
        <trackParameters trackHeight="77" trackHue="-1" trackMinimized="false">
          <name>Metronome</name>
        </trackParameters>
        <trackAudioParameters audioChannelType="mono" automationMode="1" monitoring="false" recordArmed="false" solo="false" soloSafe="true">
          <trackOutput outputID="10000" type="trackID"/>
          <trackInput inputID="-1"/>
          <component componentGuid="26216b10-773e-4545-af1b-dbe299c4b295" componentID="Audition.Fader" id="trackFader" name="volume" powered="true">
            <parameter index="0" name="volume" parameterValue="0.501187264919281005859375"/>
            <parameter index="1" name="static gain" parameterValue="1"/>
          </component>
          <component componentGuid="296e6ac9-7c7d-4f40-8b33-0eb04ad6004e" componentID="Audition.Mute" id="trackMute" name="Mute" powered="true">
            <parameter index="0" parameterValue="0"/>
            <parameter index="1" name="mute" parameterValue="0"/>
          </component>
          <component componentGuid="6bcb9adc-3688-4a70-8aff-cc24bdcfd1ba" componentID="Audition.StereoPanner" id="trackPan" name="StereoPanner" powered="true">
            <parameter index="0" name="Pan" parameterValue="0"/>
          </component>
          <component componentGuid="30aa3815-ad9f-435a-82c9-31478c4747b2" componentID="Audition.EQ" id="trackEQ" name="EQ" powered="false">
            <parameter index="0" name="Low Shelf Frequency" parameterValue="0.000834028352983295917510986328125"/>
            <parameter index="1" name="Low Shelf Gain" parameterValue="0.5"/>
            <parameter index="2" name="High Shelf Frequency" parameterValue="0.74979150295257568359375"/>
            <parameter index="3" name="High Shelf Gain" parameterValue="0.5"/>
            <parameter index="4" name="EQ Band 1 Center Frequency" parameterValue="0.00125104258768260478973388671875"/>
            <parameter index="5" name="EQ Band 1 Q" parameterValue="0.000199989997781813144683837890625"/>
            <parameter index="6" name="EQ Band 1 Gain" parameterValue="0.5"/>
            <parameter index="7" name="EQ Band 1 Enable" parameterValue="1"/>
            <parameter index="8" name="EQ Band 2 Center Frequency" parameterValue="0.0075062550604343414306640625"/>
            <parameter index="9" name="EQ Band 2 Q" parameterValue="0.000199989997781813144683837890625"/>
            <parameter index="10" name="EQ Band 2 Gain" parameterValue="0.5"/>
            <parameter index="11" name="EQ Band 2 Enable" parameterValue="1"/>
            <parameter index="12" name="EQ Band 3 Center Frequency" parameterValue="0.0325271077454090118408203125"/>
            <parameter index="13" name="EQ Band 3 Q" parameterValue="0.000199989997781813144683837890625"/>
            <parameter index="14" name="EQ Band 3 Gain" parameterValue="0.5"/>
            <parameter index="15" name="EQ Band 3 Enable" parameterValue="1"/>
            <parameter index="16" name="EQ Band 4 Center Frequency" parameterValue="0.13261051476001739501953125"/>
            <parameter index="17" name="EQ Band 4 Q" parameterValue="0.000199989997781813144683837890625"/>
            <parameter index="18" name="EQ Band 4 Gain" parameterValue="0.5"/>
            <parameter index="19" name="EQ Band 4 Enable" parameterValue="1"/>
            <parameter index="20" name="EQ Band 5 Center Frequency" parameterValue="0.532944142818450927734375"/>
            <parameter index="21" name="EQ Band 5 Q" parameterValue="0.000199989997781813144683837890625"/>
            <parameter index="22" name="EQ Band 5 Gain" parameterValue="0.5"/>
            <parameter index="23" name="EQ Band 5 Enable" parameterValue="1"/>
            <parameter index="24" name="Master Gain" parameterValue="0.666666686534881591796875"/>
            <parameter index="25" name="ConstantQ" parameterValue="1"/>
            <parameter index="26" name="Low Shelf Filter Order" parameterValue="0"/>
            <parameter index="27" name="High Shelf Filter Order" parameterValue="0"/>
            <parameter index="28" name="Ultra-Quiet Mode" parameterValue="0"/>
            <parameter index="29" name="Low Shelf Enable" parameterValue="1"/>
            <parameter index="30" name="High Shelf Enable" parameterValue="1"/>
            <parameter index="31" name="Original Sample Rate" parameterValue="0.25"/>
            <parameter index="32" name="EQ Band 1 Bandwidth" parameterValue="0.002499990165233612060546875"/>
            <parameter index="33" name="EQ Band 2 Bandwidth" parameterValue="0.0099999904632568359375"/>
            <parameter index="34" name="EQ Band 3 Bandwidth" parameterValue="0.0399999916553497314453125"/>
            <parameter index="35" name="EQ Band 4 Bandwidth" parameterValue="0.15999998152256011962890625"/>
            <parameter index="36" name="EQ Band 5 Bandwidth" parameterValue="0.63999998569488525390625"/>
            <parameter index="37" name="High-Pass Filter Enable" parameterValue="0"/>
            <parameter index="38" name="High-Pass Cutoff Frequency" parameterValue="0"/>
            <parameter index="39" name="High-Pass Slope" parameterValue="0.4000000059604644775390625"/>
            <parameter index="40" name="Low-Pass Filter Enable" parameterValue="0"/>
            <parameter index="41" name="Low-Pass Cutoff Frequency" parameterValue="0.833194315433502197265625"/>
            <parameter index="42" name="Low-Pass Slope" parameterValue="0.4000000059604644775390625"/>
            <parameter index="43" name="Bypass" parameterValue="0"/>
            <parameter index="44" name="LowGraphRange" parameterValue="1"/>
          </component>
        </trackAudioParameters>
        <editParameter parameterIndex="0" slotIndex="4294967280"/>
      </metronomeTrack>
    </metronome>
    <properties>
      <property key="EssentialSoundConfigurations">[{"Guid":"a8b40e3e-13e7-4c1f-b382-96058f1f691d","Name":"$$$/app/Presets/DefaultPresetName=(Default)","PresetData":{"ModeID":"ambience","Models":{"model_ducking":{},"model_loudness":{"DefaultLoudness":{"type":"float","value":-30},"LoudnessStandard":{"type":"std::uint32_t","value":0},"MaxLoudness":{"type":"float","value":-12},"MinLoudness":{"type":"float","value":-42}},"model_soundeffects":{"ReverbPresets":{"type":"tree::any","value":{"$$$/app/Presets/EssentialSound/ReverbPreset/LargeRoomAmbience=Large Room Ambience":{"type":"array::float","value":[0.051507499068975449,0.32432401180267334,0.29292899370193481,0.30000001192092896,0.20000000298023224,0,0.14285700023174286,0.40000000596046448,0.5,0.69999998807907104,0.30000001192092896,0.25125628709793091,0.03125]},"$$$/app/Presets/EssentialSound/ReverbPreset/OutsideAmbience=Outside Ambience":{"type":"array::float","value":[0.091708503663539886,0.043893899768590927,1,0.5,0.20000000298023224,0.80000001192092896,0.18367299437522888,1,0.5,0,0.80000001192092896,0.25125628709793091,0.03125]},"$$$/app/Presets/EssentialSound/ReverbPreset/RoomAmbience=Room Ambience":{"type":"array::float","value":[0.057788901031017303,0.44944900274276733,0.49494898319244385,0.89999997615814209,0.10000000149011612,0.15000000596046448,0.081632703542709351,0.40000000596046448,0.5,0.80000001192092896,0.20000000298023224,0.25125628709793091,0.03125]},"$$$/app/Presets/EssentialSound/ReverbPreset/WindEffect=Wind Effect":{"type":"array::float","value":[0.19597999751567841,0.6896899938583374,0.69696998596191406,0.25,0.5,0.5,0.23469400405883789,0.51999998092651367,0.5,0.75,0.25,0.25125628709793091,0.03125]}}}},"model_stereowidth":{},"model_volume":{"MaxGain":{"type":"float","value":15},"MinGain":{"type":"float","value":-60}}},"Version":1},"Type":"1c19ca71-c24c-49cd-8dd5-2cc46018507a","Version":1},{"Guid":"58dc27a8-6a2a-480c-bd0c-4b45fff346a6","Name":"$$$/app/Presets/DefaultPresetName=(Default)","PresetData":{"ModeID":"dialog","Models":{"model_clarity":{"EQPresets":{"type":"tree::any","value":{"$$$/app/Presets/EssentialSound/EQPreset/BackgroundVoice=Background Voice":{"type":"array::float","value":[0.12099699676036835,0.5,0.39240506291389465,0,0.5,0.5,0.5,0.5,0.5,0.47827938199043274,0.45772689580917358,0.45778733491897583,0.47946760058403015,0.5,0]},"$$$/app/Presets/EssentialSound/EQPreset/Intercom=Intercom":{"type":"array::float","value":[0.19432899355888367,0.5,1,0,0.071499988436698914,0.071499988436698914,0.071499988436698914,0.40238627791404724,0.48571401834487915,0.5,0.55155748128890991,0.59602576494216919,0.22246670722961426,0.071499988436698914,0]},"$$$/app/Presets/EssentialSound/EQPreset/LockedInTheTrunk=Locked in the Trunk":{"type":"array::float","value":[0.12099699676036835,0.5,0.79746836423873901,0,0.5,0.5,0.5,0.5,0.5,0.32846158742904663,0.15721426904201508,0.15721426904201508,0.15721426904201508,0.15721426904201508,0]},"$$$/app/Presets/EssentialSound/EQPreset/OldRadio=Old Radio":{"type":"array::float","value":[0.12099699676036835,0.5,0.79746836423873901,0,0.15721426904201508,0.15721426904201508,0.15721426904201508,0.28442040085792542,0.48315632343292236,0.36498492956161499,0.52853888273239136,0.43511500954627991,0.27154684066772461,0.15721426904201508,0]},"$$$/app/Presets/EssentialSound/EQPreset/OnTheTelephone=On the Telephone":{"type":"array::float","value":[0.12099699676036835,0.5,0.39240506291389465,0,0.32864287495613098,0.32864287495613098,0.32864287495613098,0.32864287495613098,0.48571401834487915,0.53071397542953491,0.53071397542953491,0.48357096314430237,0.32864287495613098,0.32864287495613098,0]},"$$$/app/Presets/EssentialSound/EQPreset/OutsideOfTheRoom=Outside of the Room":{"type":"array::float","value":[0.12099699676036835,0.5,0.79746836423873901,0,0.42539370059967041,0.47865453362464905,0.5,0.5,0.48571401834487915,0.40073278546333313,0.25656309723854065,0.15721426904201508,0.15721426904201508,0.15721426904201508,0]},"$$$/app/Presets/EssentialSound/EQPreset/PodcastVoice=Podcast Voice":{"type":"array::float","value":[0.12099699676036835,0.5,0.39240506291389465,0,0.5,0.5,0.5,0.51789408922195435,0.50770342350006104,0.5,0.51789408922195435,0.528114914894104,0.5102812647819519,0.5,0]},"$$$/app/Presets/EssentialSound/EQPreset/SubtleBoostFemale=Subtle Boost (Female)":{"type":"array::float","value":[0.096553400158882141,0.5,0.29113924503326416,0,0.5,0.5,0.5,0.5,0.5,0.51933407783508301,0.54642897844314575,0.52706766128540039,0.5,0.5,0]},"$$$/app/Presets/EssentialSound/EQPreset/SubtleBoostMale=Subtle Boost (Male)":{"type":"array::float","value":[0.096553400158882141,0.5,0.29113924503326416,0,0.5,0.5,0.5,0.5,0.5,0.5135338306427002,0.54642897844314575,0.51933407783508301,0.5,0.5,0]},"$$$/app/Presets/EssentialSound/EQPreset/ThatPublicRadioSound=That Public Radio Sound":{"type":"array::float","value":[0.12099699676036835,0.5,0.79746836423873901,0,0.15721426904201508,0.15721426904201508,0.15721426904201508,0.36334344744682312,0.49468311667442322,0.5,0.5,0.5,0.5,0.5,0]},"$$$/app/Presets/EssentialSound/EQPreset/VocalPresence=Vocal Presence":{"type":"array::float","value":[0.096553400158882141,0.5,0.32489451766014099,0,0.3572143018245697,0.3572143018245697,0.46428570151329041,0.47857141494750977,0.4763694703578949,0.49570354819297791,0.55924957990646362,0.56523394584655762,0.50859290361404419,0.46992480754852295,0]}}}},"model_loudness":{"DefaultLoudness":{"type":"float","value":-23},"LoudnessStandard":{"type":"std::uint32_t","value":0},"MaxLoudness":{"type":"float","value":-12},"MinLoudness":{"type":"float","value":-42}},"model_restoration":{"ReduceNoiseMaxSetting":{"type":"array::float","value":[1,0,0,0,0]},"ReduceNoiseMinSetting":{"type":"array::float","value":[0,0,0,0,0]},"ReduceReverbMaxSetting":{"type":"array::float","value":[1,0,1,0,0]},"ReduceReverbMinSetting":{"type":"array::float","value":[0,0,1,0,0]},"ReduceRumbleMaxSetting":{"type":"array::float","value":[1,0.045089054852724075,0.375,0,0,0.00083333335351198912,1,0,1,0.0390625,0.00083408987848088145,0,0.0041666668839752674,0.00022554649331141263,0.0046875001862645149,0.75,0.0052083334885537624,0.75,1,0.75,0.0040520834736526012,0.75,0.0042629167437553406,0.00022554649331141263,0.0064883334562182426,0.00022554649331141263,0.006866666954010725,0.75,0.0071704164147377014,0.00022554649331141263,0.01041458360850811,0.00022554649331141263,0.010900000110268593,0.75,0.011407917365431786,0.00022554649331141263,0.015606249682605267,0.00022554649331141263,0.016333334147930145,0.75,0.017094582319259644,0.00022554649331141263,0.026243748143315315,0.00022554649331141263,0.0274666678160429,0.75,0.028746666386723518,0.00022554649331141263,0.041658751666545868,0.00022554649331141263,0.043600000441074371,0.75,0.045631669461727142,0.00022554649331141263,0.062424581497907639,0.00022554649331141263,0.065333336591720581,0.75,0.068377502262592316,0.00022554649331141263,0.10497540980577469,0.00022554649331141263,0.1098666712641716,0.75,0.11498583108186722,0.00022554649331141263,0.16663584113121033,0.00022554649331141263,0.17440000176429749,0.75,0.18252624571323395,0.00022554649331141263,0.91874998807907104,0.00022554649331141263,1,0.00022554649331141263,0,0,0,0,0,0,0,0,0,0,0,0,0,0,0,0,0,0,0,0,0,0,0,0,0,0,0,0,0,0,0,0,0,0,0,0,0,0,0,0,0,0,0,0,0,0,0,0,0,0,0,0,0,0,0,0,0,0,0,0,0,0,0,0,0,0,0,0,0,0,0,0,0,0,0,0,0,0,0,0,0,0,0,0,0,0,0,0,0,0,0,0,0,0,0,0,0,0,0,0,0,0,0,0,0,0,0,0,0,0,0,0,0,0,0,0,0,0,0,0,0,0,0,0,0,0,0,0,0,0,0,0,0,0,0,0,0,0,0,0,0,0,0,0,0,0,0,0,0,0,0,0,0,0,0,0,0,0,0,0,0,0,0,0,0,0,0,0,0,0,0,0,0,0,0,0,0,0,0,0,0,0,0,0,0,0,0,0,0,0]},"ReduceRumbleMinSetting":{"type":"array::float","value":[1,0.045089054852724075,0.375,0,0,0.00083333335351198912,1,0,1,0.0390625,0.00083408987848088145,0.75,0.0041666668839752674,0.75,0.0046875001862645149,0.75,0.0052083334885537624,0.75,1,0.75,0.91874998807907104,0.61237245798110962,1,0.61237245798110962,0,0,0,0,0,0,0,0,0,0,0,0,0,0,0,0,0,0,0,0,0,0,0,0,0,0,0,0,0,0,0,0,0,0,0,0,0,0,0,0,0,0,0,0,0,0,0,0,0,0,0,0,0,0,0,0,0,0,0,0,0,0,0,0,0,0,0,0,0,0,0,0,0,0,0,0,0,0,0,0,0,0,0,0,0,0,0,0,0,0,0,0,0,0,0,0,0,0,0,0,0,0,0,0,0,0,0,0,0,0,0,0,0,0,0,0,0,0,0,0,0,0,0,0,0,0,0,0,0,0,0,0,0,0,0,0,0,0,0,0,0,0,0,0,0,0,0,0,0,0,0,0,0,0,0,0,0,0,0,0,0,0,0,0,0,0,0,0,0,0,0,0,0,0,0,0,0,0,0,0,0,0,0,0,0,0,0,0,0,0,0,0,0,0,0,0,0,0,0,0,0,0,0,0,0,0,0,0,0,0,0,0,0,0,0,0,0,0,0,0,0,0,0,0,0,0,0,0,0,0,0,0,0,0,0,0,0,0,0,0,0,0]},"ReduceSibilanceMaxSetting":{"type":"array::float","value":[0.5,0.19983997941017151,0.18367347121238708,0.26086956262588501,0.52702701091766357,0,1,0,0,0,0,0.75,1,1,0.40000000596046448]},"ReduceSibilanceMinSetting":{"type":"array::float","value":[0.875,0.19983997941017151,0.18367347121238708,0.19130434095859528,0.25675675272941589,0,1,0,0,0,0,0.75,1,1,0.40000000596046448]}},"model_soundeffects":{"ReverbPresets":{"type":"tree::any","value":{"$$$/app/Presets/EssentialSound/ReverbPreset/Auditorium=Auditorium":{"type":"array::float","value":[0.013047545216977596,0.15895412862300873,1,0.89999997615814209,0,0.52007436752319336,0.41663265228271484,0.46000000834465027,0.5,0.73000001907348633,0.15999999642372131,0.75376886129379272,0.03125]},"$$$/app/Presets/EssentialSound/ReverbPreset/Church=Church":{"type":"array::float","value":[0.032663315534591675,0.39939939975738525,0.79797977209091187,0.25,0.5,0.5,0.2297959178686142,0.72000002861022949,0.5,0.62999999523162842,0.87999999523162842,0.25125628709793091,0.03125]},"$$$/app/Presets/EssentialSound/ReverbPreset/LargeReflectiveRoom=Large Reflective Room":{"type":"array::float","value":[0.0074449013918638229,0.098988421261310577,0.79890537261962891,0.89999997615814209,0.10000000149011612,0.40110713243484497,0.060284845530986786,0.27522978186607361,0.5,0.73000001907348633,0.31999999284744263,0.25125628709793091,0.03125]},"$$$/app/Presets/EssentialSound/ReverbPreset/OutsideTheClub=Outside the Club":{"type":"array::float","value":[0.020615793764591217,0.050136558711528778,0.69696998596191406,0.25,0.094355784356594086,0.22242647409439087,0.1071428582072258,0.2800000011920929,0.5,0.73000001907348633,0.46000000834465027,0.25125628709793091,0.03125]},"$$$/app/Presets/EssentialSound/ReverbPreset/SmallDryRoom=Small Dry Room":{"type":"array::float","value":[0.24623115360736847,0.69975000619888306,0.29292899370193481,0.40000000596046448,0.20000000298023224,0.40000000596046448,0.039285715669393539,0.10000000149011612,0.5,1,0.5,0.75376886129379272,0.03125]},"$$$/app/Presets/EssentialSound/ReverbPreset/ThickenVoice=Thicken Voice":{"type":"array::float","value":[0.19597999751567841,0.23931467533111572,0.69696998596191406,0.25,0.5,0.53999996185302734,0.020408162847161293,0.20945435762405396,0.5,1,0.34999999403953552,0.25125628709793091,0.03125]},"$$$/app/Presets/EssentialSound/ReverbPreset/WarmRoom=Warm Room":{"type":"array::float","value":[0.020100502297282219,0.074074074625968933,0.49494948983192444,0.40000000596046448,0.74960309267044067,0.40000000596046448,0.1239795908331871,0.67000001668930054,0.5,0.85000002384185791,0.56000000238418579,0.25125628709793091,0.03125]},"$$$/app/Presets/EssentialSound/ReverbPreset/WarmVoice=Warm Voice":{"type":"array::float","value":[0.19597989320755005,0.89989989995956421,0,0.40000000596046448,0.20000000298023224,0.40000000596046448,0.10204081982374191,0.090000003576278687,0.5,1,0.30000001192092896,0.25125628709793091,0.03125]}}}},"model_volume":{"MaxGain":{"type":"float","value":15},"MinGain":{"type":"float","value":-60}}},"Version":1},"Type":"1c19ca71-c24c-49cd-8dd5-2cc46018507a","Version":1},{"Guid":"353811fa-4179-435e-8e5e-23028ba15a7a","Name":"$$$/app/Presets/DefaultPresetName=(Default)","PresetData":{"ModeID":"generic","Models":{"model_loudness":{"DefaultLoudness":{"type":"float","value":-24},"LoudnessStandard":{"type":"std::uint32_t","value":0},"MaxLoudness":{"type":"float","value":-12},"MinLoudness":{"type":"float","value":-42}},"model_volume":{"MaxGain":{"type":"float","value":15},"MinGain":{"type":"float","value":-60}}},"Version":1},"Type":"1c19ca71-c24c-49cd-8dd5-2cc46018507a","Version":1},{"Guid":"31ba96a6-5d3e-4d89-b1e1-1dbe3c055d0c","Name":"$$$/app/Presets/DefaultPresetName=(Default)","PresetData":{"ModeID":"music","Models":{"model_ducking":{},"model_duration":{},"model_loudness":{"DefaultLoudness":{"type":"float","value":-25},"LoudnessStandard":{"type":"std::uint32_t","value":0},"MaxLoudness":{"type":"float","value":-12},"MinLoudness":{"type":"float","value":-42}},"model_volume":{"MaxGain":{"type":"float","value":15},"MinGain":{"type":"float","value":-60}}},"Version":1},"Type":"1c19ca71-c24c-49cd-8dd5-2cc46018507a","Version":1},{"Guid":"cea63332-1adc-44a9-a6eb-5490f965859b","Name":"$$$/app/Presets/DefaultPresetName=(Default)","PresetData":{"ModeID":"sfx","Models":{"model_loudness":{"DefaultLoudness":{"type":"float","value":-21},"LoudnessStandard":{"type":"std::uint32_t","value":0},"MaxLoudness":{"type":"float","value":-12},"MinLoudness":{"type":"float","value":-42}},"model_pan":{},"model_soundeffects":{"ReverbPresets":{"type":"tree::any","value":{"$$$/app/Presets/EssentialSound/ReverbPreset/HeavyReverb=Heavy Reverb":{"type":"array::float","value":[0.13316600024700165,0.29929900169372559,1,0.95999997854232788,0.85000002384185791,0.5,0.51530599594116211,0.30000001192092896,0.5,0.5,0.5,0.25125628709793091,0.0625]},"$$$/app/Presets/EssentialSound/ReverbPreset/LightReverb=Light Reverb":{"type":"array::float","value":[0.095477402210235596,0.29929900169372559,0.090909101068973541,1,1,0.80000001192092896,0.22449000179767609,0.60000002384185791,0.5,0.69999998807907104,0.30000001192092896,0.25125628709793091,0.0625]},"$$$/app/Presets/EssentialSound/ReverbPreset/OutsideReverb=Outside Reverb":{"type":"array::float","value":[0.091708503663539886,0.043893899768590927,1,0.5,0.20000000298023224,0.80000001192092896,0.18367299437522888,1,0.5,0,0.80000001192092896,0.25125628709793091,0.0625]},"$$$/app/Presets/EssentialSound/ReverbPreset/RoomReverb=Room Reverb":{"type":"array::float","value":[0.057788901031017303,0.44944900274276733,0.49494898319244385,0.89999997615814209,0.10000000149011612,0.15000000596046448,0.081632703542709351,0.40000000596046448,0.5,0.80000001192092896,0.20000000298023224,0.25125628709793091,0.0625]}}}},"model_volume":{"MaxGain":{"type":"float","value":15},"MinGain":{"type":"float","value":-60}}},"Version":1},"Type":"1c19ca71-c24c-49cd-8dd5-2cc46018507a","Version":1}]</property>
    </properties>
  </session>

  <files>
    <file absolutePath="/Volumes/TXL/Premiere/mcc-1031/audio/200302_0211.wav" id="0" importerPrivateSettings="Compression:0:0;LargeFileSupport:0:0;SampleType:0:40;" mediaHandler="AmioWav"/>
    <file absolutePath="/Users/TonyWu/Developer/projects/mcc/1031/media/audio/sound-project/street-ambience-quiet.wav" id="1" importerPrivateSettings="Compression:0:0;LargeFileSupport:0:0;SampleType:0:40;" mediaHandler="AmioWav" relativePath="street-ambience-quiet.wav"/>
    <file absolutePath="/Volumes/TXL/Premiere/mcc-1031/audio/200302_0209.wav" id="2" importerPrivateSettings="Compression:0:0;LargeFileSupport:0:0;SampleType:0:40;" mediaHandler="AmioWav"/>
    <file absolutePath="/Volumes/TXL/Premiere/mcc-1031/audio/200302_0213.wav" id="3" importerPrivateSettings="Compression:0:0;LargeFileSupport:0:0;SampleType:0:40;" mediaHandler="AmioWav"/>
    <file absolutePath="/Volumes/TXL/Premiere/mcc-1031/audio/200302_0214.wav" id="4" importerPrivateSettings="Compression:0:0;LargeFileSupport:0:0;SampleType:0:40;" mediaHandler="AmioWav"/>
    <file absolutePath="/Volumes/TXL/Premiere/mcc-1031/audio/200302_0215.wav" id="5" importerPrivateSettings="Compression:0:0;LargeFileSupport:0:0;SampleType:0:40;" mediaHandler="AmioWav"/>
    <file absolutePath="/Volumes/TXL/Premiere/mcc-1031/audio/200302_0218.wav" id="6" importerPrivateSettings="Compression:0:0;LargeFileSupport:0:0;SampleType:0:40;" mediaHandler="AmioWav"/>
    <file absolutePath="/Volumes/TXL/Premiere/mcc-1031/audio/200302_0224.wav" id="7" importerPrivateSettings="Compression:0:0;LargeFileSupport:0:0;SampleType:0:40;" mediaHandler="AmioWav"/>
    <file absolutePath="/Volumes/TXL/Premiere/mcc-1031/audio/200302_0222.wav" id="8" importerPrivateSettings="Compression:0:0;LargeFileSupport:0:0;SampleType:0:40;" mediaHandler="AmioWav"/>
    <file absolutePath="/Volumes/TXL/Premiere/mcc-1031/audio/200302_0217.wav" id="9" importerPrivateSettings="Compression:0:0;LargeFileSupport:0:0;SampleType:0:40;" mediaHandler="AmioWav"/>
    <file absolutePath="/Volumes/TXL/Premiere/mcc-1031/audio/200302_0226.wav" id="10" importerPrivateSettings="Compression:0:0;LargeFileSupport:0:0;SampleType:0:40;" mediaHandler="AmioWav"/>
  </files>

  <audioDevice inputID="AppleHDAEngineInput:1F,3,0,1,0:1" outputID="AppleHDAEngineOutput:1F,3,0,1,1:0">
    <inputPort id="1" name="Default Stereo Input"/>
    <inputPort id="2" name="[01M] Built-in Microphone: Internal Microphone 1"/>
    <inputPort id="3" name="[02M] Built-in Microphone: Internal Microphone 2"/>
    <inputPort id="4" name="[01S] Built-in Microphone: Internal Microphone 1"/>
    <outputPort id="1" name="Default Output"/>
    <outputPort id="2" name="[01M] Built-in Output: Internal Speakers 1"/>
    <outputPort id="3" name="[02M] Built-in Output: Internal Speakers 2"/>
    <outputPort id="4" name="Default Stereo Output"/>
    <outputPort id="5" name="[01S] Built-in Output: Internal Speakers 1"/>
    <outputPort id="6" name="Default Surround Output"/>
  </audioDevice>

</sesx>
