<svg id="map" role="article" aria-controls="overlay" xmlns="http://www.w3.org/2000/svg" xmlns:xlink="http://www.w3.org/1999/xlink" viewBox="0 0 1460 1410">
    <defs>
        <style>
            .cls-1 {
                /* filter: url(#AI_GaussianBlur_10); */
            }

            .cls-2 {
                fill: #fff;
                /* filter: url(#AI_GaussianBlur_10); */
            }

            .cls-4 {
                fill: #3c8dc1;
                fill-rule: evenodd;
            }

            .cls-10,
            .cls-12,
            .cls-6,
            .cls-8 {
                fill: none;
                stroke-linecap: round;
                stroke-linejoin: round;
            }

            #ways {
                opacity: .6
            }

            .cls-6,
            .cls-8 {
                stroke: #3b3b44;
            }

            .cls-6 {
                stroke-width: 2px;
            }

            .cls-8 {
                stroke-width: 5px;
            }

            .cls-10 {
                stroke: #d29a61;
                stroke-width: 8px;
            }

            .cls-12 {
                stroke: #e26a72;
                stroke-width: 12px;
            }

            #east-river {
                mask: url(#mask);
            }

            #streets {
                mask: url(#mask-2);
            }

            #roads {
                mask: url(#mask-3);
            }

            #avenues {
                mask: url(#mask-4);
            }

            #highways {
                mask: url(#mask-5);
            }
        </style>
        <filter id="AI_GaussianBlur_10" name="AI_GaussianBlur_10">
            <feGaussianBlur stdDeviation="10" />
        </filter>
        <mask id="mask" x="-1301.44" y="-204.85" width="2832.29" height="2222.88" maskUnits="userSpaceOnUse">
            <g id="viewport_1" data-name="viewport 1" class="cls-1">
                <path class="cls-2"
                    d="M899,1346c-129-25-157-62-203-163-25-97-4.6-213.34-17-310-10.37-80.79-102-187-182-257C392.66,524.7,339.39,476.78,198.16,479.08,44.08,481.59-57.38,281.35,88,110c70-61,103-49,192-62,229-34,436-69,604,78,94,90,101,99,152,182,49.88,81.17,58,95,91,157,33.37,62.69,38,63,98,158s109,172,145,284,45.62,263.22-88.19,348.11S1028,1371,899,1346Z" />
            </g>
        </mask>
        <mask id="mask-2" x="-569.72" y="-225.67" width="2390.77" height="2162.45" maskUnits="userSpaceOnUse">
            <path id="viewport_1-2" data-name="viewport 1" class="cls-2"
                d="M899,1346c-129-25-157-62-203-163-25-97-4.6-213.34-17-310-10.37-80.79-102-187-182-257C392.66,524.7,336.53,507.45,198.16,479.08,32,445-75,228,88,110c34.83-27.62,91-53,192-62S769.77,194.28,836,225c69,32,107,62,183,126,54.65,46,69.37,77,109,135,41,60,37,42,97,137s109,172,145,284,45.62,263.22-88.19,348.11S1028,1371,899,1346Z" />
        </mask>
        <mask id="mask-3" x="-466.45" y="-76.45" width="2215.77" height="1430.84" maskUnits="userSpaceOnUse">
            <path id="viewport_1-3" data-name="viewport 1" class="cls-2"
                d="M899,1346c-129-25-157-62-203-163-25-97-4.6-213.34-17-310-10.37-80.79-102-187-182-257C392.66,524.7,336.53,507.45,198.16,479.08,32,445-75,228,88,110c34.83-27.62,91-53,192-62S769.77,194.28,836,225c69,32,107,62,183,126,54.65,46,69.37,77,109,135,41,60,37,42,97,137s109,172,145,284,45.62,263.22-88.19,348.11S1028,1371,899,1346Z" />
        </mask>
        <mask id="mask-4" x="-425.87" y="-101.9" width="2017.98" height="1541.9" maskUnits="userSpaceOnUse">
            <path class="cls-2"
                d="M1419.81,1021.24a97,97,0,0,0-64.19-155.42C1321.34,775.11,1277.36,705.9,1225,623c-60-95-56-77-97-137-39.63-58-54.35-89-109-135-2.9-2.45-5.74-4.83-8.53-7.17A135,135,0,1,0,792.53,206.25c-60.52-25.14-164-65.58-264.13-99.34a135.09,135.09,0,0,0-175.54-50.8C322.33,49.65,297.06,46.48,280,48,179,57,122.83,82.38,88,110-75,228,32,445,198.16,479.08c41.59,8.53,75.75,16.05,106,24.89q-.18,3.5-.18,7A135,135,0,0,0,508.84,626.55C585.79,696.36,669.14,796.17,679,873c8.09,63,2.23,134.38,4.1,203.3C657,1114,640,1144,645,1170s21,45,61,72c11.43,7.71,19,14,31.77,18.93,31.84,45.16,72.81,67.93,161.23,85.07,54.06,10.48,106.55,11.11,159.13,2.07a97,97,0,1,0,174.16-63.68q24.48-13.38,49.52-29.28c25.65-16.27,46-35,61.94-55.38a97,97,0,1,0,76.06-178.49Z" />
        </mask>
        <mask id="mask-5" x="-482.33" y="-102.73" width="2021.05" height="1636.13" maskUnits="userSpaceOnUse">
            <path class="cls-2"
                d="M1370,907c-36-112-85-189-145-284s-56-77-97-137c-.91-1.34,7.6,14.06-2.7-4-2-3.5-5.2-8.46-9.08-14.21A33,33,0,0,0,1078.06,414c-5-6.89-8.67-12.07-10-14.09-5.09-7.9-28-31.17-49.09-48.9l-6.29-5.29a81,81,0,1,0-124.44-93.46A589,589,0,0,0,836,225C769.77,194.28,381,39,280,48a595.12,595.12,0,0,0-74.37,11A68,68,0,1,0,81.81,114.64c-154,119-47.66,330.8,116.35,364.44C336.53,507.45,392.66,524.7,497,616c49.24,43.09,102.88,99.89,139.27,156C609,804,602.9,811,602,837c-1,29,19.08,35.73,59,65,12.93,9.48,19,27,22.39,49,.51,77.35-5.95,160,12.61,232,46,101,74,138,203,163s249-6,382.81-90.89S1406,1019,1370,907Z" />
        </mask>
        <clipPath id="border">
            <path id="clip" class="cls-13"
                d="M984.65,1434.39a531.55,531.55,0,0,1-100.87-9.85c-79.2-15.35-130-36.6-169.77-71.06-43.11-37.32-67.56-86.25-90.81-137.32l-2.92-6.39-1.75-6.8c-17.19-66.69-16.31-135.49-15.46-202,.55-42.61,1.06-82.85-3.42-117.77-1.35-10.5-8.86-40.73-49.43-94.59-28.12-37.32-65.73-77.24-105.9-112.38l-3.18-2.78c-47.23-41.34-81.36-71.21-115.69-89.51-32.77-17.47-68-24.92-117.71-24.92-2.7,0-5.49,0-8.27.07-1.38,0-2.79,0-4.16,0h0c-99.33,0-187.87-58-231.1-151.33C-60.13,355.27-67.93,296-58.37,236.47-48.32,173.85-18.8,112.22,27,58.24l3.9-4.59,4.54-4c33.47-29.17,64.36-48,97.19-59.25C163.05-20,191.05-22.73,220.7-25.63c14.75-1.45,30-2.94,47.61-5.51l16.14-2.4c97.84-14.57,190.26-28.34,281.46-28.34,71.49,0,134,8.68,191.06,26.53,67.13,21,125.91,54.07,179.71,101.14L938,67l1.3,1.24c97.16,93,109.48,107.82,164.83,197.9,49.73,80.94,59.14,96.81,93.46,161.29,19.61,36.84,27.63,49,47,78.5,11,16.69,26,39.54,48,74.37l1.87,3c60.59,95.93,112.92,178.78,151.65,299.28,17.53,54.54,35.66,137.19,22.45,221.13-14.6,92.8-64.37,168.53-143.94,219-58.51,37.12-113.49,64.13-168.06,82.58C1098.55,1424.86,1042.31,1434.39,984.65,1434.39Z" />
        </clipPath>
    </defs>
    <g id="root">
        <g class="cls-4">
            <g id="terra">
                <g id="waters">
                    <path id="east-river" class="cls-5"
                        d="M132.57,621.12l3.61-18.31,1.64-14.58,1.23-2.86.13-6.65-1-6.25L136.71,555l-1.3-8.72,3-.44-.2-1.34-1.42-.16L135,542.5l-2.21-4.31-4-37.09L122,483.44l-2.31-5.19-1.78-.1-7.15-23.74-1.34-5.14,7.21-.81-.83-6.79-8.26-.5-2.25-14.7L105,424.6l-1-4,.92-7.14L103.65,405l1.65-7.34L112,375l8-11.39,4.63-9.92L149,318.4l3.32,1.06,4.93-7,2.12-2.44-1.55-1.9L174,287.41l16-16.73L202.15,259l6-5.74,12.71-10.42,5-4.09,21.84-14.6,35.23-5.19,17.51-2.19,9.58-.4v-.56l3.69.14,6.8,1,17.94,2.82,12.17,2.45,2.11.56,10.23,2.74,2.65.62,14.32,3.39,1,2.11-.65,1.78,1.6.72,1.28-3.49,36,13.55L436.91,253l-.26.64L481,276.52l1.25-1.9,22.86,10.11,1.16,1,.79,1.28,12.67,5.53,1-.23,1.09,0,1.62.57,1.21.79,1.23,1,.44,1.33.08,1.55-1.78,4.72-19.43,45.5L509,381l12.33-1.46-3.48-28.1-.47,0-.14-1.82,12.79-30.2,2.17-1.27L541,322l7.46-17.9,1.49.71-.75,1.77,3.56,1.49.46-1.24,1.21-.6,3.44,1.31.43,1.45-.54,1.18,3.84,1.57.61-1.68,1.42.65-7.28,17.47,1.91,15.38,4.31,2,.7-4.45,12.49-25.61,14.38,6.86,42.49,23.37,16.81,16.39L647,365.27l6.51,6.81,1.89-1.67,10.77,20.66,4.08,12.37-3.55,1.24,2.67,9,1.89-.66,2.94,9.58,1.07,3.66,1.68,2.88,3.43,10.8,5.57,17.53,11.47,28.11L702,497.05l45,47.65,27.57,20.78,27.9,10.25,27.18,9.82,19.45,3.79.13,2.18,44.89,8.64,2.65,0,2.18-1.56,8.68,1.81,1.22,1.82,7.34,2.84.41-1.2,23.55,6.76,12.62,2.53,14.38,7.12L982.85,631l14.77,18.19,19.56,32.51,2.05,31.16,10.68,31.6,25.93,78.45,20.46,60.25,21.15-6.82,3.86,11.83,2.35,7.3,2,6.38-3.8,26.89L1097.06,940l-36.18,11.76h-5.11L1004,969.93l-4-1.14-4.54-4L993.8,960l-5.68,2.84-1.42,4.27-3.12,2.27-.57,6.82-7.68,3.12-6,6.25-1.13,3.7,2.32,7.65,1.18,3.9,7.29,24-1.7,5.4-4.27,4.84-53.14,17-.29-1.71L900.86,1060l3.41,12.51,11.66-4.55,4.07,12.47.33,1,3.1-.81,2.93,8.18-3.15,1,4.56,14.4-5.14,10.33L889,1127.49,906.73,1179l-34.86,12.38,1.46,4.2,10.92-3.76,1.59,4,24.12-8.4,16.66,48.9,2.57,9.1,5.8,17.27.84.6.87.72.71,1.42,2.42-.85,1.27,1.14-.08,2-.33,1.58,2.45,7.74,1.07.55,1.21,1.16,1.49.53.68,1.22,4-1.13.55-1.3,4.09-1.71-5.31-15-1.25-3.35-29.75-89.12,21.32-7.38v-5.69l-23.56,7.28L912,1145l3.12-6.82,32.53-9.89,3.17-2.63-5.68-15.83-7.72-24.76-3.24.94-2.45-6.56,3-1.19-1.67-4.59,5.37-11,32-9.74,10.47-5.5,20.37-7.24-3.2-11.49-1.09-3.44-7.53-23.93,8.47-10.54,12.54-5.39L1069.19,965l34.66-7.28,30.08,26.12,7.17,24.47,1.35,4.55.78,2.72-13,4.93.86,2.27-19.61,6.83-14.5,22.73,12.57,37.63,8.46.41,9.57.47-10.8-36.84,7.2-7.64,11.09-9.09,15.34-4.55,14.36-10.61,44,10.66,2-9.88-44.28-11.59-16-40.29-16.15-20.62-10.1-28.32-3.39-6.09-.89-24.91,4.08-13.18L1117.73,861l-3.49-8-.65-11-6.11-15.74-6.39-5.4-4.55-2.28-4.77-8.19-2.5-5.91,16.37-43.88h70.71l13.19,5.45,20.47,6.83,3.51-9.84,2.86-6.58-.47-2.43-9-2.06-8.13-.08-18.31-9.94-16.61-4.32-20.38-4.09-3,2.42-11.6-.6-17.51-.91-10.44-4.84-10-7.11-12.07-11.39-10.25-11.87-12.73-14.39-14.22-18.21-6.26-7-12.29-14.56-11.36-13-3.42-7.5-7.72-10.69L998.42,612l-12.91-11.25-6.3-5.5-33-10.68L930.32,583l-5-3-46.76-7.19L860.29,570l-19.56-3.41-23.42-8.19-26.47-11.06-24.92-19-17.48-10.67L731.53,499.1l-12.26-12.94-1.63-4.25L710.9,465.2l.45-7.5.41-1.07-10.07-23.84-.89-5.28-7.51-22.88,1.55-.72-7.68-15.35-3.6-10.08-6.4-12.89-7-12.26-17.09-20.92.8-.9L645.38,325l-11.51-7.5-12.36-6.44-12.25-6.41-19.88-9.25-19.75-8.81-29.55-12.94-.92-.62-.46-.76.13-.92.46-.69,1-.33.53.2.59.46-.09.57,1.37.62,2-1,2.4-2.41,4-3.42,4-2.26,4.86-1.45,3.23-1.12,6.93-5,4.7-3.71,4.88-.53,26.21-13.12,9-5.9,6.91-7.31,4.3-3.44,5.18-3.94,5.82-.67L641,218l24.26-14.15,9.13-12.34.78-3.36,6.79-6.33,4.14-8,1.55-7.47,1.34-3.82-1-.29,2.49-7.86,1.86-4,2.83.65,1.45-9.42,22.17-48.19,13.56,3.08,2.12-14.08-17.76-4.24-12.66-3.29L702,74.51l-.22.54-6.55-2.43-2.08,9-1.47,4.79L705.61,90l-25,52.42-6.33,14.4-5.88,13.41L653.5,189.62l-6.23,7.1-10.75,5.93-3,1.4-2.92.69-2.9.22-.42,1.75-5.32,6.9,2.81,2.29-5.48,4-9.74-.27-3,3.1-6.62.5-25.06,12.83-16.29,6.78-9,5.38-11.94,2.42-30.89,8L435,225.53l-15.2-7-38.59-14.56L329.8,191.62l-16.3.27-8.67-.18-3.94.91-6.16.2-15.64,1.8-30.24,5.23-3.18-1.37L230,203.71l-4.32,3.19L172,237.82l-4.32.91-1.92.19-1.31.1-2,.17L161.09,244l-15.24,7.27-34.8-6.14-3-4.89-7.4-4.27-4.52-3.15-1.08-2.62.7-9.38L99.09,204l2.29-11.55,4.63-6,3.74-2.54,4.13-.19,5.34.36,1.32.07,7.45-8.25,1-1.89,3.72-1.1.63-3.62-3.91-1.36-3.68-1.76-7.44-3.49-1.62-2.49-1.11-2.47.8-4,1.44-4.69,3-2.74,6.72-.32,4.4.54,2,.44,1.57-4.94,3.65-5.83L139,134l-.85-9.33-2.63-2.39.26-.88-1.85-3.46-9.14-2L137.23,87.8,141,89.26l4.57-9.9-1.11-.5,1-4.23-.78-.5,2.76-4.79L153,64.26l1.82-.65,7.73-1.37,8.86,1.37,3.27-13.06.37-1.5,5.69-5.22,3.38-5.59,1.17-1.92,1.43-1.63.79-1,1-1,.79-.59.87-.64,1-.52,1-.48,1.36-.47,1.68-.38,1.37-.08.1-.3-1.33-.78.25-1.44,1.67-.39,1.4-.29.22-.85,3.5-13.92.39-1.51,3.08.77L207,6.27l-4.5-1.16.39-1.44-17.42-4-1-1.19-.76-1.33-.2-1.52.18-1.48,1.09-2.92,1.51-2.91,1.56-1.92,2.12-1.72,2.18-1,2.5-.28,8.62,2.1,2.5-.51.52-.86,2.82.37.29-1.15L207.83-17l-1.13-.83L206-20.27l-17-4.27,7.66-15.59,3.4-6.92,1.33.38,2.11-3.49,4.43-5.22,2.47-3.78,1-2.59-4.16-1.15,9.92-16.9-94-64.69L27.9-204.85,10.11-177.93l-12.57,19.5L-7-151.35-40.18-98.68-55.61-75l1.91,1.21,1.75,1.08L-70.59-42.83l-1-.65L-95.46-4.7l-2.63-1.84L-107.74,9l.4.85-3.09,5.54-.87.15-3.15,5.64-5.23,10.43-4.19-2.25-4.26,8.74L-131.06,44l-3.57,7.28,3.87,2.2L-148.9,90.41l4,2-5.87,11.68,0,.26-2,13.76-1.85,12.54-5,29.68,2.25.36.68.1.45.4.1.74-1.24,9.59.43.07-.5,3.27-.78-.1-1.52,9.89-.37.34-.43.19-2.84-.41-.52,2.45.25.1-5,23.07-.33,2,.16,12.15.8,34.93.37,21.44.51,14.13-.21.92.91,13.61,1.79,23.16-9.34.7-.55,0-.51-.14-30-16.54-10.76-5.94-.89,4.33-.11.53-1.42,7.15-.11.54,0,.21.08,7.41.06,7.64,8.22-.12,23.64,13.15-.4,1.49.34.39.46.51.35.7.31.81.13.8,0,.52-.05.66-.21.82-.64,1.22-.71.77-1,.71-.87.32-.68.14-.74,0h-.67l-.62-.14-.22-.14-.85,1.35-23.89-13.23,13.29,71.09,4.63,24.09,3.86,19.6.85,4.72.27,1.4,2.95,14.5.75,4.14.39,1.79,1.9,3,4.35,6.59,3,4.27,6.84,7.86ZM55.72-51.75l-1.29,1.91-.07,1L53.19-47l.28,1.06L53-44.55,51.48-44,50.23-42.8l.22,1.52-.89.89-1.81-.43-.25-1.52,0-1.82,1.25-2.59,2.06-2.52,1.41-1.64,2.44-2.81,1-.8.51.68Z" />
                </g>
            </g>
        </g>
        <g id="ways">
            <g class="cls-6">
                <path id="streets" class="cls-7"
                    d="M767.84,1075.72l-.12,2.33-1.15,22.46M493.94,760.43l1.15,6.52.29,6.11.14,5.48,1.45,7.74m101.69,75.88-4.85-39.26-5.59-44.51-.24-1.87-.3-2.43-5.18-41.46-5.25-42-.27-2.16-.33-2.72-7.82-62.61L560.62,558l-5.39-43.77L550.12,474m629.11,842.32-9-29.07-6.17-18.25m-387.92,11.47L773.07,1256l-3-22.69v-2.25M893.48,609.82,862,637l-9.89,8.53M1121,1094.34l.64,3.53,1.12,1.32M455.52,552.05l8.27,19.17,7.3,16.94M676.41,879.21,704.09,870l41.62-14.23,43.22-13.88M361.31,370.83l-2.39,1-59.09,7.62m778.39,921.14,41.73-9,22.46-5.15,1.06.28,1,.91,1,2.44M623.7,1060.48l.75,1.47.66,1.33.67.45.84,0,3-.69m66-31.9L693,1012M339.33,525.73l.93,2.15,25.79,59.68,1.28,3L383,626.65l25.07,58.14M683.16,930.84,678.42,939M134.8,525.77l16.61-2,31.93-3.75M736.79,1147.3l-6.95-21.75-1.91-3.17m-109.5-711-26.59-20.28-29.2-22M668.91,817.85l.23,2.41.81,8.37,2,15.5,1.25,9.53,1.88,15,1.3,10.52.32,2.47,2.94,22.73.92,8,2.57,18.43m74.59,262.07,49.45-17.79,41.09-15m102.08-5.94-4.85-.74-5.29-2.28-3.69-1.49-3.38-2-1.85-3.31-.92-4.44.67-2.45,1-1.43,11.8-4.08,31.08-10.79,41.65-14.09M171.24,596.8l5.81-.73L189,594.59l3.6-.45m350.76,101-23.51-54.67-1.59-3.69m302.84,167-40.32,13.71-43,14.67-41.67,14.34-22.84,7.2M382.75,469.87l-1.73.23-2,.26m644.1,794.58,41.93-14.3,37.43-12.74,3.31-1.13,3.29-1.13,20.43-7,18.75-6.39,45.65-16m-427,12.12,49.31-16.83,41.73-14m208.33-71.26-24.33,8.35-17.42,6-41.6,13.53M585,885.5l1.59,2.67,6.25,10.44L605.36,922l3.76,24.74,3,24.79,3.05,24.89,3.18,24.78,1.3,10.35,1.8,14.43m3.43,24.5.24,2.87,2.56,22.67,3.1,24.86,3.07,24.71m86.45-227.57-8.29-24.44-8-23.59-8-23.56m56.27,165.47-4.75-15.8-1.66-5.52-9.16-23.91-2.86-9-4.5-14.29m245.4,136.68-2-6.94-1.14-3.89M768.79,927,812.55,912M126,475.92l38.18-4.83,9.87-.32.73-.07,2.36-.25M730.7,1048.24l44.57,2.88,32.3,1.51,2.49.12,2.31.11M205.65,315.71l10.49-1.29,74.49-9.16m647.46,433-8.81-24.48m197.86,597.34-2-1.65-.29-.23-.61-.63-.55-.57-.47-1.42-3.29-15-4.88-24.61-.49-3.69-7.67-23.22-.3-.92-.79-2.36m-9.34-30.69-6.28-18.63-7.82-23.55-8.19-23.74-7.92-23.83-6.12-17.82-1.12-3.26M777,951.11l44-14.64M668.52,610.67l7.56,61.1.51,4.21,11,88,2.46,20.1M679.67,904.41l32.38-10.8,41.69-14.09,42.84-14.89M602.06,1277.25l3-.36,3-.38,41.58-5.31,44.58-5.53,78.94-9.64,56.77-7.37,2.07-.17,2.34-.19,39.5-13.6m88.51-31,36.37-12.22,42-13.57m41.76-14,41.38-14.37,43.73-14.49M572.3,849.77l-6,6m-36.43-71.1-1-2.38-28.21-65.44-.43-1-.8-1.87-1.14-2.61-24-55.53m641.22,669.49,15.31,12.76,19.28,15.83,19.27,15.79,19.22,15.87,19.24,15.87,19.26,15.79M540.4,627.7l3.92-1m79.38,433.79-.3,3,.4,4.35,1.12,2.71M643,1069l-.68-2.85-2.32-9.7M621,437.26l4.47-1,39.37-18.43,3.7.46m96.92,705.3-33.54-2-4,.74-3,1.41-32.21,10L673.46,1140l-4.89,1.09-34.68,4.51M855.71,1039l86.81-29.11m-771.64-589,2-.25,39.1-4.86,2.68-.34M896.8,752.87l-8.58-24.25m204,623-2.8-2.19-.88-1.07L1088,1347l-4.61-22.07-5.16-24.36-5-24.5-8.19-25.45m-.08.36-16.56-49.53-7.82-23.56-8.13-23.66-8-23.59-8-23.59-5.25-14.53-.91-2.53-1.84-5.64-1-3.1-7-21.56m-49.92-25.3-8.08-24.57M585.25,554.7,560.62,558M730.7,1048.24l-5.57-.41L665.88,1068l-6.2,2.12M646,838.87l.32,2.75L649.87,872l5.51,43.86m10.67,124.85-24.19,2.71-3,.33M840,1272.49l-8-24-8-23.91-7.7-23-9-26.45M670,828.63l12.92-4.28,15.19-5.14,31.78-10.75,43-14.65m-51-9,42.61-14.72m123.82-41.5,41.06-14.89m-388.88-86,5.5,11.52m55.69,46-.32-2.7L594,623.77l-.45-3.65M630.66,919l-5.13-41.24-.33-2.62-.38-2.88-1.67-12.75-.34-2.56-1.69-12.42M522,807.68l2.37-.23M770.1,1231.09l-65.51,8.26L691.32,1241m299.5-72.69,41.67-14.09,41.7-14.09m-396-43.79,14.46,37.4M168,345.19l1-3.35,21.6-15.43,3.64-2.6,8.17-5.83m880.91,1007,29.58-6.59,1.86-.06,1.49.29,1.35.78,1.68,1.31m-108.18,89.6-.17-.82-3.66-17.28-5.2-24.43L997,1343.36,991.85,1319l-5-24.47M829.18,828l-8.09-24.29L813,780.22l-8.48-23.89M544.32,626.69l24.51-3.57,24.72-3m236.11,483.65-2.4-.11-9.17-.42-51.52-2.73-38.77-1.69-11.7-.82-37.89-1.63-22.64-1.31-4.77-.79-4.32-.75-18.76,2.53-44.56,5.57M737.84,750.09l-2.4-3.72L726.34,673l-.42-3.27-8.08-65.21m134.26,41-6.1-1.4-14.38-5.42-35.54-15.19m85.86,635.39-2.49.23L840,1272.49l-28.86,3.62-34.93,4.38-49.92,6.39M979,1225.23l27.92-9.57,41.49-14.19,20.47-6.88,21.29-7.14,41.45-14.22M683.16,930.84l4.94-1.62,5.58-1.94,4.91-1.7,8.79-3.05,13-4.48M831,693.35l41.49-12.23M547.9,838.18l1.3-1,1.16-1,11.52-9.34M189.27,569.77l39.54-5,4.28-.54M352.41,322.67l-58.68,7.41-85.51,10.63-2.81.35-2.51.28L168,345.19M841,1138l-91.43,32.87M685,1191.72l-44.57,5.52-44.58,5.56m310.38,108.86-11.95-15.79M164.79,371.18l23.52-2.87,17.51-2.14,2.66-.32.64-.08,2-.25,34-4.26,11.3-1.42,35.72-4.47,1.55-.19,3-.38,55-6.85,3.31-.41.88-.11m789.47,942.62,1.4,2.79,11.88,9.28,20.5,14.22,18.79,16.43,17.78,13.87,1.85,1.44,1.51,1.18,18.11,14.16,19.64,15.31M570.68,1027.12l3.2-.41,2.72-.34,41.79-5.14,22.73-2.87L693,1012m91.69-37.71,44.4-14m-523.35-796-2.3,9.49-.65,2.73-2.67,11m-155-39.33.71-2.94,2.51-8.44,3.67-7.11,2.43-3.25,3.26-4.12m920.18,325.51,4.93.29,10,4.24,4.41,1.46,9.09,2.58m152.12,49.6,31,9.12m-74.47-135.54,1.09-7.76m-832.47-291-.4,4.88,3.36,5.36-3.33,14.21M1459.68,1238.9l19.52,15.34,19.64,15.31m-924.53-1141-6.16,24.36-6,23.68L556,201.12m651.68,899.75-.09,3,1.65,2.07,17.51,12.86,2.19,1.7,36,28.2m-13.29-619.45,34.5,10.2m212.72,730.12-29.25,37.85M710.16,57.8l-.73,5m411,475.86,37.69,11,81.16,23M439.42,145.26l-5.94,24.48M1473.56,1424.26l24.5-31.7m-169-107.11,11.9-15.31,30.3-39.1m108.7-58.89,1.61-2.12,14.39-18.92,2.23-23,.27-2.86M205.79,34.05l6,1.58,33.62,8.78L266.73,50M738.22,67.17l-9.76,73.66-.44,3.34m484.49,252.48,1.56-11,.84-5.94m-29.4,73.42-6.75,24.22L1172,501.25l-2.54,8.92L1165.22,525l-7.08,24.69L1151,574.28l-.43,1.51L1145,590.33l-21.84-6.2,3.5-14.12M378.16,126.39l-4.25-.27-6-.75-2.37-.32-11.07-1.71-4.33-1-19.59-4.71M623,192.73l-60.86-16.14L500.7,160.9l-61.28-15.64-2.61-.67m713.52,159.62,20.85-39m-152.12-89.37-11,72.44-4,27.25-2.89,19.4m235.15,106.21-12.39-2.35-11.37-2.16M1412.34,1118l2.49-9.8,15.6-19.88,14.41-19.16m32.64-35.41L1463,1052.93l-14.38,19.15M801.24,273.48l-39.39,19.68M808,77.78l-9.54,64.6-4.63,31.4-2.05,13.83L785,233.73l-3.06,20.74-1.43,9.69M1412.34,1118l1.16,3.32,17.73,12.85,23,18.09,5.88,4.63,7.93,6.08,11.92,9.16,3.44,4,1.15,3.88.28,4.64.39,4.86,2,3.63,4.71,4.19M182.83,157.54l-4.15,15.88-2.12,8.1-2.82,10.82-4.65,17.83-1.61,6.11m1164.43,984.21-30.21,39m-42-740.3-1.35,6.89-4.13,14.05-1.11,3.74M645.88,53.13l6.83,1L684.15,59l25.28,3.85,11.81,1.8L734,66.52l4.27.65,20.48,3.11,11.75,1.79,12.71,2.07L808,77.78l24.06,3.67,24.52,3.72,24.66,3.74,24.63,3.75,24.47,3.72,15.17,2.31,9.62,1.6,24.3,3.55,25,3.8m-660,56.77,2.17.55,5,1.34,5.64,1.49,2.27.62,7.38,1.93L377,173l13.34,3.53m675.91,20.16-3.36,21.64-4.5,29.47m187.23,916.45,22.21,17.53M783.5,338.37l2.22-1.12,1.81-.9,5.19-2.58,30.79-15.31m108.37-65.41,7.26-48.78,5.9-39.64,10.11-64.34M942.84,259.87,909,276.51m510,770.09,1.53,2.73,2.41,2.93,21.93,16.92,3.82,2.9,38.07,28.62M684.8,54,684.15,59,680.7,84.62l-4.78,7.74-10.45,11.75L648,126.45l-12.77,17.81M623.12,79.15,606.66,88l-1,1.3-.93,2.34-.23,1.68.08,1.71.58,2.07,22.18,45.1m121.5-7.55L773,138.45l25.47,3.93,23.9,3.51,24.46,3.4M412.37,61.23l-13.49-3.3M1472.22,1123.05l1-4.52,13.51-17.83m-1.73,23.44-24.88,32.77m-150.65,113.16,11.87-15.23,30.12-39m-506.63-852L805.66,383.3,764.5,403.68m216.78-141.5,7-46.66,6.5-43.32,3.73-24.87.59-4,5.36-35.71M640.23,55.71l23.19,44.48,2.05,3.92M617.3,67.77l1.75,3.28,4.07,8.1L648,126.45M1522.41,1098l-21.27-16.18-38.1-28.87M709,232.59l-27.42-16.24M250.25,116l-10.64-2.41m-44.7-4.37,2.43.64M1478.44,1377.3,1453.93,1409M798,267l3.22,6.5,10.6,22.15M933.75,566.06l-3.57,4.55-.62,1.23-1.44,4.59m-10.66-332-29.13,14.93m42-162.93-9.76,64.49L908.77,239m111.65,2.87,12.44,1.71,25.52,4.19,24.58,3.81,24.56,3.85,24.53,3.71,24.56,3.77,14.57,2.28M506.76,137.88l61.39,15M832.08,81.45l-.63,4.18-9.07,60.26-5.64,37.27-1.55,11.54-8.53,63.39M506.76,137.88l-6.06,23-6.33,24.44m612.78,403.24,3.52-13.22,2.16-8.09,7.62-28.61,1.53-4.72,5.64-20.07,6.73-23.53,6.34-23.94,6.84-24.28M418.65,88.88l-5.85,24.64m566.65-9.68L969.9,168.2m-84.07,56.85L890,195.8l6.14-38.68,9.77-64.46m-76.37,98.06,8.78,13.84M879.77,291l5.81,11.86,5.18,10.59M744,256l17.81,37.14,10.83,22.43,7.25,15.22,2.08,4.42M1185.28,1200l8.66,6.26,12.41,9m129.85,101.79,9.92,7.79,4.61,3.61,3,2.33,2,1.61,1.57,1.22,16.12,12.54,1.94,1.52,1.74,1.35,17.89,14,19.65,15.27,19.64,15.35,39.26,30.61M1238,1240.54l19.5,15.34,19.52,15.28m195.18-148.11-2.49-5.08-39.3-29.63-32.52-24.68M758.7,70.28l-1,6.84-.07.41L753.7,103l-4.82,31.58-4.9,32-11.54,75.6-1.57,10.27m699.35,1024.36L1401.53,1314l-1.62,2.09-1.26,1.63-7.57,9.76-15.7,20.25M525.79,116,585,84.8l32.32-17,22.93-12.06,5.65-2.58,3.36-1.53m647,1357.7,29-37.33,28.85-37.37,1.68-2.18,24.51-31.69M394.31,108.56l.61-2.52,4.9-19.89M248.55,122.8l-8.94-9.23M222,16.84l29.31,7.58L268,28.75l1.61.41,2.38.62,2,.51,56.87,14.44,2.94.75m33,300.49,15.05-1.86,48.44-6M525.79,116,544,120.74l26.64,6.86,3.69,1,3.76,1,49.31,12.63,7.83,2.11m57.88,15.11,41.93,6,9,1.28,24.5,2.72,14.4,2,11,2.46,22.89,9.38,12.78,7.56,10.19,5.21M681.56,216.35l-3.5,16.39m356.07,1.78-1.27,9.1M892.62,272.87l-5.92-2.28-1.82-2.72-.22-2.51.68-2.5,3-3.55m-187.89,1057,3.11-.4,31.59-4.07m59.42-951.16,1.8,3.66,9.3,19m-11.1-22.66L784.41,340.3l-.91-1.93m-28.88-79.6,1.65-9.82,12.21-79.61L773,138.45l6.42-40,3.73-24.3m-412,79.63L368.3,165l-.19.76-.31,1.21-.87,3.42-2.36,9.3-2,7.8-2.23,8.79m-43.95-81.88L258.35,99.58l-3.78-1M399.86,84.31,402,72.91l1-5.11M357.56,98.59l10.92,2.87,4.23,1.11,10.45,2.75,11.15,3.24m2.24,16.71-6.8,1.06-4.71.2-3.55-.16-3.33,0m59-7.43-13.91-3-10.41-2.46M183,54.54l24.46,5.87,2,.5m209.2,28,30.28,7.49,2.75.65m-123-31.36,2.9.74,20.5,5.23L365,74.87l15.15,3.78,2,.5,1.37,1.72m-129,17.73-23.39-6-24.84-6.37-2.93-.76-2.25-.57m38.45,28.66-11.74-3-1.79.18-2.51.68-4.49,1.21-8.54.52m0,0,8.23,5.67,2.41,2.55,1.44,1.5,1.51,1,9.67,2.34,1.6.12,1.5-.25,1.46-.52,10.19-2.75m0,0L310.22,139m15.61-39.85,1.4-5.67.61-2.47m-89.48,34.53,1-1.46.94-1.52.51-1.28.19-1,.1-1,0-1.13-.16-.63-.38-1.5-1-2.42m34.31-91.52-.4,1.61L273,25.9,272,29.78l-.59,2.42L266.73,50,264,60.73,260.7,74M427.07,313.27,389.9,318l-22.33,2.83-3.46.44m447.73-25.62,11.67,22.83L834.44,341m-29.35-72.9,1.57-10m-105.21-18-20.9,10m498.15,33.11-8.87,59.71m-111.45-95.06-10.6,62.67m42.7-108.4L1083,251.62l-9.58,64.22m23.35,8.47,9.11-58.08,1.68-10.76,5-33.08m19.55,36.79-1.63,10.64L1120.77,333m-87.91-89.36-8.38,62.31M875.82,271.82l-6.39-4.6L866,263.77l-2.74-3.86-2.5-7.06-3.58-8.95-5.73-12L838.3,204.56m50,54.75-13.36,6-3.7.29-5.25-1.8M862.81,211,857.2,243.9M879.77,291l.64-3.73m-68.57,8.33-39.16,20m39.16-20,35.88-16.85M734.45,362.27,752,353.7l13.89-6.76,2.84-.39,3.92,1.35m483.11,89.37-16-3-7-2.52,3.47-30.63,6.52-41.67M1216,371.9l5.51-2.9,21.28-9.51m48.87,140.64-2.28,15.07-3.26,24.23-6.27,48.17-6,48-4.61,41.27m-22.06-194.28,2.8-11.14m-53.21,686.28,3.28,2.55,29.68,23.12M894.23,1295.87l-3.44-11.15-.72-2.33-.42-1.28-7.71-22.21-8.19-24.2-5.63-16.52-2.48-7.27-7.7-23.32-9.65-27.5L841,1138m636.53-104.26,38.07,28.91M693,1012l11.16-4.51,41.8-16.91m-55.85-4.27-42.57,6-32.3,4.13-44.48,5.45M678.42,939l-69.3,7.75M736.77,966.7l-10.68,4.5-16.89,7.1-19.12,8M677,941.51l2.76-1.17,2.18-.18,2.69.7m-93.72-40.68,2-1.57,30-21.83,2.34-1.69M526.6,485.38l.37,2.94,3.74,29.85,5.39,43,8.22,65.53,1.58,12.53,6,49.6.32,2.61.3,2.43,11,85.87,2.81,22.38,3,23.85,3,23.81m40.5-76.3.24,2,5.33,44.34,2.52,22.59.23,2.1m46.18-39.2-.53-4-4.22-32.08-.25-1.95-.31-2.48L651.72,681.3l-.27-2.14-.33-2.69-7.41-59.86-.33-2.75M658,814.66l-14.94,2.09M714.22,767l-2.1-6.12-10.35-84.34-.46-3.68-7.71-61.31-.5-4M800,743.16l4.53,13.17m83.69-27.71-3.42-10.28-9-27.54m-267.31,637,2.84-.37,2.73-.33,39.53-4.89,2.35-.3,2.12-.27,39.36-5,3-.39m-78-874.09-1-3.33-.47-1.59-2.59-25.89-3.09-26.08M425.8,300.71l34.31,14.52,2.64.13,2.69.13M288.09,233.22l-5.32,23.53.8,3M230.05,539.43l-3,.37-37.32,4.69-3.4.42m0,0-3.3.43-23.52,3.07M574,462.5l6,48.91,5.26,43.29L593,617.12l.54,3M854.41,766.41l42.39-13.54,41.29-14.66,40.81-16,13.23-4.72,17.21-6.15M593.55,620.12l24.63-3.19M842.7,730.7l42.1-12.36m213.25-238.26,36.3,10.26,37.6,10.91,46.55,13,18.46,5.19,2.16.55,14,3.91m-155.1-43.79-7.71,21.4-7.54,20.94-16.52,45.86-3.39,9.4-10.12,28.09-.47,1.32-1.57,4.36m91.57,268-3,1-4.92,1.64-3,1M834.44,341l10.39,22.79m261.44,92.67,34.42,9.92,38.07,10.9,53.46,14.9,11.41,3.18,16.11,3.81,3.66-1.29,3-.78,4.22-.66,5.46-.17,6.25.73,5.72,1.61,3.6,1.5m-116.17,755.44-3.18-.46-2,.21-10.09,2.27-45.14,9.37-41.8,9.13-32.85,6.91-10.65,2.24-42.89,9.26L937.6,1305l-31.42,6.68M413.77,570.3l1.78-.74,5.41-2.38,6-2.63,6.64-2.93,21.93-9.57,21.93-9.54L499.39,533l31.32-14.79m847.91,561.75,33.21,25.94,3,2.36m-690.48-349-12.23,1.63L687.59,764,665,766.87l-2.66.34-2.49.31-20.54,2.59-2,.25-2.19.28-22.29,2.83-22.69,2.78-2.13.27-2.14.28-22.32,2.93-9.26,1.39-16,2.49-1.14.17-7.19.92-16.39,2.35-3,.43-1.33.22-2.52.37-3,.48M1229.7,1183.4l32.77,25.47,19.61,15.28,19.62,15.34,19.64,15.35,19.63,15.3,19.71,15.31,19.58,15.28M744.12,601.62l6.09,60.48.46,4.58m-183,310.47,44.5-5.59,50.34-6.29,25-3.25m-82.1-40,25.3-3.08,24.72-3.11,25.21-3.43M635.21,144.26l9.93,2.54L657.5,150l14.38,3.69M451.68,97l30,7.54m153.55,39.7L629.46,168,623,192.73l-6.29,23.88m230.11-67.32,24.68,4.08,24.6,3.75,24.48,3.75L945,164.63l24.86,3.57M1253,456.37l2.78-19.1M1148,1222l-16.35-48.77-7.89-23.7-8.64-25-8.28-25.9-.86-2.69-.68-2.86M207.47,60.41l-5.28,20.52-1,4-6.25,24.29M183,54.54l-1.21,2-4.23,6.91-4,10.11-.45,1.31-.93,2.4m29,7.67-24.81-6.52L174.71,78l-2.55-.71M1276.54,1394l29-37.39,1.27-1.64,23.17-30,6.18-8M398.88,57.93l-23.61-6-37.61-9.51-2.87-.73m-35,337.74-3,.38L278,382.2l-62.27,7.85-1.29.16-2.86.36m91.37,13.88,63.59-8.11,3.11-.44M621.49,1046l-41.66,5.19-2.87.36-3.2.41m47.73-6,2.21,14.47m42.35-19.79,29.51-9.57m0,0,26.63-8.81,30.15-10.38,12.78-4.48,28-10.68M186.36,544.91l-3-24.85M227,514.61l88.27-11.12,66.94-8.3,1.91-.27,1.85-.28,7.31-.92,10-1.27,45.5-5.74M192.59,594.14l-3.32-24.37-.61-5.25-2.3-19.61m-3-24.85,39.43-4.93,4.18-.52M608.14,1301.7l-3.11.39m294.75,11,.82,2.17,5.2,22.12,5.09,24.35m-16.66-65.83,5.55,17.19m37.63,43.06-15.52-22.34-15.71-22.12m-6.4,1.4-42.53,9-52.41,7.13-50.2,6.32-24.19,3L703.7,1342m-89.31,11.21-2.8-23.51-.27-2.28-.36-2.94-2.56-20.71-.26-2.07m0,0-.33-2.61-2.51-19.93-.28-2.27-.4-3.1-2.78-22-3.07-25.34-3-23.69m740.4,114.28,24.48-31.63,30.2-39.08m39.34,30.48-19.63-15.23-3-2.3-16.74-13-3.63-2.83-16-12.5m-59.13-45.75-19.62-15.24-27.61-21.37m47.23,36.61,18-23.26,14-18.1,5.31-6.88,6.31-8.15,11.42-14.74m144.32,98.43-19.63-15.25M540.38,829.54l2.3-.31,1.72-.28,17.48-2.07,7.44-.92,24.49-3.06,24.56-3.11,24.68-3m-334-237,12.55,30.63,15.69,36.15M224.36,13.47,222,16.84l-1.47,1.67-7.79,8.93-5.3,5-1.67,1.58m20.41-23.2-.62.89-1.22,1.73M167.77,396.09l-3-24.91m124.3-115.52,5.48-23.55-.88-2.42-1.07-.82-1.39-.14-1.38.46-.72,1-1,3.07m-73.43,182.2,2.63-.33,51.3-6.37,31.29-3.89,3-.38M412.8,113.52l-4.13-.9-4.19-1.14M211.55,390.57l-2.63.33-41.15,5.19m602.33,835V1229l-.43-1.92-2.76-8.64-9.15-25.49-8.23-22-8.86-24.83m125,64.84-39.28,13.63-2.45,0M180.16,495.31l-48.22,6m45.18-30.88,2.1-.26,7.47-.94,30.43-3.83,3.68-.46,88.32-11,19.56-2.58,47.26-6.21m-202,.61-2.08.28-1,.14-53,7.15m65.5,66.72-3.18-24.75-3-24.86-2.94-22.8-.24-1.88-.32-2.59-2.74-22.31-3.11-24.78m65.32,168.16,93.31-11.68m7.92,23.77-25.25,3.46-72.83,9.31-25.9,3-17.75,2M540.4,627.7,515,569.08,499.39,533l-10.7-24.75L487,504.3m79.34,297.81-40.29,5-1.72.31M288.09,233.22l-1.81-12.4M991.85,1319l-70,14.81m113-24.08L991.85,1319M361.34,296.41l38.71-5.57,1.92-.25m-52.5,7.32,11.87-1.5m-70.71,8.85,55.59-6.94,3.25-.41m809.26,1004.21,11.52-14.85m-39.39,50.85,27.87-36m11.52-14.85,17.6-22.63M217.73,440.25l-2.64.33-37.79,4.76-1.21.16-2.15.27M439.6,412.52l-33.3,4.12-23,2.84-6.76.84-1.73.21-2.13.22L306,429.23m0,0-3.24.41L282,432.23l-61.73,7.71-2.49.31m155-337.68-1.92-1.41L369,99l-.57-2-.07-1.11-.05-.56.22-4.53M471.09,588.16l-21.88,9.51M515,569.08l-10.11,4.4-11.78,5.14M560.62,558l-24.52,3.2m-43,17.46-22,9.54m-111,48.49-22.78,9.93M383,626.65l-22.89,10m89.12-39-18.12,7.91m105-44.42L515,569.08M405.32,616.86,383,626.65M747.59,996.13l40.08-13.87M735.14,1311.8l-8.9-24.92m4.21,51.73,3.5-20,.82-4.65.37-2.14M521.48,704.47l.81,1.88,32,74.77m-83.17-193,25.2,58.14m0,0,23.51,54.26.64,1.48,1,2.43m-44-162-9.54-22.78-2.32-5.53L463.81,510m29.25,68.66-15.61-36.11m40.8,94.28-25.19-58.17m330.85,646-2.14,0-51.67,6.47m-41-157.33,1.57-25.52m-2.9,50.58,1.33-25.06m-1.2,48.62-1.16-3.47,1-20.09m2.9-50.58-3.32-10.12-5.19-15.81m544,303.52,1.4-1.81,18.8-24.14m-49.12,63.54,27.61-35.88,1.31-1.71m10.85-54.67-30.54,39.28m0,0-20.77,27.09-5.61,7.32-1,1.26-1.51,2m84-108.59L1277,1271.16M766.57,1100.51l-1.09,23.12m0,0,3.57,13.42M319,611.59l2.64-1.16m45.71-19.92,22.38-9.76m0,0L412.12,571l1.65-.74m-92.15,40.13,22.9-10m0,0,22.81-10m353,327.54,9.71-3.38,11-3.83,15.5-5.38,5.14-1.78m753.86,159,13.19-17.16m-27.6,36.28,14.41-19.12m-28.82,38,14.41-18.9M530.71,518.17l24.52-4m865.27,535.14,4.34-.47,3.56-2.66M1285.86,1341l19.92-25.61M182.83,157.54l2.29.59L211.74,165l22,5.56,3,.77L247.23,174l8.43,2.16,47.1.46M182.83,157.54l-37.76-9.28m27.09-71-.91,2.39L170.91,81l-2,8.2-1.23,7-.1,1.63-.31,4m-9.64,20.47,3.58-5.19,4.12-7.39,1-2.52.36-1.81.62-3.56m215.87,3.39-5,21.07m190,26.52,3.78.89L629.46,168M260.7,74,254.57,98.6l-2.68,10.56L250.25,116l-1.7,6.82M266.73,50l59,14.93,3,.75m1160.5,1257-19.63-15.23-19.69-15.31-19.68-15.24m-59-45.81-19.81-15.24m0,0-19.55-15.31-19.77-15.2m68.12,115.44,17.38,13.57,2.27,1.76,1.89,1.47,17.74,13.81,19.66,15.34,19.6,15.3,19.64,15.32,19.62,15.26m-87.47-130.94-30.33,39.11M1082.8,522.42,1122,533.94m-15.79-27.11,21.43,7,37.6,11.08,6.53,1.8,6.82,2M913.5,667.35l-7.66-22-1-3-11.32-32.54m-17.69,81-3.13-9.14-.18-.54-8.14-22.34-10.19-11-2-2.21m103.24,8.18L951,641.14l-4.25-12.22M924.12,699.2,921.05,690l-7.55-22.62m179.23-480.2-2.25,14.93M433.24,743l22.28-9.79,20.32-8.89,2.21-1M764.4,770.12l18.14-5.92,22-7.87,42.57-13.41M721.79,784.84l-2.86-7.66M513.65,112.79,525.79,116m218.33,485.6,1.64-3L766,561.55M693,1012l-2.89-25.69M205.79,34.05,203.71,36l-4.48,4.14L183,54.54M726.24,1286.88l-25.9,3.28-3.08.39-2.92.37L655,1295.86l-2.25.29-2.38.3-39.23,4.88-3,.37M879.77,291l-56.26,27.43M675.11,868.69,665.77,870l-15.9,2-24.67,3.11M1167.49,1135l15.64,12.73M1082.8,522.42l-10.83-3M881.26,88.91l-4.67,30.93-5.07,33.53L862.81,211M369.62,395.9l3.9-.49m251.4,675.1,2-3.46,1.38-2,1.29-2M209.45,60.91,260.7,74l49.73,12.64,12.17,3.1m71.71,18.87,10.17,2.92m413.58,566.8,5.77-5.55,3.14-3,25.13-24.2M718.93,777.18,714.22,767M640,1056.47l2.06-1.26,23.95-14.52m127.12-43.92,43.28-14.44L893.86,963l22.23-7.48,2.45-.83,34.62-11.85,21.2-7.27,76.71-26.29,4.8-1.64,42.53-14.57M793.17,996.77l-5.5-14.51M566.34,855.8l-2.43,2m870.39,535.88,24.5-31.67,30.42-39.35M452.81,665.29l1.78-.78,1.71-.68m0,0,18-8m6.94,66.06,2.4-1L499.45,714l1.71-.74,20.32-8.8,21.87-9.32,6.59-2.75.19-.09,2.12-.88,2.21-.27,20.31-2.44,2.21-.27,2-.25,22.61-3,22.49-2.7,2.23-.27,2.08-.25,20.71-2.57,2.35-.29,2.42-.31L676.59,676l24.72-3.11,24.61-3.11,24.75-3.08M478.05,723.35l3.22-1.42M427.72,607.08l-22.4,9.78m25.77-11.28-3.37,1.5M312.14,478.8l-88.3,11-43.68,5.52M408.05,684.79l5.43,12.55m0,0L433.24,743M334.79,41.71l-3-.76L276.53,26.81l-1.64-.42L273,25.9l-2.3-.59-18.44-4.72-22.55-5.77-5.31-1.35M1328.66,1118.2l-1.64,6.48-2.14,3.38-32.36,42m72.07,232.46L1395,1363l24.53-31.69,30.36-39.25m19.69,15.31-30.39,39.28-24.54,31.62-29.87,40.11m65.11-126.32,29.3-37.85,32.32-41.65M954.79,266.91,964,206.66l3.63-23.72,2.25-14.74m0,0,24.87,4,24.29,3.66,23.64,3.63,25.53,3.81,24.5,3.85,19.26,2.62M1164.08,1269l-3.87-11.43-11.92-35.32M638.88,1043.73l-1.29,2.34-.56,8.21-.14,2.49.17,1.57m3-1.87-.41-10.54-.75-2.2m325.69,37.48-.53,5.34-.22,2.17,11.08,32.44M821,1078.52l-1-3.06-7.61-22.6-1.12-3.88-4.78-14.56-9.88-28-2.27-6.4-1.15-3.25m40.68,119.63-1.09-3.31-3.1-9.32-7.86-22.85-.82-2.4m224.23,280-5.06-24.49-5.22-24.33-5.16-24.46-6.62-20.3-8.2-25.14-8-24.14-8.32-24.18-7.81-23.14-.44-1.33-7.46-22.82-8-23M197.34,109.84l13.2,3.3m.79,198.51L194,288M788.93,841.91,829.18,828m33.58,518.37-2.12-9.61-3.39-14.68-7.67-21.69m133.34-156.23-32.55,10m-313.31-95.81,1.51,7.55.89,2.59m-2.4-10.14,3-1.87M629.59,1063l6-3.79,1.44-.89m854.83,139-1.3,1.69-30.91,39.87-29.46,37.95M667.3,805.28l1.61,12.57m-30,225.88-2.9.38-14.49,1.9m284.69,265.65-6.4,1.4M683.16,930.84l1.44,10m0,0L687.46,962l1,9.28,1.62,15M142.44,172.59l34.12,8.93M117.34,204.2l.91-1.36,1-.64,4.15-2.51,3.16-2.3,3.13-2.6,1.7-1.75,1.64-2,3-4,3-5.47,2.68-6.25.66-2.76.43-2.65.43-4,.57-9.24,1.2-8.44m977.67,950.93.74.85,2.38,2,41.63,33m125,35-11.77,15.2-18.28,23.62L1238,1240.54l-30.36,39.12-28.43,36.68L1150.14,1354l-17.41,23.12-27.81,37.5m19.88,15,44.61-59.81,21.57-27.37,7-9.6,8.28-10.5,21-27,30.23-39.4,24.56-31.73,30.06-38.86M455.52,733.2l-25.06-58.13-25.14-58.21L391,583.78l-1.31-3-23.55-55-1.35-3.15M841,1138l-7.1-21.63M618.18,616.93,626,679.38l.36,2.89.28,2.26,4.88,39.17.66,5.27L637,767.8l.32,2.56m0,0,.26,2.07,5.51,44.32.93,7.41.35,2.74M385.23,694.75l22.82-10,22.41-9.72,22.35-9.78m21.52-9.42-25.12-58.2-15.62-36-7.86-18.22-9.86-22.89-1.82-4.21m60.28,139.57,22-9.57,22-9.51,22.15-9.09M1156.61,263l-6.28,41.26-5.56,34.23M750.67,666.68l10.41-1.3,14.28-1.78,25.38-2.69m-50.07,5.77,8.44,71.19M375.94,445.16l3.66-.5m0,0,6.76-.8,9.57-1.12,46.61-5.47m-63.49,33.09-66.91,8.44M445.77,462l-63,7.88M586.26,1126.4l44.56-5.49,28.63-3.61m-73.19,9.1-3.1-24.78-2.93-23.1-.33-2.63-.38-3.19-2.32-19.2-.24-1.94-.32-2.54-2.49-20.2-.27-2.11-.28-2.23-2.87-22.58-3.07-24.75M595.8,1202.8,592.93,1180l-.39-3.09-.43-3.42L589.56,1153l-.23-1.83-.3-2.43-2.77-22.34m47.63,19.22L636.7,1168l.42,3.36m-3.23-25.72-40.16,5-1.61.21-2.79.34-2.88.37m50.67,19.8.33,2.61,2.93,23.29,3,24.39,3.13,25.34,3,24.23,2.83,22.39.32,2.56.24,1.89,2.61,20.85.38,3,.31,2.54,2.85,23.15,3.1,24.78M176,299.81l18.29,24M305.71,164.37l20.38-2.47m0,0,7.86,1,10.5,1.51M377,173,372.7,190.2l-2.18,8.73m19.81-22.39,7.83,5.19,14.72,13.43M394,92.82l1.69-2.5,1-2.79,1.39-1.85,1.77-1.37m0,0,3.19.77m-3.23,1.07,3.23-1.07m-272,150-.64-.33-.65-.63-11.68-26.57-.53-1.63-.22-.69,0-1.07m77.57-95-12.08,48.34M164.7,218.91l-1.78.88L134.68,234.2l-1.33.67-.09,0-1.58.37-.66-.14m36.46-18.84-1.21,1.37-1.57,1.26m1.57-1.26L131.41,193m35.88-91.11,27.62,7.27M327.84,91l15.83,4,4.32,1.1,9.57,2.44m-35-8.9L327.84,91m75.21-5.94,15.6,3.8M728,144.17l7.53,18.33-.53,2.84m82.21,375.75,11.32,5.19,51.9,16.8M846.15,499l-20.46,23.81m0,0-5.37,11.63-.55,1.21-2.54,5.49M604,280.91l20.47,10.68,28.2,19.33,15,15.92,21.6,25.69,15,14.56,7.07,10.55,8.49,16.88,4.6,9.54,21.84,42.56,16.65,32.46m200,196.08-7.26-20.62-.28-.84m-26.06,60-5.16-14.53m38.76-24L921.05,690M787.67,982.26l-3-7.94L777,951.11l-2-6L768.79,927l-.53-1.75-6.57-21.6-8-24.16-8-23.73-8-23.67-7.9-23.66-8.05-23.62M783.5,338.37,782,335.23M677,941.51,662.5,965.27l-15,27.05-6.39,26-2,23-.21,2.39M678.42,939,677,941.51" />
            </g>
            <g class="cls-8">
                <path id="roads" class="cls-9"
                    d="M352.89,272.73l5.72-.57m-110.23,13,4.81-.57,9.53-1.14m195.4,707.28,19.08-16.59,2.16-1.83,13.16-11.09,25.24-21,10-8.66L554,910.87l2-1.66,25.28-20.69,3.68-3,35.74-27,2.06-1.55,2-1.56L646,838.87l1.75-1.59,18-16.47,3.22-3m-313-570.25-8.68.27-16.46,2-19.29,2.34-18.2,2.2-2.53.36-1.66.9M451.89,511.5l-.47-3.72-2.65-21.07-3-24.72-3.23-24.72-2.94-24.75-3.15-25-3.24-24.89-1.57-13.5-1.29-11-3.28-24.85-1.27-12.56m374.94,360.2,17.32,17.37M761.4,752.45l4.69-1.78M368.64,369.12l.53-8L366.86,346l-2.75-24.72-2.38-21.33-.39-3.51-2.73-24.25m518.24,829.35-1.26-3.66L870.45,1083l-.87-2.51-1-2.83L855.71,1039l-1.11-3.61-2.07-5.29-16.08-47.72-7.39-22-8-23.87L812.55,912l-7.33-22.41L801.91,880l-5.33-15.38-7.65-22.72-8.16-24.46-8-23.64-8.41-23.69-.42-2.53-1.91-11.2-.67-3.94m20.51-37.14-6.15-48.56-.4-3.15-5.72-47.49-.45-3.79M1240.84,671l-1.33,5.1-.28,1.06-3,11.33-1,4-4,15.13-6.18,23.66-1.63,6.24-1.92,7.35-9.49,36.32M1066.14,471.71l4,1.07,27.89,7.3m140.28,96,41.52,11.55,71.93,17.08,28.88,5.87m-382-53.37,8.26-2.33,11.21-6,6.07-4.32,5.34-5.72,6-7.44,3.36-5.13,17.2-34.1,10-20.45M709,232.59,702.73,234m489.65,542.75,2.66,0,17,4.41M748.89,384.21l-3-3.16m446.54,395.72-1.52,1.57-9.38,35.14-1.19,4-1,3.56-5.59,19.06-6.18,21.07-3,10.23m-58.21-415,2-5.85,1.23-2.22,1.36-1.4,1.94-1.53,2.55-1.42,3.22-1.38,4-1.34,3.2-.84,3.39-.59,3-.25,2,0,3.23.3,2.73.3,3.22.71,4.18,1.11,38,11,37.77,10.55,12,9.56m-236.58,84,33.77,10.8,18,4.29L1059,575l3.91,2.64,29,35.55,4.78,5.16,6.59,5.22,5.47,3.49,33.71,19.51,9.79,5.18,5.28,2.26,9.9,3.79,14.45,3.86,30.48,5.85,28.5,3.44,8.54,1.49,19.83,4.39,21.92,7.72,18.1,8.66,13.53,8.34,14,9.91,18.91,18m22.28,196.87,35.86,87.35,9.17,22.87m-67.31-307.09,6.23.49,62.68,6m-68.91-6.5,5.39,6.07,9.59,12.61M1142.3,879.42,1154,911.28l4.67,12.77,9.67,26.41,16.94,46.34m-9.75,258.77,2.89,1.6,9.47,7.47,19.81,15,19.63,15.62,10,8.3,9.17,6.86,10.14,7.91,7.87,6.11,1.68,1.37M1164.48,871.45l-22.18,8m262.22,177.45-17-39.4-33.5-82.2m67.7-164,4.93-4.11,28.63-28.53,43.7-44.35,9.68-9.8M347.23,247.87l-1.52,5.25-.68,4.34-.19,1.16,1.6,14.73,3,24.56,2.94,24.76L356,347.43M637.8,222l34.36,9.2,5.9,1.57m-61.33-16.13,5.09,1.29m56.24,14.84,11,4.19,12.43,3.12,14.92,6.75,14.5,5.69L744,256l10.58,2.75,5.79,1.58,14,2.8,6.09,1L798,267l7.07,1.14,12.36,3.14,9.73,2.47M389.74,519.41l-2.44.31-22.49,2.9-25.48,3.11L321.26,528l-2.49.31m.64-402,2.61-10.6m.58-26-2.37,9.47-3.82,15.19m116.8,248.28-33.73,4.25-25.29,3.19-5.2.66M702.73,234l-1.28,6m1.28-6-12.17.07-12.5-1.35M752,387.43l2.09,2.7,10.43,13.55,8.88,11.53L788.32,435l5.35,7.13,3.53,4.5,10.73,14,8.34,10.85L846.15,499l.43.39,26,22.92,45.1,39.83L931.17,566l2.58.09M829.27,261.47l-22.61-3.38-24.72-3.62L756.27,249,750,247.37l-17.58-5.15L709,232.59m435.79,105.85-24-5.46-24-8.67-13.53-4.91m23.07,137.08-8.22,23.6m137.23-6.89,7.32,7,4.55,2.39m-169.32-34.68-11.69,23.8m435.48,492.81,3.33,4.39M597.34,451.77l7,55,13.83,110.12M772.81,793.81,813,780.22l41.4-13.81M800,743.16l42.7-12.46m11.71,35.71-7.31-23.49M643.38,613.86l-.37-2.94-6.27-50.63-1.29-10.22-5.91-46.41-5.31-46.5-1.32-11.3-.43-3.68m-249-46.77,2.86-.43,60.07-7.46M318.77,528.31l-.7-3.24-.13-.59-.54-3.37-2.18-17.62-3.08-24.69M796.08,623.51l-26.89-11.19-25.07-10.7m73.94,76.66-36.15,37M202.47,318l3.18-2.27,5.68-4.06,3.45-2.47,3.06-2.19,15.82-11.31,10.14-7.48,4.58-3M1388.57,783.64l18.36-6.6M1247.15,482.59l-3.52,12.79,1.3,3.89,8.22,24.6-1.53,5.36-12.32,43.4-1,3.42M1121,1094.34l22.49,1,1.27.05.69.06,51.37,4.42m-546-5.62-2.19-9.07-4.8-13L643,1069M1424.55,736l30.73,2.63M1121,1094.34l-8.39-.86-7.29-.45-45.14-2.74-2.83-.17-3.08-.32-4.16-.45-4.2-.5-18.85-2.26m-109.39,1.25-19.9-6.26-4.09-.72-4.46-.08-14.47-.69-1.36.1-3.79.26M356,347.43l.77,4.77m134.91,734.74,43.68-5.46,41.37-5.19,3.19-.4,2.9-.35,39.36-4.75,2.76-.28m831-172.6,16.4,24.15,24.07,34.74,1.11,1.61.46.56m-93.38-144.52,7.29,14.35,13.88,23.43,15.13,23.35,15,22.33M1238.33,576.05,1229,609.59l-3.25,11.63-.36,1.3-13,45M1424,744.87l-.17,2.49-1.08,7.62-.92,3.82-.64,1.78M286,268.81l-2.43-9.07M398.88,57.93l-1.76,7.9-.24,1.31-1,5.67M360,363.92l1.27,6.91m306,434.45L658,814.66l-11.71,10.49-1.95,1.75-20.6,15.62-2.61,2-1.77,1.4-20.69,16.28-9,6.63-5.28,3.68-4.76,3.7-3.31,2.72L550.6,899.94l-1.55,1.27L516.5,926.83l-9.78,7.69-12.82,10.1-16.35,12.86-2.08,1.64-6.38,5L456,974.45l-11.65,10.16M643,1069l2.52.07,1.53,0,12.59,1,69.45,3.67,1.83.09,36.88,1.87,27.79,1.45,22.85,1.19,2.5.16M668.91,817.85l6.15-5.64,9.35-8.57,4.89-4.48,3.19-2.93,26.44-19.05,14.76-11.34,14.88-8.43,12.83-5M227,514.61l2.64,21.23.46,3.59M227,514.61l-3.11-24.82L221.3,469.1l-.5-4.14-2.39-19.25-.49-3.6-.19-1.86-.32-2.52L214.9,417.4l-.24-2m485.78,900.85.3,2.36,3,23.37m708.64-224,29.85,2.42,30,2.61,12.78,1.09,9.08.77,4.39.37,3.13.27,3.62.3,16.63,1.46,21.75,1.71,29.09,2.27,6.83.55,9.49.62,5.87.38m-227.68-18.68,40.53,3.46,4.61.4M262.72,283.45,283.14,281l4.42-.52m-28.3-2.9-10.88,7.55m39.18-4.65,58.88-7.16m-62.87-13.61-2.67,2.31-21.64,15.56m536.82,345.9.58,4.7,1.5,12,1.4,11.24,1.18,9.45m393.38-313.77L1181.77,345l-11.94-2.11-6.43-1.13M322,115.72l3.81-16.56M359.41-55l-.5,1.93-5.05,19.87-.63,2.46-.49,1.91L347.68-8.88l-.63,2.47-.47,1.87-5,19.78-.63,2.47-.46,1.84-5.07,19.9-.59,2.26-.94,3.77-.59,2.34-.42,1.62-1.32,5.21-1.93,7.57-.36,1.43-.51,2-.6,2.36L325,80.37l-2.38,9.32m-3.83,438.62-3.23.41-1.85.23-5.92.74-74.84,9.38-2.88.36M358.61,272.16l-.68-6.2-1.42-12.89-.6-5.47m2.7,24.56,13,5.51,3.79,1.62,6.71,2.85,1.19.5,12,5.09,6.73,2.86,13.74,5.84M286,268.81l3.09-13.15M211.55,390.57l-2.78-22.43-.29-2.29-.29-2.37-2-16.36-.44-3.55-.31-2.51-.34-2.64-2-16.05-.55-4.39m86.62-62.32-3.46,2.3m-49,406.64L239.84,639l1.11-5.69.28-4.35-.22-1.75-1.67-13.52-3.1-24.61-3.15-24.86-2.67-21.74-.37-3.08m1036.14,786.4,1.72,1.31,8.1,6.34.65.47,9.2,7M766.09,750.67l8.64-2,6.32-1.32,10.72-2.54,8.23-1.68M299.83,379.45l-3-24.65-3.07-24.72-3.1-24.82-3.07-24.75m73.75,90.32,2.28,4,1.66,5.58,2.52,4.28M847.1,742.92l-4.4-12.22M831,693.35l-12.93-15.07M1404.5,786.76l2.43-9.72m19.41-55.25L1424.55,736m0,0-.58,8.91m9.69-81.23L1431,684.88l-1.35,10.72-.35,2.81-2.94,23.38M1406.93,777l3.62-.53,11.17-5.28M1163.4,341.74l-5.16-.91-13.47-2.39m-505.31,730-1.6.07-1.7.06-8,1.35-3.24.55m360.41,10.78-10.52-1.24-10.24,1.16m44,3.16-2.74-.48-20.48-2.6m41.71,5.3-15.16-1.86-3.33-.36m50.48,10.88,3,0,9.23.12,12.48.18,22.27.3,15-1.55M748.89,384.21l3.09,3.22m233.88,171.5,12.84-1.75m-65,8.88,2.34-1L941.6,560l5.78-2.5,4.92-.5,21.39,1.38.61,0,10.61.49m-225.8,179,2.29,14.58m642,39.44,1.12-5.13M356.75,352.2l2.12,7.23m-12.43-86.08,6.45-.62M1239,1103.56l1.22.1,49.52,4.24,33.27,2.84,17.39,1.6M734.45,362.27l-1.67-3.15-4-8.72-5-10.92L716,322.25,691.43,273l-10.88-22.93-1.25-2.49L673.62,236l-1.46-4.78M302.92,404.45,306,429.23l1.88,14.86.79,6.25.45,3.61,3,24.85m433.7-97.75-2.19-2.28-.83-1.29-3.75-5.85-4.62-9.36M842.7,730.7,831,693.35M211.55,390.57l2.82,22.55.29,2.3m424.8,653.06,1.13,2.07.39,1,1.38,3.61,4.12,10.45,4.32,8.61m0,0,8.65,23,9.12,23.81,8.23,21.64,1.12,3,1.13,2.82,4.46,11.12,1.44,12.06,2.88,24.32,3.49,25,2.81,24.64,2.82,22.42.31,2.46.23,1.86,2.56,20.75.39,3.11M821,1078.52l2.6.12,27.87,1.44,5.48.28,4,.21,4.74-.06,3.88-.06m366.15,22.83,3.25.28m-31.35-2.69,28.1,2.41m-596.27-34.8,3.58.54m756.69-264.1,4.84,9.53m-1104.74-435,3.09,25M287.56,280.51,286,268.81M285.63,258l-2.06,1.78M398.88,57.93l1.26-6.21,4.54-18.08,6.14-24.23M371.14,153.77l13.95,3.57,10.74,2.76,2.31.6,1.18.29,30.94,7.93,3.22.82,1.39.36,59.5,15.24,16.41,4.21,33.35,8.54,11.82,3,40.67,10.43,20.11,5.06m1.45,400.32,25.2-3.07,25.14-3.19,17.42-2.15,7.16-.92.82-.1,23.92-3,26.28-2.93m608.65,511.43,4.2.34m0,0,10.23.77m-26.82-1.82,12.39.71M410.82,9.41l2-7.82L413.52-1l1.67-6.38M358.87,359.43l1.17,4.49m399.07,374-21.27,12.22-13.49,9.17m57.56-44-3.15,3.2-5.55,7.56-2.29,2.66-2.58,2.38-4.75,3.51-4.48,3.25m-34.76,21.39L714.22,767l-24.17,17.12-8.86,7.8L667.3,805.28m703.32-57.14,18,35.5m0,0,11.16,21.28M1207.84,348.26l-13.72-1.12m-868.29-248-3.23-9.47m93.11,206.74,3.61,1.53m0,0,6.48,2.75m771,799.18,10.83,1m-222.72-542,1,0" />
            </g>
            <g class="cls-10">
                <path id="avenues" class="cls-11"
                    d="M939.86,1080.73l6.15-2M574,462.5,550.12,474,526.6,485.38l-3.08,1.47L487,504.3l-4.72,1.75-5.72,2.15-7.83,1.08-4.91.68-7.22.93-2.36.31-2.34.3-2.72.34-9.88,1.25-7.88,1-16.83,2.11-.53.12-6.75.82-9.39,1.2-1.4.19-2.76.37M316.27,140.46l2-9.12.54-2.42.57-2.6M437.12,119l-2.31.84-2.59.6-7.15,1.08-24.33,3.13-4.19.66m-77.14,1,11.14-8.73m65.29-44.78L393.35,77l-.21,1.63L391.44,92l-2.91,11.57M1165,1003.48l14.28-4.71,6-2,47.87-17.43,11-4,33-12.21,17.93-6.5,14.44-5.23L1325,945.8l4.4-1.59,14.35-5.2,10.29-3.74,14.71-5.5,9.19-3.44,1.59-.58,21.38-7.81,28.53-10.38M891,24l24.66,3.85,24.55,3.89,24.65,3.67,24.47,3.86,5,.75,14.14,2.12L1014,43l24.38,3.86,7.68,1.18L1062,50.45l14.34,2.14,11.32,1.68,22.46,3.55M777.77,6,790.3,7.94l2.54.4,24.88,3.76,21.53,3.09,2.53.36,2.21.36,9.52,1.5,5.37.86,7.48,1.12M453.47,90.2,451.68,97m16-63.34-3.65,14.77-4.32,17.31m-68.14,38.43L394,92.82M579.6,876.17l-1-3.9-1.67-2.76-3.49-4.89-1.41-2-5.66-6.85M1083.2,319.4l-9.82-3.56-9.81-2-15.79-3.31-11.94-2.28-11.36-2.27-7.31-1.38m-79.5-18.49,1.84-.9,7.53-4.4,15.46-9M748.89,384.21l4.61-.53,12-8.48m29-14.56L834.44,341l25.13-12.29,20-9.77,3.35-1.64,7.87-3.84M449.56,105.09l-2.41,4.23-1.27,2.21-1.43,2-3.19,2.56-2.6,1.75L437.12,119M585,885.5l-3.44-5.73-2-3.6M355.16,300.9l5.34,45.86M482.12,15.37l17-8.76,4.72-2.44,5.78-3,5.78-3,7.47-3.86,9.5-4.9L536-12.43M868.43,5.51l-2.07,13.88m0,0L870.92,12l.08-1.88-.75-2.45m-9.06,48.45-2,12.59-2.6,16.51-5.17,34-4.59,30.14m19.52-129.9L891,24M870.25,7.62l4.91,6m-544.61,104L322,115.72m-5.61-1.37L310.22,139m0,0,6,1.45m14.28-22.87,27-19M403,67.8l-7.14,5m64.9-44.9L439.58,42.59l-7.76,5.32-18.59,12.7M730.94,396.06l12.8-8.45,5.15-3.4m310.14,711-1.7-5.13-.9-2.69-13.92-41.91M368.64,369.12l-4.91-23.73-5.57-44.85M478.05,723.35l.85,1.91.61,1.37,14.43,33.8,5.4,12.54,5.15,11.3.67,1.15,1.52,2.65M939.51,285.16,909,276.51l-16.37-3.64-16.8-1.05-9.59-1-37-9.31m135.3,819.74,9.78,3.92,9.39,1.44,10.34,1.4m-22.44-18.75-14.48,3.49-2.64.82-8.51,5.24m96.5-33.25-13.78,4.65-10.43,3.53-5.92,2-4.92,1.67-6.94,2.34-28.88,9.51M887.18,12.55l-4.06-.73-3.32-.55-3-.94-2.29-1-4.23-1.67m-512.69,91,11-7.8m15-9.92,6.68-4.37,5.63-3.69M827.18,273.73l20.54,5,32.69,8.52L919,296.74M316.27,140.46l9.74,2.31,2.07.5M501.3-97.9l-.89,3.52-5.7,22.65-.6,2.1-4.89,19.27-.6,2.34-6.26,24.63L476.23.77,473.9,9.55m995.89,883.26,8.3-3,26.61-9.72,31.14-11.36,10-4.67,27.85-13,14.46-6.77M545.66,1182.81l2.24-.29M846.84,149.29l-7.13,46.64-1.41,8.63-4.55,30.95-3.65,21.15-.83,4.81M451.68,97l-.75,2.85-1.37,5.22m639.91-62.3-25.57-4-23.65-3.48-24.34-3.72-24.84-3.81L966.7,23.91l-24.8-3.49L917.44,16.5,892.79,13l-5.61-.47M394,92.82l3.11-16.27-1.28-3.74m-35.34,274,7.27,38M403,67.8l1.16-.79.92-.64,7.31-5.14M782,335.23l-9.32,12.67-15.46,21M322,115.72l-5.61-1.37m224,715.19,1.51,1.7,4,4.51,2,2.43,1,1.17,4.13,5.07,8.13,10.06.91,1.07,1.88,2.22m-53.38-70.29-1.1-1.65-.42-.91-5.19-11.16-6.22-14.29-4.08-9.63-5.62-12.61M373.52,395.41l-.68-3.68-2.67-14.41m0,0L369,370.73l-.35-1.61m1035.88,687.75,5.22-3.86,3.21-2.85,3.11-2.07,2.91-1.49,5.53-3.13,4.09-2.71m0,0,4.62-4.83,7.58-9.46,10.63-15.1,4.49-5.86,4.84-6,5.92-6.64,8.83-10.11,3.14-3.33,3.16-2.84,7.72-5.55,15.32-10.4,22.88-16.24,7.47-5.36m-2.09-2.69-5,4-11,8.39L1488.37,969l-7.18,5.18-3.55,3.06-3.57,3.61-10.79,12.24-5.61,6.46-5.33,6.12-4.7,7-7.94,11.25-5.62,7.18-5.75,6.61-4.77,3.47m0,0-6.18,3.56-5.33,3.33-3.06,3-4.47,5.82M368.55,90.79l10.79-7.14,4.19-2.78m382,294.33,29-14.56m222.61-56.09-31.92-6.86-45.74-12.53m442.82,791.65,15.58-13.15,6.61-6.79m51.39-159,13.88-5.1m-40.37,14.75,23.23-8.46,3.26-1.19m-115.53,214.43,3.5-3,9.21-7.23m-27.18,17.19,2.75-1.11m24.43-16.08,3.53-3.54,2.25-2.26,2.28-1.89,17.47-14.51,3.71-3.11M470.93,21.23l4-2.16,3.83-2,3.32-1.72m-11.19,5.86-3.83,2.31-.67.41-5.69,4m10.19-6.68-1.54,5.64-1.69,6.81m6.2-24.13-1.74,6.54-1.23,5.14m-142.85,122,10.09,2.39m0,0,10.52,2.5,22.45,5.61m-3.37,231,.9,3.9m0,0,.49,3.72.46,3.55m14.21,82.47-.6-4.66-.48-3.84M381,485.73l.68,5.61.53,3.85m-4.51-66.44-.6-4.56-.47-3.87m-1.81,16.4.64,5.09.53,3.35m0,0,.5,4,2.14,17.25.47,3.9m-9.43-74.46L372.26,417l.46,3.74,2,16m1.81-16.4-1.45-11.8-.33-3-.7-6.27-.58-3.8m8.64,99.78.57,4.32.57,3,.93,3.66m-1.48-36.28-2.61-20.78-.54-4.43m4.63,61.49.38,1.05,1.64,4.5,1.6,3.69.49,1,1.4,3M759.29,2.91l9.44,1.73m0,0,3,.42,6.07,1M754.09,1.37l5.2,1.54m-2.06,366-2.53,3.43m0,0-3.49,4.72-1.63,2.21-.69,4.92M530.51,812.48,526,807.14m8.53,15.62,2.75,3.36.95,1.07,2.11,2.35m-23.21-33.1-3.58-4.35-1.92-2.88-1.14-1.73M526,807.14l-2.47-2.94-6.4-7.76m53.11,68.62.62.71,3.22,4.34,1.72,2.84,3.76,3.22m-72.92-88.1,1,1.7.53.93,5.15,6.68,7,8.35,1.65,1.95L533,820.87l1.55,1.89M431.09,605.58,430,603l-4.9-11.33-4.94-11.22-4.6-10.89-1.34-3.15-6.11-13.93-4.24-9.86-.41-.94L401.84,538M446.59,650.8l4.64,10.72,1.58,3.77m-46.7-108,4.41,10,1.6,3.71m-10.28-33-6.54-14.9-.58-1.59-1-2.64M487.9,737.23l-5.35-12-.43-1.14-.85-2.2M437.24,620l-2.38-5.55-3.77-8.87m40.3,102.65,5,11.41.56,1.24,1.14,2.47M463,679.3l-1.35-3.21-.39-.89-3.51-8.1-1.41-3.27m-3.49,1.46,1.32,3.17,11.21,25.85,6.05,13.92M389.74,519.41l1,2.29.68,1.51,6,14.13,2.73,6.54,5.9,13.42M456.3,663.83l-1.62-3.49-7.6-17.54L443.34,634l-4.08-9.24-2-4.71m-9.52-12.92L432.3,617l8.24,19.83,6,14m34.68,71.13-1-2.45-.28-.69-2.78-6.5-5-11.41-3.86-8.9-1.83-4.25L463,679.3M393.75,518.88,392,515.55l-.22-.45-2.1-4.83-1.46-4-1.13-4.13-.68-3.55-.51-4-2.09-16.27M1010.39,1090l3.58.36,22,2.4m-41.9-4.8,13.69,1.72,2.62.32m25.59,2.76,19.85,2.13,3.2.35m-417-656.93-19.59,3.86-3.55.87-5.73,1.43-15.86,7.29L574,462.5M866.36,19.39l-3,20.9M827.18,273.73l-6.68,8.81m0,0-8.66,13.09-18.41,24L782,335.23m137-38.49,2.88-1.62M1229.7,1183.4l6.84-10.08,2.55-2.87,6.52-6.19,19.3-15.58m0,0,3.14-2.39,7.85-5.73,3.22-2.18,4.13-1.83,42.66-17.24M890.76,313.48,919,296.74M566.34,855.8l-1.77-2.15-.28-.35-12.88-15.78-1-1.3-1.45-1.78-3-3.67L544.4,829l-1.92-2.33-1.93-2.35-9.09-10.65-1-1.14M379.6,444.66l-.4-3.51-1.55-12.4m684.89,955.7,3.89-2.82.45-.52,25.35-29.49,5.3-6.14,18-20.12,3.79-4.68,7.8-9.61,18.31-21,4.72-5,13.91-16.08,11.41-13.45m30.86-40.28,16.57-21.75,6.78-10.14m-54.21,72.17,7.91-10.3,22.95-30M844-25.27,868.43,5.51m6.73,8.07L877,15.84l1.79,1.61,1.53,1.28L891,24M868.43,5.51l1.82,2.11M962.5,271.73l12-6.11,6.77-3.44,26.78-13.88,12.36-6.39,4.6-2.27,9.11-5.12,28.75-16.18,27.6-16.26L1112,189.77m-282.72,71.7-2.09,12.26m-263.27,584,6.37,7.29m-157-804.45-.86.62M412.12,571l13.93,32.42,1.67,3.62m-34-88.2-4,.53M1112,189.77l6.31-3.5,27.15-15.94M946,1078.77l5.17.6.61.08,12.78,1.76m179.18-70.84-23.59,8.19L1075.6,1034l-33.09,11.49m286.15,72.68,11.72-5.86m-961.33-642,1.9,15.37M863.39,40.29l-2.2,15.78M637.12,1171.34l37.9-5.22,2.9-.4,3-.94,15-4.69,40.91-12.79M547.9,1182.52l2.47-.3,39.54-5,2.63-.33,2.73-.35,41.85-5.25m99.67-24,3.87-1.23,28.39-9,64.8-20.65,34.62-12,8.38-2.9,9.36-3.07M451.89,511.5l-12.6,1.59-25.24,3.21-20.3,2.58M899.3,1094.13l18.35-6.29m-31.44,10.6,13.09-4.31M642.07,438.32l7-1.74,7.58-2.35,4.91-1.83,13.62-6.14,13.09-6.19,11.52-5.66,6.91-3.35,4.92-2.86,6.25-3.73,13-8.41m412.81,614.31,19.94-6.46,1.3-.43M921.87,295.12l15.8-9.06M358.16,300.54l-4-33.33L354,261l.42-6.29L355,250l1.07-4.8,8.14-32.11m-3.07-1.19-8.69,32.87-.94,4.61-.7,5-.35,5.22.25,4.55,1,9.56,3.47,27.2m562.49,786.94,22.21-7.11M459.73,65.76,453.47,90.2m-64.94,13.35-27.4,108.38m3.07,1.19,27.39-108.93M744.64-1.41l9.45,2.78" />
            </g>
            <g class="cls-12">
                <path id="highways" class="cls-13"
                    d="M423,127.05l-4.88.72-5,.89-3.83.79-11,2.35L392,133l-12,1.51-4,.24-3,.16-6.29-.42-2.08-.22M865.39,704.53l-22.44,9m317.46-332.2,24.37,24.89M858.11,277.92,906,288.49l41.82,9.24,18.42,4.32L1066,328l13.64,4.32,13.64,5.45,12.28,5.69,14.1,7.5,14.56,8.81m2-3.7-14.36-8.93-14.33-7.63-12.49-5.79-13.91-5.55-13.9-4.41L1006.64,308l-39.4-10.95-27.9-7.11m203.73,76.35,8.15,6.59m5.49-1.48-12-9.29m43.44,40.56-22.92-22.74m26.22,33.15,15.14,15.35M1194.48,369l15.35-5.25,11.08-3.2,8.86-2.24,9.23-1.88m-98,33.8-9.32,6.5-6.81,5.43-5,4.61-5,5.32-4.32,5.1-3.87,4.91-3.52,4.72-3.09,4.53-3.46,5.19-3.28,5.39-4,6.89m149.23-96.48-18.53,3.5-14.78,3.63-14.37,6m19,59.55-4-4.2-13.43-13.74M754.52,744.84l-8.2,4.36-8.6,4.93-17.79,12.42m47-22.37,12.57-4.44,15.88-5.2,16.54-4.94,23-6.76m10.45-3.25,25.37-7.81M833,716.84l-20.76,7-17.21,5.83-20.16,6.66-9.42,3.36m-44,30.81L736.41,760l8.93-5.37,9.82-5.14M392.32,140.82l23.43-9.58m523.59,158.7-79.11-16.06M364.68,134.22l-12.12-1.6-4.11-.26-5.11-.33-3.55-.23-8.94-.11-7.46-.05m861.39,274.59,3,3m-772-278,3.49-.72,4.52-.64m-100,5.85h9.75l9.73.47,2.7.25,3,.29,3.37.21,4.94.65,14.38,1.76,1.65.39,7.55-.27,8.83-1.67,5-1.18,15-4.25,6.11-1.13m684.43,319.58,3.41-8.45,3.4-6.93,4-6.67,4.7-6.6,6-7.41,11.13-12.28M1099.62,452l.56-1.15M867.91,703.66l-2.52.87m267.41-302,6.1-5.14,5.64-3.79m-50.82,56,5.76-10.39,5.36-8.56,4.46-6.17,5.76-6.76,7.49-7.91,10.25-7.3m106.2-46,12.9-2.21m-107.18,7.87-8.47-6.06m-68,131-16.13,32.32-10.36,19.77-5.34,9.42-6.19,9.16-8.1,10.9-6.42,7.7-6.85,8.21L996.14,599.2,979,618.76,968.9,630.47l-10.34,12.1-8.84,10.13-6.84,7.35-4.45,4.15-5.7,4.81-7.24,5.65-5.84,4.21-7.44,5-12.07,6.6-11.55,5.29-12,4.66-8.65,3.26m-33.07,19.18,10.45-3.25M843,713.54l-9.92,3.3m-77.87,32.68,11.72-5.34m-1.4-4.51-11,5.17m134.2-36.62,8.85-3.57,12.33-6.06,8.61-4.89,13-8.71,6.86-5.84,9.15-8.22,5.61-5.34,5.4-6,13.62-15.59L986,628.37,999,613.23l14.3-15.86,9.46-10.69,6-7.56,6.38-8.75,8.61-13.1,9.06-15.37,7.8-14.14,8.52-15.77,7.39-14.22,8-15.36,7.89-15.59,7.26-14.85m-229,259.81,18.06-3.56m245.54-348.47,8.81,6.54M870.66,711.78l15.82-6.52,16.84-7.32,7.16-3.78,6.9-4.28,9.59-6.8,14-11.15,12.09-12.48,11.4-12.5L990,617.86l12.82-14.5L1015,589l8.21-11,12.52-17.42,10.76-17.55,7.71-14.79,16.91-33.36,8.13-16.12,6-12.52,5-9.94,3.52-6.79m71.52-69.64-8.53-8.53M719.93,766.55,695.66,784,690,788.49l-5.21,4.72-9.11,8L669,807.49l-16.54,16.06L638.3,835.84l-49.42,38.4-54.77,42.49m653.66-507.45,3.69,3.8m-115,59-8.21,15m21.12-38.19-2.32,4.39-5.2,9.27-5.39,9.54m116-64.92-4.29-4.45M536.29,920.16l54.91-42.93,49.5-38.31,13.7-12,23.83-22.75,9.34-8.45,9.15-7.25,24.78-18m429.72-397.6,9.19,8.46m119,95.86L1266,470.83l-12.28-7.28L1241,454.23l-11.59-9.55-10.46-10.23-9-9.39m-18.6-54.83,3.16-1.21M694.38,227,686,223.46l-29.18-16.3-22.63-12.52L613.23,183l-19.46-10.75-11.72-6.13L570.23,161l-12.17-4.43L545.2,152.8,499.64,141l-41.8-10.54-5.46-1.4-5.22-1-5.28-.72-4.7-.46-3.77-.12-6.33.08-4.09.22m.77,2.83,6.54-.36,10.65.37,6.09.84,4.26,1.1,46.58,11.69,46.83,12.34,12.95,3.69,11.08,3.88,11.63,5,12.29,6.08L631.74,196,694,230.89l14.58,7.66,13,5.93,12.08,4.62,14.22,4.45,13.58,3.68,16.34,3.29,11,1.87,14.63,2.17,7.54,1.42,8,1.66,39.15,10.28M1206.6,428.43l9.1,9.27L1226.45,448l11.84,9.75,13,9.53,12.63,7.48,13.74,6.52m-133.13-87.68,4.82-3.37,5-3,12.73-6.89,9.59-4.58,4.94-2.17,9.7-3.27M860.23,273.88,820,263.77l-10-2.22-8.21-1.39-1.58-.27L789,258.31,775.17,256l-13.42-2.79-13-3.59L734.33,245l-11-4.21-13-5.67-16-8.08m496.51,138.49-8.73,3.44-10.38,4.59-10.27,5.08-10,5.33-6.27,3.66-4.25,2.64M-54-91.7,175,94.42l28.14,18.21,57.14,14.46,28,7.21,13.57,2,22-.58m-.41-4.09-10.94,0-21.39,1-87.43-22.47-28-18.67L-53.24-94.25" />
            </g>
        </g>
    </g>
</svg>