<svg xmlns="http://www.w3.org/2000/svg" xmlns:xlink="http://www.w3.org/1999/xlink" viewBox="0 0 1460 1410"><defs><style>.cls-1{filter:url(#luminosity-noclip);}.cls-2{fill:#fff;}.cls-3{fill:#272c33;}.cls-4{mask:url(#mask);}.cls-5{fill:#3c8dc1;fill-rule:evenodd;}.cls-6{fill:none;stroke:red;stroke-miterlimit:10;}</style><filter id="AI_GaussianBlur_10" name="AI_GaussianBlur_10"><feGaussianBlur stdDeviation="10"/></filter><filter id="luminosity-noclip" x="-218.45" y="-204.85" width="1749.3" height="1692.79" filterUnits="userSpaceOnUse" color-interpolation-filters="sRGB"><feFlood flood-color="#fff" result="bg"/><feBlend in="SourceGraphic" in2="bg"/></filter><mask id="mask" x="-218.45" y="-204.85" width="1749.3" height="1692.79" maskUnits="userSpaceOnUse"><g id="viewport_1" data-name="viewport 1" class="cls-1"><path class="cls-2" d="M899,1346c-129-25-157-62-203-163-25-97-4.6-213.34-17-310-10.37-80.79-102-187-182-257C392.66,524.7,339.39,476.78,198.16,479.08,44.08,481.59-57.38,281.35,88,110c70-61,103-49,192-62,229-34,436-69,604,78,94,90,101,99,152,182,49.88,81.17,58,95,91,157,33.37,62.69,38,63,98,158s109,172,145,284,45.62,263.22-88.19,348.11S1028,1371,899,1346Z"/></g></mask></defs><g id="background"><rect class="cls-3" x="-1848" y="-1831" width="4872" height="4990"/></g><g id="objects"><g class="cls-4"><g id="terra"><g id="waters"><path id="east-river" class="cls-5" d="M132.57,621.12l3.61-18.31,1.64-14.58,1.23-2.86.13-6.65-1-6.25L136.71,555l-1.3-8.72,3-.44-.2-1.34-1.42-.16L135,542.5l-2.21-4.31-4-37.09L122,483.44l-2.31-5.19-1.78-.1-7.15-23.74-1.34-5.14,7.21-.81-.83-6.79-8.26-.5-2.25-14.7L105,424.6l-1-4,.92-7.14L103.65,405l1.65-7.34L112,375l8-11.39,4.63-9.92L149,318.4l3.32,1.06,4.93-7,2.12-2.44-1.55-1.9L174,287.41l16-16.73L202.15,259l6-5.74,12.71-10.42,5-4.09,21.84-14.6,35.23-5.19,17.51-2.19,9.58-.4v-.56l3.69.14,6.8,1,17.94,2.82,12.17,2.45,2.11.56,10.23,2.74,2.65.62,14.32,3.39,1,2.11-.65,1.78,1.6.72,1.28-3.49,36,13.55L436.91,253l-.26.64L481,276.52l1.25-1.9,22.86,10.11,1.16,1,.79,1.28,12.67,5.53,1-.23,1.09,0,1.62.57,1.21.79,1.23,1,.44,1.33.08,1.55-1.78,4.72-19.43,45.5L509,381l12.33-1.46-3.48-28.1-.47,0-.14-1.82,12.79-30.2,2.17-1.27L541,322l7.46-17.9,1.49.71-.75,1.77,3.56,1.49.46-1.24,1.21-.6,3.44,1.31.43,1.45-.54,1.18,3.84,1.57.61-1.68,1.42.65-7.28,17.47,1.91,15.38,4.31,2,.7-4.45,12.49-25.61,14.38,6.86,42.49,23.37,16.81,16.39L647,365.27l6.51,6.81,1.89-1.67,10.77,20.66,4.08,12.37-3.55,1.24,2.67,9,1.89-.66,2.94,9.58,1.07,3.66,1.68,2.88,3.43,10.8,5.57,17.53,11.47,28.11L702,497.05l45,47.65,27.57,20.78,27.9,10.25,27.18,9.82,19.45,3.79.13,2.18,44.89,8.64,2.65,0,2.18-1.56,8.68,1.81,1.22,1.82,7.34,2.84.41-1.2,23.55,6.76,12.62,2.53,14.38,7.12L982.85,631l14.77,18.19,19.56,32.51,2.05,31.16,10.68,31.6,25.93,78.45,20.46,60.25,21.15-6.82,3.86,11.83,2.35,7.3,2,6.38-3.8,26.89L1097.06,940l-36.18,11.76h-5.11L1004,969.93l-4-1.14-4.54-4L993.8,960l-5.68,2.84-1.42,4.27-3.12,2.27-.57,6.82-7.68,3.12-6,6.25-1.13,3.7,2.32,7.65,1.18,3.9,7.29,24-1.7,5.4-4.27,4.84-53.14,17-.29-1.71L900.86,1060l3.41,12.51,11.66-4.55,4.07,12.47.33,1,3.1-.81,2.93,8.18-3.15,1,4.56,14.4-5.14,10.33L889,1127.49,906.73,1179l-34.86,12.38,1.46,4.2,10.92-3.76,1.59,4,24.12-8.4,16.66,48.9,2.57,9.1,5.8,17.27.84.6.87.72.71,1.42,2.42-.85,1.27,1.14-.08,2-.33,1.58,2.45,7.74,1.07.55,1.21,1.16,1.49.53.68,1.22,4-1.13.55-1.3,4.09-1.71-5.31-15-1.25-3.35-29.75-89.12,21.32-7.38v-5.69l-23.56,7.28L912,1145l3.12-6.82,32.53-9.89,3.17-2.63-5.68-15.83-7.72-24.76-3.24.94-2.45-6.56,3-1.19-1.67-4.59,5.37-11,32-9.74,10.47-5.5,20.37-7.24-3.2-11.49-1.09-3.44-7.53-23.93,8.47-10.54,12.54-5.39L1069.19,965l34.66-7.28,30.08,26.12,7.17,24.47,1.35,4.55.78,2.72-13,4.93.86,2.27-19.61,6.83-14.5,22.73,12.57,37.63,8.46.41,9.57.47-10.8-36.84,7.2-7.64,11.09-9.09,15.34-4.55,14.36-10.61,44,10.66,2-9.88-44.28-11.59-16-40.29-16.15-20.62-10.1-28.32-3.39-6.09-.89-24.91,4.08-13.18L1117.73,861l-3.49-8-.65-11-6.11-15.74-6.39-5.4-4.55-2.28-4.77-8.19-2.5-5.91,16.37-43.88h70.71l13.19,5.45,20.47,6.83,3.51-9.84,2.86-6.58-.47-2.43-9-2.06-8.13-.08-18.31-9.94-16.61-4.32-20.38-4.09-3,2.42-11.6-.6-17.51-.91-10.44-4.84-10-7.11-12.07-11.39-10.25-11.87-12.73-14.39-14.22-18.21-6.26-7-12.29-14.56-11.36-13-3.42-7.5-7.72-10.69L998.42,612l-12.91-11.25-6.3-5.5-33-10.68L930.32,583l-5-3-46.76-7.19L860.29,570l-19.56-3.41-23.42-8.19-26.47-11.06-24.92-19-17.48-10.67L731.53,499.1l-12.26-12.94-1.63-4.25L710.9,465.2l.45-7.5.41-1.07-10.07-23.84-.89-5.28-7.51-22.88,1.55-.72-7.68-15.35-3.6-10.08-6.4-12.89-7-12.26-17.09-20.92.8-.9L645.38,325l-11.51-7.5-12.36-6.44-12.25-6.41-19.88-9.25-19.75-8.81-29.55-12.94-.92-.62-.46-.76.13-.92.46-.69,1-.33.53.2.59.46-.09.57,1.37.62,2-1,2.4-2.41,4-3.42,4-2.26,4.86-1.45,3.23-1.12,6.93-5,4.7-3.71,4.88-.53,26.21-13.12,9-5.9,6.91-7.31,4.3-3.44,5.18-3.94,5.82-.67L641,218l24.26-14.15,9.13-12.34.78-3.36,6.79-6.33,4.14-8,1.55-7.47,1.34-3.82-1-.29,2.49-7.86,1.86-4,2.83.65,1.45-9.42,22.17-48.19,13.56,3.08,2.12-14.08-17.76-4.24-12.66-3.29L702,74.51l-.22.54-6.55-2.43-2.08,9-1.47,4.79L705.61,90l-25,52.42-6.33,14.4-5.88,13.41L653.5,189.62l-6.23,7.1-10.75,5.93-3,1.4-2.92.69-2.9.22-.42,1.75-5.32,6.9,2.81,2.29-5.48,4-9.74-.27-3,3.1-6.62.5-25.06,12.83-16.29,6.78-9,5.38-11.94,2.42-30.89,8L435,225.53l-15.2-7-38.59-14.56L329.8,191.62l-16.3.27-8.67-.18-3.94.91-6.16.2-15.64,1.8-30.24,5.23-3.18-1.37L230,203.71l-4.32,3.19L172,237.82l-4.32.91-1.92.19-1.31.1-2,.17L161.09,244l-15.24,7.27-34.8-6.14-3-4.89-7.4-4.27-4.52-3.15-1.08-2.62.7-9.38L99.09,204l2.29-11.55,4.63-6,3.74-2.54,4.13-.19,5.34.36,1.32.07,7.45-8.25,1-1.89,3.72-1.1.63-3.62-3.91-1.36-3.68-1.76-7.44-3.49-1.62-2.49-1.11-2.47.8-4,1.44-4.69,3-2.74,6.72-.32,4.4.54,2,.44,1.57-4.94,3.65-5.83L139,134l-.85-9.33-2.63-2.39.26-.88-1.85-3.46-9.14-2L137.23,87.8,141,89.26l4.57-9.9-1.11-.5,1-4.23-.78-.5,2.76-4.79L153,64.26l1.82-.65,7.73-1.37,8.86,1.37,3.27-13.06.37-1.5,5.69-5.22,3.38-5.59,1.17-1.92,1.43-1.63.79-1,1-1,.79-.59.87-.64,1-.52,1-.48,1.36-.47,1.68-.38,1.37-.08.1-.3-1.33-.78.25-1.44,1.67-.39,1.4-.29.22-.85,3.5-13.92.39-1.51,3.08.77L207,6.27l-4.5-1.16.39-1.44-17.42-4-1-1.19-.76-1.33-.2-1.52.18-1.48,1.09-2.92,1.51-2.91,1.56-1.92,2.12-1.72,2.18-1,2.5-.28,8.62,2.1,2.5-.51.52-.86,2.82.37.29-1.15L207.83-17l-1.13-.83L206-20.27l-17-4.27,7.66-15.59,3.4-6.92,1.33.38,2.11-3.49,4.43-5.22,2.47-3.78,1-2.59-4.16-1.15,9.92-16.9-94-64.69L27.9-204.85,10.11-177.93l-12.57,19.5L-7-151.35-40.18-98.68-55.61-75l1.91,1.21,1.75,1.08L-70.59-42.83l-1-.65L-95.46-4.7l-2.63-1.84L-107.74,9l.4.85-3.09,5.54-.87.15-3.15,5.64-5.23,10.43-4.19-2.25-4.26,8.74L-131.06,44l-3.57,7.28,3.87,2.2L-148.9,90.41l4,2-5.87,11.68,0,.26-2,13.76-1.85,12.54-5,29.68,2.25.36.68.1.45.4.1.74-1.24,9.59.43.07-.5,3.27-.78-.1-1.52,9.89-.37.34-.43.19-2.84-.41-.52,2.45.25.1-5,23.07-.33,2,.16,12.15.8,34.93.37,21.44.51,14.13-.21.92.91,13.61,1.79,23.16-9.34.7-.55,0-.51-.14-30-16.54-10.76-5.94-.89,4.33-.11.53-1.42,7.15-.11.54,0,.21.08,7.41.06,7.64,8.22-.12,23.64,13.15-.4,1.49.34.39.46.51.35.7.31.81.13.8,0,.52-.05.66-.21.82-.64,1.22-.71.77-1,.71-.87.32-.68.14-.74,0h-.67l-.62-.14-.22-.14-.85,1.35-23.89-13.23,13.29,71.09,4.63,24.09,3.86,19.6.85,4.72.27,1.4,2.95,14.5.75,4.14.39,1.79,1.9,3,4.35,6.59,3,4.27,6.84,7.86ZM55.72-51.75l-1.29,1.91-.07,1L53.19-47l.28,1.06L53-44.55,51.48-44,50.23-42.8l.22,1.52-.89.89-1.81-.43-.25-1.52,0-1.82,1.25-2.59,2.06-2.52,1.41-1.64,2.44-2.81,1-.8.51.68Z"/></g></g></g><path id="clip" class="cls-6" d="M984.65,1434.39a531.55,531.55,0,0,1-100.87-9.85c-79.2-15.35-130-36.6-169.77-71.06-43.11-37.32-67.56-86.25-90.81-137.32l-2.92-6.39-1.75-6.8c-17.19-66.69-16.31-135.49-15.46-202,.55-42.61,1.06-82.85-3.42-117.77-1.35-10.5-8.86-40.73-49.43-94.59-28.12-37.32-65.73-77.24-105.9-112.38l-3.18-2.78c-47.23-41.34-81.36-71.21-115.69-89.51-32.77-17.47-68-24.92-117.71-24.92-2.7,0-5.49,0-8.27.07-1.38,0-2.79,0-4.16,0h0c-99.33,0-187.87-58-231.1-151.33C-60.13,355.27-67.93,296-58.37,236.47-48.32,173.85-18.8,112.22,27,58.24l3.9-4.59,4.54-4c33.47-29.17,64.36-48,97.19-59.25C163.05-20,191.05-22.73,220.7-25.63c14.75-1.45,30-2.94,47.61-5.51l16.14-2.4c97.84-14.57,190.26-28.34,281.46-28.34,71.49,0,134,8.68,191.06,26.53,67.13,21,125.91,54.07,179.71,101.14L938,67l1.3,1.24c97.16,93,109.48,107.82,164.83,197.9,49.73,80.94,59.14,96.81,93.46,161.29,19.61,36.84,27.63,49,47,78.5,11,16.69,26,39.54,48,74.37l1.87,3c60.59,95.93,112.92,178.78,151.65,299.28,17.53,54.54,35.66,137.19,22.45,221.13-14.6,92.8-64.37,168.53-143.94,219-58.51,37.12-113.49,64.13-168.06,82.58C1098.55,1424.86,1042.31,1434.39,984.65,1434.39Z"/></g></svg>